<?xml version="1.0" encoding="utf-8"?><!DOCTYPE svg PUBLIC "-//W3C//DTD SVG 1.1//EN" "http://www.w3.org/Graphics/SVG/1.1/DTD/svg11.dtd"><svg xmlns="http://www.w3.org/2000/svg" viewBox="0 0 137 137" shape-rendering="crispEdges"><path fill="#ffffff" d="M0 0h137v137H0z"/><path stroke="#000000" d="M4 4.5h7m1 0h4m1 0h1m1 0h2m1 0h2m1 0h1m1 0h1m4 0h6m5 0h1m2 0h4m1 0h1m4 0h1m1 0h1m2 0h3m2 0h1m2 0h1m2 0h2m1 0h2m2 0h2m2 0h1m3 0h1m1 0h4m1 0h1m3 0h1m1 0h2m1 0h1m4 0h4m1 0h3m1 0h2m2 0h1m1 0h1m2 0h7M4 5.5h1m5 0h1m1 0h1m1 0h5m3 0h1m1 0h1m1 0h1m1 0h1m1 0h1m1 0h2m2 0h2m1 0h1m1 0h2m1 0h6m1 0h3m1 0h1m2 0h3m2 0h1m2 0h4m2 0h2m2 0h2m4 0h1m1 0h3m2 0h1m1 0h2m2 0h2m1 0h2m2 0h2m1 0h2m1 0h1m6 0h4m3 0h2m2 0h1m5 0h1M4 6.5h1m1 0h3m1 0h1m3 0h1m2 0h2m2 0h1m1 0h1m2 0h1m1 0h3m1 0h2m1 0h3m3 0h1m3 0h2m1 0h2m5 0h1m1 0h2m1 0h2m1 0h1m3 0h1m1 0h4m1 0h1m1 0h2m1 0h2m2 0h3m1 0h4m2 0h1m5 0h1m1 0h1m1 0h6m2 0h1m2 0h2m1 0h1m1 0h1m6 0h1m1 0h3m1 0h1M4 7.5h1m1 0h3m1 0h1m1 0h2m1 0h4m2 0h1m1 0h1m1 0h1m1 0h1m2 0h2m1 0h2m2 0h1m3 0h1m2 0h3m1 0h2m1 0h1m2 0h2m1 0h2m2 0h1m2 0h1m2 0h1m2 0h5m1 0h1m5 0h2m1 0h2m4 0h3m1 0h1m1 0h4m1 0h3m5 0h1m1 0h3m3 0h1m4 0h2m1 0h1m1 0h3m1 0h1M4 8.5h1m1 0h3m1 0h1m3 0h2m1 0h3m2 0h2m4 0h5m1 0h3m4 0h1m2 0h2m1 0h1m1 0h1m2 0h5m2 0h2m1 0h1m3 0h4m1 0h1m4 0h7m1 0h1m1 0h2m4 0h1m2 0h2m3 0h7m3 0h1m1 0h2m1 0h3m1 0h2m3 0h1m1 0h1m1 0h3m1 0h1M4 9.5h1m5 0h1m3 0h2m1 0h2m1 0h4m2 0h1m1 0h1m3 0h4m1 0h4m2 0h2m1 0h1m1 0h2m1 0h2m3 0h3m1 0h1m4 0h2m1 0h3m3 0h3m3 0h1m1 0h2m6 0h5m5 0h1m3 0h1m1 0h2m1 0h4m2 0h1m2 0h1m2 0h3m2 0h1m5 0h1M4 10.5h7m1 0h1m1 0h1m1 0h1m1 0h1m1 0h1m1 0h1m1 0h1m1 0h1m1 0h1m1 0h1m1 0h1m1 0h1m1 0h1m1 0h1m1 0h1m1 0h1m1 0h1m1 0h1m1 0h1m1 0h1m1 0h1m1 0h1m1 0h1m1 0h1m1 0h1m1 0h1m1 0h1m1 0h1m1 0h1m1 0h1m1 0h1m1 0h1m1 0h1m1 0h1m1 0h1m1 0h1m1 0h1m1 0h1m1 0h1m1 0h1m1 0h1m1 0h1m1 0h1m1 0h1m1 0h1m1 0h1m1 0h1m1 0h1m1 0h1m1 0h1m1 0h1m1 0h1m1 0h1m1 0h1m1 0h1m1 0h1m1 0h1m1 0h7M12 11.5h3m1 0h1m2 0h1m1 0h3m1 0h2m1 0h1m3 0h2m2 0h1m6 0h4m1 0h2m1 0h2m3 0h4m1 0h1m3 0h1m1 0h1m4 0h1m3 0h1m3 0h1m3 0h3m2 0h1m5 0h1m1 0h1m2 0h1m3 0h1m1 0h4m7 0h4m2 0h2M4 12.5h1m1 0h2m1 0h3m2 0h1m7 0h2m4 0h9m2 0h6m2 0h4m1 0h5m4 0h2m1 0h1m1 0h2m2 0h2m1 0h2m1 0h5m2 0h1m1 0h2m2 0h2m1 0h3m4 0h6m6 0h1m2 0h2m3 0h1m4 0h1m1 0h1m2 0h1m1 0h2M6 13.5h1m1 0h2m1 0h3m1 0h2m1 0h2m1 0h1m1 0h3m5 0h1m6 0h1m3 0h1m2 0h2m3 0h1m1 0h1m3 0h1m1 0h3m1 0h2m7 0h2m2 0h3m1 0h1m1 0h3m2 0h2m5 0h1m2 0h3m1 0h2m2 0h1m1 0h3m9 0h4m2 0h4m1 0h2m1 0h1M7 14.5h4m1 0h5m1 0h5m4 0h1m3 0h3m1 0h3m2 0h4m2 0h2m1 0h1m2 0h3m1 0h2m1 0h4m1 0h2m1 0h1m2 0h1m4 0h2m1 0h2m2 0h1m1 0h1m5 0h1m1 0h3m1 0h3m1 0h2m1 0h1m6 0h1m2 0h2m1 0h3m1 0h3m2 0h2m1 0h3M6 15.5h2m1 0h1m2 0h1m2 0h3m1 0h1m1 0h1m2 0h4m2 0h3m1 0h2m1 0h6m1 0h2m1 0h2m1 0h1m1 0h4m10 0h2m4 0h3m1 0h2m1 0h2m4 0h2m2 0h1m4 0h2m1 0h5m1 0h4m2 0h1m3 0h1m1 0h4m1 0h1m2 0h2m3 0h1M5 16.5h2m1 0h4m2 0h7m7 0h1m1 0h3m1 0h2m3 0h1m1 0h4m2 0h2m1 0h1m2 0h1m2 0h3m3 0h6m1 0h2m3 0h1m3 0h2m7 0h1m1 0h1m1 0h3m1 0h2m3 0h1m1 0h1m2 0h2m1 0h2m1 0h1m1 0h1m2 0h1m1 0h1m1 0h2m1 0h1m4 0h2m1 0h1M5 17.5h3m1 0h1m1 0h2m2 0h2m1 0h1m1 0h3m1 0h2m1 0h1m3 0h1m1 0h2m1 0h4m1 0h1m1 0h1m1 0h1m1 0h1m1 0h1m1 0h3m2 0h3m1 0h4m1 0h1m2 0h4m4 0h2m3 0h4m4 0h1m2 0h2m7 0h7m2 0h3m1 0h6m2 0h1m2 0h5m1 0h2M4 18.5h4m1 0h2m4 0h3m2 0h3m1 0h3m3 0h1m1 0h1m3 0h1m3 0h4m3 0h2m1 0h1m1 0h3m4 0h1m4 0h2m2 0h2m1 0h3m1 0h4m1 0h2m2 0h5m3 0h1m1 0h1m2 0h4m2 0h1m3 0h1m2 0h1m2 0h1m2 0h3m7 0h1m1 0h2M4 19.5h2m1 0h2m4 0h1m4 0h3m1 0h1m1 0h1m1 0h1m4 0h1m1 0h2m1 0h1m9 0h1m1 0h1m6 0h2m4 0h2m1 0h1m1 0h1m1 0h1m1 0h2m1 0h1m1 0h1m4 0h1m1 0h2m1 0h1m3 0h2m1 0h2m4 0h3m1 0h3m1 0h1m2 0h5m5 0h1m1 0h2m1 0h3m1 0h5M4 20.5h1m1 0h1m1 0h1m1 0h1m1 0h1m1 0h2m1 0h2m1 0h1m2 0h1m2 0h1m4 0h1m1 0h1m3 0h1m3 0h1m6 0h3m6 0h2m3 0h1m2 0h3m2 0h2m1 0h1m5 0h8m2 0h1m5 0h3m6 0h1m2 0h1m5 0h3m2 0h1m2 0h1m1 0h1m2 0h2m1 0h1m2 0h1M4 21.5h2m1 0h1m7 0h1m3 0h5m2 0h1m2 0h2m4 0h1m4 0h1m1 0h2m1 0h2m1 0h3m1 0h4m2 0h2m3 0h1m1 0h2m4 0h5m1 0h2m2 0h2m2 0h2m3 0h1m1 0h1m1 0h1m1 0h4m1 0h2m3 0h2m3 0h2m3 0h4m1 0h2m1 0h1m2 0h1m1 0h4M5 22.5h1m2 0h1m1 0h4m1 0h2m1 0h1m3 0h4m2 0h1m2 0h1m6 0h2m2 0h1m1 0h4m1 0h1m2 0h1m2 0h2m3 0h1m6 0h2m1 0h1m4 0h1m2 0h2m2 0h2m3 0h1m2 0h1m1 0h1m3 0h2m1 0h1m1 0h2m1 0h2m3 0h6m1 0h2m1 0h1m1 0h1m1 0h1m2 0h6M4 23.5h1m1 0h1m5 0h2m1 0h6m1 0h4m2 0h5m1 0h3m1 0h1m1 0h1m1 0h1m1 0h1m1 0h1m1 0h1m2 0h1m2 0h2m1 0h2m1 0h3m2 0h1m4 0h2m3 0h4m1 0h1m3 0h3m3 0h1m1 0h2m5 0h2m5 0h1m1 0h1m1 0h2m1 0h1m3 0h2m1 0h1m2 0h2m3 0h1m2 0h2M4 24.5h10m2 0h4m1 0h3m3 0h2m3 0h4m1 0h5m1 0h2m1 0h2m2 0h4m1 0h3m1 0h3m1 0h1m3 0h2m2 0h1m9 0h1m3 0h2m3 0h2m1 0h1m3 0h3m1 0h1m2 0h2m2 0h4m2 0h3m4 0h1m5 0h1m2 0h1m1 0h1M4 25.5h1m2 0h3m3 0h1m2 0h3m3 0h3m4 0h5m2 0h1m1 0h1m2 0h1m3 0h1m3 0h1m1 0h1m1 0h1m1 0h1m2 0h1m2 0h1m2 0h2m1 0h1m1 0h2m1 0h6m3 0h2m1 0h2m2 0h3m1 0h1m2 0h1m1 0h1m2 0h1m2 0h3m3 0h1m1 0h1m2 0h1m2 0h2m1 0h2m2 0h1m3 0h2M4 26.5h3m2 0h2m3 0h1m1 0h2m1 0h6m1 0h2m1 0h2m1 0h1m1 0h1m1 0h1m4 0h2m3 0h1m4 0h1m1 0h1m1 0h3m4 0h1m2 0h1m4 0h3m3 0h2m1 0h3m2 0h3m3 0h1m2 0h2m1 0h1m1 0h1m1 0h3m1 0h1m2 0h9m1 0h1m1 0h2m3 0h1m1 0h3m1 0h1m1 0h1M7 27.5h2m4 0h1m1 0h1m1 0h1m1 0h3m5 0h1m3 0h3m5 0h2m7 0h2m2 0h1m1 0h1m1 0h4m2 0h1m1 0h3m1 0h2m1 0h1m1 0h6m4 0h2m1 0h1m3 0h1m1 0h2m3 0h4m2 0h6m1 0h7m5 0h5m1 0h4M7 28.5h6m1 0h1m1 0h2m1 0h1m1 0h2m4 0h6m2 0h2m1 0h1m2 0h4m2 0h2m3 0h5m4 0h5m1 0h1m3 0h1m1 0h1m1 0h8m5 0h4m2 0h1m1 0h1m3 0h5m4 0h2m7 0h2m1 0h2m1 0h5M4 29.5h1m1 0h3m3 0h1m2 0h2m1 0h2m1 0h1m1 0h1m2 0h3m3 0h1m1 0h1m2 0h1m2 0h4m2 0h2m1 0h1m2 0h1m3 0h1m1 0h3m1 0h1m2 0h2m1 0h2m2 0h1m3 0h1m3 0h2m1 0h1m1 0h1m3 0h2m1 0h2m2 0h3m1 0h1m3 0h1m4 0h1m1 0h1m1 0h1m2 0h1m1 0h1m1 0h1m1 0h3m3 0h1m2 0h2M6 30.5h3m1 0h1m1 0h1m1 0h1m2 0h1m2 0h4m1 0h4m1 0h1m1 0h4m2 0h4m1 0h3m2 0h2m1 0h2m1 0h1m1 0h1m1 0h1m3 0h1m1 0h5m2 0h4m1 0h1m1 0h1m1 0h1m1 0h4m2 0h3m1 0h1m1 0h5m1 0h1m1 0h1m1 0h1m4 0h1m4 0h5m2 0h1m2 0h1m1 0h1m1 0h2m1 0h1M5 31.5h2m1 0h1m3 0h1m1 0h1m2 0h1m2 0h1m1 0h1m2 0h1m1 0h2m3 0h3m1 0h2m3 0h2m1 0h2m1 0h4m1 0h1m3 0h1m1 0h1m1 0h2m1 0h1m1 0h1m2 0h1m1 0h1m3 0h1m1 0h1m3 0h6m5 0h1m4 0h5m3 0h4m1 0h2m1 0h3m1 0h1m2 0h1m1 0h1m1 0h2m3 0h1m2 0h1M5 32.5h2m1 0h5m1 0h1m2 0h1m1 0h2m3 0h9m1 0h4m1 0h2m1 0h2m3 0h1m1 0h2m1 0h7m1 0h1m2 0h1m2 0h4m1 0h1m2 0h1m1 0h15m2 0h2m2 0h1m1 0h6m1 0h2m3 0h1m1 0h1m1 0h1m7 0h7m2 0h1M4 33.5h2m1 0h1m1 0h1m2 0h3m7 0h1m2 0h2m1 0h1m2 0h3m5 0h1m1 0h1m2 0h1m1 0h2m3 0h2m1 0h1m3 0h1m3 0h1m1 0h2m2 0h1m2 0h2m1 0h2m2 0h1m3 0h2m2 0h1m6 0h3m4 0h1m2 0h1m3 0h3m2 0h1m1 0h1m5 0h2m1 0h1m1 0h1m1 0h1m3 0h2M5 34.5h1m1 0h1m1 0h2m1 0h2m1 0h5m2 0h5m1 0h1m1 0h7m2 0h1m1 0h1m1 0h1m1 0h3m2 0h2m6 0h2m1 0h1m1 0h2m1 0h3m2 0h1m1 0h3m2 0h1m3 0h2m1 0h6m5 0h2m2 0h1m2 0h1m2 0h1m2 0h1m1 0h1m1 0h1m1 0h4m2 0h2m1 0h1m1 0h4m1 0h1M5 35.5h5m2 0h2m3 0h4m2 0h2m2 0h2m1 0h1m3 0h1m1 0h1m1 0h1m1 0h5m2 0h2m2 0h3m1 0h2m1 0h2m2 0h2m1 0h2m2 0h3m1 0h2m2 0h1m1 0h2m4 0h1m3 0h2m3 0h1m1 0h2m1 0h3m2 0h1m1 0h1m2 0h1m1 0h1m5 0h1m1 0h2m4 0h2m1 0h2M5 36.5h2m1 0h3m1 0h1m1 0h1m3 0h1m1 0h1m1 0h1m1 0h2m5 0h1m2 0h4m2 0h2m1 0h7m1 0h2m1 0h1m5 0h1m1 0h2m2 0h1m4 0h4m2 0h1m4 0h1m4 0h1m4 0h1m2 0h1m2 0h1m2 0h2m1 0h2m1 0h1m1 0h6m2 0h5m5 0h2m3 0h1M5 37.5h3m3 0h1m1 0h8m1 0h4m1 0h1m1 0h2m4 0h1m1 0h1m3 0h1m1 0h1m1 0h4m2 0h2m2 0h2m1 0h1m1 0h4m2 0h4m1 0h1m5 0h1m1 0h1m2 0h2m7 0h1m2 0h2m1 0h2m1 0h1m2 0h2m1 0h1m2 0h1m1 0h1m3 0h1m4 0h4m2 0h1m1 0h1M5 38.5h3m1 0h2m3 0h2m2 0h1m2 0h1m2 0h1m1 0h3m4 0h1m1 0h2m1 0h1m2 0h1m1 0h1m2 0h1m3 0h1m1 0h1m1 0h1m1 0h2m8 0h1m1 0h1m2 0h3m3 0h1m3 0h2m1 0h1m3 0h2m7 0h1m1 0h3m2 0h2m1 0h2m1 0h2m1 0h3m1 0h4m4 0h3m1 0h1m1 0h1M4 39.5h6m3 0h2m2 0h2m1 0h1m2 0h1m3 0h3m2 0h2m1 0h1m1 0h1m1 0h5m9 0h3m6 0h6m2 0h1m1 0h1m2 0h1m4 0h1m2 0h1m3 0h1m1 0h4m2 0h1m1 0h3m1 0h1m2 0h1m1 0h1m2 0h1m1 0h1m1 0h2m2 0h1m2 0h3m1 0h1m1 0h1m1 0h1m3 0h1M4 40.5h2m2 0h3m3 0h2m1 0h3m3 0h4m6 0h1m1 0h1m2 0h1m2 0h5m2 0h2m1 0h3m1 0h1m2 0h2m1 0h1m2 0h1m1 0h1m1 0h3m5 0h4m2 0h1m1 0h3m1 0h2m2 0h1m3 0h4m1 0h4m4 0h5m1 0h3m2 0h3m1 0h1m2 0h2m1 0h1m1 0h1M7 41.5h1m1 0h1m1 0h1m1 0h1m1 0h2m1 0h3m2 0h2m2 0h1m1 0h1m4 0h1m1 0h1m2 0h5m1 0h1m4 0h1m3 0h1m3 0h1m1 0h2m1 0h1m1 0h1m2 0h1m3 0h2m3 0h1m1 0h1m1 0h1m1 0h2m2 0h3m5 0h1m1 0h4m2 0h3m2 0h2m1 0h1m1 0h1m1 0h2m1 0h1m6 0h1m1 0h1m2 0h3M4 42.5h3m1 0h3m1 0h2m3 0h1m2 0h1m2 0h1m3 0h2m2 0h10m1 0h3m1 0h2m3 0h1m1 0h4m3 0h1m4 0h3m3 0h4m2 0h1m2 0h1m2 0h5m1 0h8m1 0h4m1 0h1m1 0h1m4 0h6m1 0h1m1 0h3m1 0h4m1 0h2m1 0h2M4 43.5h1m2 0h2m4 0h3m3 0h1m4 0h2m4 0h4m3 0h1m1 0h5m1 0h2m1 0h3m6 0h1m3 0h4m2 0h1m4 0h2m1 0h2m5 0h1m1 0h2m1 0h2m3 0h2m1 0h1m1 0h1m2 0h1m1 0h2m2 0h1m1 0h1m2 0h2m8 0h1m1 0h4m5 0h1M5 44.5h1m4 0h2m2 0h3m1 0h9m1 0h2m2 0h2m1 0h1m1 0h2m3 0h1m1 0h1m1 0h1m3 0h3m2 0h2m2 0h1m1 0h4m5 0h1m1 0h2m1 0h1m1 0h2m4 0h3m2 0h2m1 0h1m2 0h3m3 0h1m2 0h1m1 0h1m2 0h6m1 0h1m1 0h1m1 0h3m3 0h2m4 0h2M6 45.5h4m2 0h1m5 0h2m2 0h1m4 0h4m3 0h1m3 0h3m1 0h4m2 0h1m1 0h1m1 0h2m1 0h1m1 0h1m1 0h2m3 0h2m2 0h2m2 0h5m4 0h2m2 0h2m1 0h1m3 0h1m1 0h2m1 0h2m2 0h1m1 0h3m1 0h3m6 0h1m4 0h1m6 0h1m2 0h1M4 46.5h1m1 0h5m1 0h2m3 0h2m2 0h6m9 0h5m1 0h1m3 0h6m2 0h2m1 0h1m1 0h2m1 0h2m2 0h4m1 0h1m5 0h2m1 0h1m1 0h1m1 0h2m1 0h1m1 0h2m1 0h1m3 0h2m2 0h1m1 0h3m1 0h3m3 0h3m1 0h1m1 0h1m3 0h1m4 0h1m1 0h1M8 47.5h2m1 0h3m4 0h1m2 0h4m2 0h5m1 0h1m1 0h3m3 0h5m1 0h1m1 0h1m1 0h1m5 0h4m1 0h4m1 0h4m1 0h2m2 0h1m2 0h1m2 0h1m4 0h3m1 0h1m1 0h4m1 0h1m2 0h1m3 0h2m2 0h2m1 0h1m1 0h2m1 0h1m1 0h1m1 0h1m2 0h5m3 0h1M6 48.5h1m3 0h1m1 0h7m1 0h2m4 0h1m3 0h2m1 0h4m1 0h2m3 0h1m2 0h4m2 0h1m1 0h2m1 0h1m1 0h1m1 0h4m3 0h6m1 0h2m2 0h1m1 0h2m3 0h2m3 0h4m1 0h1m1 0h1m4 0h1m2 0h3m2 0h3m1 0h3m1 0h1m1 0h1m1 0h2m2 0h1m2 0h1m1 0h1M4 49.5h3m1 0h2m5 0h2m1 0h4m2 0h5m1 0h2m3 0h5m1 0h3m3 0h1m3 0h3m1 0h1m1 0h2m1 0h1m1 0h1m3 0h3m2 0h3m3 0h5m1 0h2m3 0h2m1 0h3m1 0h4m1 0h4m1 0h1m3 0h1m4 0h2m1 0h2m1 0h2m1 0h2m2 0h1m1 0h1M4 50.5h1m2 0h5m1 0h1m2 0h2m2 0h1m1 0h2m1 0h1m2 0h1m2 0h2m1 0h2m3 0h1m1 0h1m1 0h1m1 0h2m1 0h1m2 0h1m4 0h7m3 0h2m2 0h7m1 0h1m3 0h1m1 0h1m1 0h1m1 0h4m1 0h2m1 0h1m1 0h1m3 0h4m2 0h1m1 0h3m1 0h2m1 0h4m6 0h2m3 0h1M5 51.5h1m1 0h2m3 0h1m2 0h1m3 0h2m1 0h1m2 0h3m1 0h3m1 0h1m1 0h2m3 0h2m1 0h1m1 0h3m2 0h1m1 0h1m1 0h1m1 0h1m1 0h1m4 0h2m1 0h1m2 0h2m3 0h1m2 0h1m2 0h5m1 0h1m4 0h1m4 0h2m3 0h1m2 0h1m3 0h1m1 0h1m3 0h1m3 0h3m1 0h3m1 0h2m2 0h2M5 52.5h2m1 0h5m1 0h1m3 0h3m2 0h1m2 0h7m2 0h2m1 0h4m4 0h1m1 0h9m4 0h2m2 0h1m1 0h1m3 0h4m1 0h8m1 0h1m1 0h4m7 0h1m1 0h5m1 0h1m1 0h1m1 0h1m1 0h1m2 0h1m3 0h2m2 0h7m2 0h1M4 53.5h1m1 0h1m1 0h1m3 0h1m2 0h5m2 0h1m4 0h2m3 0h4m5 0h1m1 0h1m1 0h2m2 0h2m1 0h1m3 0h1m4 0h1m1 0h3m6 0h1m1 0h1m1 0h1m3 0h2m2 0h2m1 0h1m2 0h1m1 0h3m5 0h1m3 0h4m1 0h1m1 0h1m5 0h2m5 0h1m3 0h3M6 54.5h1m1 0h1m1 0h1m1 0h1m1 0h2m1 0h2m2 0h8m1 0h1m1 0h2m1 0h1m1 0h1m3 0h1m3 0h2m2 0h1m2 0h1m1 0h1m1 0h1m6 0h1m3 0h3m3 0h1m1 0h2m1 0h1m1 0h1m4 0h2m2 0h4m3 0h1m1 0h1m1 0h1m1 0h1m1 0h3m1 0h1m1 0h1m8 0h2m1 0h1m1 0h1m1 0h1m1 0h1m1 0h1m1 0h1M4 55.5h1m2 0h2m3 0h2m1 0h4m3 0h1m1 0h1m1 0h3m3 0h4m1 0h5m1 0h1m3 0h2m1 0h1m1 0h1m3 0h1m3 0h1m4 0h3m2 0h1m3 0h1m1 0h1m3 0h2m7 0h1m1 0h4m1 0h3m1 0h1m3 0h1m1 0h1m1 0h1m2 0h1m1 0h1m3 0h1m2 0h1m1 0h1m1 0h1m3 0h1m1 0h1m1 0h1M4 56.5h2m1 0h6m1 0h2m1 0h1m2 0h2m1 0h1m2 0h7m1 0h1m2 0h1m2 0h2m4 0h3m1 0h8m1 0h9m1 0h1m1 0h2m2 0h7m2 0h1m3 0h3m1 0h1m2 0h2m1 0h1m1 0h7m2 0h3m1 0h1m1 0h1m1 0h6m1 0h6M4 57.5h3m1 0h2m1 0h1m4 0h2m2 0h4m1 0h2m1 0h2m2 0h1m3 0h1m1 0h1m2 0h4m6 0h1m1 0h1m3 0h3m1 0h2m2 0h1m3 0h1m2 0h1m1 0h1m5 0h1m5 0h4m2 0h2m1 0h3m1 0h2m1 0h1m1 0h3m3 0h5m1 0h1m14 0h1M5 58.5h3m1 0h5m3 0h4m1 0h2m1 0h1m3 0h2m4 0h1m2 0h1m5 0h1m3 0h2m1 0h2m2 0h1m1 0h1m2 0h4m2 0h4m5 0h2m1 0h1m1 0h1m1 0h1m3 0h3m4 0h1m1 0h2m1 0h3m2 0h1m5 0h1m1 0h5m2 0h2m3 0h3m2 0h1m1 0h3M5 59.5h4m2 0h1m2 0h8m2 0h4m1 0h7m4 0h2m1 0h4m6 0h1m2 0h3m3 0h1m1 0h1m1 0h1m1 0h1m1 0h1m1 0h1m1 0h2m1 0h3m1 0h1m1 0h4m1 0h1m4 0h2m1 0h2m2 0h1m1 0h1m1 0h2m2 0h2m3 0h1m1 0h2m1 0h2m2 0h1m4 0h1m3 0h2M6 60.5h2m1 0h5m2 0h1m1 0h3m1 0h1m3 0h2m2 0h4m2 0h1m4 0h2m8 0h2m3 0h1m2 0h1m1 0h1m3 0h1m1 0h1m2 0h1m2 0h1m2 0h1m3 0h2m1 0h2m5 0h1m2 0h1m2 0h1m1 0h4m1 0h1m3 0h2m2 0h1m3 0h1m1 0h1m1 0h4m4 0h1m4 0h1M4 61.5h3m1 0h1m4 0h2m2 0h2m3 0h1m1 0h3m5 0h1m2 0h1m1 0h1m2 0h1m1 0h1m2 0h1m1 0h1m1 0h1m2 0h1m2 0h1m2 0h1m2 0h1m3 0h3m1 0h1m2 0h1m1 0h3m1 0h1m5 0h1m1 0h1m1 0h2m3 0h1m1 0h4m1 0h4m1 0h3m4 0h1m1 0h3m1 0h2m1 0h2m2 0h1m1 0h2m2 0h2M7 62.5h1m2 0h2m2 0h2m1 0h1m1 0h1m1 0h4m1 0h3m1 0h1m1 0h4m2 0h1m2 0h2m1 0h4m4 0h1m3 0h3m1 0h1m1 0h2m2 0h1m1 0h3m1 0h1m5 0h2m1 0h3m2 0h1m5 0h1m2 0h1m1 0h1m1 0h3m1 0h1m1 0h1m2 0h1m2 0h3m1 0h1m3 0h2m2 0h4m1 0h3M5 63.5h2m2 0h1m1 0h6m1 0h4m1 0h10m1 0h1m1 0h1m1 0h1m1 0h1m2 0h1m3 0h1m1 0h4m1 0h2m2 0h2m1 0h5m2 0h1m2 0h1m1 0h3m1 0h1m2 0h1m1 0h2m8 0h7m2 0h1m4 0h2m1 0h1m1 0h1m1 0h1m1 0h1m2 0h2m1 0h1m1 0h2m1 0h2m1 0h2M4 64.5h7m2 0h1m1 0h7m3 0h3m1 0h3m2 0h1m2 0h1m3 0h1m2 0h2m3 0h4m1 0h2m1 0h1m1 0h3m1 0h2m1 0h1m2 0h3m2 0h4m1 0h1m2 0h2m1 0h5m2 0h2m1 0h1m2 0h1m4 0h1m1 0h2m1 0h4m4 0h1m3 0h2m1 0h1m2 0h3m2 0h1M4 65.5h1m1 0h3m2 0h1m1 0h1m1 0h5m3 0h1m1 0h1m1 0h3m3 0h1m6 0h1m3 0h3m2 0h2m1 0h1m1 0h4m1 0h1m1 0h5m1 0h2m1 0h2m3 0h4m2 0h1m1 0h1m1 0h2m1 0h3m3 0h2m7 0h2m2 0h1m4 0h1m1 0h1m2 0h1m1 0h4m2 0h2m5 0h1M4 66.5h3m2 0h2m2 0h1m1 0h4m1 0h2m2 0h3m2 0h2m1 0h3m2 0h2m2 0h1m1 0h1m6 0h1m1 0h1m2 0h1m1 0h5m1 0h1m2 0h3m2 0h1m1 0h1m1 0h2m4 0h1m5 0h1m1 0h2m1 0h4m2 0h1m2 0h4m1 0h2m1 0h1m2 0h2m1 0h1m1 0h2m2 0h1m1 0h1m3 0h1m4 0h1M5 67.5h1m1 0h2m3 0h1m1 0h4m2 0h1m1 0h1m2 0h1m2 0h1m1 0h4m1 0h1m1 0h2m1 0h3m1 0h5m3 0h1m1 0h4m4 0h1m1 0h2m1 0h6m1 0h1m1 0h4m4 0h2m3 0h1m1 0h2m1 0h1m2 0h1m1 0h1m4 0h2m1 0h4m2 0h2m1 0h2m2 0h2m2 0h1m6 0h1M4 68.5h1m1 0h9m2 0h1m1 0h1m2 0h1m1 0h2m1 0h1m1 0h1m1 0h3m2 0h1m5 0h1m4 0h1m3 0h1m1 0h5m4 0h1m1 0h3m2 0h5m1 0h4m1 0h3m1 0h2m1 0h1m3 0h2m2 0h2m2 0h3m1 0h1m1 0h4m1 0h4m5 0h5m2 0h3m3 0h1M4 69.5h1m2 0h1m4 0h2m2 0h7m5 0h1m1 0h2m2 0h1m1 0h1m1 0h2m1 0h1m2 0h1m1 0h1m7 0h1m1 0h2m1 0h1m2 0h2m2 0h1m1 0h3m3 0h3m1 0h4m1 0h3m3 0h1m3 0h1m4 0h2m1 0h1m2 0h2m5 0h1m2 0h1m1 0h5m1 0h2m2 0h4m1 0h2M4 70.5h7m1 0h4m4 0h1m2 0h5m3 0h1m4 0h1m2 0h1m1 0h7m1 0h2m1 0h2m4 0h1m4 0h1m1 0h3m2 0h2m3 0h3m1 0h1m1 0h3m1 0h3m2 0h1m1 0h4m1 0h2m1 0h8m1 0h1m1 0h1m1 0h1m1 0h2m1 0h1m2 0h3m1 0h3m2 0h3M4 71.5h2m1 0h2m2 0h3m4 0h2m1 0h1m4 0h1m2 0h1m1 0h1m1 0h4m3 0h1m10 0h2m5 0h1m1 0h1m3 0h1m1 0h1m4 0h3m4 0h1m3 0h1m1 0h2m1 0h2m1 0h1m2 0h2m1 0h1m1 0h1m1 0h1m2 0h1m1 0h1m1 0h1m1 0h1m1 0h2m1 0h1m2 0h1m4 0h9M4 72.5h2m2 0h3m1 0h1m4 0h1m4 0h1m3 0h1m1 0h1m1 0h2m2 0h1m1 0h2m4 0h2m2 0h1m1 0h1m7 0h1m1 0h1m1 0h2m6 0h1m3 0h1m2 0h1m1 0h2m1 0h1m2 0h7m1 0h1m1 0h2m1 0h1m1 0h1m1 0h1m2 0h1m1 0h2m2 0h4m1 0h1m3 0h2m2 0h1m2 0h2M8 73.5h2m1 0h2m2 0h3m3 0h4m3 0h1m1 0h1m3 0h1m1 0h1m2 0h1m1 0h1m1 0h1m1 0h1m1 0h3m3 0h2m1 0h1m1 0h1m1 0h2m2 0h3m1 0h4m2 0h3m6 0h1m1 0h1m1 0h1m3 0h1m1 0h1m4 0h4m3 0h2m5 0h1m1 0h1m1 0h1m1 0h1m2 0h2m1 0h1m3 0h3M4 74.5h1m2 0h1m1 0h2m4 0h2m1 0h2m1 0h1m4 0h1m1 0h1m1 0h2m4 0h3m1 0h4m1 0h1m2 0h1m1 0h1m1 0h3m1 0h1m1 0h3m2 0h1m2 0h6m1 0h2m1 0h1m1 0h1m1 0h1m9 0h1m2 0h1m2 0h1m1 0h1m4 0h1m4 0h2m3 0h1m1 0h1m3 0h1m2 0h1m1 0h2m1 0h1m2 0h1M4 75.5h1m4 0h1m2 0h2m1 0h5m1 0h2m2 0h2m1 0h1m3 0h3m4 0h3m1 0h4m1 0h2m1 0h4m1 0h2m1 0h1m2 0h1m2 0h2m2 0h2m1 0h5m1 0h1m3 0h3m6 0h1m3 0h1m2 0h2m2 0h9m1 0h2m2 0h1m2 0h2m4 0h4M6 76.5h1m1 0h8m12 0h5m1 0h2m1 0h4m2 0h6m1 0h8m2 0h3m1 0h4m1 0h1m3 0h9m1 0h1m1 0h1m2 0h1m1 0h1m2 0h1m5 0h6m1 0h2m2 0h3m1 0h1m2 0h3m2 0h8M6 77.5h1m1 0h1m3 0h2m3 0h4m3 0h2m2 0h1m3 0h3m2 0h1m3 0h1m4 0h1m3 0h3m3 0h1m2 0h1m1 0h7m3 0h2m3 0h1m3 0h7m1 0h1m3 0h1m1 0h3m1 0h1m1 0h1m3 0h4m2 0h1m1 0h6m2 0h3m1 0h1m3 0h1m3 0h1M4 78.5h1m1 0h3m1 0h1m1 0h3m1 0h1m1 0h1m1 0h1m1 0h2m1 0h1m2 0h1m1 0h1m1 0h2m2 0h1m3 0h1m1 0h1m1 0h3m1 0h1m1 0h3m1 0h1m1 0h2m1 0h1m1 0h1m1 0h1m2 0h2m3 0h1m1 0h2m1 0h1m1 0h1m1 0h1m1 0h2m1 0h5m2 0h2m1 0h1m2 0h1m1 0h1m1 0h1m1 0h1m1 0h3m1 0h1m1 0h1m3 0h4m4 0h1m1 0h1m1 0h2m2 0h1M5 79.5h1m1 0h2m3 0h1m1 0h1m1 0h3m3 0h3m1 0h3m3 0h5m1 0h5m2 0h2m1 0h1m1 0h1m1 0h1m3 0h1m1 0h2m3 0h1m5 0h1m3 0h1m2 0h1m3 0h1m1 0h2m2 0h1m8 0h1m3 0h2m3 0h1m1 0h4m2 0h1m1 0h3m1 0h2m1 0h1m1 0h2m3 0h1m1 0h2M8 80.5h6m1 0h1m1 0h2m3 0h2m2 0h1m1 0h6m1 0h1m2 0h3m2 0h1m1 0h2m1 0h1m2 0h8m2 0h1m4 0h5m1 0h1m2 0h7m1 0h2m1 0h2m2 0h4m2 0h2m2 0h7m2 0h1m1 0h2m2 0h2m4 0h1m1 0h8m1 0h1M5 81.5h3m1 0h1m1 0h3m2 0h2m3 0h1m1 0h1m2 0h6m5 0h2m1 0h2m1 0h1m1 0h1m1 0h2m3 0h1m2 0h1m1 0h1m7 0h1m2 0h1m2 0h1m1 0h1m2 0h3m1 0h1m1 0h3m2 0h2m3 0h2m1 0h1m1 0h1m1 0h1m1 0h1m1 0h1m1 0h3m3 0h2m1 0h3m1 0h1m1 0h2m2 0h2m1 0h2m2 0h1M5 82.5h2m2 0h4m1 0h1m1 0h2m1 0h2m2 0h1m1 0h1m1 0h1m2 0h2m1 0h1m1 0h1m3 0h1m2 0h2m3 0h4m2 0h3m1 0h1m3 0h1m2 0h1m3 0h3m13 0h2m3 0h2m1 0h1m1 0h1m1 0h3m1 0h2m1 0h4m1 0h2m1 0h6m3 0h1m3 0h1m1 0h4m1 0h2M5 83.5h1m1 0h3m1 0h1m1 0h1m3 0h2m2 0h1m1 0h1m1 0h1m1 0h2m6 0h2m1 0h1m2 0h2m2 0h3m1 0h1m2 0h1m1 0h1m2 0h1m2 0h1m2 0h1m3 0h1m2 0h1m2 0h1m6 0h2m3 0h2m1 0h4m1 0h2m1 0h3m2 0h1m3 0h1m2 0h1m1 0h2m3 0h2m1 0h2m1 0h4m3 0h5M5 84.5h1m2 0h6m4 0h2m1 0h2m1 0h1m2 0h2m1 0h2m3 0h5m3 0h3m1 0h2m1 0h4m1 0h1m3 0h2m1 0h1m2 0h1m1 0h1m4 0h1m1 0h4m5 0h5m1 0h1m4 0h2m2 0h1m3 0h5m2 0h3m1 0h2m2 0h1m3 0h1m2 0h1m3 0h2M12 85.5h9m6 0h1m1 0h1m1 0h4m1 0h4m1 0h2m1 0h2m3 0h1m2 0h9m5 0h4m3 0h2m3 0h2m2 0h2m10 0h3m2 0h2m1 0h3m1 0h1m2 0h1m2 0h1m1 0h1m1 0h1m4 0h2m1 0h5m1 0h2M7 86.5h2m1 0h2m1 0h2m2 0h2m1 0h1m2 0h2m1 0h1m1 0h2m3 0h3m1 0h1m2 0h1m2 0h3m3 0h2m2 0h4m1 0h2m6 0h2m2 0h1m3 0h1m1 0h1m3 0h1m1 0h1m1 0h1m6 0h1m1 0h2m1 0h1m3 0h5m1 0h2m1 0h1m1 0h1m2 0h1m4 0h1m1 0h1m2 0h1m2 0h1m1 0h1m1 0h1M7 87.5h1m1 0h1m1 0h6m2 0h1m5 0h1m1 0h1m1 0h1m2 0h1m3 0h1m2 0h2m1 0h1m1 0h1m1 0h1m1 0h3m2 0h1m3 0h1m1 0h1m1 0h1m3 0h1m1 0h3m1 0h1m1 0h1m1 0h1m2 0h1m1 0h7m1 0h2m1 0h1m2 0h1m1 0h1m1 0h1m8 0h3m3 0h1m4 0h6m1 0h2m1 0h2m2 0h1M4 88.5h3m1 0h5m1 0h1m1 0h2m2 0h1m1 0h2m3 0h1m4 0h1m3 0h2m3 0h2m1 0h3m1 0h1m1 0h4m1 0h1m4 0h1m3 0h1m2 0h1m2 0h1m2 0h1m2 0h1m1 0h3m1 0h1m2 0h2m1 0h1m2 0h2m4 0h1m1 0h1m2 0h1m1 0h2m5 0h1m2 0h3m1 0h3m3 0h1m4 0h2M5 89.5h1m2 0h1m3 0h3m7 0h3m1 0h3m2 0h3m2 0h4m4 0h1m1 0h3m1 0h1m2 0h1m2 0h1m3 0h3m2 0h4m1 0h1m1 0h3m1 0h1m1 0h2m4 0h3m3 0h2m1 0h1m3 0h1m1 0h3m1 0h1m1 0h1m1 0h1m2 0h1m3 0h2m4 0h3m1 0h1m1 0h1m1 0h4M5 90.5h1m1 0h1m1 0h3m1 0h1m1 0h1m1 0h1m1 0h1m1 0h3m1 0h3m4 0h1m1 0h2m2 0h1m2 0h2m2 0h1m2 0h1m2 0h2m2 0h4m4 0h1m1 0h1m2 0h1m2 0h2m1 0h1m2 0h1m10 0h1m2 0h2m1 0h2m1 0h3m5 0h2m1 0h1m3 0h3m2 0h3m1 0h3m4 0h1m2 0h2M6 91.5h2m1 0h1m2 0h4m4 0h2m3 0h3m1 0h3m1 0h1m2 0h3m4 0h9m3 0h4m1 0h5m2 0h2m1 0h3m2 0h4m1 0h1m5 0h2m3 0h3m1 0h1m1 0h1m2 0h1m9 0h1m6 0h7m1 0h1M8 92.5h3m3 0h1m3 0h2m1 0h2m1 0h1m3 0h5m2 0h1m1 0h2m1 0h1m4 0h1m1 0h4m1 0h1m3 0h5m1 0h3m1 0h2m4 0h1m1 0h2m1 0h2m1 0h2m3 0h1m2 0h3m3 0h1m2 0h1m1 0h1m1 0h2m2 0h1m1 0h1m1 0h2m6 0h1m1 0h2m3 0h2m2 0h2m1 0h2M5 93.5h1m2 0h1m2 0h1m1 0h4m4 0h2m2 0h1m1 0h2m1 0h1m1 0h1m1 0h2m1 0h1m1 0h1m2 0h1m1 0h1m1 0h1m1 0h4m2 0h1m1 0h2m3 0h2m1 0h2m2 0h1m1 0h2m1 0h2m2 0h1m2 0h2m2 0h1m4 0h2m3 0h1m1 0h2m4 0h1m2 0h1m1 0h1m2 0h3m4 0h2m1 0h1m1 0h1m3 0h2m2 0h1M4 94.5h1m1 0h3m1 0h1m4 0h4m1 0h1m1 0h1m2 0h2m2 0h3m1 0h3m1 0h1m1 0h3m1 0h2m1 0h1m1 0h4m2 0h1m1 0h1m2 0h2m1 0h2m2 0h1m3 0h1m6 0h4m3 0h3m2 0h2m2 0h1m1 0h1m3 0h2m6 0h1m1 0h1m2 0h1m1 0h2m1 0h1m1 0h3m2 0h4m2 0h2M6 95.5h3m2 0h1m3 0h1m1 0h1m1 0h3m1 0h3m3 0h3m6 0h1m2 0h2m4 0h1m2 0h1m1 0h3m3 0h1m3 0h5m2 0h1m4 0h2m4 0h2m2 0h1m2 0h1m2 0h1m2 0h2m2 0h3m1 0h3m1 0h1m1 0h3m7 0h1m3 0h2m5 0h2m1 0h2M4 96.5h1m3 0h3m4 0h1m2 0h1m1 0h1m2 0h1m1 0h5m3 0h4m1 0h3m1 0h2m2 0h1m1 0h1m1 0h2m1 0h1m1 0h1m1 0h1m1 0h1m2 0h1m4 0h4m5 0h4m2 0h2m3 0h6m1 0h1m7 0h2m2 0h1m2 0h1m2 0h2m2 0h6m3 0h2m1 0h1m2 0h1M4 97.5h1m1 0h1m1 0h1m4 0h6m1 0h2m1 0h3m1 0h2m1 0h1m1 0h2m12 0h4m5 0h4m2 0h1m1 0h2m2 0h2m2 0h3m1 0h7m4 0h1m1 0h1m1 0h2m3 0h3m1 0h2m1 0h1m2 0h5m2 0h1m2 0h1m6 0h4m1 0h1m1 0h1m2 0h1M4 98.5h1m2 0h1m2 0h1m1 0h2m1 0h2m6 0h1m2 0h3m1 0h2m1 0h6m1 0h1m1 0h3m7 0h1m2 0h5m2 0h1m3 0h1m1 0h3m1 0h1m1 0h1m1 0h1m2 0h1m1 0h3m1 0h1m2 0h2m2 0h1m3 0h3m1 0h1m1 0h1m1 0h3m1 0h1m3 0h1m5 0h1m1 0h2m1 0h1m4 0h3M5 99.5h1m2 0h1m2 0h1m3 0h3m1 0h2m2 0h2m2 0h1m2 0h4m1 0h1m2 0h6m2 0h1m1 0h1m2 0h3m7 0h3m4 0h2m1 0h2m1 0h2m2 0h2m1 0h4m1 0h1m4 0h1m2 0h1m3 0h1m2 0h1m1 0h3m1 0h1m4 0h2m2 0h2m5 0h3m1 0h6M4 100.5h9m1 0h2m1 0h2m3 0h1m4 0h9m1 0h1m1 0h1m3 0h1m1 0h1m2 0h2m1 0h6m1 0h1m1 0h4m1 0h2m3 0h2m3 0h6m1 0h2m1 0h1m2 0h3m1 0h7m1 0h5m3 0h2m3 0h3m1 0h3m1 0h1m2 0h5m1 0h1m1 0h1M4 101.5h5m3 0h1m2 0h1m3 0h1m1 0h1m2 0h5m3 0h2m4 0h2m2 0h1m2 0h8m3 0h1m2 0h4m2 0h4m2 0h3m2 0h1m3 0h2m2 0h1m2 0h1m4 0h1m1 0h2m1 0h1m2 0h1m3 0h2m2 0h1m1 0h4m1 0h1m3 0h1m1 0h2m1 0h1m3 0h1m3 0h1M4 102.5h1m2 0h2m1 0h1m1 0h1m2 0h4m2 0h1m1 0h1m1 0h2m1 0h1m1 0h1m1 0h1m2 0h1m1 0h1m1 0h2m1 0h1m2 0h3m2 0h1m1 0h1m1 0h1m1 0h4m1 0h7m1 0h6m1 0h1m1 0h1m1 0h1m2 0h3m2 0h2m1 0h3m3 0h2m1 0h1m1 0h1m1 0h3m1 0h2m2 0h9m2 0h2m1 0h1m1 0h2m1 0h1M4 103.5h1m3 0h1m3 0h3m1 0h4m1 0h2m1 0h2m2 0h1m3 0h2m2 0h3m1 0h4m2 0h2m4 0h1m3 0h1m1 0h2m1 0h1m1 0h2m1 0h1m1 0h9m3 0h1m1 0h5m1 0h1m4 0h1m1 0h1m2 0h1m1 0h1m3 0h2m1 0h4m1 0h1m1 0h1m1 0h1m1 0h1m1 0h1m3 0h1m3 0h4M4 104.5h1m3 0h5m1 0h1m1 0h1m2 0h3m1 0h1m1 0h2m1 0h10m1 0h1m1 0h1m2 0h2m1 0h4m1 0h5m1 0h3m1 0h1m3 0h6m1 0h1m1 0h7m4 0h2m2 0h2m8 0h5m1 0h1m1 0h2m6 0h2m1 0h1m2 0h9m1 0h1M4 105.5h1m4 0h1m2 0h1m1 0h2m1 0h3m1 0h1m3 0h1m1 0h1m1 0h1m3 0h4m2 0h1m1 0h3m3 0h2m1 0h3m2 0h3m5 0h5m1 0h3m1 0h2m1 0h2m2 0h2m1 0h2m4 0h6m1 0h1m1 0h1m2 0h2m1 0h4m2 0h1m2 0h1m1 0h1m2 0h3m4 0h1m1 0h1m3 0h1M6 106.5h2m2 0h6m3 0h1m4 0h3m1 0h4m1 0h1m1 0h1m2 0h2m2 0h4m1 0h5m2 0h2m1 0h1m1 0h2m1 0h1m2 0h3m4 0h2m1 0h2m2 0h2m1 0h1m2 0h1m1 0h2m8 0h1m1 0h1m3 0h4m3 0h1m1 0h1m3 0h2m4 0h1m1 0h4m1 0h2M4 107.5h5m3 0h1m1 0h3m2 0h1m2 0h1m4 0h1m3 0h1m5 0h4m1 0h1m2 0h1m2 0h1m1 0h1m1 0h3m1 0h2m3 0h1m1 0h1m2 0h1m2 0h1m2 0h1m1 0h1m5 0h5m2 0h1m1 0h2m1 0h2m5 0h1m2 0h6m2 0h2m1 0h5m3 0h2m1 0h6M8 108.5h1m1 0h3m1 0h1m1 0h2m5 0h5m9 0h5m2 0h1m4 0h1m1 0h1m2 0h3m2 0h1m2 0h2m1 0h1m1 0h1m2 0h2m5 0h4m1 0h1m5 0h1m2 0h2m3 0h3m1 0h5m7 0h2m5 0h1m2 0h1m1 0h1m3 0h1m2 0h1M5 109.5h1m1 0h1m1 0h1m1 0h3m1 0h1m1 0h1m3 0h1m1 0h1m1 0h2m1 0h2m3 0h2m5 0h3m1 0h2m6 0h1m1 0h2m1 0h2m1 0h2m1 0h2m1 0h1m1 0h1m3 0h3m5 0h3m2 0h2m1 0h1m1 0h1m1 0h1m3 0h1m1 0h6m2 0h2m3 0h2m1 0h1m1 0h1m1 0h1m2 0h1m2 0h1m1 0h1m4 0h1M4 110.5h4m2 0h3m3 0h6m2 0h1m3 0h1m2 0h1m2 0h1m1 0h2m3 0h1m2 0h1m3 0h1m1 0h2m1 0h1m1 0h1m3 0h1m1 0h3m2 0h5m1 0h2m1 0h1m1 0h1m5 0h4m2 0h2m3 0h4m2 0h2m1 0h4m2 0h3m3 0h2m1 0h1m3 0h1m2 0h1m2 0h2M4 111.5h1m1 0h1m1 0h2m3 0h1m1 0h4m1 0h1m1 0h1m1 0h3m2 0h4m1 0h1m3 0h1m3 0h4m1 0h2m2 0h1m5 0h1m2 0h2m1 0h1m1 0h1m4 0h2m1 0h2m2 0h1m3 0h1m1 0h2m4 0h1m1 0h1m1 0h3m4 0h1m2 0h1m2 0h1m2 0h1m4 0h1m1 0h1m1 0h2m1 0h3m1 0h3m2 0h3M5 112.5h2m2 0h2m1 0h1m3 0h4m1 0h4m5 0h1m1 0h2m3 0h2m1 0h4m1 0h1m1 0h1m2 0h1m6 0h2m2 0h1m1 0h1m2 0h2m1 0h3m3 0h1m1 0h3m1 0h2m3 0h1m1 0h2m1 0h4m1 0h1m5 0h3m2 0h2m2 0h2m9 0h1m1 0h7M4 113.5h2m1 0h1m3 0h3m3 0h2m1 0h1m1 0h1m1 0h1m4 0h1m1 0h2m1 0h1m3 0h5m2 0h2m1 0h1m3 0h2m1 0h1m1 0h2m1 0h1m6 0h1m1 0h1m1 0h2m4 0h3m1 0h1m2 0h1m5 0h1m1 0h2m2 0h3m2 0h2m1 0h1m1 0h2m1 0h2m4 0h4m2 0h1m1 0h2m1 0h2m1 0h1m2 0h1M4 114.5h1m2 0h1m2 0h1m2 0h6m2 0h2m2 0h1m2 0h1m2 0h3m2 0h3m2 0h1m2 0h2m4 0h3m2 0h2m1 0h3m2 0h1m1 0h2m1 0h2m1 0h3m4 0h1m2 0h1m1 0h1m1 0h1m1 0h1m2 0h2m1 0h1m3 0h2m3 0h3m2 0h1m7 0h1m4 0h1m1 0h1m4 0h4M5 115.5h2m5 0h3m6 0h2m6 0h3m2 0h1m1 0h2m2 0h2m2 0h1m6 0h1m4 0h2m3 0h3m1 0h2m1 0h1m2 0h2m3 0h1m2 0h1m1 0h1m2 0h2m2 0h1m1 0h1m3 0h3m2 0h4m2 0h1m2 0h1m1 0h2m1 0h1m2 0h1m2 0h1m2 0h3m2 0h1m3 0h2M7 116.5h1m2 0h4m4 0h1m3 0h1m1 0h1m3 0h1m3 0h1m5 0h1m6 0h1m1 0h7m2 0h5m5 0h1m1 0h2m3 0h1m1 0h1m1 0h4m8 0h1m4 0h1m1 0h3m2 0h3m3 0h1m1 0h1m1 0h6m1 0h1m1 0h2m2 0h5m1 0h3M8 117.5h1m3 0h1m5 0h4m1 0h2m2 0h4m1 0h2m3 0h2m1 0h2m4 0h2m1 0h1m1 0h1m1 0h1m2 0h1m1 0h2m2 0h1m1 0h2m5 0h1m8 0h2m1 0h1m1 0h5m1 0h3m1 0h3m4 0h2m5 0h2m2 0h1m5 0h1m4 0h1m1 0h1m3 0h2M4 118.5h1m4 0h2m2 0h1m3 0h2m2 0h1m2 0h2m3 0h1m1 0h1m3 0h3m2 0h3m2 0h8m3 0h1m3 0h1m1 0h1m1 0h2m2 0h3m1 0h7m1 0h1m1 0h3m2 0h1m2 0h1m1 0h3m4 0h1m1 0h4m2 0h1m3 0h3m1 0h1m5 0h1m1 0h5m1 0h2M4 119.5h1m4 0h1m4 0h1m2 0h2m1 0h1m1 0h2m2 0h2m1 0h4m2 0h2m1 0h2m2 0h2m1 0h5m1 0h2m1 0h4m1 0h1m2 0h2m2 0h2m2 0h4m3 0h4m4 0h1m1 0h1m1 0h2m4 0h1m1 0h2m2 0h3m1 0h7m1 0h1m2 0h1m2 0h1m4 0h1m1 0h1m2 0h1m1 0h2M6 120.5h2m2 0h4m2 0h3m2 0h2m2 0h1m2 0h3m1 0h1m6 0h2m2 0h1m1 0h5m3 0h2m1 0h6m3 0h4m1 0h1m1 0h1m1 0h1m4 0h1m1 0h1m2 0h1m3 0h1m1 0h5m7 0h2m3 0h1m2 0h1m2 0h1m2 0h2m3 0h1m1 0h3m1 0h3M4 121.5h1m2 0h1m1 0h1m4 0h1m2 0h1m2 0h3m1 0h2m1 0h1m1 0h1m1 0h11m2 0h1m2 0h1m2 0h1m5 0h2m2 0h1m1 0h1m2 0h2m3 0h1m1 0h1m3 0h1m1 0h1m1 0h1m1 0h1m1 0h1m2 0h3m1 0h2m1 0h1m1 0h1m2 0h2m1 0h1m1 0h1m2 0h2m1 0h2m2 0h3m4 0h1m2 0h1m5 0h3M5 122.5h1m3 0h3m2 0h2m1 0h2m1 0h1m3 0h6m1 0h1m1 0h2m1 0h1m5 0h2m3 0h1m1 0h3m1 0h2m2 0h2m1 0h1m2 0h1m3 0h1m3 0h1m2 0h1m1 0h1m1 0h1m1 0h1m2 0h2m2 0h3m3 0h3m1 0h2m1 0h2m4 0h4m1 0h2m1 0h1m2 0h4m1 0h1m1 0h3m1 0h2M4 123.5h2m1 0h1m1 0h1m1 0h1m3 0h1m2 0h3m1 0h2m1 0h1m3 0h3m1 0h1m1 0h1m3 0h4m2 0h2m1 0h1m2 0h1m1 0h2m2 0h3m2 0h2m1 0h1m1 0h2m5 0h3m1 0h1m1 0h1m2 0h1m2 0h1m1 0h4m1 0h1m4 0h1m1 0h2m2 0h1m1 0h1m1 0h1m2 0h1m1 0h1m1 0h1m1 0h1m1 0h1m3 0h2m2 0h2m1 0h3M7 124.5h2m1 0h1m1 0h1m4 0h2m1 0h1m1 0h1m2 0h8m2 0h1m2 0h1m1 0h2m3 0h1m2 0h1m1 0h9m2 0h1m6 0h2m1 0h1m2 0h10m1 0h1m2 0h1m1 0h2m1 0h2m1 0h1m2 0h7m3 0h3m1 0h4m1 0h2m1 0h8m2 0h2M12 125.5h2m1 0h4m6 0h1m2 0h1m3 0h1m3 0h1m1 0h2m2 0h2m1 0h1m1 0h3m2 0h1m3 0h1m1 0h1m4 0h5m3 0h1m1 0h1m1 0h2m3 0h1m7 0h1m1 0h2m1 0h1m1 0h2m3 0h1m3 0h1m1 0h2m1 0h3m2 0h2m4 0h1m2 0h2m3 0h2m1 0h1M4 126.5h7m1 0h1m1 0h1m12 0h2m1 0h1m1 0h3m1 0h1m3 0h2m2 0h1m2 0h2m3 0h1m1 0h1m1 0h3m2 0h2m2 0h1m1 0h2m1 0h2m2 0h1m1 0h1m1 0h1m1 0h1m1 0h3m1 0h1m2 0h2m1 0h2m1 0h1m1 0h1m2 0h1m1 0h1m1 0h5m1 0h4m1 0h1m1 0h1m1 0h1m2 0h3m1 0h1m1 0h1m1 0h3M4 127.5h1m5 0h1m1 0h2m1 0h1m1 0h1m1 0h1m2 0h3m3 0h1m3 0h1m1 0h2m1 0h1m2 0h1m2 0h2m2 0h1m2 0h3m3 0h5m4 0h2m4 0h2m3 0h1m3 0h2m2 0h1m1 0h3m4 0h3m1 0h1m2 0h1m3 0h1m1 0h2m2 0h4m2 0h1m1 0h1m3 0h1m1 0h1m3 0h1m1 0h1M4 128.5h1m1 0h3m1 0h1m2 0h7m8 0h6m1 0h1m1 0h2m1 0h3m2 0h5m1 0h7m1 0h4m3 0h2m4 0h1m1 0h1m1 0h7m1 0h2m3 0h1m3 0h1m1 0h1m1 0h1m1 0h9m1 0h1m4 0h3m2 0h2m1 0h7m3 0h1M4 129.5h1m1 0h3m1 0h1m1 0h5m2 0h2m1 0h2m1 0h1m2 0h1m1 0h3m2 0h1m3 0h4m1 0h2m4 0h1m1 0h2m1 0h1m1 0h1m1 0h3m2 0h3m1 0h1m1 0h1m1 0h2m2 0h2m1 0h1m3 0h4m2 0h2m1 0h4m2 0h1m1 0h1m3 0h1m1 0h2m2 0h4m4 0h1m2 0h1m1 0h1m1 0h1m1 0h2m2 0h1M4 130.5h1m1 0h3m1 0h1m1 0h3m2 0h2m2 0h1m2 0h7m1 0h2m3 0h4m1 0h4m2 0h1m2 0h5m2 0h2m4 0h1m1 0h2m2 0h1m1 0h3m1 0h1m1 0h2m1 0h3m2 0h1m5 0h4m1 0h2m2 0h1m7 0h1m2 0h1m2 0h1m2 0h4m2 0h1m1 0h1m1 0h3M4 131.5h1m5 0h1m2 0h1m1 0h2m1 0h3m1 0h2m1 0h1m1 0h1m2 0h1m4 0h1m1 0h2m1 0h3m3 0h1m3 0h4m3 0h3m1 0h1m3 0h2m2 0h3m2 0h6m5 0h1m1 0h1m2 0h5m1 0h5m3 0h3m1 0h7m1 0h1m1 0h1m4 0h2m7 0h1M4 132.5h7m1 0h1m1 0h1m3 0h1m1 0h2m1 0h3m1 0h7m4 0h5m2 0h1m2 0h3m4 0h2m1 0h1m2 0h1m1 0h3m5 0h2m1 0h1m1 0h2m4 0h1m1 0h2m1 0h8m2 0h9m1 0h2m1 0h1m2 0h1m1 0h2m4 0h2m1 0h1m1 0h4"/></svg>
