<?xml version="1.0" encoding="utf-8"?><!DOCTYPE svg PUBLIC "-//W3C//DTD SVG 1.1//EN" "http://www.w3.org/Graphics/SVG/1.1/DTD/svg11.dtd"><svg xmlns="http://www.w3.org/2000/svg" viewBox="0 0 165 165" shape-rendering="crispEdges"><path fill="#ffffff" d="M0 0h165v165H0z"/><path stroke="#000000" d="M4 4.5h7m1 0h2m3 0h1m1 0h2m4 0h1m3 0h1m1 0h4m1 0h2m3 0h1m4 0h3m1 0h1m1 0h1m1 0h2m3 0h1m1 0h1m5 0h3m2 0h1m1 0h2m1 0h3m1 0h1m1 0h4m2 0h2m1 0h1m2 0h1m3 0h1m1 0h1m1 0h2m1 0h2m3 0h1m1 0h2m1 0h3m1 0h2m1 0h1m1 0h1m1 0h2m1 0h7m1 0h1m2 0h3m1 0h2m3 0h3m1 0h7M4 5.5h1m5 0h1m1 0h2m1 0h2m2 0h1m2 0h1m1 0h3m5 0h1m2 0h2m2 0h1m1 0h2m3 0h3m5 0h4m1 0h2m1 0h1m1 0h1m1 0h2m2 0h2m1 0h1m5 0h1m2 0h3m2 0h2m1 0h2m2 0h1m8 0h1m2 0h1m2 0h2m2 0h1m6 0h1m2 0h5m3 0h3m5 0h1m1 0h1m2 0h1m1 0h1m2 0h3m2 0h1m5 0h1M4 6.5h1m1 0h3m1 0h1m1 0h1m1 0h2m2 0h2m3 0h1m4 0h1m2 0h1m2 0h1m4 0h1m2 0h5m1 0h3m1 0h1m3 0h2m1 0h5m1 0h1m2 0h1m1 0h2m6 0h3m1 0h1m1 0h3m2 0h3m2 0h1m2 0h1m1 0h6m1 0h1m1 0h2m1 0h6m1 0h2m1 0h1m1 0h2m2 0h2m4 0h1m2 0h1m5 0h2m1 0h2m2 0h1m1 0h2m1 0h1m1 0h3m1 0h1M4 7.5h1m1 0h3m1 0h1m2 0h2m1 0h2m2 0h2m2 0h1m1 0h6m2 0h1m1 0h3m1 0h1m2 0h2m1 0h2m1 0h4m4 0h4m3 0h3m1 0h1m1 0h1m1 0h3m5 0h1m1 0h2m1 0h2m2 0h1m1 0h1m5 0h1m1 0h2m3 0h1m1 0h1m2 0h2m2 0h1m3 0h4m2 0h2m1 0h1m1 0h1m1 0h1m3 0h1m4 0h4m1 0h1m1 0h1m1 0h1m1 0h2m2 0h1m1 0h3m1 0h1M4 8.5h1m1 0h3m1 0h1m1 0h1m1 0h1m2 0h1m3 0h1m1 0h1m3 0h4m1 0h6m1 0h1m1 0h1m1 0h3m2 0h4m4 0h6m2 0h2m1 0h2m2 0h2m1 0h1m1 0h3m1 0h5m1 0h1m1 0h2m1 0h1m1 0h5m1 0h1m2 0h1m1 0h6m2 0h5m1 0h3m1 0h2m1 0h8m1 0h1m1 0h1m4 0h1m2 0h2m2 0h4m2 0h1m1 0h3m1 0h1M4 9.5h1m5 0h1m2 0h2m1 0h3m3 0h1m2 0h3m2 0h3m3 0h1m1 0h1m2 0h3m1 0h2m8 0h2m3 0h2m1 0h4m1 0h2m1 0h1m2 0h3m3 0h1m3 0h3m1 0h1m1 0h6m2 0h3m3 0h1m3 0h4m2 0h2m1 0h2m2 0h1m3 0h1m2 0h1m3 0h1m1 0h1m1 0h2m1 0h2m4 0h2m1 0h1m3 0h1m1 0h1m5 0h1M4 10.5h7m1 0h1m1 0h1m1 0h1m1 0h1m1 0h1m1 0h1m1 0h1m1 0h1m1 0h1m1 0h1m1 0h1m1 0h1m1 0h1m1 0h1m1 0h1m1 0h1m1 0h1m1 0h1m1 0h1m1 0h1m1 0h1m1 0h1m1 0h1m1 0h1m1 0h1m1 0h1m1 0h1m1 0h1m1 0h1m1 0h1m1 0h1m1 0h1m1 0h1m1 0h1m1 0h1m1 0h1m1 0h1m1 0h1m1 0h1m1 0h1m1 0h1m1 0h1m1 0h1m1 0h1m1 0h1m1 0h1m1 0h1m1 0h1m1 0h1m1 0h1m1 0h1m1 0h1m1 0h1m1 0h1m1 0h1m1 0h1m1 0h1m1 0h1m1 0h1m1 0h1m1 0h1m1 0h1m1 0h1m1 0h1m1 0h1m1 0h1m1 0h1m1 0h1m1 0h1m1 0h1m1 0h1m1 0h7M13 11.5h1m1 0h1m1 0h1m1 0h1m3 0h1m7 0h2m3 0h3m1 0h1m1 0h1m1 0h4m1 0h4m2 0h2m3 0h2m1 0h1m2 0h1m1 0h4m1 0h1m1 0h2m1 0h3m3 0h1m3 0h1m6 0h1m1 0h2m3 0h1m1 0h1m3 0h1m1 0h2m2 0h1m1 0h6m2 0h1m1 0h1m1 0h1m3 0h2m1 0h1m1 0h3m1 0h3m3 0h2m3 0h1M4 12.5h1m2 0h11m1 0h5m3 0h1m4 0h5m2 0h2m1 0h1m1 0h1m2 0h2m2 0h4m1 0h5m3 0h2m1 0h4m1 0h2m1 0h1m2 0h8m1 0h4m4 0h1m1 0h1m1 0h1m1 0h1m2 0h5m2 0h1m1 0h1m1 0h1m2 0h1m1 0h4m2 0h7m1 0h2m1 0h2m2 0h1m1 0h1m1 0h2m2 0h5m2 0h1m1 0h3M5 13.5h1m1 0h3m1 0h5m1 0h2m3 0h1m2 0h10m2 0h2m3 0h5m1 0h2m2 0h2m4 0h1m2 0h2m1 0h4m1 0h1m3 0h2m2 0h1m1 0h3m5 0h2m1 0h1m5 0h2m2 0h2m4 0h5m2 0h1m3 0h1m1 0h3m1 0h1m1 0h5m1 0h4m1 0h3m3 0h2m1 0h2m1 0h3m1 0h1m2 0h4m1 0h1M6 14.5h3m1 0h5m1 0h1m4 0h2m1 0h1m2 0h3m4 0h7m1 0h3m1 0h2m1 0h5m8 0h1m1 0h1m4 0h4m4 0h1m1 0h1m1 0h2m1 0h4m2 0h1m1 0h1m1 0h2m1 0h1m1 0h1m3 0h5m2 0h2m2 0h3m2 0h2m1 0h8m1 0h1m2 0h1m1 0h1m1 0h2m1 0h4m2 0h2m1 0h2m3 0h1m1 0h2m1 0h1M4 15.5h2m5 0h2m2 0h2m1 0h2m1 0h2m1 0h2m1 0h1m1 0h1m3 0h4m1 0h3m3 0h1m2 0h1m2 0h1m1 0h1m1 0h6m1 0h2m2 0h1m1 0h2m3 0h1m7 0h3m2 0h1m1 0h2m4 0h1m2 0h1m1 0h4m1 0h2m2 0h1m2 0h1m4 0h2m1 0h1m3 0h2m1 0h2m1 0h5m2 0h3m4 0h2m1 0h4m1 0h1m1 0h2m1 0h1m2 0h2M6 16.5h2m1 0h2m9 0h2m2 0h1m3 0h1m1 0h1m1 0h2m1 0h5m1 0h1m2 0h2m2 0h3m2 0h1m5 0h1m1 0h2m1 0h1m2 0h1m2 0h1m3 0h1m3 0h1m2 0h1m1 0h1m3 0h4m1 0h1m1 0h1m2 0h6m3 0h1m1 0h10m4 0h1m2 0h12m2 0h3m3 0h1m1 0h1m1 0h2m1 0h2m1 0h4M5 17.5h2m1 0h2m1 0h1m2 0h1m1 0h1m2 0h1m1 0h1m1 0h3m1 0h1m6 0h1m1 0h2m1 0h3m4 0h1m9 0h4m1 0h2m2 0h1m4 0h3m4 0h1m1 0h3m1 0h2m3 0h2m1 0h1m1 0h2m6 0h2m5 0h2m2 0h3m4 0h1m1 0h1m4 0h2m2 0h1m2 0h1m1 0h1m1 0h1m1 0h1m6 0h1m7 0h2m3 0h2M6 18.5h1m1 0h1m1 0h5m2 0h1m2 0h1m2 0h1m3 0h4m1 0h1m2 0h1m1 0h1m3 0h1m1 0h2m9 0h1m2 0h1m1 0h1m2 0h2m1 0h1m1 0h3m1 0h2m4 0h4m2 0h1m1 0h2m1 0h2m1 0h2m4 0h4m4 0h3m1 0h4m1 0h1m4 0h1m1 0h1m1 0h1m1 0h2m2 0h1m1 0h1m1 0h2m1 0h1m4 0h1m2 0h3m2 0h1m1 0h1m2 0h2m1 0h4M6 19.5h1m1 0h2m3 0h1m1 0h1m8 0h2m1 0h1m2 0h2m2 0h4m1 0h5m1 0h3m3 0h2m3 0h4m1 0h4m2 0h1m1 0h1m3 0h2m2 0h1m1 0h3m2 0h3m1 0h1m1 0h4m1 0h1m1 0h1m1 0h1m1 0h1m1 0h1m1 0h4m1 0h1m1 0h4m2 0h1m5 0h1m2 0h1m2 0h4m1 0h2m3 0h1m1 0h2m1 0h1m2 0h1m3 0h2m2 0h1m1 0h1M6 20.5h1m3 0h1m1 0h4m2 0h1m1 0h1m6 0h3m1 0h1m3 0h1m1 0h2m1 0h1m1 0h1m1 0h1m4 0h1m4 0h2m1 0h6m1 0h4m1 0h1m4 0h2m1 0h1m1 0h4m1 0h1m7 0h1m2 0h1m1 0h1m2 0h1m2 0h3m1 0h4m2 0h1m6 0h1m1 0h2m2 0h7m3 0h1m1 0h1m3 0h2m3 0h5m1 0h2m1 0h2m1 0h1M4 21.5h1m1 0h1m1 0h1m2 0h3m1 0h1m3 0h2m2 0h8m5 0h1m1 0h1m3 0h2m2 0h6m1 0h1m1 0h1m4 0h1m1 0h5m2 0h1m2 0h1m3 0h1m2 0h1m1 0h7m3 0h2m3 0h2m3 0h2m3 0h1m1 0h2m1 0h1m1 0h1m1 0h1m4 0h3m1 0h2m1 0h1m1 0h2m1 0h1m4 0h2m1 0h1m1 0h7m1 0h1m3 0h1m2 0h2M7 22.5h1m2 0h2m2 0h1m1 0h1m1 0h1m3 0h2m1 0h2m1 0h1m2 0h5m1 0h4m2 0h5m1 0h2m3 0h3m1 0h3m2 0h3m1 0h2m2 0h1m3 0h1m3 0h6m1 0h1m4 0h2m5 0h2m1 0h3m2 0h1m1 0h4m2 0h2m1 0h2m4 0h1m1 0h2m1 0h5m1 0h1m2 0h2m5 0h3m2 0h1m2 0h2m1 0h1m1 0h1m1 0h1M4 23.5h1m2 0h1m1 0h1m1 0h2m1 0h1m1 0h2m1 0h1m5 0h3m1 0h1m2 0h3m2 0h2m1 0h3m1 0h3m3 0h2m1 0h2m4 0h3m2 0h1m9 0h2m2 0h1m1 0h1m1 0h1m3 0h1m2 0h2m2 0h1m1 0h2m4 0h1m2 0h1m3 0h2m8 0h2m1 0h5m1 0h1m1 0h3m1 0h1m3 0h3m1 0h2m3 0h1m2 0h1m1 0h2m3 0h1m1 0h1m1 0h1M9 24.5h5m4 0h4m1 0h2m1 0h1m2 0h1m1 0h3m4 0h1m2 0h2m2 0h1m2 0h2m5 0h3m1 0h1m1 0h3m2 0h1m1 0h1m1 0h2m1 0h1m2 0h1m2 0h2m1 0h2m1 0h3m4 0h1m1 0h1m1 0h1m3 0h4m2 0h2m1 0h1m1 0h1m3 0h5m2 0h3m3 0h3m1 0h2m1 0h4m1 0h1m5 0h1m1 0h2m2 0h1m2 0h1M4 25.5h4m1 0h1m1 0h4m3 0h6m1 0h1m1 0h1m2 0h1m3 0h1m2 0h2m1 0h2m1 0h2m1 0h1m4 0h1m1 0h4m2 0h3m3 0h1m2 0h3m4 0h1m1 0h7m1 0h9m1 0h1m2 0h2m2 0h4m1 0h1m1 0h2m1 0h2m1 0h1m4 0h3m1 0h2m2 0h1m1 0h3m1 0h1m1 0h3m1 0h2m1 0h6m1 0h1m1 0h1m1 0h2m2 0h3M4 26.5h1m3 0h3m1 0h1m1 0h1m1 0h2m1 0h1m1 0h5m3 0h2m1 0h1m1 0h1m3 0h1m1 0h4m2 0h2m2 0h1m1 0h3m1 0h2m1 0h1m3 0h1m1 0h4m5 0h2m3 0h1m4 0h2m3 0h2m1 0h2m1 0h5m2 0h2m2 0h1m1 0h1m2 0h3m1 0h4m3 0h1m1 0h2m1 0h1m3 0h1m1 0h1m1 0h1m3 0h3m1 0h4m1 0h4m1 0h1m3 0h3M4 27.5h1m2 0h1m1 0h1m3 0h1m1 0h2m1 0h2m1 0h1m1 0h3m1 0h5m1 0h1m1 0h2m3 0h1m1 0h1m3 0h4m2 0h5m2 0h3m4 0h3m2 0h1m2 0h4m3 0h1m1 0h1m1 0h5m2 0h1m1 0h1m2 0h1m1 0h1m1 0h1m2 0h4m2 0h3m3 0h2m1 0h4m1 0h1m2 0h1m4 0h1m5 0h1m1 0h5m3 0h2m1 0h2m2 0h1m1 0h2M5 28.5h4m1 0h3m1 0h2m1 0h3m2 0h1m2 0h1m2 0h2m3 0h1m1 0h1m1 0h4m1 0h1m2 0h1m4 0h1m2 0h4m4 0h1m4 0h1m1 0h1m1 0h1m1 0h1m1 0h1m3 0h3m10 0h2m1 0h5m1 0h3m4 0h1m1 0h1m3 0h3m6 0h1m4 0h1m1 0h3m1 0h1m1 0h3m2 0h5m4 0h1m7 0h2m1 0h1M4 29.5h2m1 0h2m3 0h1m1 0h1m2 0h1m1 0h1m2 0h1m1 0h1m1 0h1m3 0h4m3 0h2m2 0h2m1 0h1m1 0h3m2 0h1m2 0h2m1 0h6m4 0h1m1 0h4m1 0h2m6 0h1m1 0h3m1 0h2m1 0h2m1 0h1m4 0h1m1 0h1m1 0h7m2 0h2m2 0h1m1 0h2m1 0h1m5 0h2m1 0h1m3 0h1m2 0h1m2 0h3m1 0h2m5 0h1m1 0h1m2 0h1m1 0h2M4 30.5h1m1 0h2m2 0h1m3 0h4m1 0h1m3 0h3m1 0h2m2 0h5m1 0h5m1 0h1m2 0h4m2 0h1m3 0h2m1 0h2m1 0h1m1 0h2m6 0h1m1 0h2m1 0h1m1 0h3m4 0h2m1 0h1m6 0h2m3 0h4m1 0h1m1 0h3m4 0h2m1 0h1m4 0h1m1 0h2m2 0h1m2 0h3m1 0h1m1 0h1m1 0h1m2 0h2m2 0h4m3 0h1m2 0h1m1 0h2M5 31.5h1m2 0h1m4 0h2m4 0h2m1 0h1m1 0h6m1 0h2m5 0h1m1 0h4m3 0h2m1 0h1m2 0h3m1 0h1m1 0h2m2 0h1m1 0h1m1 0h2m1 0h2m5 0h1m1 0h1m2 0h1m2 0h2m2 0h1m6 0h1m5 0h1m3 0h3m2 0h3m1 0h2m1 0h1m1 0h2m1 0h1m3 0h4m1 0h2m1 0h1m3 0h1m1 0h3m1 0h1m4 0h3m1 0h1m1 0h1m1 0h3M8 32.5h10m1 0h3m1 0h4m2 0h2m1 0h7m2 0h3m3 0h1m4 0h1m2 0h9m1 0h1m1 0h3m2 0h2m1 0h1m1 0h1m1 0h6m1 0h1m1 0h1m1 0h1m1 0h2m1 0h3m1 0h1m1 0h8m4 0h1m2 0h1m1 0h2m1 0h1m1 0h2m2 0h6m1 0h1m1 0h1m3 0h1m1 0h1m3 0h4m1 0h6m1 0h2M4 33.5h5m3 0h3m6 0h3m2 0h1m2 0h1m1 0h2m3 0h4m2 0h5m7 0h3m3 0h3m3 0h3m3 0h2m1 0h1m2 0h3m3 0h1m2 0h2m4 0h1m1 0h3m1 0h2m2 0h2m3 0h2m1 0h1m1 0h3m1 0h6m2 0h2m1 0h1m3 0h2m2 0h3m1 0h3m4 0h1m3 0h2m3 0h1M4 34.5h1m2 0h2m1 0h1m1 0h2m1 0h2m3 0h1m2 0h1m2 0h3m2 0h2m1 0h1m1 0h1m2 0h1m3 0h1m1 0h1m5 0h2m1 0h1m1 0h1m1 0h1m1 0h2m7 0h3m1 0h1m3 0h1m1 0h2m1 0h1m1 0h5m1 0h2m1 0h1m4 0h1m1 0h2m1 0h2m1 0h1m1 0h2m1 0h1m2 0h1m1 0h1m1 0h1m2 0h3m1 0h1m1 0h2m1 0h1m1 0h5m1 0h2m1 0h1m1 0h2m1 0h2m1 0h1m1 0h2m1 0h1m1 0h2m2 0h1M4 35.5h5m3 0h1m3 0h1m4 0h1m2 0h2m1 0h4m1 0h1m3 0h3m1 0h1m1 0h5m2 0h1m1 0h1m1 0h1m1 0h2m3 0h3m1 0h5m1 0h4m1 0h1m1 0h4m3 0h1m1 0h1m1 0h1m1 0h1m1 0h3m1 0h1m2 0h6m3 0h1m2 0h6m1 0h1m1 0h4m1 0h4m3 0h1m1 0h3m2 0h1m1 0h3m2 0h1m2 0h2m1 0h1m3 0h2m1 0h2M5 36.5h2m1 0h5m3 0h1m1 0h1m1 0h1m1 0h1m4 0h1m2 0h7m1 0h1m1 0h2m2 0h2m1 0h1m1 0h6m1 0h9m1 0h4m1 0h1m5 0h1m1 0h8m1 0h2m1 0h1m1 0h2m3 0h2m4 0h6m4 0h2m2 0h2m1 0h4m3 0h9m2 0h1m1 0h1m3 0h2m4 0h8M5 37.5h5m1 0h1m2 0h2m1 0h1m1 0h3m3 0h1m3 0h2m1 0h1m4 0h5m1 0h5m1 0h1m1 0h1m1 0h2m2 0h2m1 0h1m2 0h1m1 0h2m4 0h1m6 0h2m4 0h2m1 0h2m1 0h1m2 0h2m3 0h1m1 0h4m2 0h1m2 0h3m1 0h6m1 0h1m4 0h1m2 0h1m3 0h1m2 0h2m1 0h1m1 0h1m1 0h1m1 0h5m1 0h1m1 0h2m2 0h1m1 0h1M4 38.5h1m2 0h1m1 0h2m1 0h6m2 0h2m2 0h1m1 0h1m2 0h2m2 0h1m1 0h1m1 0h1m5 0h2m1 0h1m1 0h1m2 0h1m1 0h1m1 0h2m1 0h4m3 0h3m2 0h6m1 0h2m1 0h1m7 0h3m1 0h5m1 0h1m1 0h1m5 0h1m1 0h1m1 0h2m1 0h2m2 0h1m2 0h1m1 0h1m1 0h1m1 0h12m1 0h1m2 0h1m1 0h1m6 0h1m1 0h2m1 0h2M4 39.5h1m1 0h2m1 0h1m1 0h1m4 0h1m1 0h1m1 0h2m2 0h3m1 0h1m2 0h2m1 0h1m6 0h1m2 0h1m1 0h1m1 0h1m1 0h1m1 0h2m3 0h1m2 0h1m1 0h3m1 0h1m2 0h1m2 0h1m1 0h2m1 0h1m3 0h1m2 0h1m1 0h1m3 0h1m3 0h2m2 0h1m1 0h1m1 0h3m6 0h1m1 0h1m3 0h1m1 0h1m6 0h1m1 0h1m2 0h1m2 0h6m1 0h3m1 0h1m1 0h1m2 0h1m4 0h1m1 0h1m1 0h2M6 40.5h1m2 0h3m2 0h4m5 0h1m4 0h1m1 0h5m1 0h4m2 0h2m2 0h3m2 0h3m2 0h4m1 0h1m1 0h1m1 0h1m5 0h1m1 0h1m1 0h1m1 0h1m3 0h1m3 0h1m3 0h1m2 0h1m3 0h1m1 0h1m3 0h2m1 0h2m5 0h1m1 0h1m1 0h2m1 0h2m1 0h2m2 0h1m1 0h2m2 0h3m1 0h2m1 0h1m4 0h4m1 0h4m4 0h2M5 41.5h1m2 0h1m2 0h1m3 0h2m1 0h4m3 0h1m1 0h1m1 0h2m1 0h2m2 0h5m1 0h1m2 0h2m1 0h2m3 0h2m1 0h1m1 0h1m1 0h3m1 0h3m4 0h1m1 0h2m2 0h1m2 0h2m1 0h1m2 0h1m3 0h1m1 0h1m1 0h1m1 0h2m3 0h2m3 0h2m1 0h3m2 0h1m1 0h3m5 0h1m2 0h1m1 0h3m2 0h1m7 0h3m1 0h1m1 0h1m2 0h1m2 0h1m2 0h1m1 0h2M5 42.5h2m1 0h1m1 0h3m1 0h1m1 0h1m4 0h1m1 0h1m2 0h3m1 0h2m2 0h1m1 0h1m2 0h1m1 0h3m1 0h3m1 0h1m1 0h1m1 0h1m5 0h2m2 0h2m1 0h4m2 0h3m1 0h1m2 0h2m1 0h2m1 0h3m2 0h3m2 0h2m1 0h1m4 0h1m4 0h4m2 0h2m1 0h1m1 0h2m3 0h2m1 0h4m1 0h4m1 0h1m2 0h2m5 0h3m1 0h2m3 0h1m1 0h1m1 0h1M4 43.5h2m1 0h1m7 0h1m2 0h2m2 0h1m2 0h1m4 0h2m2 0h2m2 0h1m1 0h1m2 0h1m4 0h6m1 0h1m5 0h1m1 0h6m1 0h1m1 0h1m1 0h3m3 0h3m1 0h7m7 0h1m1 0h1m1 0h1m1 0h1m1 0h1m3 0h2m1 0h2m3 0h2m1 0h1m1 0h2m1 0h2m1 0h2m2 0h2m1 0h1m1 0h1m1 0h1m2 0h2m2 0h2m1 0h1m3 0h5m1 0h1M5 44.5h1m1 0h5m1 0h2m2 0h1m1 0h2m2 0h4m2 0h6m5 0h5m1 0h1m1 0h1m6 0h2m1 0h1m5 0h2m2 0h1m4 0h4m2 0h1m1 0h1m2 0h3m2 0h2m1 0h1m2 0h3m4 0h1m2 0h1m2 0h4m1 0h5m2 0h7m2 0h3m1 0h4m1 0h8m4 0h1m2 0h1m4 0h1m1 0h1M5 45.5h1m1 0h3m2 0h1m1 0h1m3 0h1m1 0h1m5 0h3m1 0h1m1 0h1m1 0h2m1 0h1m1 0h2m1 0h1m3 0h1m1 0h2m1 0h3m2 0h1m2 0h3m1 0h1m3 0h1m2 0h1m1 0h3m1 0h1m3 0h3m3 0h2m2 0h1m4 0h1m1 0h1m1 0h2m2 0h2m1 0h2m2 0h2m2 0h1m1 0h3m4 0h1m1 0h4m1 0h2m2 0h2m2 0h1m7 0h1m2 0h1m2 0h3m1 0h3m1 0h1M6 46.5h5m1 0h3m1 0h2m1 0h1m2 0h3m4 0h1m1 0h1m11 0h1m1 0h2m3 0h1m1 0h2m1 0h1m1 0h3m1 0h2m1 0h2m1 0h3m1 0h3m4 0h1m1 0h1m2 0h3m2 0h1m1 0h1m1 0h2m1 0h4m1 0h1m1 0h1m1 0h2m3 0h1m3 0h2m1 0h3m1 0h7m2 0h4m1 0h3m1 0h1m1 0h1m1 0h4m1 0h1m1 0h2m1 0h1m2 0h1m1 0h4M5 47.5h3m1 0h1m1 0h1m3 0h2m1 0h1m2 0h1m1 0h3m1 0h2m3 0h2m1 0h4m1 0h2m1 0h1m1 0h1m2 0h4m1 0h1m7 0h2m2 0h3m4 0h5m1 0h2m3 0h1m1 0h2m1 0h4m1 0h4m3 0h1m1 0h1m2 0h2m4 0h2m5 0h1m1 0h4m1 0h3m6 0h1m4 0h3m1 0h2m1 0h1m2 0h2m4 0h5M4 48.5h5m1 0h1m3 0h2m1 0h1m2 0h1m1 0h1m1 0h1m3 0h1m1 0h1m2 0h1m2 0h1m1 0h4m1 0h3m1 0h3m1 0h3m2 0h4m2 0h1m1 0h2m1 0h2m1 0h3m3 0h2m1 0h2m1 0h1m1 0h1m2 0h1m4 0h5m2 0h1m1 0h2m3 0h3m3 0h2m1 0h2m1 0h4m1 0h1m2 0h10m2 0h3m2 0h1m3 0h3m1 0h1m3 0h1m3 0h2M4 49.5h1m2 0h2m4 0h1m2 0h2m1 0h2m1 0h1m1 0h3m2 0h1m1 0h1m2 0h2m1 0h1m2 0h2m3 0h3m2 0h3m3 0h1m2 0h1m3 0h2m1 0h6m4 0h3m1 0h1m1 0h2m2 0h2m1 0h1m1 0h4m1 0h3m2 0h1m1 0h3m1 0h1m1 0h1m1 0h3m1 0h1m2 0h3m1 0h4m1 0h2m2 0h3m1 0h1m1 0h2m2 0h1m1 0h1m1 0h2m1 0h2m1 0h3m2 0h1m2 0h2M4 50.5h2m1 0h1m2 0h2m3 0h5m1 0h1m3 0h1m1 0h1m2 0h5m10 0h2m5 0h3m1 0h2m1 0h1m1 0h2m4 0h6m1 0h1m1 0h2m1 0h4m1 0h5m1 0h1m2 0h5m1 0h4m4 0h1m1 0h4m2 0h4m1 0h1m2 0h2m2 0h1m2 0h4m1 0h3m3 0h4m1 0h3m4 0h2m1 0h2m1 0h2M4 51.5h2m1 0h2m2 0h3m1 0h1m1 0h1m1 0h2m1 0h2m1 0h2m3 0h1m5 0h2m1 0h3m2 0h1m3 0h4m1 0h2m1 0h1m1 0h2m1 0h1m1 0h1m2 0h5m3 0h4m1 0h1m4 0h4m1 0h1m1 0h1m1 0h2m2 0h2m1 0h2m5 0h2m3 0h1m1 0h2m2 0h2m1 0h1m1 0h3m1 0h2m1 0h1m2 0h1m2 0h2m6 0h1m2 0h2m1 0h1m1 0h1m1 0h1m1 0h1M4 52.5h3m1 0h4m1 0h4m1 0h1m4 0h1m2 0h1m1 0h3m1 0h1m1 0h1m2 0h6m1 0h2m2 0h6m3 0h2m1 0h1m3 0h1m2 0h1m1 0h1m2 0h4m1 0h2m2 0h1m1 0h7m1 0h2m4 0h3m1 0h2m1 0h1m1 0h1m1 0h2m3 0h2m1 0h3m2 0h2m1 0h1m1 0h1m1 0h2m2 0h2m1 0h4m3 0h2m3 0h3m2 0h1m3 0h2m2 0h1M4 53.5h4m3 0h1m3 0h3m2 0h1m4 0h3m1 0h2m2 0h5m1 0h1m1 0h1m1 0h3m4 0h1m2 0h1m2 0h3m5 0h1m2 0h1m3 0h1m3 0h1m2 0h1m1 0h2m1 0h2m1 0h1m2 0h4m3 0h1m2 0h1m2 0h1m1 0h1m3 0h1m1 0h2m3 0h1m1 0h1m1 0h2m4 0h3m2 0h1m1 0h1m5 0h2m1 0h1m2 0h2m3 0h3m1 0h2m1 0h5M4 54.5h2m1 0h1m2 0h2m2 0h7m2 0h2m1 0h6m4 0h1m1 0h2m2 0h2m1 0h1m4 0h1m1 0h1m1 0h1m1 0h1m2 0h2m4 0h2m3 0h1m3 0h1m8 0h1m2 0h3m4 0h5m4 0h3m1 0h3m1 0h1m1 0h2m2 0h5m1 0h3m1 0h1m1 0h1m1 0h2m1 0h3m2 0h1m1 0h2m1 0h2m1 0h1m1 0h2m1 0h4m2 0h2m1 0h1M6 55.5h1m2 0h1m2 0h2m1 0h1m1 0h1m1 0h3m2 0h1m3 0h1m2 0h1m5 0h1m7 0h2m3 0h1m1 0h1m1 0h2m3 0h5m4 0h1m2 0h1m1 0h2m1 0h2m1 0h1m6 0h1m1 0h4m1 0h1m5 0h1m1 0h2m3 0h1m2 0h4m2 0h1m1 0h4m1 0h2m3 0h3m4 0h1m3 0h1m2 0h2m2 0h4m3 0h1m3 0h1M5 56.5h8m2 0h5m1 0h3m5 0h8m2 0h2m1 0h1m1 0h3m1 0h3m1 0h9m6 0h5m1 0h5m2 0h6m6 0h2m6 0h2m1 0h6m2 0h2m2 0h2m1 0h1m1 0h1m1 0h1m1 0h1m2 0h6m1 0h1m3 0h2m9 0h1m1 0h6m1 0h3M4 57.5h1m3 0h1m3 0h1m5 0h2m2 0h2m1 0h5m1 0h2m3 0h2m1 0h1m1 0h2m4 0h4m2 0h1m2 0h1m3 0h2m1 0h3m1 0h4m1 0h2m1 0h1m2 0h1m1 0h1m3 0h1m1 0h10m2 0h2m1 0h1m2 0h1m3 0h1m1 0h1m4 0h2m4 0h1m2 0h2m2 0h1m3 0h2m8 0h2m4 0h2m2 0h1m3 0h1m2 0h1M8 58.5h1m1 0h1m1 0h1m1 0h2m4 0h1m1 0h2m3 0h1m1 0h1m1 0h2m1 0h1m1 0h1m3 0h5m1 0h3m1 0h2m3 0h2m1 0h1m1 0h2m3 0h5m5 0h2m2 0h2m1 0h1m1 0h5m1 0h1m1 0h1m3 0h1m2 0h1m2 0h3m1 0h1m1 0h1m2 0h1m2 0h1m5 0h1m4 0h4m1 0h1m1 0h7m1 0h3m3 0h1m3 0h1m1 0h1m1 0h1m1 0h2m1 0h1M4 59.5h3m1 0h1m3 0h1m2 0h1m2 0h1m1 0h2m1 0h1m3 0h2m1 0h1m1 0h1m3 0h2m2 0h2m1 0h1m1 0h2m1 0h2m1 0h4m1 0h1m3 0h2m1 0h4m2 0h1m2 0h7m1 0h1m3 0h1m3 0h2m3 0h1m1 0h1m1 0h1m2 0h1m1 0h3m3 0h4m3 0h1m1 0h1m1 0h3m1 0h1m3 0h2m3 0h2m3 0h2m2 0h2m1 0h2m1 0h2m1 0h3m3 0h5M4 60.5h3m1 0h8m1 0h3m4 0h1m1 0h4m2 0h5m1 0h4m2 0h4m1 0h1m1 0h1m2 0h8m3 0h3m1 0h2m2 0h1m1 0h3m2 0h6m1 0h1m1 0h3m1 0h4m6 0h6m1 0h1m1 0h1m2 0h2m1 0h2m2 0h2m1 0h1m1 0h6m1 0h2m4 0h2m1 0h1m2 0h2m1 0h2m1 0h8M4 61.5h1m1 0h2m3 0h4m3 0h3m2 0h1m1 0h1m2 0h2m1 0h2m2 0h1m7 0h1m1 0h3m2 0h1m1 0h1m2 0h2m5 0h4m1 0h1m1 0h3m2 0h1m3 0h2m3 0h1m5 0h3m2 0h2m2 0h1m1 0h1m2 0h1m2 0h3m1 0h1m7 0h1m5 0h1m1 0h6m2 0h1m3 0h1m2 0h1m1 0h2m2 0h4m3 0h7M4 62.5h3m3 0h1m2 0h2m1 0h4m1 0h2m2 0h3m5 0h1m1 0h1m2 0h3m1 0h1m1 0h3m2 0h4m2 0h1m1 0h1m1 0h1m3 0h4m1 0h2m4 0h1m3 0h1m6 0h4m1 0h4m2 0h2m4 0h1m1 0h1m3 0h2m8 0h2m1 0h2m1 0h3m1 0h1m1 0h1m1 0h2m4 0h1m1 0h1m3 0h3m1 0h4m2 0h2m1 0h1m1 0h1M4 63.5h2m6 0h2m1 0h2m5 0h1m2 0h1m2 0h4m1 0h1m2 0h9m1 0h6m1 0h2m1 0h2m1 0h2m3 0h1m1 0h1m1 0h2m1 0h1m1 0h1m2 0h1m2 0h2m1 0h1m1 0h2m1 0h2m3 0h1m1 0h1m1 0h1m1 0h2m1 0h2m1 0h5m1 0h1m5 0h1m2 0h1m1 0h5m2 0h3m1 0h1m1 0h1m1 0h4m1 0h1m2 0h1m1 0h1m3 0h9M4 64.5h1m1 0h2m1 0h2m1 0h1m1 0h1m2 0h1m1 0h2m4 0h2m10 0h5m3 0h1m1 0h2m1 0h2m3 0h2m1 0h1m3 0h5m1 0h5m3 0h1m1 0h4m2 0h1m3 0h3m1 0h1m1 0h1m1 0h1m1 0h1m1 0h1m5 0h1m1 0h1m1 0h3m2 0h1m1 0h2m1 0h2m1 0h1m2 0h4m2 0h2m1 0h1m1 0h1m3 0h4m1 0h2m1 0h1m2 0h1m1 0h3m1 0h1M5 65.5h2m1 0h2m1 0h1m2 0h1m1 0h2m1 0h5m2 0h1m2 0h3m1 0h1m1 0h1m3 0h1m1 0h1m2 0h3m1 0h3m1 0h1m1 0h2m1 0h7m2 0h1m1 0h3m2 0h1m2 0h1m2 0h2m3 0h3m5 0h1m3 0h4m1 0h1m1 0h1m4 0h1m2 0h1m1 0h1m2 0h1m2 0h2m2 0h1m1 0h2m2 0h2m1 0h1m2 0h3m2 0h2m1 0h1m1 0h1m1 0h1m1 0h3m6 0h1M5 66.5h1m3 0h2m1 0h3m2 0h3m1 0h1m1 0h1m2 0h5m1 0h4m1 0h1m2 0h1m2 0h2m3 0h1m1 0h1m2 0h4m4 0h3m1 0h2m3 0h4m1 0h1m1 0h1m1 0h2m1 0h6m1 0h10m1 0h1m3 0h1m4 0h1m10 0h1m4 0h1m1 0h6m1 0h1m1 0h4m1 0h5m1 0h2m1 0h3m1 0h1m2 0h1M4 67.5h2m3 0h1m2 0h2m3 0h4m1 0h1m2 0h1m1 0h2m8 0h4m1 0h1m2 0h2m1 0h2m2 0h4m2 0h1m1 0h2m1 0h5m3 0h1m1 0h4m1 0h1m1 0h3m3 0h5m1 0h1m1 0h7m2 0h1m4 0h1m2 0h1m1 0h2m2 0h3m1 0h2m3 0h2m6 0h1m3 0h1m1 0h1m3 0h2m2 0h3m1 0h8M5 68.5h1m4 0h1m1 0h1m4 0h1m1 0h3m1 0h1m2 0h1m1 0h3m2 0h2m2 0h1m3 0h2m1 0h1m1 0h1m3 0h2m2 0h1m1 0h3m2 0h1m2 0h3m3 0h1m1 0h1m1 0h3m5 0h1m2 0h1m4 0h1m1 0h1m1 0h1m1 0h5m1 0h1m3 0h2m1 0h1m1 0h1m3 0h3m1 0h1m1 0h1m1 0h2m1 0h7m4 0h2m2 0h1m2 0h1m2 0h2m3 0h1m4 0h4M5 69.5h2m6 0h3m3 0h4m2 0h1m2 0h1m5 0h1m2 0h1m1 0h1m1 0h1m2 0h1m2 0h1m4 0h4m3 0h1m3 0h1m1 0h5m1 0h1m2 0h3m1 0h1m1 0h2m2 0h2m2 0h1m2 0h2m1 0h2m3 0h2m1 0h2m3 0h2m1 0h4m1 0h1m1 0h2m6 0h1m3 0h1m7 0h3m4 0h1m1 0h3m1 0h1m2 0h1m2 0h5M4 70.5h3m3 0h1m2 0h1m4 0h2m1 0h1m3 0h1m2 0h1m3 0h1m3 0h2m1 0h1m4 0h1m1 0h1m1 0h1m2 0h2m3 0h3m3 0h2m1 0h1m1 0h1m1 0h1m2 0h2m2 0h1m4 0h1m1 0h3m1 0h1m1 0h2m3 0h2m1 0h2m1 0h2m1 0h1m2 0h3m1 0h1m2 0h3m2 0h1m4 0h1m2 0h4m3 0h1m1 0h4m2 0h1m4 0h1m3 0h1m2 0h4m1 0h3M9 71.5h1m1 0h2m1 0h3m1 0h5m2 0h2m3 0h1m2 0h4m1 0h1m3 0h1m2 0h3m1 0h3m2 0h1m1 0h3m7 0h5m1 0h1m3 0h2m1 0h3m2 0h1m1 0h1m2 0h2m1 0h1m1 0h1m5 0h1m1 0h1m4 0h1m2 0h4m2 0h1m1 0h1m2 0h1m2 0h1m1 0h1m4 0h2m4 0h3m1 0h1m4 0h1m2 0h10M4 72.5h3m1 0h1m1 0h1m2 0h3m2 0h4m1 0h1m1 0h3m4 0h3m3 0h4m1 0h1m4 0h1m2 0h1m2 0h3m3 0h2m3 0h4m2 0h1m3 0h2m5 0h5m1 0h2m1 0h2m1 0h1m2 0h3m3 0h1m4 0h2m3 0h1m1 0h1m6 0h1m1 0h1m1 0h2m1 0h3m10 0h6m1 0h2m1 0h4m2 0h1M4 73.5h1m2 0h2m4 0h4m1 0h1m4 0h2m2 0h2m1 0h1m4 0h3m3 0h1m1 0h1m1 0h1m2 0h1m1 0h1m1 0h2m2 0h1m1 0h1m2 0h1m2 0h2m2 0h3m3 0h2m1 0h2m2 0h1m1 0h1m1 0h1m3 0h1m2 0h2m1 0h1m2 0h1m1 0h2m1 0h3m2 0h2m1 0h1m5 0h2m2 0h1m4 0h1m1 0h1m4 0h2m3 0h2m1 0h1m2 0h7m1 0h1m1 0h3m2 0h1M5 74.5h1m1 0h1m1 0h2m1 0h3m6 0h2m1 0h1m1 0h3m3 0h2m1 0h1m1 0h1m1 0h2m4 0h2m2 0h1m1 0h1m3 0h3m2 0h1m1 0h1m1 0h1m1 0h1m1 0h1m1 0h1m1 0h2m4 0h2m1 0h2m1 0h10m2 0h3m1 0h1m3 0h2m3 0h1m2 0h1m1 0h1m2 0h2m5 0h2m1 0h1m1 0h4m3 0h3m2 0h1m2 0h3m3 0h1m2 0h1m1 0h1m1 0h2M4 75.5h2m3 0h1m1 0h5m3 0h2m1 0h5m1 0h1m4 0h1m1 0h1m1 0h1m1 0h1m1 0h2m2 0h2m6 0h3m1 0h3m1 0h1m1 0h1m1 0h2m4 0h1m2 0h5m1 0h2m1 0h1m6 0h1m1 0h1m2 0h2m1 0h1m2 0h5m1 0h2m1 0h1m1 0h1m1 0h1m1 0h2m2 0h1m1 0h2m2 0h1m2 0h2m1 0h3m1 0h1m2 0h2m1 0h1m3 0h4m2 0h3m1 0h1m2 0h1M4 76.5h1m2 0h2m1 0h3m2 0h6m1 0h2m1 0h1m2 0h5m1 0h1m6 0h1m1 0h3m1 0h1m1 0h1m1 0h1m4 0h1m3 0h1m1 0h2m2 0h1m1 0h1m2 0h1m1 0h1m2 0h1m1 0h2m1 0h2m1 0h1m1 0h3m1 0h1m4 0h1m3 0h2m1 0h2m1 0h1m5 0h1m1 0h2m1 0h4m7 0h1m1 0h2m1 0h2m1 0h1m2 0h1m1 0h1m2 0h2m1 0h2m2 0h1m2 0h1m2 0h1m1 0h2M4 77.5h2m1 0h1m1 0h1m4 0h2m2 0h1m1 0h2m1 0h3m3 0h3m4 0h5m2 0h1m1 0h1m2 0h1m2 0h2m2 0h2m1 0h3m6 0h5m1 0h2m1 0h2m1 0h1m2 0h6m1 0h2m4 0h1m4 0h4m1 0h1m2 0h1m1 0h1m1 0h1m2 0h1m1 0h1m2 0h2m2 0h1m3 0h5m2 0h1m5 0h4m3 0h3m1 0h2m3 0h2M4 78.5h2m4 0h1m2 0h2m1 0h1m1 0h6m2 0h1m1 0h2m1 0h1m4 0h2m1 0h1m1 0h3m1 0h1m2 0h1m2 0h1m1 0h2m1 0h1m3 0h2m2 0h3m3 0h2m2 0h1m2 0h1m7 0h1m2 0h4m1 0h1m2 0h1m1 0h1m1 0h1m1 0h1m1 0h1m4 0h1m2 0h1m2 0h1m5 0h1m1 0h1m3 0h1m3 0h4m3 0h2m1 0h2m1 0h1m1 0h1m6 0h1m2 0h4M4 79.5h1m4 0h1m8 0h1m1 0h2m2 0h1m1 0h1m1 0h1m2 0h1m1 0h3m4 0h1m1 0h1m1 0h1m1 0h1m1 0h2m1 0h1m1 0h2m1 0h3m1 0h1m3 0h3m1 0h2m1 0h2m1 0h2m1 0h1m2 0h1m1 0h5m2 0h1m2 0h2m1 0h2m2 0h2m3 0h2m2 0h1m1 0h4m2 0h1m1 0h8m2 0h4m2 0h2m1 0h4m5 0h1m1 0h1m1 0h1m4 0h1m1 0h2M5 80.5h2m1 0h5m1 0h1m1 0h6m3 0h3m1 0h2m1 0h8m2 0h3m1 0h1m3 0h2m2 0h7m3 0h1m2 0h1m2 0h1m3 0h3m1 0h1m1 0h6m3 0h5m9 0h6m1 0h1m1 0h1m6 0h4m1 0h1m1 0h1m1 0h5m1 0h10m1 0h3m1 0h8m1 0h3M6 81.5h1m1 0h1m3 0h1m5 0h4m2 0h2m1 0h1m4 0h1m3 0h2m1 0h1m2 0h2m2 0h1m3 0h1m1 0h1m1 0h1m1 0h1m3 0h3m3 0h1m1 0h1m2 0h2m3 0h1m1 0h1m1 0h1m3 0h2m1 0h1m1 0h2m1 0h4m1 0h2m1 0h1m3 0h1m3 0h3m2 0h2m1 0h2m2 0h3m4 0h2m3 0h1m5 0h2m1 0h3m1 0h1m3 0h1m2 0h1m3 0h1m1 0h2M4 82.5h3m1 0h1m1 0h1m1 0h2m1 0h1m3 0h4m1 0h2m2 0h3m1 0h1m1 0h1m1 0h3m3 0h4m1 0h2m1 0h2m1 0h2m1 0h1m1 0h1m1 0h1m1 0h1m1 0h1m1 0h1m2 0h4m2 0h2m3 0h1m1 0h1m1 0h1m3 0h1m1 0h1m2 0h2m2 0h3m4 0h1m1 0h1m1 0h1m1 0h2m1 0h2m1 0h3m2 0h4m3 0h1m1 0h1m1 0h2m1 0h4m1 0h1m1 0h1m2 0h1m1 0h2m1 0h3m1 0h1m1 0h1m1 0h1M5 83.5h2m1 0h1m3 0h1m2 0h1m5 0h3m2 0h4m1 0h2m3 0h1m1 0h11m1 0h1m2 0h2m1 0h1m3 0h3m1 0h3m1 0h1m2 0h2m2 0h1m1 0h1m2 0h1m3 0h2m2 0h1m1 0h1m1 0h1m1 0h1m4 0h1m3 0h2m3 0h1m1 0h1m2 0h1m4 0h7m1 0h1m1 0h1m3 0h2m1 0h1m1 0h2m1 0h1m1 0h1m2 0h1m3 0h4m3 0h2m1 0h2M4 84.5h1m2 0h8m1 0h2m2 0h1m1 0h1m5 0h1m1 0h7m2 0h1m3 0h3m1 0h1m1 0h2m1 0h9m1 0h4m2 0h1m1 0h1m1 0h1m2 0h2m1 0h7m3 0h2m2 0h3m2 0h2m1 0h1m3 0h5m2 0h1m1 0h9m2 0h1m1 0h7m1 0h1m3 0h1m2 0h2m2 0h4m1 0h8M4 85.5h3m5 0h3m2 0h1m4 0h3m1 0h1m1 0h1m6 0h1m4 0h2m1 0h3m3 0h1m2 0h4m1 0h1m1 0h3m1 0h1m4 0h1m6 0h3m2 0h1m1 0h6m1 0h2m1 0h2m2 0h8m3 0h4m3 0h1m1 0h1m2 0h2m1 0h1m1 0h1m3 0h1m1 0h1m2 0h1m6 0h3m1 0h3m3 0h1m1 0h2m2 0h2m1 0h2M4 86.5h3m1 0h1m1 0h2m1 0h5m1 0h3m2 0h3m6 0h1m2 0h1m2 0h3m3 0h2m1 0h1m2 0h3m1 0h1m1 0h2m1 0h3m3 0h2m2 0h2m1 0h7m3 0h4m1 0h3m5 0h5m4 0h1m1 0h1m2 0h2m1 0h1m2 0h9m4 0h1m2 0h1m1 0h1m5 0h1m4 0h5m1 0h1m1 0h1m3 0h2m1 0h1M7 87.5h1m1 0h1m6 0h1m3 0h1m2 0h6m3 0h1m1 0h2m2 0h1m1 0h4m1 0h1m2 0h1m2 0h1m3 0h2m1 0h1m6 0h4m2 0h1m2 0h2m1 0h1m1 0h2m7 0h7m3 0h1m1 0h1m1 0h3m2 0h1m1 0h3m2 0h1m5 0h1m2 0h1m1 0h2m1 0h1m2 0h2m3 0h3m4 0h1m5 0h1m4 0h1m2 0h4M5 88.5h4m1 0h1m2 0h1m1 0h1m1 0h1m1 0h2m1 0h1m3 0h4m2 0h1m3 0h2m1 0h2m2 0h1m1 0h1m2 0h3m1 0h1m2 0h1m3 0h2m1 0h2m1 0h1m3 0h1m1 0h4m1 0h5m1 0h2m1 0h1m1 0h1m1 0h1m3 0h2m2 0h6m3 0h2m1 0h1m1 0h1m5 0h2m1 0h1m1 0h2m1 0h4m2 0h1m1 0h4m6 0h1m1 0h2m1 0h2m1 0h2m1 0h1m2 0h1m1 0h2M4 89.5h1m1 0h2m1 0h1m1 0h3m1 0h3m1 0h1m2 0h2m1 0h4m2 0h1m1 0h4m1 0h1m1 0h4m1 0h1m4 0h1m1 0h1m2 0h1m5 0h1m1 0h1m3 0h1m6 0h2m1 0h1m1 0h3m2 0h1m2 0h1m1 0h8m2 0h1m1 0h3m1 0h1m1 0h3m2 0h2m2 0h1m2 0h1m1 0h5m1 0h2m1 0h1m3 0h2m6 0h3m3 0h1m1 0h1m1 0h1m2 0h1m1 0h2M5 90.5h1m1 0h1m1 0h3m2 0h3m2 0h1m2 0h5m1 0h1m1 0h1m1 0h1m1 0h1m5 0h4m4 0h5m2 0h2m2 0h2m1 0h4m1 0h2m2 0h2m2 0h2m1 0h3m2 0h1m3 0h2m2 0h1m1 0h2m1 0h2m1 0h1m1 0h1m1 0h2m4 0h1m1 0h1m1 0h4m1 0h1m1 0h3m1 0h2m1 0h2m2 0h1m2 0h1m4 0h2m1 0h3m1 0h2m1 0h2m1 0h7M6 91.5h1m1 0h1m3 0h1m4 0h4m1 0h2m2 0h2m1 0h2m1 0h2m1 0h2m1 0h1m1 0h1m2 0h4m1 0h1m1 0h1m1 0h8m1 0h2m2 0h2m1 0h1m1 0h2m1 0h3m2 0h1m1 0h5m1 0h1m2 0h1m1 0h1m2 0h7m4 0h1m3 0h1m1 0h1m1 0h1m3 0h4m2 0h2m2 0h2m2 0h4m3 0h1m1 0h1m1 0h2m2 0h1m3 0h1m1 0h1m1 0h1m1 0h3M6 92.5h3m1 0h4m2 0h1m2 0h1m3 0h3m1 0h1m6 0h1m2 0h1m2 0h1m1 0h2m4 0h1m1 0h1m2 0h1m1 0h5m2 0h2m1 0h1m1 0h1m1 0h2m2 0h1m1 0h1m2 0h1m2 0h2m1 0h2m4 0h5m1 0h1m4 0h2m1 0h1m3 0h1m4 0h8m1 0h2m4 0h2m3 0h5m2 0h2m1 0h1m3 0h2m1 0h7m1 0h3M4 93.5h2m6 0h1m4 0h3m1 0h1m1 0h1m1 0h1m1 0h1m5 0h2m1 0h1m1 0h1m2 0h1m1 0h1m3 0h3m5 0h1m1 0h1m1 0h1m3 0h2m3 0h1m1 0h1m1 0h1m2 0h2m1 0h4m2 0h1m3 0h5m2 0h1m1 0h2m1 0h2m1 0h2m1 0h1m1 0h6m3 0h6m1 0h3m2 0h2m3 0h3m1 0h1m5 0h1m1 0h1m1 0h1m1 0h1m3 0h2m1 0h3M4 94.5h1m3 0h1m1 0h2m1 0h3m2 0h4m1 0h1m2 0h6m4 0h1m1 0h3m1 0h4m1 0h1m1 0h2m3 0h1m2 0h2m4 0h4m2 0h2m1 0h1m1 0h1m1 0h1m2 0h1m4 0h1m3 0h1m2 0h3m1 0h1m1 0h1m6 0h3m1 0h5m1 0h1m1 0h2m1 0h3m2 0h1m1 0h4m4 0h1m5 0h1m1 0h2m3 0h2m3 0h4m1 0h3M4 95.5h2m1 0h1m3 0h2m3 0h1m2 0h1m1 0h1m2 0h7m1 0h3m1 0h4m2 0h2m1 0h1m1 0h2m1 0h2m1 0h2m1 0h1m1 0h2m1 0h2m2 0h1m5 0h2m4 0h1m1 0h2m2 0h1m3 0h3m1 0h3m1 0h5m4 0h1m1 0h2m1 0h1m1 0h3m1 0h1m1 0h2m2 0h5m1 0h5m5 0h1m5 0h1m3 0h1m1 0h1m1 0h1m1 0h6M4 96.5h5m1 0h1m1 0h2m1 0h4m1 0h2m8 0h2m4 0h3m1 0h1m2 0h1m2 0h1m3 0h9m3 0h3m1 0h1m1 0h2m2 0h3m1 0h2m5 0h1m1 0h6m5 0h2m1 0h5m1 0h1m1 0h2m1 0h1m1 0h1m4 0h1m1 0h1m2 0h4m1 0h1m1 0h2m2 0h1m1 0h1m2 0h1m1 0h2m1 0h3m3 0h7m1 0h2M5 97.5h3m3 0h1m3 0h4m2 0h2m4 0h3m2 0h1m2 0h1m1 0h1m1 0h4m2 0h1m1 0h1m1 0h2m1 0h2m1 0h2m3 0h3m1 0h2m1 0h1m1 0h2m1 0h1m1 0h1m1 0h4m3 0h2m9 0h1m1 0h1m3 0h4m2 0h1m1 0h1m5 0h1m1 0h2m7 0h1m3 0h1m2 0h1m1 0h1m1 0h3m2 0h2m1 0h1m2 0h2m1 0h1m1 0h5m2 0h1M4 98.5h1m1 0h1m1 0h1m1 0h2m1 0h2m4 0h1m2 0h1m1 0h1m5 0h1m1 0h2m5 0h2m3 0h2m2 0h1m1 0h1m1 0h1m3 0h5m1 0h5m4 0h1m5 0h1m1 0h1m1 0h1m1 0h4m5 0h1m1 0h1m2 0h1m1 0h4m1 0h2m2 0h1m1 0h3m1 0h1m3 0h4m2 0h5m4 0h4m1 0h1m1 0h1m2 0h4m1 0h4m4 0h1m1 0h2M4 99.5h1m1 0h1m1 0h2m2 0h1m2 0h1m4 0h4m1 0h3m1 0h1m2 0h2m1 0h1m1 0h2m4 0h1m4 0h1m4 0h1m1 0h2m2 0h3m2 0h1m1 0h2m7 0h3m3 0h1m2 0h4m2 0h1m2 0h1m1 0h1m4 0h1m1 0h1m1 0h1m7 0h4m2 0h1m2 0h1m6 0h1m1 0h5m4 0h1m1 0h1m2 0h3m1 0h1m2 0h1m1 0h2m2 0h1m2 0h1M4 100.5h3m1 0h1m1 0h1m3 0h2m1 0h2m1 0h2m2 0h1m2 0h1m2 0h2m2 0h1m1 0h1m1 0h10m4 0h3m4 0h1m1 0h2m2 0h3m3 0h6m1 0h4m3 0h1m1 0h1m1 0h2m3 0h1m1 0h2m1 0h2m1 0h1m1 0h2m1 0h2m2 0h2m1 0h1m4 0h1m1 0h6m3 0h2m1 0h1m2 0h3m2 0h1m5 0h1m2 0h3m1 0h4m1 0h2M4 101.5h3m1 0h1m2 0h3m1 0h5m4 0h2m3 0h2m4 0h1m1 0h2m1 0h2m2 0h1m1 0h2m1 0h1m1 0h6m1 0h3m2 0h2m1 0h1m1 0h5m1 0h1m2 0h1m5 0h2m2 0h4m1 0h5m1 0h2m1 0h3m1 0h1m1 0h1m2 0h1m2 0h3m3 0h2m2 0h1m1 0h1m2 0h4m1 0h2m3 0h4m1 0h3m2 0h1m1 0h2m2 0h2m2 0h1M6 102.5h1m3 0h4m1 0h3m3 0h4m2 0h2m2 0h3m2 0h1m1 0h1m4 0h2m1 0h4m4 0h1m2 0h1m2 0h1m1 0h2m1 0h2m1 0h2m1 0h2m5 0h5m2 0h2m2 0h1m1 0h1m3 0h3m2 0h1m1 0h2m3 0h1m1 0h2m1 0h2m1 0h1m4 0h4m5 0h2m2 0h1m1 0h4m2 0h1m2 0h3m1 0h2m1 0h1m2 0h1m1 0h2m1 0h1M5 103.5h2m5 0h1m2 0h1m1 0h4m2 0h1m1 0h1m1 0h4m1 0h2m1 0h1m1 0h2m1 0h3m4 0h5m1 0h4m2 0h2m1 0h2m3 0h2m2 0h5m3 0h1m1 0h4m2 0h2m1 0h1m2 0h4m5 0h1m2 0h1m2 0h3m1 0h3m1 0h2m3 0h1m2 0h2m3 0h2m1 0h1m2 0h3m1 0h1m3 0h2m1 0h1m1 0h3m1 0h1m2 0h1m3 0h2M4 104.5h1m3 0h5m2 0h1m1 0h3m1 0h4m3 0h1m2 0h9m2 0h2m1 0h6m1 0h2m1 0h6m4 0h2m1 0h1m4 0h3m4 0h7m1 0h1m1 0h2m2 0h4m2 0h1m1 0h8m1 0h3m1 0h1m3 0h1m2 0h1m2 0h2m1 0h5m2 0h1m3 0h1m2 0h1m1 0h2m1 0h3m1 0h6m3 0h1M4 105.5h2m2 0h1m3 0h1m1 0h3m2 0h1m2 0h5m1 0h1m1 0h1m1 0h1m3 0h2m1 0h3m1 0h1m1 0h6m1 0h5m3 0h3m1 0h1m5 0h1m3 0h4m1 0h2m3 0h1m4 0h2m1 0h2m1 0h1m3 0h3m2 0h1m3 0h3m3 0h3m6 0h1m2 0h1m1 0h1m3 0h1m1 0h1m7 0h1m1 0h1m4 0h2m1 0h1m3 0h1m1 0h3M8 106.5h1m1 0h1m1 0h2m4 0h5m1 0h3m1 0h1m3 0h1m1 0h1m1 0h1m1 0h2m1 0h1m2 0h2m2 0h1m1 0h1m4 0h2m1 0h1m1 0h2m2 0h1m2 0h2m1 0h1m4 0h2m2 0h2m1 0h1m1 0h1m1 0h1m1 0h2m2 0h1m1 0h2m1 0h3m1 0h4m1 0h1m1 0h3m1 0h3m1 0h1m1 0h2m5 0h4m1 0h1m1 0h1m1 0h3m1 0h1m2 0h3m1 0h1m2 0h3m1 0h1m1 0h1m1 0h1m3 0h1M4 107.5h2m2 0h1m3 0h1m1 0h3m1 0h3m1 0h2m4 0h2m1 0h2m3 0h1m1 0h1m2 0h2m1 0h1m3 0h6m1 0h2m3 0h1m1 0h13m1 0h2m1 0h2m3 0h1m4 0h2m1 0h1m1 0h3m1 0h1m3 0h1m1 0h1m3 0h1m2 0h1m1 0h2m1 0h5m1 0h3m1 0h1m1 0h1m3 0h2m1 0h1m1 0h1m3 0h1m1 0h1m1 0h1m1 0h1m1 0h4m3 0h2m2 0h1M5 108.5h1m1 0h6m3 0h1m3 0h1m4 0h3m1 0h9m2 0h1m2 0h1m2 0h1m2 0h1m1 0h3m1 0h6m1 0h3m2 0h4m2 0h2m1 0h1m2 0h6m1 0h2m3 0h3m1 0h2m2 0h1m2 0h8m2 0h4m5 0h1m2 0h10m2 0h1m2 0h2m1 0h6m1 0h9m1 0h2M4 109.5h5m3 0h1m1 0h3m1 0h2m2 0h1m1 0h1m1 0h1m4 0h1m1 0h2m1 0h1m1 0h1m3 0h1m2 0h1m2 0h2m2 0h1m2 0h5m1 0h5m2 0h1m3 0h2m2 0h4m1 0h3m2 0h1m8 0h2m1 0h4m1 0h2m2 0h2m2 0h1m8 0h5m1 0h1m3 0h1m3 0h3m4 0h1m4 0h1m2 0h1m1 0h1m3 0h1m3 0h2M4 110.5h8m1 0h1m3 0h1m1 0h1m1 0h3m2 0h1m1 0h1m5 0h3m2 0h1m1 0h3m4 0h1m2 0h3m1 0h3m2 0h2m1 0h1m1 0h5m1 0h1m1 0h2m1 0h1m1 0h2m2 0h2m1 0h2m1 0h1m1 0h4m2 0h3m4 0h3m1 0h1m3 0h2m1 0h3m2 0h2m2 0h3m3 0h1m6 0h3m1 0h3m6 0h1m2 0h1m1 0h2m4 0h1M4 111.5h1m1 0h1m1 0h2m1 0h1m1 0h2m1 0h2m3 0h2m3 0h2m1 0h2m2 0h1m4 0h1m2 0h1m1 0h2m1 0h2m3 0h1m1 0h4m2 0h1m1 0h4m1 0h5m2 0h4m1 0h1m1 0h1m1 0h3m1 0h2m3 0h2m2 0h3m1 0h3m1 0h1m2 0h3m3 0h2m3 0h2m2 0h1m4 0h1m1 0h1m2 0h5m1 0h2m3 0h3m2 0h1m1 0h4m2 0h2M5 112.5h2m1 0h4m3 0h1m1 0h3m2 0h1m2 0h2m4 0h3m1 0h1m3 0h1m4 0h2m1 0h4m2 0h3m3 0h1m1 0h1m1 0h3m2 0h2m2 0h2m2 0h1m1 0h5m1 0h1m1 0h4m4 0h1m1 0h3m1 0h6m1 0h1m1 0h2m1 0h4m2 0h3m1 0h4m1 0h2m2 0h1m3 0h1m5 0h1m2 0h1m1 0h1m1 0h2m1 0h1m3 0h2m1 0h2M4 113.5h1m4 0h1m1 0h1m2 0h2m2 0h3m3 0h1m1 0h1m3 0h1m1 0h1m2 0h2m2 0h3m1 0h3m3 0h1m1 0h4m1 0h1m2 0h4m3 0h1m1 0h3m2 0h1m2 0h1m7 0h2m2 0h1m1 0h2m3 0h1m1 0h1m2 0h1m1 0h1m1 0h1m6 0h2m1 0h6m2 0h3m1 0h1m1 0h3m2 0h3m1 0h2m2 0h2m3 0h1m1 0h1m2 0h1m2 0h1M4 114.5h1m3 0h1m1 0h5m2 0h2m1 0h1m3 0h1m2 0h1m1 0h2m2 0h1m1 0h1m4 0h2m1 0h1m4 0h1m2 0h1m2 0h4m1 0h1m1 0h1m1 0h1m1 0h3m1 0h3m5 0h1m2 0h2m1 0h1m6 0h1m1 0h1m2 0h1m1 0h1m2 0h1m1 0h2m2 0h1m2 0h5m2 0h3m2 0h4m1 0h1m1 0h4m1 0h2m1 0h2m1 0h3m1 0h4m1 0h5m1 0h1m3 0h2M4 115.5h1m3 0h1m2 0h1m6 0h2m1 0h1m2 0h2m2 0h1m1 0h3m1 0h1m3 0h3m3 0h3m1 0h1m1 0h4m2 0h2m1 0h1m1 0h1m2 0h1m1 0h1m5 0h2m1 0h1m4 0h1m5 0h1m1 0h1m1 0h2m4 0h2m1 0h1m1 0h1m2 0h1m3 0h1m4 0h1m1 0h2m1 0h3m1 0h3m2 0h2m1 0h2m1 0h1m1 0h3m2 0h2m4 0h1m2 0h3m1 0h3m2 0h3M5 116.5h1m2 0h1m1 0h1m2 0h1m2 0h2m2 0h6m3 0h2m2 0h3m1 0h1m1 0h1m2 0h3m1 0h2m2 0h1m1 0h1m1 0h2m2 0h2m1 0h2m3 0h1m2 0h1m2 0h1m1 0h5m5 0h3m1 0h4m4 0h2m1 0h4m1 0h1m1 0h3m3 0h1m1 0h2m1 0h3m1 0h1m1 0h2m2 0h2m1 0h3m1 0h1m4 0h1m4 0h8m1 0h6m1 0h1M9 117.5h1m3 0h6m1 0h3m1 0h2m1 0h1m1 0h1m3 0h1m1 0h2m3 0h1m1 0h2m1 0h1m1 0h1m1 0h1m7 0h2m1 0h2m5 0h1m2 0h1m2 0h3m1 0h1m2 0h3m3 0h2m3 0h1m4 0h5m2 0h1m3 0h1m1 0h2m3 0h1m2 0h4m2 0h1m2 0h2m1 0h3m1 0h2m1 0h1m1 0h4m4 0h3m1 0h1m2 0h1m1 0h1m1 0h4M5 118.5h1m2 0h1m1 0h3m2 0h2m2 0h1m1 0h3m1 0h1m2 0h3m1 0h1m1 0h4m1 0h1m1 0h1m1 0h1m3 0h3m1 0h2m1 0h3m2 0h1m3 0h1m5 0h1m2 0h4m4 0h1m2 0h1m4 0h2m1 0h1m1 0h1m3 0h2m3 0h4m2 0h1m1 0h4m1 0h10m1 0h2m2 0h8m2 0h2m1 0h1m1 0h2m1 0h3m4 0h1m3 0h2M4 119.5h2m5 0h1m2 0h6m1 0h2m1 0h1m3 0h2m3 0h3m2 0h2m1 0h2m1 0h2m1 0h3m2 0h2m3 0h2m1 0h2m3 0h3m3 0h2m4 0h1m1 0h7m2 0h2m1 0h7m3 0h5m1 0h1m4 0h1m2 0h1m1 0h2m2 0h7m1 0h2m1 0h1m1 0h3m2 0h2m2 0h1m4 0h3m2 0h3m1 0h1M4 120.5h1m1 0h1m1 0h5m1 0h1m1 0h2m1 0h1m4 0h3m2 0h3m4 0h2m2 0h1m3 0h1m1 0h2m1 0h2m1 0h1m1 0h1m2 0h6m1 0h1m1 0h2m6 0h2m6 0h2m1 0h2m1 0h1m2 0h1m1 0h2m2 0h1m1 0h1m3 0h1m2 0h1m4 0h2m3 0h1m1 0h2m1 0h3m2 0h1m2 0h4m1 0h7m3 0h1m2 0h2m1 0h1m1 0h5m1 0h1m1 0h1M4 121.5h3m5 0h1m1 0h3m1 0h5m2 0h5m3 0h2m1 0h2m1 0h1m6 0h1m3 0h1m1 0h2m1 0h5m2 0h1m2 0h2m2 0h1m2 0h3m1 0h2m1 0h6m3 0h3m1 0h1m2 0h1m1 0h2m4 0h1m1 0h2m1 0h1m1 0h4m1 0h1m1 0h3m1 0h4m1 0h1m1 0h6m1 0h1m1 0h2m2 0h2m1 0h1m1 0h7m1 0h1m2 0h2M6 122.5h2m1 0h7m1 0h1m2 0h1m1 0h2m1 0h1m2 0h3m1 0h1m2 0h1m1 0h1m4 0h1m1 0h1m1 0h1m1 0h3m4 0h2m4 0h1m1 0h2m3 0h6m3 0h2m2 0h2m1 0h1m1 0h3m1 0h1m1 0h4m4 0h2m2 0h2m1 0h2m3 0h1m1 0h1m2 0h2m1 0h2m1 0h1m1 0h3m4 0h2m1 0h3m3 0h1m3 0h2m1 0h1m2 0h1m2 0h1m1 0h1m2 0h1M4 123.5h2m1 0h1m3 0h4m1 0h1m1 0h6m5 0h2m1 0h2m2 0h4m1 0h1m1 0h1m4 0h3m3 0h3m3 0h2m7 0h3m1 0h1m1 0h2m3 0h2m2 0h1m2 0h1m2 0h1m1 0h2m3 0h3m1 0h3m2 0h3m1 0h4m1 0h4m1 0h1m2 0h2m1 0h2m1 0h3m3 0h2m4 0h3m4 0h2m2 0h2m2 0h2m1 0h2M4 124.5h2m2 0h1m1 0h1m3 0h1m1 0h1m1 0h1m4 0h1m2 0h3m2 0h1m1 0h1m3 0h1m1 0h2m2 0h1m3 0h1m3 0h2m3 0h13m1 0h1m1 0h1m1 0h1m1 0h2m2 0h3m2 0h1m2 0h1m2 0h1m1 0h1m2 0h1m1 0h1m2 0h1m2 0h1m1 0h1m1 0h1m1 0h1m1 0h2m2 0h3m1 0h3m1 0h2m2 0h1m1 0h1m4 0h3m3 0h6m1 0h4m1 0h1m1 0h3m2 0h1M4 125.5h1m1 0h2m4 0h1m1 0h1m1 0h3m4 0h1m2 0h2m2 0h1m1 0h2m2 0h3m1 0h1m4 0h1m1 0h1m1 0h2m3 0h1m4 0h4m1 0h1m1 0h1m2 0h4m1 0h2m1 0h2m3 0h1m1 0h1m3 0h3m2 0h2m1 0h3m4 0h4m1 0h2m2 0h5m1 0h3m2 0h2m1 0h1m2 0h1m1 0h1m3 0h1m1 0h1m1 0h4m1 0h1m1 0h1m5 0h1m1 0h1m2 0h4M5 126.5h1m1 0h2m1 0h1m2 0h6m3 0h1m1 0h1m2 0h1m1 0h1m3 0h5m1 0h1m1 0h1m1 0h3m1 0h1m1 0h1m3 0h1m2 0h1m3 0h1m5 0h1m1 0h2m4 0h1m2 0h1m1 0h2m3 0h3m2 0h1m3 0h1m2 0h7m1 0h2m4 0h4m1 0h5m1 0h2m2 0h2m1 0h7m2 0h1m1 0h2m1 0h1m1 0h2m3 0h2m2 0h2m1 0h5M4 127.5h1m3 0h1m2 0h2m1 0h2m2 0h1m5 0h1m1 0h1m1 0h3m1 0h1m2 0h1m2 0h1m1 0h2m2 0h1m1 0h2m3 0h3m2 0h2m1 0h3m4 0h1m1 0h2m3 0h6m2 0h1m1 0h1m1 0h1m1 0h5m2 0h2m1 0h1m1 0h1m1 0h2m2 0h1m1 0h4m3 0h1m3 0h5m1 0h1m1 0h1m2 0h4m1 0h4m4 0h2m3 0h2m2 0h2M5 128.5h8m2 0h2m3 0h1m5 0h1m5 0h5m1 0h1m1 0h2m3 0h1m1 0h1m1 0h1m3 0h11m1 0h2m3 0h2m1 0h1m2 0h1m3 0h6m1 0h3m2 0h1m1 0h4m2 0h10m1 0h1m1 0h4m2 0h1m1 0h1m2 0h2m2 0h5m3 0h1m1 0h1m2 0h2m6 0h2m1 0h5m3 0h1M7 129.5h2m3 0h2m1 0h3m1 0h1m1 0h1m1 0h2m1 0h1m5 0h1m3 0h1m2 0h1m1 0h3m7 0h1m3 0h2m3 0h3m2 0h2m1 0h2m3 0h2m1 0h1m1 0h3m3 0h1m2 0h1m1 0h1m1 0h2m4 0h4m3 0h1m3 0h1m2 0h3m1 0h2m1 0h1m2 0h2m1 0h2m2 0h1m3 0h1m2 0h2m1 0h2m1 0h1m4 0h1m4 0h2m3 0h2M4 130.5h1m3 0h1m1 0h1m1 0h1m1 0h2m3 0h4m2 0h1m3 0h4m1 0h1m1 0h4m6 0h2m1 0h2m4 0h2m1 0h1m1 0h1m3 0h4m1 0h1m1 0h1m1 0h2m2 0h1m2 0h1m1 0h1m1 0h1m1 0h1m1 0h2m1 0h3m1 0h3m3 0h1m1 0h2m1 0h1m1 0h1m1 0h1m1 0h4m2 0h1m2 0h4m1 0h3m1 0h1m1 0h2m1 0h3m1 0h2m5 0h1m1 0h2m1 0h2m1 0h1m1 0h4M6 131.5h3m3 0h3m1 0h1m1 0h1m1 0h1m1 0h1m2 0h3m4 0h1m3 0h2m3 0h4m2 0h1m4 0h1m1 0h1m1 0h1m3 0h1m1 0h4m3 0h3m2 0h7m3 0h3m1 0h1m1 0h1m6 0h1m2 0h1m3 0h1m3 0h1m2 0h3m2 0h1m3 0h1m1 0h1m2 0h1m2 0h1m3 0h1m1 0h2m3 0h1m4 0h2m1 0h1m1 0h1m1 0h2m3 0h3M4 132.5h2m2 0h7m4 0h1m2 0h1m8 0h7m2 0h1m4 0h1m2 0h2m1 0h1m1 0h1m1 0h6m3 0h2m1 0h1m3 0h1m1 0h1m2 0h1m2 0h6m1 0h4m2 0h1m2 0h1m2 0h4m1 0h7m2 0h3m1 0h1m2 0h3m2 0h1m1 0h1m1 0h6m2 0h1m2 0h1m2 0h3m2 0h2m1 0h1m1 0h5m1 0h1M4 133.5h1m2 0h1m1 0h1m1 0h2m2 0h1m3 0h6m4 0h1m1 0h1m1 0h2m1 0h1m1 0h1m1 0h1m4 0h5m1 0h1m3 0h2m3 0h2m1 0h2m3 0h1m2 0h9m2 0h4m1 0h6m3 0h2m1 0h2m5 0h2m4 0h2m3 0h1m3 0h1m1 0h1m6 0h6m1 0h2m1 0h1m3 0h3m4 0h1m1 0h4M5 134.5h12m2 0h1m1 0h2m2 0h1m1 0h3m1 0h2m4 0h4m3 0h2m1 0h1m1 0h4m3 0h3m1 0h1m3 0h3m2 0h3m4 0h1m1 0h1m3 0h2m1 0h1m1 0h1m4 0h4m1 0h1m1 0h2m2 0h1m3 0h4m7 0h2m2 0h3m1 0h3m1 0h5m1 0h1m1 0h1m3 0h1m7 0h1m2 0h6M4 135.5h1m1 0h1m2 0h1m1 0h1m4 0h1m1 0h1m2 0h5m2 0h1m1 0h1m1 0h5m5 0h1m1 0h4m1 0h1m2 0h1m1 0h2m2 0h1m3 0h3m2 0h2m1 0h3m3 0h1m1 0h2m3 0h1m1 0h1m4 0h3m4 0h2m4 0h2m1 0h3m3 0h3m1 0h3m3 0h1m1 0h2m6 0h1m2 0h3m2 0h4m2 0h4m1 0h1m2 0h2M4 136.5h1m1 0h3m1 0h1m1 0h1m1 0h1m1 0h4m3 0h1m1 0h1m5 0h5m1 0h1m4 0h3m1 0h6m1 0h1m1 0h2m1 0h1m1 0h1m1 0h1m1 0h3m1 0h1m2 0h4m2 0h2m9 0h8m7 0h1m1 0h2m1 0h2m2 0h1m1 0h7m1 0h1m2 0h3m1 0h1m4 0h1m2 0h3m1 0h6m2 0h9m1 0h2M7 137.5h1m5 0h4m1 0h3m4 0h1m2 0h1m1 0h2m1 0h3m1 0h1m2 0h1m1 0h1m2 0h1m1 0h1m2 0h13m1 0h1m1 0h1m1 0h3m2 0h1m2 0h1m1 0h3m1 0h2m4 0h4m2 0h3m1 0h4m1 0h1m3 0h8m2 0h1m1 0h1m1 0h1m4 0h1m2 0h1m1 0h3m1 0h1m2 0h1m3 0h1m1 0h2m3 0h1m2 0h1m2 0h2m3 0h1M5 138.5h1m3 0h3m3 0h1m2 0h2m1 0h4m1 0h1m1 0h2m2 0h4m2 0h1m1 0h2m4 0h1m1 0h2m1 0h1m2 0h2m2 0h1m1 0h1m1 0h8m3 0h1m1 0h3m1 0h1m1 0h1m3 0h2m3 0h5m2 0h3m1 0h1m1 0h5m3 0h2m2 0h1m1 0h2m2 0h2m2 0h2m3 0h2m1 0h4m1 0h1m1 0h3m2 0h1m1 0h3m1 0h1m2 0h2m1 0h3M4 139.5h1m1 0h4m2 0h5m4 0h3m1 0h1m1 0h2m7 0h2m1 0h1m1 0h1m1 0h2m3 0h2m1 0h3m3 0h6m1 0h1m4 0h4m3 0h3m2 0h4m1 0h2m2 0h3m1 0h3m4 0h1m2 0h1m1 0h1m1 0h1m1 0h1m3 0h1m2 0h3m1 0h3m1 0h1m2 0h5m1 0h3m1 0h1m1 0h1m1 0h1m1 0h1m1 0h3m4 0h1m4 0h1m1 0h1M9 140.5h3m3 0h2m5 0h2m3 0h1m1 0h1m4 0h1m1 0h1m4 0h3m1 0h4m1 0h2m4 0h1m2 0h3m2 0h2m2 0h1m2 0h1m1 0h1m3 0h1m4 0h3m2 0h1m1 0h1m1 0h3m1 0h1m4 0h1m2 0h1m3 0h2m3 0h1m1 0h1m1 0h3m1 0h2m2 0h7m3 0h2m5 0h2m2 0h2m1 0h2m4 0h1m1 0h1m1 0h2M5 141.5h1m1 0h3m3 0h1m1 0h1m1 0h1m3 0h1m2 0h5m2 0h2m8 0h5m1 0h1m1 0h1m1 0h2m3 0h2m1 0h1m3 0h1m2 0h2m2 0h1m2 0h2m1 0h1m2 0h1m1 0h1m1 0h1m2 0h6m1 0h1m1 0h1m1 0h2m3 0h1m1 0h2m2 0h2m1 0h3m1 0h2m1 0h1m1 0h1m1 0h1m1 0h1m2 0h1m6 0h1m1 0h1m3 0h2m1 0h1m2 0h1m1 0h2m1 0h1m2 0h1m3 0h2M6 142.5h1m2 0h2m1 0h1m2 0h3m1 0h1m2 0h3m1 0h1m1 0h3m1 0h2m2 0h2m2 0h2m2 0h5m2 0h1m1 0h2m2 0h1m5 0h2m6 0h2m1 0h2m1 0h1m1 0h1m2 0h1m1 0h1m1 0h4m1 0h1m1 0h4m2 0h1m1 0h3m2 0h2m3 0h2m2 0h1m4 0h2m2 0h1m2 0h1m3 0h2m2 0h1m1 0h2m1 0h1m1 0h1m2 0h2m3 0h1m1 0h1m2 0h2m1 0h2M4 143.5h1m1 0h1m4 0h1m1 0h1m1 0h1m1 0h1m9 0h3m3 0h4m1 0h1m5 0h4m4 0h1m2 0h4m2 0h3m2 0h1m5 0h1m6 0h1m2 0h1m4 0h3m1 0h2m3 0h3m1 0h2m1 0h1m2 0h3m2 0h2m2 0h1m2 0h4m2 0h6m1 0h1m3 0h1m2 0h1m2 0h1m1 0h1m5 0h6m3 0h2M6 144.5h6m1 0h1m1 0h1m2 0h2m3 0h3m1 0h4m4 0h4m3 0h2m3 0h2m1 0h5m2 0h1m6 0h1m2 0h1m2 0h1m1 0h3m1 0h1m1 0h2m3 0h1m1 0h3m3 0h4m1 0h1m1 0h1m1 0h1m1 0h2m2 0h5m2 0h1m1 0h3m2 0h1m1 0h1m1 0h1m2 0h1m2 0h1m1 0h1m3 0h1m3 0h1m2 0h2m4 0h2m1 0h1m1 0h6M4 145.5h1m1 0h2m4 0h1m2 0h1m3 0h1m1 0h3m1 0h2m2 0h1m3 0h5m1 0h7m1 0h1m2 0h1m2 0h7m3 0h1m2 0h2m1 0h4m3 0h1m1 0h1m2 0h1m4 0h1m1 0h1m1 0h2m1 0h2m1 0h3m1 0h3m3 0h1m5 0h1m2 0h1m1 0h2m1 0h1m1 0h3m3 0h2m2 0h2m1 0h8m1 0h5m5 0h3m2 0h2M4 146.5h5m1 0h1m3 0h1m1 0h2m1 0h2m6 0h1m1 0h2m4 0h1m1 0h1m1 0h1m2 0h1m2 0h1m1 0h1m1 0h4m3 0h1m1 0h5m1 0h1m1 0h1m2 0h2m1 0h1m2 0h3m2 0h1m1 0h1m1 0h2m3 0h1m4 0h3m2 0h2m1 0h2m1 0h2m1 0h1m3 0h6m1 0h2m2 0h7m4 0h2m4 0h1m1 0h1m5 0h3m1 0h1m2 0h2m2 0h2M4 147.5h3m2 0h1m1 0h1m4 0h3m3 0h1m5 0h1m2 0h2m1 0h4m1 0h3m3 0h3m8 0h1m1 0h2m1 0h2m1 0h2m1 0h5m1 0h2m6 0h2m1 0h1m3 0h1m2 0h5m1 0h2m1 0h3m1 0h3m3 0h1m1 0h3m2 0h6m1 0h2m5 0h4m2 0h1m4 0h1m1 0h1m4 0h1m1 0h5m1 0h1m1 0h2M5 148.5h2m1 0h1m1 0h1m2 0h1m4 0h1m3 0h2m1 0h1m1 0h1m1 0h1m1 0h2m3 0h1m2 0h2m1 0h2m2 0h1m1 0h1m1 0h1m1 0h1m2 0h2m1 0h1m1 0h2m2 0h1m3 0h2m3 0h1m1 0h3m6 0h5m1 0h1m3 0h1m3 0h4m3 0h2m1 0h2m1 0h1m4 0h1m1 0h1m1 0h12m1 0h2m1 0h1m3 0h1m1 0h2m1 0h2m1 0h5m1 0h5m1 0h1M4 149.5h1m2 0h2m4 0h2m1 0h1m1 0h2m5 0h2m2 0h1m1 0h1m3 0h1m1 0h6m1 0h1m10 0h1m1 0h4m1 0h1m2 0h1m1 0h2m2 0h7m1 0h1m1 0h1m1 0h2m4 0h3m4 0h1m2 0h2m7 0h1m2 0h1m1 0h3m5 0h1m3 0h3m2 0h1m7 0h3m3 0h1m1 0h2m1 0h1m1 0h2m6 0h2M4 150.5h2m1 0h2m1 0h1m4 0h3m1 0h1m1 0h1m1 0h2m4 0h1m5 0h5m1 0h3m1 0h6m1 0h4m2 0h3m1 0h4m1 0h1m2 0h9m1 0h1m1 0h2m1 0h2m1 0h1m3 0h4m2 0h1m1 0h2m1 0h3m1 0h8m1 0h1m1 0h2m1 0h3m2 0h1m2 0h5m2 0h2m2 0h3m1 0h2m2 0h1m4 0h4M4 151.5h5m2 0h1m3 0h1m3 0h2m2 0h1m1 0h2m2 0h2m3 0h1m1 0h1m5 0h1m8 0h1m1 0h1m2 0h4m2 0h5m1 0h1m3 0h1m2 0h1m1 0h1m3 0h1m3 0h1m1 0h3m2 0h3m1 0h1m1 0h1m1 0h1m3 0h3m1 0h5m1 0h3m1 0h1m1 0h1m2 0h2m1 0h1m1 0h2m2 0h2m1 0h3m1 0h2m2 0h2m1 0h1m2 0h1m1 0h3m1 0h1m1 0h2m1 0h1M4 152.5h1m1 0h1m2 0h2m2 0h5m1 0h1m1 0h1m1 0h1m2 0h1m3 0h1m1 0h6m1 0h2m3 0h1m5 0h14m1 0h2m4 0h2m2 0h2m1 0h1m1 0h9m1 0h1m2 0h1m2 0h3m1 0h1m2 0h6m1 0h2m7 0h1m1 0h3m1 0h1m2 0h6m1 0h3m1 0h7m1 0h4m1 0h7M12 153.5h2m1 0h1m1 0h10m1 0h1m1 0h3m3 0h2m1 0h1m2 0h1m1 0h3m3 0h1m1 0h1m1 0h3m3 0h1m7 0h1m1 0h1m3 0h2m4 0h1m3 0h1m8 0h2m3 0h1m2 0h4m3 0h3m2 0h2m2 0h2m1 0h7m1 0h1m3 0h2m1 0h2m1 0h3m6 0h2m1 0h3m3 0h1m1 0h3M4 154.5h7m1 0h1m1 0h2m2 0h2m1 0h1m1 0h1m2 0h1m3 0h3m1 0h1m1 0h1m1 0h1m4 0h1m1 0h1m1 0h3m2 0h1m3 0h1m1 0h1m1 0h2m1 0h1m1 0h1m2 0h1m2 0h3m1 0h6m1 0h1m1 0h1m1 0h2m1 0h2m1 0h1m1 0h4m1 0h2m2 0h2m1 0h1m1 0h8m2 0h3m2 0h3m1 0h2m1 0h1m1 0h2m1 0h1m2 0h1m1 0h2m7 0h1m2 0h1m1 0h1m1 0h5M4 155.5h1m5 0h1m1 0h2m1 0h1m1 0h2m1 0h1m2 0h2m3 0h3m1 0h1m3 0h3m5 0h2m3 0h1m1 0h4m1 0h1m3 0h1m4 0h2m1 0h2m4 0h1m1 0h1m2 0h2m3 0h1m1 0h1m1 0h2m2 0h1m1 0h1m1 0h2m1 0h6m3 0h1m1 0h2m1 0h5m1 0h3m1 0h3m1 0h2m3 0h2m1 0h1m1 0h3m1 0h6m2 0h2m1 0h1m3 0h2m1 0h2M4 156.5h1m1 0h3m1 0h1m1 0h1m2 0h1m2 0h1m3 0h1m2 0h1m1 0h4m1 0h5m1 0h1m1 0h1m2 0h1m2 0h1m1 0h1m1 0h5m1 0h5m1 0h1m6 0h1m3 0h2m2 0h10m2 0h7m4 0h10m2 0h1m2 0h2m1 0h1m2 0h1m2 0h1m3 0h5m1 0h1m1 0h1m4 0h17m2 0h1M4 157.5h1m1 0h3m1 0h1m1 0h1m1 0h2m1 0h2m1 0h1m4 0h3m1 0h3m5 0h2m1 0h2m1 0h2m1 0h1m1 0h1m2 0h3m3 0h1m1 0h1m4 0h3m1 0h1m1 0h2m1 0h1m1 0h2m1 0h3m2 0h1m2 0h1m5 0h1m1 0h3m2 0h1m1 0h1m2 0h3m1 0h1m4 0h5m2 0h1m3 0h1m2 0h4m1 0h2m3 0h6m1 0h5m4 0h3m1 0h2m1 0h1M4 158.5h1m1 0h3m1 0h1m2 0h1m3 0h1m1 0h1m1 0h1m4 0h2m1 0h2m2 0h1m1 0h1m2 0h1m1 0h1m2 0h1m1 0h2m3 0h2m1 0h4m4 0h4m1 0h1m1 0h1m1 0h1m2 0h1m2 0h1m3 0h3m1 0h1m1 0h4m1 0h1m2 0h1m1 0h1m2 0h1m1 0h1m9 0h1m1 0h2m3 0h2m1 0h1m1 0h2m1 0h2m2 0h3m1 0h5m1 0h2m2 0h3m2 0h1m1 0h4m1 0h2m1 0h2M4 159.5h1m5 0h1m2 0h3m2 0h2m3 0h1m1 0h2m1 0h4m1 0h2m2 0h1m3 0h4m1 0h2m1 0h2m5 0h4m3 0h1m3 0h1m2 0h3m1 0h1m2 0h1m3 0h1m2 0h3m2 0h2m1 0h4m3 0h2m1 0h1m1 0h1m1 0h1m2 0h1m2 0h3m1 0h3m1 0h1m1 0h2m2 0h1m3 0h1m4 0h1m2 0h6m1 0h5m1 0h1m2 0h2m2 0h3M4 160.5h7m1 0h1m1 0h1m2 0h2m1 0h5m1 0h2m1 0h2m1 0h3m3 0h1m1 0h1m1 0h2m4 0h3m2 0h1m1 0h1m2 0h2m1 0h3m1 0h1m3 0h1m1 0h1m1 0h1m6 0h12m1 0h2m2 0h2m3 0h2m2 0h2m2 0h7m2 0h3m1 0h1m1 0h1m3 0h5m2 0h2m2 0h1m1 0h1m4 0h1m1 0h1m1 0h5m4 0h1"/></svg>
