<?xml version="1.0" encoding="utf-8"?><!DOCTYPE svg PUBLIC "-//W3C//DTD SVG 1.1//EN" "http://www.w3.org/Graphics/SVG/1.1/DTD/svg11.dtd"><svg xmlns="http://www.w3.org/2000/svg" viewBox="0 0 169 169" shape-rendering="crispEdges"><path fill="#ffffff" d="M0 0h169v169H0z"/><path stroke="#000000" d="M4 4.5h7m3 0h3m2 0h1m2 0h1m1 0h4m5 0h1m2 0h3m2 0h1m3 0h1m1 0h3m1 0h5m3 0h1m1 0h2m1 0h5m1 0h1m2 0h4m1 0h1m3 0h2m2 0h1m1 0h1m1 0h2m2 0h2m2 0h3m2 0h2m1 0h3m4 0h2m3 0h1m3 0h1m1 0h1m2 0h1m1 0h1m1 0h2m1 0h2m1 0h4m2 0h2m1 0h1m1 0h3m3 0h2m2 0h7M4 5.5h1m5 0h1m4 0h2m3 0h1m1 0h1m5 0h1m1 0h4m1 0h1m1 0h1m1 0h1m2 0h1m7 0h1m1 0h3m3 0h2m3 0h3m2 0h1m1 0h2m1 0h2m1 0h6m1 0h2m2 0h1m3 0h6m1 0h1m1 0h1m1 0h1m1 0h3m1 0h1m1 0h2m2 0h2m2 0h1m1 0h8m2 0h1m3 0h3m2 0h3m3 0h1m2 0h5m1 0h1m3 0h1m5 0h1M4 6.5h1m1 0h3m1 0h1m1 0h1m5 0h2m1 0h1m1 0h2m1 0h1m4 0h1m2 0h2m2 0h1m1 0h2m2 0h7m1 0h1m2 0h2m1 0h1m1 0h4m1 0h5m3 0h1m3 0h3m2 0h2m5 0h1m2 0h1m3 0h2m1 0h1m3 0h6m1 0h1m2 0h6m1 0h1m2 0h3m3 0h1m2 0h2m1 0h1m1 0h1m1 0h1m2 0h2m1 0h1m1 0h1m1 0h1m6 0h1m1 0h1m1 0h3m1 0h1M4 7.5h1m1 0h3m1 0h1m1 0h10m1 0h1m1 0h1m3 0h1m3 0h1m1 0h1m1 0h4m1 0h2m1 0h2m1 0h2m2 0h1m3 0h1m1 0h1m3 0h2m3 0h4m4 0h1m1 0h1m1 0h1m1 0h1m1 0h6m3 0h1m3 0h5m1 0h2m2 0h1m1 0h2m4 0h1m2 0h2m1 0h1m4 0h1m1 0h1m3 0h3m1 0h2m1 0h1m1 0h1m1 0h1m2 0h2m1 0h2m3 0h2m1 0h1m1 0h1m1 0h3m1 0h1M4 8.5h1m1 0h3m1 0h1m1 0h1m2 0h4m2 0h2m1 0h8m5 0h1m1 0h1m5 0h1m2 0h2m1 0h6m1 0h2m5 0h1m1 0h5m6 0h5m1 0h1m2 0h1m8 0h2m6 0h7m1 0h1m1 0h1m3 0h3m2 0h2m3 0h7m3 0h1m1 0h2m2 0h1m1 0h2m2 0h2m1 0h1m2 0h1m1 0h1m1 0h3m1 0h1M4 9.5h1m5 0h1m1 0h1m2 0h1m1 0h1m7 0h2m3 0h7m3 0h2m3 0h1m2 0h2m2 0h1m3 0h2m1 0h3m2 0h3m3 0h2m1 0h1m2 0h1m1 0h1m3 0h1m4 0h3m1 0h2m5 0h1m1 0h3m1 0h1m3 0h2m1 0h5m2 0h1m1 0h1m3 0h2m4 0h1m3 0h2m4 0h3m1 0h2m5 0h1m4 0h1m1 0h1m5 0h1M4 10.5h7m1 0h1m1 0h1m1 0h1m1 0h1m1 0h1m1 0h1m1 0h1m1 0h1m1 0h1m1 0h1m1 0h1m1 0h1m1 0h1m1 0h1m1 0h1m1 0h1m1 0h1m1 0h1m1 0h1m1 0h1m1 0h1m1 0h1m1 0h1m1 0h1m1 0h1m1 0h1m1 0h1m1 0h1m1 0h1m1 0h1m1 0h1m1 0h1m1 0h1m1 0h1m1 0h1m1 0h1m1 0h1m1 0h1m1 0h1m1 0h1m1 0h1m1 0h1m1 0h1m1 0h1m1 0h1m1 0h1m1 0h1m1 0h1m1 0h1m1 0h1m1 0h1m1 0h1m1 0h1m1 0h1m1 0h1m1 0h1m1 0h1m1 0h1m1 0h1m1 0h1m1 0h1m1 0h1m1 0h1m1 0h1m1 0h1m1 0h1m1 0h1m1 0h1m1 0h1m1 0h1m1 0h1m1 0h1m1 0h1m1 0h7M12 11.5h2m2 0h1m3 0h2m2 0h1m1 0h1m3 0h1m1 0h1m1 0h6m1 0h1m1 0h5m4 0h1m3 0h11m2 0h6m1 0h1m1 0h1m3 0h1m1 0h1m1 0h2m1 0h3m2 0h1m1 0h1m1 0h1m4 0h2m3 0h2m1 0h2m3 0h4m4 0h1m1 0h1m3 0h1m3 0h3m4 0h2m1 0h1m2 0h2m3 0h1m2 0h2M4 12.5h1m1 0h5m2 0h1m1 0h2m3 0h2m2 0h1m1 0h5m1 0h1m1 0h3m3 0h1m3 0h1m2 0h1m2 0h7m1 0h5m1 0h1m4 0h1m4 0h2m2 0h8m1 0h1m3 0h1m2 0h3m1 0h1m2 0h2m1 0h7m1 0h1m4 0h3m1 0h1m6 0h1m1 0h6m3 0h1m3 0h2m4 0h2m2 0h2m1 0h1m1 0h5M6 13.5h1m1 0h1m2 0h3m1 0h1m4 0h1m2 0h2m3 0h1m1 0h1m2 0h1m2 0h3m4 0h2m1 0h1m4 0h2m1 0h1m5 0h4m1 0h1m1 0h3m1 0h3m1 0h1m1 0h1m1 0h1m5 0h1m1 0h2m1 0h1m1 0h1m1 0h2m1 0h1m5 0h1m1 0h1m1 0h1m1 0h2m1 0h1m1 0h1m1 0h1m1 0h1m1 0h1m2 0h1m1 0h1m3 0h4m1 0h1m3 0h1m3 0h3m4 0h1m1 0h1m1 0h1m2 0h1m1 0h5m1 0h1M5 14.5h2m3 0h2m2 0h1m4 0h3m1 0h8m4 0h1m1 0h1m3 0h4m2 0h5m2 0h2m1 0h1m2 0h1m2 0h4m2 0h2m2 0h4m1 0h3m2 0h3m1 0h2m2 0h3m6 0h2m2 0h3m2 0h1m1 0h1m1 0h1m1 0h2m1 0h1m1 0h1m1 0h2m2 0h2m1 0h5m1 0h1m3 0h3m2 0h5m1 0h2m6 0h1m2 0h3M8 15.5h1m2 0h1m1 0h1m1 0h1m1 0h1m2 0h3m1 0h2m1 0h1m1 0h1m1 0h3m4 0h1m4 0h2m2 0h1m8 0h2m8 0h3m4 0h1m1 0h1m2 0h3m1 0h4m2 0h2m1 0h1m2 0h5m4 0h1m1 0h2m2 0h2m1 0h2m1 0h2m6 0h1m1 0h2m1 0h1m6 0h1m2 0h2m1 0h2m2 0h1m5 0h3m3 0h2m4 0h2M4 16.5h2m2 0h4m1 0h6m1 0h1m2 0h1m2 0h1m1 0h1m1 0h1m2 0h2m1 0h1m3 0h4m3 0h1m2 0h1m1 0h2m1 0h4m1 0h1m1 0h2m1 0h1m1 0h1m1 0h1m4 0h2m5 0h1m2 0h1m2 0h1m2 0h2m1 0h1m4 0h1m6 0h5m4 0h2m1 0h1m2 0h1m1 0h4m1 0h1m2 0h1m1 0h1m2 0h1m2 0h2m2 0h1m2 0h1m3 0h2m2 0h4m3 0h5M5 17.5h4m2 0h2m4 0h2m1 0h1m1 0h5m4 0h1m1 0h2m3 0h2m1 0h1m1 0h2m3 0h1m1 0h1m1 0h1m1 0h3m1 0h3m3 0h1m4 0h3m2 0h2m2 0h2m1 0h2m1 0h1m2 0h2m1 0h1m5 0h2m3 0h1m1 0h1m4 0h2m1 0h2m2 0h2m1 0h1m3 0h1m2 0h1m1 0h1m2 0h1m1 0h4m1 0h3m1 0h2m4 0h2m2 0h2m1 0h1m1 0h5m1 0h3M6 18.5h1m2 0h5m1 0h4m1 0h1m1 0h5m1 0h1m1 0h1m1 0h1m1 0h1m3 0h2m1 0h3m5 0h4m2 0h1m1 0h1m2 0h1m1 0h1m1 0h1m6 0h1m1 0h1m2 0h1m3 0h1m1 0h1m1 0h2m4 0h2m1 0h6m3 0h2m2 0h4m1 0h3m2 0h1m1 0h2m1 0h3m1 0h1m2 0h1m1 0h1m1 0h2m2 0h3m1 0h4m2 0h3m1 0h1m3 0h1m2 0h1m5 0h2M6 19.5h2m1 0h1m1 0h1m2 0h1m2 0h1m1 0h1m1 0h2m1 0h2m5 0h1m1 0h1m3 0h1m1 0h1m1 0h4m2 0h3m2 0h1m1 0h1m2 0h2m1 0h8m3 0h3m2 0h2m1 0h2m1 0h1m1 0h2m5 0h2m1 0h1m1 0h1m3 0h1m4 0h1m1 0h1m1 0h3m4 0h3m6 0h1m1 0h1m1 0h1m1 0h1m2 0h1m2 0h1m1 0h1m3 0h2m2 0h2m1 0h1m2 0h1m1 0h2m1 0h2m1 0h1m1 0h2M4 20.5h9m1 0h4m2 0h9m1 0h1m4 0h3m1 0h1m2 0h1m1 0h1m4 0h3m3 0h1m1 0h2m1 0h1m2 0h4m3 0h3m2 0h3m1 0h3m1 0h1m1 0h4m2 0h1m2 0h1m1 0h2m1 0h3m2 0h3m2 0h1m1 0h1m3 0h1m1 0h2m3 0h2m4 0h1m1 0h1m1 0h1m3 0h1m2 0h2m1 0h4m2 0h2m4 0h4m1 0h1m2 0h1M5 21.5h1m1 0h2m2 0h2m9 0h3m4 0h1m1 0h1m2 0h1m1 0h1m1 0h1m1 0h2m1 0h4m3 0h2m1 0h1m5 0h1m2 0h1m2 0h2m3 0h1m2 0h2m3 0h3m1 0h1m1 0h3m1 0h7m1 0h2m1 0h1m3 0h1m2 0h2m8 0h1m5 0h1m1 0h3m5 0h2m1 0h3m3 0h1m2 0h1m2 0h3m3 0h2m1 0h1m1 0h1m4 0h2M5 22.5h1m4 0h1m2 0h3m4 0h2m1 0h1m10 0h1m1 0h3m2 0h1m1 0h1m3 0h3m4 0h1m1 0h1m4 0h1m1 0h3m1 0h1m1 0h2m1 0h4m1 0h2m4 0h2m2 0h4m3 0h2m2 0h1m3 0h3m1 0h3m2 0h2m1 0h2m2 0h1m4 0h1m1 0h1m1 0h2m3 0h1m2 0h3m1 0h1m1 0h3m1 0h1m1 0h1m2 0h4m1 0h1m1 0h1m2 0h1m2 0h2M4 23.5h4m4 0h4m1 0h4m3 0h2m2 0h1m1 0h3m1 0h6m2 0h1m1 0h1m2 0h1m1 0h1m2 0h1m1 0h3m3 0h2m1 0h1m1 0h3m1 0h1m6 0h1m2 0h4m3 0h2m7 0h1m1 0h2m4 0h1m4 0h3m1 0h1m2 0h4m1 0h1m1 0h1m3 0h2m1 0h4m1 0h2m6 0h3m1 0h3m1 0h4m2 0h3m1 0h1m2 0h2M8 24.5h3m1 0h4m2 0h4m1 0h4m6 0h7m2 0h1m5 0h1m1 0h1m1 0h1m2 0h1m1 0h1m2 0h2m1 0h2m1 0h2m2 0h3m2 0h1m5 0h1m1 0h4m1 0h2m4 0h2m1 0h2m2 0h1m2 0h4m1 0h4m2 0h1m2 0h1m1 0h1m2 0h3m1 0h2m1 0h3m3 0h1m8 0h1m3 0h2m1 0h1m1 0h1m1 0h4m3 0h2M4 25.5h1m2 0h3m1 0h3m5 0h2m2 0h1m2 0h2m1 0h1m1 0h2m2 0h1m1 0h1m1 0h2m3 0h1m1 0h1m1 0h2m3 0h1m1 0h1m1 0h1m1 0h1m2 0h1m2 0h1m1 0h2m2 0h1m3 0h3m4 0h1m1 0h2m1 0h6m2 0h1m2 0h3m2 0h1m1 0h3m2 0h1m1 0h1m1 0h3m4 0h1m1 0h3m1 0h2m1 0h1m1 0h2m4 0h3m2 0h1m1 0h1m1 0h1m2 0h1m3 0h5m1 0h2M5 26.5h1m2 0h5m3 0h3m1 0h1m4 0h6m1 0h1m3 0h1m1 0h1m6 0h1m1 0h2m1 0h8m2 0h1m3 0h1m6 0h1m1 0h3m2 0h5m1 0h1m1 0h1m1 0h1m2 0h3m2 0h2m3 0h9m1 0h1m1 0h1m1 0h2m1 0h2m4 0h1m2 0h1m1 0h6m1 0h1m3 0h1m1 0h1m3 0h3m1 0h3m2 0h6m1 0h1m1 0h1M6 27.5h1m1 0h1m3 0h5m1 0h2m3 0h1m2 0h1m3 0h1m2 0h1m4 0h2m1 0h2m3 0h1m1 0h2m2 0h1m3 0h2m2 0h4m1 0h1m2 0h3m2 0h2m1 0h1m1 0h1m3 0h3m2 0h1m2 0h1m2 0h2m4 0h1m3 0h2m3 0h1m2 0h4m3 0h1m2 0h3m3 0h1m2 0h1m3 0h2m1 0h1m1 0h1m2 0h3m2 0h2m5 0h1m1 0h1m3 0h1m1 0h2M4 28.5h1m1 0h1m1 0h1m1 0h1m1 0h2m2 0h6m1 0h2m1 0h1m1 0h1m1 0h1m1 0h2m1 0h1m3 0h7m1 0h1m3 0h2m1 0h1m1 0h1m1 0h2m6 0h5m1 0h1m3 0h1m1 0h1m1 0h1m1 0h3m1 0h1m1 0h1m2 0h2m1 0h2m1 0h1m1 0h1m1 0h1m1 0h2m1 0h1m1 0h1m4 0h1m1 0h2m1 0h2m5 0h2m1 0h1m1 0h1m1 0h1m1 0h1m3 0h2m4 0h6m3 0h2m1 0h1m1 0h1m1 0h3m1 0h1M4 29.5h2m2 0h1m3 0h1m5 0h1m7 0h1m3 0h4m2 0h1m1 0h1m1 0h4m1 0h1m2 0h2m1 0h2m3 0h2m1 0h2m1 0h3m2 0h4m1 0h1m1 0h1m3 0h1m3 0h7m4 0h2m1 0h2m3 0h4m3 0h2m1 0h3m1 0h1m2 0h2m4 0h1m1 0h1m1 0h1m1 0h1m3 0h5m2 0h2m3 0h1m4 0h1m2 0h3m3 0h1m2 0h2M6 30.5h7m3 0h1m2 0h2m4 0h6m1 0h1m5 0h1m1 0h3m2 0h3m1 0h2m1 0h6m2 0h1m4 0h1m1 0h2m1 0h1m1 0h3m1 0h8m1 0h4m1 0h2m1 0h1m1 0h1m1 0h1m2 0h2m2 0h6m1 0h2m1 0h1m9 0h2m1 0h1m2 0h5m1 0h2m8 0h1m5 0h2m2 0h5m1 0h3M5 31.5h3m3 0h1m3 0h3m2 0h2m2 0h5m1 0h3m2 0h1m2 0h1m1 0h1m1 0h1m3 0h1m2 0h1m2 0h2m7 0h1m1 0h3m3 0h2m1 0h7m4 0h4m2 0h1m2 0h2m2 0h1m1 0h1m1 0h2m1 0h1m1 0h3m1 0h4m2 0h4m2 0h1m2 0h2m1 0h1m3 0h2m2 0h1m1 0h1m1 0h1m3 0h8m1 0h1m2 0h1m6 0h1m1 0h1M4 32.5h2m3 0h7m3 0h1m6 0h2m2 0h2m1 0h2m2 0h2m1 0h1m1 0h4m2 0h1m1 0h2m2 0h3m1 0h1m1 0h1m2 0h2m3 0h1m1 0h1m1 0h6m1 0h1m1 0h1m3 0h2m2 0h3m1 0h1m3 0h4m3 0h2m1 0h2m1 0h5m1 0h1m4 0h2m4 0h1m2 0h4m2 0h8m1 0h1m4 0h1m5 0h1m3 0h1m1 0h2M4 33.5h1m3 0h1m3 0h1m1 0h2m1 0h3m3 0h1m1 0h1m1 0h2m1 0h2m1 0h2m2 0h1m1 0h1m1 0h3m1 0h2m4 0h2m1 0h4m1 0h1m1 0h2m1 0h5m1 0h2m7 0h1m3 0h1m1 0h1m2 0h1m2 0h7m2 0h3m3 0h1m1 0h4m2 0h2m1 0h1m1 0h1m2 0h5m1 0h1m2 0h2m5 0h1m5 0h2m1 0h2m1 0h1m3 0h1m1 0h2m4 0h1M5 34.5h1m2 0h3m3 0h5m2 0h1m7 0h3m1 0h1m3 0h2m1 0h1m1 0h3m3 0h1m1 0h1m1 0h3m1 0h1m1 0h4m3 0h1m5 0h2m2 0h3m1 0h1m1 0h3m4 0h1m4 0h2m1 0h3m1 0h1m1 0h2m1 0h1m1 0h1m1 0h1m1 0h3m1 0h8m1 0h1m3 0h1m1 0h2m2 0h1m3 0h2m1 0h4m2 0h2m1 0h1m4 0h1m3 0h2M4 35.5h2m2 0h1m3 0h5m1 0h2m2 0h4m2 0h3m1 0h1m2 0h1m1 0h1m1 0h1m1 0h4m1 0h2m1 0h1m1 0h1m1 0h4m12 0h3m1 0h2m2 0h1m1 0h2m4 0h1m2 0h1m2 0h1m5 0h2m1 0h3m2 0h3m4 0h1m1 0h1m1 0h1m3 0h2m5 0h2m3 0h2m2 0h1m1 0h1m1 0h1m1 0h1m1 0h1m2 0h1m1 0h1m1 0h1m1 0h4m3 0h1m2 0h1M4 36.5h2m1 0h2m1 0h2m1 0h2m1 0h1m3 0h3m1 0h2m1 0h1m1 0h1m2 0h1m2 0h1m3 0h5m1 0h1m1 0h1m2 0h1m1 0h1m6 0h1m2 0h5m1 0h7m1 0h2m2 0h3m2 0h1m2 0h4m3 0h2m3 0h1m1 0h3m1 0h2m1 0h2m1 0h2m4 0h1m1 0h2m4 0h1m5 0h2m1 0h4m2 0h1m1 0h2m1 0h4m2 0h1m1 0h1m1 0h1m5 0h1M4 37.5h4m3 0h5m1 0h4m2 0h1m1 0h2m4 0h4m1 0h1m1 0h1m1 0h1m1 0h1m1 0h2m2 0h2m2 0h2m2 0h1m1 0h1m1 0h1m1 0h2m1 0h1m1 0h2m1 0h1m1 0h1m1 0h2m1 0h1m3 0h2m3 0h1m1 0h2m1 0h1m8 0h1m3 0h3m1 0h1m1 0h1m1 0h2m3 0h4m1 0h4m2 0h2m2 0h1m1 0h1m1 0h1m2 0h1m1 0h2m1 0h3m1 0h1m4 0h4m5 0h1M4 38.5h3m1 0h4m2 0h1m5 0h1m3 0h2m1 0h3m2 0h4m1 0h1m2 0h4m1 0h1m1 0h1m3 0h1m1 0h2m3 0h1m2 0h1m1 0h1m1 0h2m2 0h2m1 0h2m4 0h2m1 0h1m3 0h2m1 0h1m1 0h3m3 0h3m1 0h2m4 0h1m1 0h1m4 0h2m3 0h5m1 0h1m1 0h4m1 0h1m1 0h2m8 0h2m1 0h1m2 0h4m1 0h3m3 0h1m3 0h1M9 39.5h1m2 0h1m4 0h1m1 0h1m1 0h2m1 0h2m2 0h3m1 0h1m1 0h2m1 0h2m7 0h1m3 0h2m1 0h2m3 0h1m1 0h1m1 0h2m6 0h1m4 0h1m1 0h1m2 0h3m5 0h1m1 0h2m1 0h2m2 0h1m2 0h4m2 0h2m3 0h2m1 0h1m1 0h4m2 0h1m4 0h7m2 0h2m4 0h1m1 0h1m1 0h2m7 0h3m3 0h1m1 0h2M6 40.5h1m2 0h2m3 0h6m1 0h1m1 0h1m1 0h3m2 0h1m3 0h1m2 0h1m1 0h1m3 0h1m3 0h2m6 0h1m3 0h4m2 0h3m1 0h1m1 0h4m2 0h8m2 0h1m1 0h2m1 0h1m2 0h5m1 0h1m1 0h1m1 0h1m2 0h1m3 0h4m2 0h2m3 0h1m5 0h1m2 0h2m2 0h1m1 0h1m1 0h1m3 0h2m2 0h1m1 0h2m6 0h4M7 41.5h1m5 0h4m3 0h2m1 0h2m4 0h5m1 0h3m2 0h2m2 0h3m7 0h1m2 0h2m2 0h2m1 0h2m1 0h1m3 0h2m4 0h1m3 0h1m2 0h3m3 0h3m1 0h1m1 0h1m1 0h1m4 0h1m3 0h4m1 0h2m4 0h2m1 0h8m5 0h1m3 0h4m3 0h1m3 0h2m2 0h2m1 0h1m1 0h3m1 0h3M4 42.5h3m1 0h1m1 0h6m1 0h1m2 0h1m1 0h4m1 0h5m6 0h2m1 0h1m2 0h1m4 0h3m3 0h4m2 0h2m1 0h5m2 0h1m6 0h1m3 0h3m2 0h1m2 0h1m1 0h1m1 0h3m2 0h1m1 0h1m1 0h1m1 0h2m2 0h1m5 0h1m2 0h1m2 0h1m1 0h2m2 0h1m1 0h9m2 0h1m1 0h1m1 0h1m1 0h2m1 0h1m3 0h2m2 0h1m1 0h3m2 0h1M7 43.5h1m1 0h1m6 0h4m3 0h1m2 0h5m3 0h1m2 0h1m1 0h3m1 0h2m1 0h1m1 0h3m2 0h3m1 0h3m2 0h1m1 0h4m6 0h1m5 0h3m2 0h1m1 0h3m1 0h2m3 0h1m1 0h1m4 0h1m2 0h3m2 0h1m1 0h1m1 0h5m4 0h2m1 0h3m2 0h1m1 0h1m6 0h1m1 0h1m1 0h3m4 0h1m2 0h3m1 0h1m2 0h1M6 44.5h3m1 0h1m1 0h2m2 0h6m5 0h1m1 0h5m1 0h7m1 0h4m2 0h2m1 0h3m1 0h1m1 0h1m1 0h3m3 0h1m2 0h2m2 0h2m4 0h1m2 0h2m4 0h1m4 0h1m3 0h3m1 0h1m1 0h2m1 0h2m1 0h1m1 0h2m3 0h1m1 0h1m2 0h1m2 0h1m2 0h1m3 0h3m1 0h3m1 0h1m1 0h2m1 0h3m2 0h4m3 0h4m1 0h1m1 0h1M5 45.5h4m2 0h1m2 0h1m1 0h2m2 0h2m3 0h1m1 0h3m2 0h5m4 0h4m1 0h2m1 0h1m1 0h5m2 0h2m4 0h3m2 0h2m1 0h3m6 0h3m1 0h2m3 0h8m1 0h1m6 0h2m3 0h1m1 0h1m3 0h2m4 0h3m1 0h1m2 0h2m4 0h2m2 0h5m1 0h1m1 0h1m1 0h1m1 0h1m1 0h2m4 0h1m1 0h1M4 46.5h9m5 0h2m1 0h1m1 0h2m1 0h1m1 0h1m1 0h3m1 0h2m2 0h1m1 0h1m1 0h3m1 0h1m1 0h1m4 0h1m1 0h2m1 0h1m1 0h2m4 0h1m1 0h1m2 0h1m1 0h1m2 0h1m2 0h3m3 0h3m3 0h2m2 0h3m2 0h2m2 0h6m1 0h3m4 0h1m5 0h3m2 0h1m9 0h5m1 0h2m1 0h3m3 0h4m2 0h1m1 0h3M4 47.5h3m4 0h1m1 0h2m1 0h1m1 0h2m1 0h4m1 0h1m1 0h5m1 0h1m3 0h1m1 0h2m1 0h4m3 0h2m4 0h4m2 0h1m2 0h3m1 0h3m1 0h2m2 0h1m1 0h3m2 0h1m1 0h2m3 0h2m3 0h2m1 0h1m1 0h2m1 0h2m2 0h4m1 0h1m3 0h2m1 0h2m1 0h4m5 0h1m2 0h1m1 0h4m3 0h2m2 0h2m1 0h1m2 0h1m2 0h1m1 0h3m1 0h2M6 48.5h2m2 0h6m2 0h2m1 0h5m1 0h1m2 0h1m2 0h1m3 0h7m4 0h1m1 0h7m5 0h1m1 0h3m5 0h5m2 0h2m4 0h3m2 0h4m2 0h2m1 0h5m1 0h1m12 0h1m2 0h1m1 0h2m1 0h1m1 0h1m1 0h1m2 0h1m3 0h1m1 0h1m1 0h1m1 0h2m3 0h1m1 0h2m2 0h1m1 0h1m2 0h1m4 0h1M5 49.5h2m4 0h1m2 0h1m1 0h1m2 0h2m1 0h1m1 0h1m2 0h2m4 0h4m1 0h1m2 0h1m1 0h4m3 0h3m1 0h2m1 0h1m2 0h1m1 0h3m4 0h2m4 0h1m1 0h1m1 0h2m3 0h1m1 0h3m1 0h1m12 0h2m2 0h2m1 0h1m1 0h5m2 0h1m1 0h1m2 0h3m1 0h1m2 0h8m2 0h3m2 0h4m3 0h1m4 0h1m2 0h3M4 50.5h1m1 0h1m2 0h2m6 0h2m5 0h1m1 0h1m1 0h2m3 0h1m6 0h1m1 0h5m7 0h1m3 0h1m2 0h2m1 0h1m1 0h3m2 0h3m1 0h1m1 0h1m2 0h2m1 0h2m5 0h2m3 0h1m5 0h3m2 0h2m2 0h4m2 0h1m4 0h1m3 0h1m1 0h1m1 0h3m1 0h2m1 0h2m1 0h1m1 0h2m2 0h2m1 0h4m1 0h2m1 0h2m1 0h3M4 51.5h1m1 0h1m5 0h1m3 0h3m4 0h1m1 0h2m4 0h1m1 0h2m4 0h1m1 0h1m2 0h2m1 0h1m2 0h1m4 0h3m2 0h3m1 0h1m2 0h1m1 0h2m2 0h1m7 0h1m6 0h2m1 0h3m1 0h1m3 0h5m2 0h3m2 0h2m2 0h1m3 0h7m1 0h5m3 0h2m4 0h3m2 0h4m3 0h4m1 0h1m2 0h4M4 52.5h2m1 0h8m1 0h3m1 0h2m3 0h6m2 0h8m2 0h1m2 0h1m1 0h2m2 0h5m3 0h1m2 0h7m4 0h9m3 0h1m4 0h3m2 0h4m2 0h1m1 0h6m1 0h1m1 0h2m2 0h1m4 0h1m1 0h1m4 0h6m1 0h1m2 0h1m1 0h2m2 0h1m2 0h1m2 0h1m2 0h1m1 0h5m1 0h3M6 53.5h1m1 0h1m3 0h1m1 0h1m1 0h3m2 0h1m4 0h1m3 0h2m1 0h2m3 0h1m2 0h1m1 0h1m2 0h2m3 0h2m3 0h4m1 0h4m1 0h1m4 0h1m1 0h6m3 0h2m2 0h4m2 0h3m2 0h1m1 0h3m2 0h1m3 0h2m4 0h3m2 0h1m1 0h1m2 0h1m4 0h2m3 0h1m1 0h2m3 0h2m1 0h1m2 0h3m1 0h1m2 0h1m1 0h1m3 0h2m1 0h2M5 54.5h4m1 0h1m1 0h2m1 0h1m6 0h1m1 0h3m1 0h1m1 0h1m1 0h1m1 0h2m1 0h2m3 0h2m1 0h1m6 0h1m1 0h1m1 0h1m2 0h2m2 0h1m1 0h2m2 0h1m2 0h1m1 0h1m1 0h1m1 0h1m1 0h1m1 0h3m1 0h1m2 0h1m2 0h1m1 0h2m4 0h1m1 0h3m1 0h1m1 0h1m2 0h1m2 0h1m2 0h1m1 0h2m1 0h3m2 0h2m1 0h1m1 0h1m1 0h1m1 0h1m3 0h1m2 0h1m1 0h2m1 0h1m1 0h2m1 0h2m1 0h1m1 0h1m1 0h2m1 0h1M4 55.5h1m1 0h1m1 0h1m3 0h1m3 0h5m1 0h1m2 0h2m3 0h3m2 0h3m4 0h1m4 0h1m2 0h3m3 0h1m3 0h1m1 0h1m4 0h1m2 0h1m1 0h2m4 0h1m3 0h1m1 0h5m1 0h3m1 0h1m1 0h2m2 0h1m1 0h3m3 0h2m1 0h1m1 0h1m3 0h1m1 0h2m1 0h1m3 0h1m1 0h3m3 0h1m1 0h1m1 0h1m3 0h5m1 0h1m1 0h7m3 0h2M4 56.5h1m1 0h1m1 0h5m4 0h2m1 0h1m1 0h3m1 0h5m1 0h4m3 0h1m2 0h3m1 0h1m2 0h2m1 0h8m3 0h6m1 0h1m2 0h1m4 0h5m1 0h3m2 0h1m1 0h4m2 0h1m2 0h2m1 0h6m2 0h3m2 0h1m1 0h1m1 0h3m3 0h2m2 0h6m1 0h1m1 0h2m1 0h1m4 0h3m1 0h1m1 0h1m1 0h8m1 0h1M4 57.5h2m8 0h6m1 0h1m2 0h1m1 0h3m5 0h1m2 0h6m1 0h1m1 0h1m4 0h1m2 0h2m1 0h1m1 0h1m3 0h1m6 0h4m7 0h2m1 0h3m5 0h1m1 0h1m6 0h2m3 0h1m1 0h2m1 0h1m3 0h2m2 0h2m5 0h2m1 0h4m1 0h1m2 0h1m8 0h3m2 0h1m1 0h2m1 0h2m1 0h1m1 0h4M5 58.5h1m1 0h1m2 0h1m1 0h4m1 0h3m1 0h4m6 0h1m1 0h3m1 0h1m3 0h5m2 0h1m4 0h3m1 0h7m2 0h1m1 0h1m2 0h1m1 0h1m1 0h1m3 0h6m3 0h2m2 0h2m1 0h3m1 0h2m1 0h1m3 0h1m1 0h2m5 0h2m6 0h1m2 0h2m2 0h3m4 0h1m5 0h2m2 0h2m2 0h2m2 0h2m2 0h3m1 0h1M6 59.5h2m1 0h1m1 0h3m4 0h1m4 0h3m3 0h3m1 0h1m3 0h2m4 0h1m1 0h1m3 0h1m1 0h3m1 0h1m3 0h2m1 0h2m2 0h1m2 0h1m1 0h3m2 0h5m1 0h2m1 0h2m2 0h1m1 0h5m1 0h4m2 0h1m2 0h2m1 0h1m1 0h1m1 0h2m2 0h3m1 0h1m2 0h4m1 0h1m2 0h1m1 0h3m1 0h1m3 0h5m1 0h1m1 0h2m3 0h2m2 0h2M4 60.5h1m1 0h1m2 0h3m3 0h2m1 0h1m1 0h1m2 0h4m1 0h1m4 0h1m1 0h3m4 0h1m1 0h1m1 0h1m1 0h3m2 0h1m4 0h2m2 0h1m1 0h1m3 0h2m2 0h5m1 0h1m4 0h1m3 0h1m2 0h2m1 0h1m3 0h2m2 0h3m1 0h1m1 0h2m3 0h1m1 0h1m1 0h1m1 0h3m1 0h1m1 0h1m2 0h5m4 0h2m1 0h4m2 0h2m1 0h1m5 0h2m3 0h4M4 61.5h2m3 0h1m5 0h2m1 0h6m1 0h3m1 0h3m1 0h1m1 0h3m1 0h3m1 0h2m3 0h3m1 0h1m1 0h1m3 0h2m3 0h1m3 0h2m1 0h5m1 0h1m2 0h1m1 0h1m1 0h1m3 0h2m2 0h2m1 0h4m2 0h1m2 0h2m3 0h1m3 0h3m2 0h1m1 0h1m3 0h2m1 0h1m3 0h1m1 0h2m1 0h1m8 0h2m2 0h2m1 0h1m1 0h2m2 0h1m4 0h2M6 62.5h1m2 0h7m1 0h1m3 0h1m1 0h2m2 0h3m2 0h2m1 0h1m3 0h1m3 0h9m1 0h1m3 0h2m1 0h5m1 0h1m2 0h1m1 0h1m1 0h4m1 0h2m1 0h5m1 0h3m1 0h1m3 0h1m1 0h1m2 0h1m2 0h2m1 0h1m2 0h1m5 0h1m2 0h3m2 0h1m2 0h2m3 0h1m4 0h1m1 0h3m9 0h4m1 0h1m4 0h1m2 0h1M4 63.5h3m1 0h1m6 0h1m1 0h1m1 0h3m1 0h2m3 0h1m1 0h3m1 0h1m2 0h1m7 0h2m1 0h1m1 0h2m4 0h1m1 0h1m2 0h1m3 0h2m2 0h2m1 0h1m1 0h7m2 0h1m3 0h2m1 0h2m3 0h1m1 0h2m1 0h1m2 0h1m1 0h1m1 0h3m1 0h2m1 0h2m2 0h1m2 0h1m2 0h3m1 0h1m1 0h2m2 0h3m2 0h1m4 0h3m1 0h6m4 0h1m1 0h3M5 64.5h1m1 0h1m2 0h2m1 0h3m1 0h1m1 0h2m1 0h3m1 0h1m2 0h7m1 0h2m2 0h1m3 0h1m4 0h1m11 0h2m1 0h4m4 0h1m2 0h1m1 0h2m1 0h2m2 0h1m1 0h3m1 0h1m2 0h2m3 0h1m2 0h1m2 0h2m3 0h1m1 0h2m1 0h1m1 0h2m4 0h2m1 0h2m3 0h1m3 0h3m2 0h2m2 0h1m2 0h4m3 0h1m2 0h1m3 0h2m1 0h1M5 65.5h1m1 0h2m2 0h1m2 0h3m4 0h2m1 0h2m3 0h2m4 0h3m1 0h1m2 0h3m3 0h1m3 0h1m1 0h3m1 0h2m1 0h1m2 0h1m1 0h1m2 0h1m3 0h3m3 0h2m1 0h2m4 0h1m1 0h1m2 0h1m1 0h1m2 0h4m1 0h2m1 0h2m2 0h1m1 0h2m1 0h2m2 0h2m3 0h2m2 0h4m1 0h1m1 0h1m2 0h1m1 0h1m1 0h1m1 0h2m1 0h1m2 0h5m4 0h3m2 0h1M4 66.5h1m1 0h5m2 0h3m1 0h3m1 0h1m3 0h1m1 0h1m11 0h1m1 0h1m3 0h2m2 0h2m1 0h4m2 0h2m1 0h4m2 0h1m1 0h1m3 0h4m4 0h6m1 0h1m2 0h3m1 0h2m3 0h1m2 0h1m1 0h1m2 0h1m6 0h2m1 0h2m7 0h5m2 0h1m1 0h2m1 0h1m1 0h1m1 0h1m1 0h1m3 0h1m1 0h2m1 0h1m3 0h3m1 0h1m1 0h1M4 67.5h1m1 0h1m4 0h7m3 0h1m2 0h1m1 0h1m4 0h4m1 0h1m2 0h2m2 0h2m1 0h1m2 0h2m1 0h1m1 0h1m1 0h4m2 0h3m3 0h1m1 0h1m1 0h2m1 0h4m1 0h1m2 0h1m1 0h1m1 0h1m1 0h2m1 0h1m1 0h2m2 0h3m1 0h3m2 0h2m3 0h1m1 0h4m1 0h1m3 0h1m1 0h2m10 0h1m1 0h3m2 0h1m1 0h1m3 0h2m2 0h1m4 0h6M4 68.5h1m1 0h2m1 0h2m2 0h1m1 0h5m4 0h4m4 0h1m1 0h2m1 0h2m2 0h1m1 0h2m1 0h3m2 0h1m1 0h3m1 0h1m1 0h3m2 0h4m3 0h2m1 0h1m1 0h1m2 0h1m2 0h2m1 0h2m1 0h1m3 0h1m1 0h1m3 0h2m3 0h2m1 0h2m3 0h2m1 0h1m3 0h1m2 0h2m1 0h1m1 0h2m6 0h1m3 0h2m1 0h1m1 0h4m1 0h2m1 0h1m4 0h2m1 0h2m1 0h1M4 69.5h1m2 0h3m2 0h2m3 0h1m2 0h3m1 0h3m5 0h2m3 0h3m1 0h6m4 0h1m1 0h3m2 0h1m4 0h1m4 0h1m3 0h2m2 0h1m6 0h8m6 0h2m3 0h2m1 0h2m2 0h1m2 0h2m3 0h1m2 0h4m1 0h2m2 0h2m3 0h1m3 0h5m6 0h1m1 0h2m1 0h2m1 0h1m2 0h1m2 0h2M4 70.5h1m1 0h3m1 0h1m2 0h1m3 0h2m3 0h4m3 0h2m9 0h4m1 0h1m2 0h3m1 0h1m1 0h1m4 0h2m4 0h2m2 0h2m2 0h1m1 0h1m2 0h4m5 0h1m1 0h1m1 0h2m4 0h1m3 0h5m1 0h3m1 0h1m4 0h2m1 0h3m2 0h2m4 0h3m9 0h1m1 0h2m1 0h1m3 0h3m2 0h2M4 71.5h1m15 0h2m2 0h3m3 0h3m1 0h1m2 0h1m1 0h1m3 0h4m1 0h1m4 0h3m1 0h1m2 0h1m1 0h6m5 0h1m4 0h1m5 0h1m7 0h3m2 0h1m2 0h6m4 0h4m2 0h2m8 0h1m2 0h1m1 0h2m2 0h1m1 0h1m2 0h2m2 0h1m1 0h3m2 0h3m1 0h2m2 0h1m1 0h1m2 0h1M5 72.5h2m3 0h5m1 0h1m1 0h1m1 0h1m1 0h1m1 0h2m1 0h1m2 0h1m5 0h1m1 0h2m1 0h2m3 0h1m2 0h3m9 0h1m3 0h3m1 0h2m2 0h1m1 0h2m2 0h1m3 0h1m1 0h1m1 0h5m3 0h1m1 0h1m2 0h1m1 0h1m1 0h2m4 0h3m3 0h14m2 0h1m1 0h4m1 0h2m1 0h2m1 0h1m2 0h1m1 0h3m1 0h1m2 0h4m1 0h3M7 73.5h3m1 0h5m2 0h1m3 0h1m1 0h2m1 0h3m2 0h1m1 0h1m2 0h4m3 0h1m1 0h4m4 0h1m1 0h1m2 0h2m1 0h2m1 0h3m4 0h2m1 0h1m3 0h1m3 0h1m1 0h2m3 0h1m3 0h1m3 0h2m1 0h1m3 0h2m1 0h4m7 0h1m1 0h1m1 0h2m2 0h1m1 0h2m5 0h1m2 0h3m2 0h4m1 0h3m2 0h1m2 0h2m1 0h1m1 0h1M7 74.5h1m2 0h2m1 0h3m1 0h2m1 0h1m3 0h2m1 0h1m1 0h1m1 0h1m1 0h1m4 0h1m2 0h4m2 0h1m4 0h4m1 0h1m1 0h2m2 0h2m1 0h3m1 0h1m7 0h3m2 0h1m2 0h1m6 0h1m1 0h1m1 0h1m3 0h1m4 0h2m2 0h5m1 0h4m4 0h1m1 0h1m1 0h1m1 0h2m1 0h1m1 0h4m1 0h1m1 0h1m1 0h1m5 0h1m1 0h2m1 0h2m2 0h2m1 0h1m1 0h1M4 75.5h2m1 0h1m5 0h1m1 0h1m1 0h2m7 0h1m1 0h1m1 0h7m2 0h3m1 0h2m1 0h3m1 0h1m3 0h3m2 0h1m1 0h2m2 0h2m2 0h2m1 0h5m1 0h1m1 0h2m1 0h1m1 0h2m1 0h3m1 0h3m2 0h4m3 0h2m2 0h1m7 0h1m1 0h1m4 0h4m2 0h3m1 0h1m1 0h1m2 0h1m4 0h5m1 0h3m1 0h1m3 0h1m1 0h1M5 76.5h1m2 0h1m1 0h2m1 0h4m2 0h3m1 0h7m4 0h2m1 0h1m4 0h2m1 0h3m4 0h1m1 0h1m1 0h5m3 0h8m2 0h1m5 0h3m2 0h1m1 0h6m4 0h1m3 0h2m8 0h4m1 0h1m5 0h1m3 0h1m1 0h2m2 0h5m1 0h2m2 0h1m1 0h2m1 0h3m1 0h3m3 0h1m1 0h1m3 0h1M7 77.5h1m1 0h1m1 0h3m2 0h1m1 0h2m1 0h1m4 0h1m3 0h3m3 0h2m2 0h4m1 0h1m1 0h1m1 0h2m1 0h2m1 0h1m1 0h1m2 0h6m1 0h1m4 0h5m1 0h2m1 0h1m4 0h1m3 0h1m3 0h1m5 0h1m3 0h1m6 0h3m2 0h1m4 0h2m2 0h1m1 0h1m2 0h2m1 0h1m1 0h3m3 0h1m1 0h2m1 0h1m1 0h1m5 0h1m2 0h3m1 0h1m1 0h2M4 78.5h1m1 0h1m1 0h9m2 0h1m2 0h3m1 0h7m3 0h1m1 0h4m6 0h1m1 0h1m1 0h7m1 0h5m1 0h1m4 0h2m1 0h2m1 0h6m1 0h1m2 0h1m1 0h1m4 0h2m1 0h2m3 0h1m1 0h7m3 0h2m1 0h1m1 0h4m2 0h2m3 0h5m4 0h2m1 0h1m1 0h8m3 0h8m1 0h1M4 79.5h1m1 0h3m3 0h1m3 0h4m3 0h2m1 0h1m3 0h2m4 0h2m3 0h1m2 0h1m1 0h2m1 0h4m3 0h2m1 0h3m3 0h1m2 0h2m1 0h3m4 0h1m3 0h6m1 0h1m5 0h3m1 0h1m2 0h3m3 0h2m2 0h1m1 0h2m2 0h1m2 0h4m1 0h2m2 0h1m3 0h2m2 0h1m2 0h1m2 0h2m2 0h2m1 0h1m1 0h1m2 0h1m3 0h4M5 80.5h2m1 0h1m1 0h1m1 0h2m4 0h1m1 0h4m1 0h2m1 0h1m1 0h1m4 0h1m1 0h3m1 0h1m1 0h2m1 0h1m2 0h2m1 0h1m1 0h1m1 0h1m1 0h1m4 0h1m1 0h1m1 0h1m4 0h2m2 0h1m1 0h1m1 0h1m1 0h1m2 0h1m2 0h1m3 0h2m1 0h1m1 0h1m1 0h2m1 0h3m1 0h1m1 0h1m1 0h1m4 0h2m1 0h4m1 0h1m1 0h1m1 0h1m2 0h1m1 0h1m1 0h1m3 0h3m1 0h1m1 0h1m3 0h2m3 0h2m1 0h1m1 0h1m1 0h2M6 81.5h1m1 0h1m3 0h3m3 0h3m1 0h5m3 0h2m1 0h1m4 0h3m5 0h7m3 0h2m1 0h2m4 0h1m1 0h3m1 0h3m2 0h1m1 0h1m3 0h2m1 0h3m1 0h2m4 0h1m1 0h1m1 0h2m1 0h3m3 0h1m1 0h1m1 0h2m1 0h2m1 0h3m2 0h3m2 0h1m1 0h1m3 0h2m3 0h1m1 0h3m1 0h2m1 0h1m1 0h1m3 0h3m3 0h1m2 0h1M4 82.5h3m1 0h5m2 0h1m1 0h1m5 0h1m2 0h9m1 0h1m1 0h2m1 0h3m1 0h2m1 0h2m1 0h12m1 0h2m1 0h2m4 0h2m2 0h6m2 0h1m1 0h2m4 0h2m1 0h2m1 0h1m1 0h2m1 0h6m1 0h7m1 0h1m2 0h2m1 0h1m1 0h2m1 0h5m5 0h1m1 0h1m2 0h1m1 0h3m2 0h2m2 0h7m1 0h1M5 83.5h2m6 0h4m1 0h2m4 0h1m3 0h2m2 0h1m1 0h1m3 0h1m1 0h3m1 0h3m1 0h2m1 0h2m1 0h1m3 0h3m2 0h3m3 0h1m1 0h1m2 0h1m2 0h3m1 0h1m1 0h1m2 0h3m1 0h1m1 0h2m2 0h1m1 0h1m2 0h2m6 0h2m1 0h1m1 0h2m1 0h1m2 0h3m2 0h2m1 0h2m2 0h1m4 0h5m3 0h3m1 0h4m3 0h2m2 0h1m1 0h1m1 0h1M4 84.5h2m1 0h2m1 0h1m1 0h4m1 0h1m2 0h1m3 0h1m1 0h1m1 0h1m1 0h1m1 0h6m1 0h1m1 0h2m1 0h3m2 0h2m3 0h2m6 0h1m7 0h2m1 0h1m1 0h5m1 0h1m1 0h1m1 0h1m1 0h3m3 0h2m2 0h1m2 0h2m2 0h4m1 0h4m1 0h2m1 0h2m1 0h1m2 0h2m1 0h1m4 0h1m1 0h1m1 0h1m2 0h1m3 0h4m1 0h2m2 0h3m6 0h5M4 85.5h1m3 0h2m8 0h2m1 0h2m7 0h1m3 0h1m1 0h2m1 0h2m3 0h2m2 0h1m1 0h1m2 0h1m3 0h1m2 0h3m3 0h1m2 0h1m1 0h1m1 0h1m3 0h1m1 0h1m1 0h2m1 0h2m5 0h1m1 0h1m3 0h1m1 0h2m2 0h1m3 0h1m1 0h3m2 0h1m1 0h4m1 0h2m1 0h1m1 0h1m4 0h1m1 0h3m1 0h1m4 0h4m5 0h1m1 0h3m2 0h2m1 0h2M4 86.5h7m2 0h4m4 0h2m1 0h2m3 0h4m3 0h1m2 0h1m2 0h3m2 0h1m3 0h1m1 0h2m2 0h4m2 0h2m1 0h1m7 0h2m1 0h2m1 0h1m4 0h2m1 0h1m1 0h2m2 0h2m1 0h1m1 0h1m1 0h1m3 0h1m1 0h3m2 0h1m5 0h1m2 0h1m1 0h1m2 0h3m2 0h2m1 0h3m1 0h2m1 0h2m3 0h1m2 0h2m3 0h1m1 0h3m2 0h1M4 87.5h1m1 0h1m1 0h2m1 0h1m1 0h1m3 0h2m2 0h1m2 0h2m1 0h6m1 0h1m3 0h1m2 0h3m2 0h2m2 0h1m1 0h1m2 0h1m4 0h1m2 0h1m4 0h4m1 0h1m2 0h4m2 0h3m2 0h1m2 0h2m2 0h2m4 0h1m1 0h2m6 0h2m1 0h2m1 0h1m1 0h1m2 0h4m1 0h1m2 0h1m2 0h1m1 0h2m3 0h2m4 0h4m1 0h3m4 0h1m3 0h1M4 88.5h1m2 0h1m1 0h2m1 0h5m1 0h1m1 0h3m3 0h2m2 0h4m2 0h1m4 0h1m2 0h1m5 0h2m1 0h3m4 0h1m1 0h1m1 0h1m1 0h1m2 0h2m4 0h2m1 0h1m1 0h1m2 0h1m4 0h1m1 0h1m2 0h3m1 0h4m1 0h1m1 0h2m2 0h1m1 0h1m9 0h2m3 0h2m1 0h2m2 0h1m1 0h1m2 0h3m1 0h2m1 0h3m1 0h1m2 0h1m2 0h1m4 0h3m2 0h1M4 89.5h1m1 0h1m1 0h1m2 0h1m1 0h5m5 0h1m1 0h1m4 0h1m1 0h1m4 0h1m1 0h2m1 0h2m3 0h3m1 0h3m1 0h1m1 0h1m1 0h7m1 0h2m1 0h1m9 0h1m1 0h2m2 0h2m4 0h2m1 0h1m3 0h1m4 0h3m1 0h1m1 0h3m1 0h1m2 0h1m2 0h4m1 0h1m1 0h1m2 0h1m1 0h3m1 0h1m2 0h2m3 0h3m1 0h1m1 0h3m1 0h3m5 0h3M4 90.5h4m1 0h2m5 0h2m1 0h1m3 0h2m2 0h3m2 0h1m2 0h1m3 0h3m1 0h3m2 0h1m2 0h1m1 0h1m1 0h1m5 0h1m1 0h3m2 0h4m1 0h2m9 0h2m1 0h6m4 0h1m1 0h2m1 0h1m2 0h1m2 0h1m1 0h1m1 0h1m1 0h1m5 0h1m3 0h2m2 0h2m2 0h4m1 0h2m2 0h1m1 0h1m1 0h1m3 0h2m1 0h7m2 0h1M4 91.5h1m2 0h1m8 0h2m1 0h1m1 0h6m2 0h2m1 0h3m1 0h2m1 0h1m2 0h1m1 0h1m1 0h1m3 0h1m1 0h1m2 0h1m1 0h1m1 0h1m1 0h1m3 0h2m2 0h1m2 0h1m3 0h2m2 0h3m2 0h2m2 0h3m2 0h1m1 0h1m2 0h3m1 0h1m1 0h1m2 0h3m1 0h5m1 0h1m2 0h1m3 0h1m1 0h2m1 0h1m1 0h1m7 0h1m1 0h1m1 0h1m1 0h1m3 0h2m3 0h1m2 0h1m1 0h2m1 0h1M5 92.5h2m2 0h2m1 0h1m2 0h1m2 0h1m3 0h1m1 0h3m1 0h2m2 0h2m1 0h4m1 0h1m3 0h3m1 0h1m1 0h2m3 0h1m1 0h2m1 0h2m1 0h1m2 0h2m2 0h2m1 0h2m1 0h1m1 0h2m2 0h1m1 0h4m2 0h1m1 0h2m2 0h4m1 0h1m3 0h3m1 0h1m3 0h1m3 0h1m1 0h1m2 0h2m1 0h3m2 0h2m1 0h2m1 0h2m1 0h1m4 0h2m1 0h6m2 0h1m1 0h2m1 0h1m1 0h1M7 93.5h1m1 0h1m1 0h1m1 0h2m1 0h3m2 0h2m1 0h1m1 0h2m1 0h5m1 0h2m3 0h1m1 0h1m5 0h1m3 0h2m1 0h4m1 0h1m1 0h1m3 0h1m1 0h6m1 0h1m2 0h4m3 0h1m4 0h5m2 0h2m1 0h1m1 0h1m1 0h1m1 0h1m2 0h1m2 0h2m2 0h2m3 0h2m1 0h2m6 0h1m4 0h1m1 0h2m2 0h1m2 0h1m1 0h1m4 0h1m2 0h2m5 0h2M6 94.5h1m3 0h1m1 0h6m1 0h1m1 0h2m2 0h1m2 0h4m1 0h2m5 0h5m1 0h3m1 0h3m2 0h1m2 0h1m4 0h1m3 0h1m1 0h1m3 0h1m1 0h1m1 0h1m3 0h3m1 0h1m7 0h1m6 0h1m1 0h2m2 0h1m2 0h7m4 0h2m2 0h1m2 0h2m3 0h1m3 0h1m2 0h1m2 0h1m1 0h6m3 0h4m2 0h1m2 0h2M4 95.5h3m6 0h1m1 0h6m4 0h3m2 0h1m4 0h4m1 0h1m1 0h3m1 0h4m3 0h1m2 0h1m1 0h1m2 0h1m1 0h1m1 0h3m1 0h6m1 0h2m1 0h1m1 0h1m2 0h2m5 0h1m2 0h2m1 0h2m7 0h1m1 0h1m4 0h3m1 0h6m2 0h1m1 0h1m7 0h2m1 0h6m4 0h2m1 0h1m1 0h2m1 0h2m2 0h1m1 0h1m1 0h1M6 96.5h1m1 0h3m4 0h4m2 0h3m1 0h3m1 0h1m3 0h1m2 0h3m3 0h1m1 0h1m9 0h1m1 0h1m1 0h1m2 0h1m1 0h2m2 0h1m3 0h2m2 0h3m1 0h2m1 0h1m3 0h7m2 0h1m4 0h11m1 0h1m2 0h1m1 0h1m1 0h1m6 0h1m2 0h1m1 0h1m1 0h1m1 0h2m2 0h2m1 0h1m2 0h1m4 0h2m2 0h1m2 0h1m5 0h2M4 97.5h2m2 0h1m2 0h1m2 0h1m1 0h2m2 0h4m1 0h1m2 0h1m1 0h2m1 0h2m2 0h3m1 0h1m1 0h2m2 0h1m3 0h4m3 0h1m1 0h1m10 0h1m3 0h3m2 0h6m1 0h2m4 0h8m1 0h2m2 0h1m2 0h1m5 0h1m1 0h2m2 0h1m2 0h1m2 0h3m1 0h2m1 0h1m7 0h1m3 0h3m1 0h2m1 0h1m1 0h3m1 0h2M7 98.5h1m2 0h1m1 0h3m1 0h1m1 0h1m11 0h1m1 0h6m2 0h1m1 0h1m1 0h3m1 0h9m1 0h1m1 0h1m2 0h2m1 0h3m5 0h1m3 0h3m3 0h1m1 0h4m4 0h1m1 0h2m3 0h2m1 0h3m1 0h3m1 0h1m1 0h3m6 0h3m1 0h3m2 0h3m3 0h3m1 0h1m1 0h3m3 0h2m3 0h3m2 0h2m2 0h1M5 99.5h3m3 0h4m4 0h5m1 0h3m2 0h5m1 0h1m2 0h1m1 0h1m3 0h1m1 0h1m3 0h4m1 0h1m3 0h1m2 0h2m3 0h5m1 0h1m1 0h3m2 0h3m1 0h1m1 0h1m1 0h1m3 0h4m2 0h1m1 0h1m5 0h1m1 0h1m1 0h2m1 0h1m3 0h1m4 0h1m1 0h1m1 0h3m1 0h1m1 0h1m2 0h1m2 0h1m3 0h2m1 0h1m2 0h1m2 0h2m4 0h1m3 0h2M4 100.5h4m1 0h2m1 0h1m1 0h2m1 0h2m1 0h5m1 0h1m2 0h1m1 0h4m2 0h2m7 0h1m1 0h6m1 0h1m1 0h1m3 0h4m1 0h1m1 0h1m1 0h1m2 0h5m3 0h2m1 0h3m6 0h2m1 0h1m2 0h4m4 0h1m2 0h5m1 0h1m4 0h1m2 0h1m2 0h4m4 0h2m4 0h2m2 0h2m4 0h1m4 0h2m1 0h2m1 0h1m1 0h1M4 101.5h1m1 0h1m1 0h2m7 0h1m4 0h2m2 0h1m1 0h1m1 0h1m1 0h3m1 0h1m1 0h2m2 0h1m7 0h1m1 0h1m1 0h5m3 0h1m1 0h2m1 0h2m1 0h3m2 0h1m3 0h3m1 0h1m1 0h1m1 0h2m1 0h1m1 0h1m1 0h1m1 0h2m6 0h1m1 0h2m4 0h1m2 0h2m1 0h1m1 0h2m3 0h2m2 0h1m4 0h3m2 0h2m1 0h1m2 0h3m2 0h2m1 0h1m4 0h2m1 0h3M5 102.5h1m1 0h2m1 0h1m2 0h4m4 0h3m1 0h1m2 0h2m1 0h2m3 0h2m1 0h2m2 0h1m1 0h2m1 0h1m3 0h3m1 0h1m1 0h1m3 0h4m1 0h2m3 0h1m5 0h1m2 0h5m4 0h2m1 0h3m1 0h1m1 0h1m1 0h2m3 0h1m2 0h1m1 0h1m2 0h1m5 0h3m2 0h2m4 0h1m1 0h1m3 0h3m1 0h3m3 0h2m1 0h1m4 0h2m1 0h1m1 0h2M4 103.5h3m2 0h1m1 0h4m8 0h1m1 0h1m1 0h1m1 0h7m1 0h1m1 0h4m3 0h5m1 0h2m1 0h1m2 0h1m1 0h1m1 0h1m2 0h3m4 0h9m1 0h1m1 0h1m1 0h1m1 0h2m1 0h4m4 0h2m2 0h1m3 0h2m1 0h1m3 0h1m3 0h4m1 0h3m1 0h1m1 0h1m1 0h1m3 0h1m1 0h1m1 0h1m2 0h2m1 0h1m3 0h1m1 0h3m4 0h1m1 0h1m1 0h2M4 104.5h1m1 0h7m2 0h1m1 0h2m4 0h1m1 0h6m2 0h2m1 0h1m1 0h1m1 0h1m6 0h3m2 0h5m1 0h1m3 0h9m1 0h1m2 0h8m1 0h2m2 0h1m1 0h4m1 0h1m1 0h3m1 0h1m2 0h5m7 0h1m3 0h2m2 0h1m2 0h1m2 0h5m2 0h1m1 0h2m2 0h2m1 0h4m2 0h1m1 0h1m1 0h5M4 105.5h1m3 0h1m3 0h2m2 0h2m1 0h4m1 0h3m3 0h1m1 0h1m2 0h1m3 0h3m1 0h1m1 0h2m2 0h1m1 0h2m3 0h10m1 0h3m2 0h1m3 0h1m1 0h1m3 0h2m2 0h1m5 0h3m5 0h3m1 0h1m3 0h5m4 0h1m1 0h2m3 0h2m3 0h2m3 0h1m2 0h1m4 0h2m1 0h2m2 0h2m2 0h1m2 0h1m3 0h4M5 106.5h2m1 0h1m1 0h1m1 0h1m1 0h5m2 0h2m1 0h3m1 0h1m1 0h2m3 0h1m2 0h1m1 0h3m2 0h1m1 0h1m2 0h3m1 0h1m1 0h1m2 0h1m4 0h3m1 0h1m1 0h2m2 0h1m2 0h2m1 0h1m1 0h2m1 0h1m4 0h1m1 0h1m1 0h2m1 0h1m3 0h1m2 0h1m1 0h1m1 0h1m1 0h1m1 0h2m1 0h1m1 0h5m2 0h1m1 0h1m1 0h1m1 0h1m1 0h1m1 0h3m1 0h1m2 0h1m1 0h1m4 0h2m2 0h1m3 0h1m1 0h1m1 0h1M4 107.5h1m1 0h3m3 0h1m1 0h3m1 0h1m1 0h1m1 0h5m3 0h2m1 0h1m1 0h5m5 0h1m2 0h3m1 0h1m3 0h2m1 0h1m1 0h2m1 0h1m4 0h1m1 0h1m2 0h1m1 0h3m3 0h1m1 0h1m1 0h2m1 0h3m1 0h4m1 0h3m1 0h3m3 0h2m5 0h2m1 0h1m1 0h1m3 0h3m2 0h2m3 0h1m3 0h7m1 0h1m1 0h3m5 0h1m3 0h1M6 108.5h8m1 0h2m1 0h2m1 0h1m2 0h1m1 0h5m1 0h1m2 0h1m2 0h7m5 0h1m1 0h5m2 0h2m2 0h4m2 0h5m3 0h6m1 0h4m1 0h2m2 0h8m1 0h1m1 0h5m1 0h3m1 0h1m1 0h1m1 0h4m3 0h1m1 0h1m2 0h5m1 0h2m2 0h1m1 0h1m1 0h1m2 0h1m5 0h1m2 0h7M4 109.5h1m4 0h1m1 0h1m1 0h2m1 0h1m1 0h1m3 0h1m2 0h2m2 0h5m3 0h1m2 0h1m1 0h1m1 0h2m2 0h1m1 0h5m1 0h1m3 0h1m1 0h1m2 0h1m1 0h6m1 0h1m1 0h5m1 0h5m4 0h2m1 0h1m2 0h1m1 0h3m1 0h1m2 0h1m2 0h1m2 0h1m2 0h1m1 0h1m1 0h1m1 0h1m1 0h6m5 0h3m1 0h1m5 0h1m2 0h3m2 0h4m2 0h2m3 0h1M5 110.5h1m1 0h1m2 0h2m1 0h1m2 0h1m4 0h1m2 0h2m1 0h2m2 0h1m2 0h3m1 0h1m1 0h2m1 0h2m2 0h3m1 0h4m2 0h2m2 0h3m3 0h2m1 0h1m1 0h2m1 0h3m1 0h1m1 0h2m1 0h2m2 0h2m1 0h1m1 0h1m3 0h1m1 0h2m1 0h1m7 0h2m1 0h1m2 0h1m2 0h5m1 0h2m2 0h2m3 0h1m1 0h3m3 0h3m3 0h1m1 0h1m3 0h4m2 0h1m3 0h1M6 111.5h1m1 0h2m1 0h9m4 0h3m2 0h1m1 0h1m1 0h1m1 0h3m2 0h1m2 0h3m2 0h2m2 0h3m2 0h3m1 0h1m2 0h1m1 0h1m5 0h1m2 0h2m5 0h6m1 0h3m1 0h1m2 0h1m1 0h1m2 0h3m1 0h2m2 0h1m2 0h2m1 0h3m1 0h1m2 0h4m1 0h11m1 0h2m2 0h3m1 0h3m1 0h2m4 0h1m3 0h4M5 112.5h3m1 0h2m1 0h3m3 0h1m3 0h4m1 0h2m1 0h5m1 0h1m2 0h1m6 0h1m1 0h2m1 0h2m2 0h1m3 0h1m4 0h3m2 0h3m1 0h1m2 0h1m3 0h3m2 0h1m2 0h4m4 0h3m4 0h4m2 0h1m3 0h1m1 0h1m2 0h2m2 0h7m1 0h1m2 0h3m1 0h3m5 0h1m1 0h2m2 0h1m1 0h2m2 0h2m1 0h1m3 0h1M5 113.5h1m1 0h3m3 0h2m1 0h1m4 0h2m3 0h1m1 0h1m1 0h1m2 0h1m3 0h1m1 0h3m1 0h2m1 0h4m2 0h1m3 0h7m2 0h1m2 0h7m1 0h1m9 0h1m1 0h1m4 0h1m1 0h2m1 0h4m1 0h1m3 0h1m3 0h3m2 0h1m3 0h1m1 0h1m5 0h4m4 0h1m2 0h4m1 0h1m2 0h1m5 0h1m1 0h1m4 0h4M4 114.5h2m3 0h3m1 0h2m2 0h3m1 0h1m3 0h1m1 0h2m1 0h1m4 0h1m1 0h1m2 0h1m1 0h1m1 0h1m3 0h2m2 0h1m3 0h1m2 0h2m2 0h1m1 0h1m3 0h1m1 0h1m1 0h5m1 0h1m2 0h1m1 0h1m4 0h1m1 0h1m1 0h2m2 0h6m1 0h3m3 0h3m1 0h4m1 0h2m3 0h1m4 0h1m1 0h2m1 0h1m1 0h1m1 0h4m4 0h1m6 0h2m2 0h1m3 0h1m1 0h2M8 115.5h2m3 0h2m4 0h6m2 0h3m2 0h5m1 0h2m1 0h1m1 0h1m1 0h2m2 0h2m2 0h1m1 0h1m2 0h2m1 0h2m2 0h3m2 0h1m3 0h1m1 0h3m1 0h3m1 0h2m3 0h1m1 0h5m1 0h3m2 0h2m3 0h3m1 0h1m2 0h4m7 0h1m3 0h1m3 0h1m3 0h1m2 0h1m1 0h1m1 0h2m1 0h2m2 0h1m2 0h2m1 0h2m1 0h5M4 116.5h1m1 0h6m2 0h1m2 0h3m1 0h2m2 0h2m1 0h3m3 0h3m8 0h2m2 0h3m2 0h1m2 0h1m1 0h2m4 0h2m2 0h1m1 0h1m2 0h3m5 0h2m1 0h3m2 0h1m2 0h2m2 0h2m1 0h1m2 0h3m2 0h1m5 0h2m2 0h1m1 0h5m1 0h4m4 0h4m1 0h2m1 0h3m1 0h7m1 0h1m2 0h1m5 0h2M6 117.5h4m1 0h1m1 0h1m3 0h2m1 0h2m2 0h1m1 0h1m1 0h1m5 0h2m2 0h1m1 0h1m5 0h1m1 0h2m5 0h1m3 0h1m1 0h5m1 0h1m5 0h1m2 0h1m1 0h1m1 0h1m3 0h3m4 0h1m1 0h3m1 0h1m4 0h1m4 0h4m1 0h1m3 0h3m3 0h1m3 0h1m2 0h5m1 0h5m1 0h1m1 0h1m2 0h2m1 0h2m1 0h2m2 0h3m1 0h1M5 118.5h6m1 0h2m1 0h5m2 0h1m3 0h3m1 0h4m3 0h2m2 0h2m1 0h2m1 0h2m3 0h2m2 0h1m1 0h2m2 0h1m3 0h1m2 0h1m2 0h4m3 0h4m1 0h2m1 0h3m1 0h1m1 0h6m9 0h7m4 0h1m6 0h2m2 0h1m3 0h3m1 0h3m4 0h3m2 0h3m6 0h1M7 119.5h1m3 0h2m2 0h1m3 0h2m1 0h1m1 0h1m1 0h3m1 0h2m2 0h3m1 0h2m2 0h3m4 0h4m1 0h3m1 0h1m1 0h3m1 0h1m1 0h1m1 0h1m1 0h1m1 0h2m3 0h1m1 0h2m2 0h2m1 0h1m2 0h2m1 0h1m1 0h1m1 0h2m1 0h3m1 0h1m1 0h1m3 0h1m1 0h1m1 0h1m1 0h1m4 0h1m3 0h1m3 0h1m3 0h1m1 0h6m1 0h1m4 0h1m2 0h5m1 0h2m3 0h1m2 0h1M6 120.5h2m1 0h2m4 0h1m1 0h1m2 0h2m6 0h1m4 0h1m6 0h5m1 0h1m1 0h4m1 0h1m2 0h1m2 0h1m2 0h1m1 0h2m3 0h2m1 0h5m4 0h1m2 0h2m2 0h1m1 0h1m1 0h3m2 0h1m1 0h1m1 0h1m1 0h3m3 0h2m4 0h2m1 0h1m3 0h2m1 0h1m1 0h1m1 0h2m1 0h1m2 0h2m2 0h1m2 0h1m1 0h2m2 0h1m3 0h1m1 0h5m5 0h1M5 121.5h4m5 0h1m1 0h1m2 0h1m4 0h4m6 0h1m4 0h1m1 0h2m1 0h1m8 0h2m2 0h1m3 0h1m2 0h2m1 0h1m1 0h1m1 0h1m1 0h7m2 0h1m1 0h1m2 0h1m1 0h1m1 0h7m3 0h1m1 0h2m1 0h2m1 0h2m4 0h1m2 0h1m3 0h1m3 0h1m2 0h2m2 0h2m1 0h1m1 0h2m1 0h1m1 0h1m3 0h1m3 0h4m1 0h1m1 0h3m1 0h2M6 122.5h3m1 0h3m3 0h1m4 0h1m2 0h1m1 0h2m1 0h1m2 0h1m1 0h1m5 0h5m1 0h1m3 0h7m1 0h3m1 0h1m1 0h4m1 0h4m3 0h1m2 0h1m1 0h1m3 0h1m1 0h1m2 0h5m1 0h1m3 0h2m1 0h2m2 0h1m1 0h2m1 0h2m2 0h1m1 0h1m3 0h1m2 0h2m1 0h2m3 0h2m1 0h1m1 0h1m2 0h1m2 0h1m1 0h7m1 0h2m1 0h1m1 0h1m2 0h1M11 123.5h1m3 0h1m1 0h3m1 0h2m1 0h2m1 0h1m2 0h1m1 0h1m4 0h3m1 0h3m3 0h1m1 0h4m1 0h6m2 0h4m3 0h5m3 0h3m1 0h3m2 0h2m4 0h1m1 0h3m5 0h5m1 0h1m1 0h2m3 0h1m5 0h2m1 0h1m2 0h2m1 0h3m2 0h1m3 0h1m1 0h2m3 0h1m4 0h6m5 0h2M6 124.5h1m1 0h1m1 0h1m1 0h1m1 0h3m4 0h6m1 0h1m3 0h1m1 0h1m2 0h6m1 0h3m4 0h3m3 0h1m1 0h1m1 0h4m1 0h2m7 0h1m1 0h2m1 0h2m1 0h1m2 0h1m1 0h1m1 0h1m1 0h1m1 0h1m1 0h1m2 0h1m3 0h1m1 0h5m2 0h2m1 0h1m1 0h1m3 0h1m2 0h2m1 0h1m2 0h1m1 0h2m1 0h5m1 0h2m3 0h2m2 0h1m2 0h1m3 0h1m4 0h2M4 125.5h1m2 0h1m1 0h1m1 0h1m1 0h1m1 0h1m1 0h1m2 0h3m1 0h2m1 0h1m1 0h2m2 0h1m1 0h2m2 0h1m1 0h1m2 0h3m1 0h1m3 0h1m2 0h1m1 0h4m1 0h1m1 0h1m2 0h1m2 0h1m3 0h1m1 0h3m2 0h4m2 0h1m2 0h1m2 0h1m4 0h1m3 0h5m1 0h1m2 0h1m2 0h1m1 0h1m2 0h3m1 0h1m2 0h1m1 0h5m2 0h3m1 0h1m3 0h1m1 0h1m2 0h1m1 0h1m2 0h1m3 0h6M4 126.5h1m1 0h2m1 0h2m3 0h1m2 0h1m2 0h4m1 0h2m1 0h2m3 0h4m2 0h2m4 0h7m1 0h2m1 0h2m1 0h1m2 0h1m1 0h2m1 0h2m3 0h2m1 0h1m5 0h2m1 0h1m2 0h3m1 0h1m2 0h1m1 0h1m1 0h1m4 0h1m5 0h2m2 0h1m1 0h4m1 0h1m1 0h1m4 0h2m3 0h3m2 0h1m2 0h1m1 0h2m1 0h1m2 0h1m1 0h3m1 0h1m2 0h1m1 0h1m1 0h1m1 0h1M4 127.5h1m1 0h4m3 0h4m1 0h1m1 0h1m2 0h1m2 0h2m2 0h1m2 0h1m1 0h1m1 0h1m1 0h1m2 0h1m1 0h5m5 0h1m2 0h2m1 0h2m1 0h3m1 0h1m3 0h1m1 0h2m1 0h1m1 0h1m6 0h1m1 0h2m2 0h1m2 0h2m1 0h1m6 0h1m2 0h1m1 0h3m4 0h8m1 0h2m1 0h1m4 0h1m1 0h3m2 0h1m1 0h1m2 0h1m1 0h1m1 0h1m1 0h2m1 0h1m3 0h3m1 0h1m1 0h1M4 128.5h3m2 0h2m1 0h1m1 0h2m4 0h1m6 0h5m1 0h2m2 0h5m1 0h3m1 0h1m4 0h5m4 0h4m1 0h4m3 0h1m2 0h3m1 0h4m3 0h3m3 0h4m2 0h3m1 0h1m1 0h1m3 0h3m1 0h1m1 0h1m3 0h3m4 0h1m1 0h1m9 0h4m1 0h8m1 0h1m2 0h4m4 0h1M4 129.5h2m1 0h2m3 0h2m2 0h1m2 0h5m3 0h1m1 0h1m1 0h1m1 0h1m3 0h6m3 0h3m1 0h1m5 0h2m1 0h1m4 0h1m1 0h1m2 0h2m2 0h1m2 0h1m1 0h2m2 0h1m1 0h2m1 0h1m3 0h2m1 0h1m1 0h2m7 0h2m3 0h3m1 0h4m1 0h1m2 0h1m1 0h4m2 0h2m1 0h1m3 0h1m5 0h1m1 0h2m4 0h1m1 0h4m2 0h1m4 0h1M4 130.5h1m3 0h10m4 0h2m2 0h9m1 0h3m2 0h1m1 0h2m6 0h8m1 0h1m1 0h2m2 0h1m2 0h2m1 0h2m3 0h6m4 0h3m1 0h4m1 0h1m4 0h1m2 0h6m1 0h3m1 0h3m1 0h1m1 0h1m3 0h1m1 0h1m2 0h6m1 0h2m2 0h2m2 0h2m2 0h1m1 0h1m3 0h6m1 0h2M4 131.5h2m2 0h1m3 0h1m2 0h1m1 0h1m1 0h1m2 0h1m2 0h2m3 0h1m1 0h3m1 0h3m3 0h4m4 0h3m3 0h2m3 0h1m4 0h3m2 0h1m1 0h1m2 0h1m1 0h1m3 0h1m2 0h1m1 0h1m5 0h2m1 0h2m6 0h1m3 0h1m1 0h1m1 0h1m5 0h2m3 0h4m3 0h1m3 0h1m1 0h2m1 0h1m2 0h2m1 0h1m2 0h1m2 0h1m3 0h2m3 0h1m1 0h3M4 132.5h1m3 0h1m1 0h1m1 0h1m3 0h2m1 0h1m1 0h2m1 0h3m1 0h1m1 0h1m3 0h1m1 0h2m2 0h1m1 0h1m2 0h1m1 0h2m3 0h1m1 0h1m1 0h4m7 0h1m2 0h1m1 0h1m3 0h1m1 0h1m1 0h1m1 0h1m1 0h2m2 0h1m2 0h2m1 0h1m1 0h4m3 0h2m1 0h1m1 0h1m3 0h4m2 0h1m1 0h1m2 0h3m1 0h1m2 0h1m1 0h1m1 0h2m1 0h1m1 0h5m3 0h5m2 0h1m1 0h1m1 0h1m1 0h2m1 0h2M4 133.5h1m3 0h1m3 0h2m2 0h1m2 0h2m1 0h5m3 0h2m1 0h1m6 0h2m3 0h1m4 0h3m3 0h1m3 0h1m2 0h1m1 0h2m2 0h2m2 0h1m1 0h2m1 0h1m3 0h1m2 0h1m5 0h4m1 0h2m6 0h1m3 0h6m2 0h3m1 0h2m2 0h1m1 0h5m3 0h1m1 0h2m1 0h2m2 0h1m1 0h1m1 0h1m1 0h1m2 0h1m2 0h2m3 0h1m1 0h2M5 134.5h9m1 0h2m3 0h2m1 0h1m2 0h7m1 0h3m2 0h1m5 0h1m1 0h1m1 0h2m1 0h6m1 0h1m5 0h1m1 0h4m1 0h2m1 0h8m2 0h1m5 0h1m1 0h1m1 0h1m2 0h3m2 0h9m2 0h1m9 0h1m2 0h1m2 0h9m2 0h1m4 0h1m2 0h1m1 0h2m1 0h1m1 0h5m1 0h3M5 135.5h1m8 0h4m2 0h1m1 0h1m1 0h1m2 0h1m1 0h1m1 0h2m3 0h1m1 0h1m1 0h1m1 0h1m1 0h2m1 0h1m2 0h2m1 0h1m1 0h1m1 0h1m1 0h1m1 0h1m1 0h1m1 0h4m1 0h1m4 0h3m2 0h1m1 0h5m2 0h5m4 0h1m1 0h1m2 0h1m2 0h2m2 0h1m1 0h1m1 0h1m1 0h1m1 0h1m5 0h4m3 0h3m2 0h1m6 0h1m2 0h1m7 0h1m2 0h2m2 0h1M4 136.5h2m1 0h1m1 0h2m3 0h1m1 0h2m2 0h1m1 0h2m5 0h6m2 0h2m1 0h2m2 0h2m1 0h1m1 0h4m2 0h1m2 0h1m4 0h3m1 0h1m3 0h1m1 0h3m1 0h1m1 0h2m5 0h6m1 0h2m1 0h3m2 0h1m7 0h2m2 0h1m2 0h2m1 0h1m3 0h4m1 0h1m3 0h3m1 0h2m1 0h1m3 0h4m4 0h2m4 0h2m1 0h2m1 0h2M4 137.5h1m2 0h3m1 0h1m1 0h1m1 0h4m4 0h2m1 0h1m2 0h1m2 0h2m1 0h1m1 0h4m3 0h3m2 0h1m2 0h1m1 0h2m1 0h1m2 0h2m5 0h1m2 0h1m1 0h2m3 0h1m3 0h2m3 0h1m1 0h1m4 0h1m2 0h3m2 0h1m7 0h2m2 0h1m2 0h1m1 0h3m3 0h1m1 0h1m2 0h1m1 0h2m2 0h1m1 0h3m1 0h2m4 0h2m5 0h1m2 0h1m2 0h1m2 0h2M5 138.5h1m1 0h4m3 0h2m3 0h2m1 0h5m2 0h7m2 0h1m2 0h9m2 0h1m2 0h2m6 0h2m3 0h1m1 0h1m2 0h5m2 0h4m3 0h1m1 0h2m1 0h1m7 0h2m2 0h1m1 0h1m1 0h1m2 0h1m2 0h2m3 0h1m1 0h2m3 0h1m4 0h2m2 0h3m2 0h4m1 0h1m3 0h1m1 0h2m1 0h1m3 0h1m1 0h2M4 139.5h2m1 0h1m5 0h1m2 0h1m1 0h1m2 0h1m4 0h2m1 0h1m1 0h1m1 0h2m3 0h1m2 0h3m3 0h4m1 0h1m4 0h1m1 0h2m3 0h3m1 0h1m1 0h1m1 0h1m2 0h2m1 0h6m1 0h2m1 0h3m4 0h3m3 0h5m1 0h1m4 0h1m8 0h1m1 0h1m1 0h1m2 0h1m1 0h2m1 0h2m2 0h2m3 0h4m3 0h4m2 0h1m1 0h3m2 0h3M4 140.5h3m2 0h2m2 0h2m2 0h1m3 0h1m2 0h1m2 0h1m1 0h2m4 0h1m1 0h1m1 0h3m3 0h1m5 0h1m1 0h6m1 0h2m1 0h3m1 0h2m1 0h1m2 0h2m5 0h2m1 0h1m1 0h2m5 0h1m4 0h1m1 0h2m3 0h2m1 0h1m2 0h2m1 0h3m2 0h1m1 0h2m2 0h1m2 0h3m3 0h2m1 0h1m1 0h1m1 0h2m4 0h2m3 0h3m1 0h1m6 0h1m1 0h1M6 141.5h1m1 0h1m4 0h1m1 0h1m2 0h1m4 0h1m5 0h1m3 0h2m1 0h2m2 0h1m1 0h3m2 0h1m3 0h1m1 0h1m2 0h1m1 0h1m1 0h1m1 0h1m1 0h1m2 0h1m2 0h1m4 0h1m1 0h1m1 0h2m1 0h3m1 0h1m2 0h2m1 0h2m4 0h1m3 0h5m1 0h1m1 0h1m1 0h4m1 0h1m4 0h3m3 0h1m1 0h1m1 0h1m2 0h1m2 0h1m2 0h4m1 0h1m2 0h1m3 0h1m2 0h1m1 0h3m2 0h2M4 142.5h1m1 0h3m1 0h2m2 0h3m1 0h1m1 0h1m2 0h1m3 0h6m2 0h1m1 0h2m1 0h1m2 0h3m1 0h3m2 0h1m7 0h1m3 0h12m1 0h3m2 0h3m6 0h4m2 0h1m2 0h1m2 0h3m2 0h5m1 0h2m1 0h1m2 0h1m2 0h2m1 0h1m1 0h2m3 0h1m3 0h1m2 0h1m2 0h1m1 0h2m1 0h1m5 0h1m2 0h5m1 0h2M4 143.5h3m1 0h1m2 0h1m1 0h1m3 0h2m1 0h1m1 0h2m1 0h1m1 0h2m4 0h2m1 0h1m2 0h2m2 0h3m1 0h5m2 0h2m2 0h1m1 0h2m2 0h3m2 0h2m2 0h1m1 0h1m1 0h1m4 0h1m1 0h1m1 0h1m1 0h1m3 0h1m2 0h1m2 0h4m3 0h3m8 0h1m1 0h2m1 0h1m2 0h2m2 0h3m1 0h4m1 0h1m3 0h1m1 0h1m1 0h1m1 0h2m4 0h1m4 0h6M4 144.5h3m1 0h3m2 0h1m2 0h6m1 0h2m1 0h1m2 0h1m1 0h5m3 0h3m2 0h1m1 0h4m1 0h1m1 0h1m3 0h1m1 0h1m1 0h1m1 0h3m1 0h5m4 0h3m1 0h1m6 0h1m1 0h3m2 0h2m1 0h4m1 0h1m1 0h2m5 0h1m1 0h7m2 0h1m1 0h1m1 0h1m1 0h2m2 0h7m1 0h3m2 0h1m2 0h2m3 0h2m2 0h1m1 0h1m1 0h1m1 0h2M5 145.5h1m1 0h1m1 0h1m1 0h2m3 0h1m1 0h2m4 0h1m3 0h3m1 0h2m2 0h1m2 0h4m1 0h1m1 0h2m1 0h1m1 0h1m1 0h3m2 0h1m1 0h4m7 0h1m1 0h2m4 0h1m7 0h2m6 0h2m1 0h3m1 0h3m5 0h4m1 0h1m2 0h1m2 0h2m2 0h1m1 0h1m1 0h1m1 0h1m1 0h1m4 0h1m1 0h1m1 0h1m1 0h3m1 0h1m2 0h2m2 0h5m2 0h1M5 146.5h3m2 0h3m1 0h2m3 0h1m2 0h1m2 0h1m1 0h2m3 0h1m1 0h3m2 0h1m1 0h4m2 0h1m1 0h1m2 0h1m1 0h5m4 0h1m2 0h3m2 0h1m1 0h1m2 0h2m2 0h6m1 0h4m2 0h1m1 0h1m1 0h3m3 0h3m1 0h2m4 0h4m1 0h1m2 0h4m2 0h2m1 0h3m1 0h2m1 0h1m1 0h2m1 0h1m1 0h2m2 0h1m1 0h1m3 0h1m3 0h2m1 0h1m1 0h1M4 147.5h1m2 0h3m1 0h3m1 0h1m1 0h2m1 0h1m1 0h5m1 0h2m1 0h3m1 0h3m1 0h1m2 0h1m2 0h1m2 0h2m5 0h1m5 0h1m4 0h1m1 0h1m1 0h2m1 0h5m1 0h1m3 0h2m1 0h1m4 0h1m2 0h1m1 0h1m3 0h1m2 0h2m2 0h1m1 0h2m1 0h3m1 0h1m1 0h3m3 0h1m1 0h2m1 0h1m2 0h3m1 0h2m1 0h1m1 0h3m1 0h1m1 0h1m2 0h9m2 0h1m2 0h1M6 148.5h2m2 0h2m1 0h1m1 0h1m1 0h3m2 0h1m2 0h2m1 0h2m2 0h1m1 0h2m2 0h1m4 0h1m2 0h2m1 0h5m1 0h1m1 0h1m3 0h1m3 0h2m2 0h1m1 0h1m2 0h2m1 0h1m3 0h2m1 0h3m2 0h1m1 0h1m3 0h3m2 0h1m7 0h1m3 0h4m3 0h2m1 0h1m2 0h1m1 0h1m2 0h1m3 0h1m1 0h7m3 0h3m2 0h1m1 0h3m1 0h2m1 0h5M11 149.5h2m2 0h1m2 0h1m3 0h1m1 0h2m2 0h5m3 0h1m1 0h1m1 0h1m5 0h3m7 0h2m2 0h2m3 0h3m3 0h1m1 0h2m1 0h1m6 0h1m1 0h2m1 0h6m3 0h1m3 0h2m2 0h2m2 0h1m1 0h3m2 0h1m5 0h1m3 0h4m1 0h1m1 0h1m2 0h1m1 0h1m1 0h1m3 0h1m1 0h2m5 0h3m1 0h8M7 150.5h1m1 0h5m1 0h3m3 0h1m1 0h2m2 0h1m2 0h1m1 0h1m2 0h1m1 0h1m4 0h6m1 0h1m1 0h4m1 0h1m1 0h1m1 0h1m1 0h7m2 0h1m3 0h6m1 0h3m3 0h2m1 0h3m4 0h3m2 0h1m1 0h5m1 0h3m1 0h1m2 0h3m1 0h1m1 0h1m2 0h1m2 0h3m2 0h2m4 0h5m3 0h2m1 0h1m1 0h1m2 0h3m1 0h1m1 0h2M4 151.5h1m2 0h1m1 0h1m1 0h3m1 0h1m3 0h1m1 0h1m2 0h5m3 0h1m3 0h1m2 0h1m1 0h5m1 0h4m2 0h1m7 0h2m6 0h1m1 0h2m5 0h1m3 0h1m1 0h2m1 0h3m2 0h1m1 0h1m5 0h1m1 0h2m2 0h5m1 0h3m2 0h3m3 0h2m1 0h2m2 0h1m1 0h1m4 0h4m5 0h3m1 0h1m5 0h2m1 0h5M6 152.5h3m1 0h2m1 0h1m1 0h1m4 0h1m2 0h1m2 0h1m1 0h4m1 0h1m1 0h2m1 0h2m2 0h1m4 0h2m1 0h2m3 0h1m1 0h1m2 0h1m1 0h1m1 0h3m3 0h1m2 0h1m1 0h2m4 0h1m3 0h1m2 0h1m1 0h4m3 0h4m1 0h3m1 0h1m3 0h1m2 0h1m2 0h1m1 0h4m2 0h1m4 0h4m2 0h1m1 0h8m2 0h5m1 0h3m1 0h1m1 0h1m3 0h1M7 153.5h3m2 0h1m2 0h1m1 0h1m2 0h1m5 0h1m1 0h2m2 0h2m1 0h1m2 0h6m1 0h1m1 0h6m1 0h4m1 0h2m2 0h1m1 0h2m3 0h1m3 0h1m1 0h3m7 0h1m3 0h3m2 0h1m1 0h2m2 0h2m1 0h2m1 0h1m1 0h2m1 0h3m1 0h1m1 0h1m3 0h3m3 0h3m3 0h1m1 0h1m1 0h1m1 0h5m6 0h2m2 0h1m4 0h1M4 154.5h2m1 0h1m2 0h3m2 0h1m1 0h2m5 0h2m1 0h5m3 0h2m1 0h1m1 0h4m1 0h1m1 0h1m2 0h1m6 0h1m1 0h2m1 0h1m1 0h3m1 0h1m1 0h1m1 0h1m4 0h2m1 0h1m1 0h1m1 0h1m1 0h2m2 0h5m1 0h3m3 0h2m1 0h3m3 0h1m1 0h1m1 0h2m1 0h1m1 0h2m2 0h1m2 0h1m1 0h1m1 0h3m1 0h4m1 0h2m1 0h1m2 0h1m1 0h1m1 0h2m1 0h1m2 0h2m2 0h1m2 0h2M4 155.5h1m8 0h2m3 0h1m7 0h2m2 0h1m1 0h2m1 0h2m1 0h1m2 0h1m2 0h1m1 0h1m1 0h6m2 0h1m2 0h2m1 0h2m1 0h1m3 0h2m3 0h2m3 0h7m2 0h1m1 0h3m2 0h1m5 0h3m1 0h2m3 0h1m1 0h2m1 0h2m2 0h3m3 0h2m1 0h1m3 0h1m4 0h1m1 0h1m2 0h1m2 0h1m2 0h1m2 0h1m1 0h2m1 0h5m3 0h1M6 156.5h6m1 0h5m2 0h2m1 0h1m2 0h5m1 0h1m1 0h1m2 0h2m1 0h2m5 0h2m1 0h8m1 0h1m3 0h2m7 0h1m2 0h1m1 0h7m1 0h3m3 0h2m1 0h4m1 0h2m2 0h8m1 0h3m1 0h4m1 0h2m2 0h1m2 0h8m1 0h1m2 0h4m1 0h1m1 0h2m1 0h3m2 0h8m1 0h1M12 157.5h3m1 0h7m3 0h1m3 0h3m1 0h3m2 0h1m2 0h1m3 0h1m2 0h1m2 0h1m3 0h3m2 0h1m2 0h1m1 0h4m1 0h1m1 0h2m3 0h1m3 0h3m1 0h1m1 0h1m1 0h1m2 0h1m1 0h4m1 0h1m2 0h2m3 0h3m1 0h1m4 0h3m1 0h1m2 0h1m3 0h3m3 0h1m1 0h1m2 0h1m1 0h2m1 0h1m4 0h4m3 0h1m3 0h4M4 158.5h7m4 0h1m1 0h2m3 0h1m3 0h1m1 0h1m1 0h1m4 0h1m1 0h4m1 0h2m1 0h3m1 0h2m1 0h1m1 0h1m1 0h2m1 0h1m2 0h2m3 0h1m3 0h1m1 0h1m1 0h4m1 0h1m1 0h1m1 0h1m1 0h1m2 0h1m1 0h1m1 0h1m3 0h6m1 0h1m1 0h1m1 0h1m1 0h3m1 0h1m1 0h3m1 0h1m1 0h2m1 0h2m3 0h1m1 0h1m1 0h1m2 0h2m1 0h1m1 0h4m1 0h1m2 0h3m2 0h2m1 0h1m1 0h1m2 0h1M4 159.5h1m5 0h1m1 0h2m5 0h1m2 0h2m1 0h2m3 0h2m1 0h1m3 0h1m2 0h3m3 0h1m1 0h2m1 0h2m3 0h1m1 0h2m1 0h2m3 0h1m1 0h1m3 0h2m4 0h1m3 0h1m4 0h1m1 0h1m2 0h2m4 0h1m1 0h2m2 0h1m3 0h4m1 0h1m5 0h3m1 0h1m2 0h2m2 0h1m3 0h3m4 0h1m1 0h1m1 0h2m3 0h1m1 0h2m2 0h1m3 0h1m1 0h1M4 160.5h1m1 0h3m1 0h1m1 0h1m1 0h1m2 0h1m1 0h1m1 0h2m3 0h6m1 0h2m3 0h2m3 0h6m1 0h1m1 0h5m2 0h1m1 0h4m1 0h2m2 0h1m1 0h2m3 0h6m4 0h1m1 0h1m1 0h2m1 0h2m1 0h1m1 0h1m4 0h5m3 0h2m7 0h1m4 0h1m1 0h1m1 0h5m1 0h2m1 0h3m3 0h2m1 0h5m2 0h6m1 0h2M4 161.5h1m1 0h3m1 0h1m1 0h5m1 0h2m2 0h1m1 0h1m1 0h1m6 0h1m1 0h1m1 0h2m1 0h2m2 0h1m1 0h2m1 0h3m2 0h1m1 0h2m3 0h2m1 0h1m2 0h5m1 0h1m1 0h2m2 0h1m2 0h1m5 0h1m2 0h1m1 0h2m2 0h1m1 0h1m2 0h2m1 0h2m6 0h4m1 0h1m1 0h2m2 0h3m3 0h2m2 0h3m2 0h2m1 0h2m1 0h3m1 0h3m1 0h1m1 0h4m1 0h2m1 0h1M4 162.5h1m1 0h3m1 0h1m1 0h8m1 0h1m3 0h6m1 0h1m1 0h1m2 0h2m1 0h2m2 0h2m3 0h1m1 0h2m1 0h1m1 0h2m1 0h1m6 0h1m2 0h1m1 0h2m1 0h2m3 0h1m1 0h3m5 0h1m1 0h2m2 0h2m3 0h4m1 0h1m3 0h2m1 0h1m2 0h3m1 0h1m1 0h1m1 0h1m2 0h3m1 0h1m1 0h1m3 0h2m3 0h1m1 0h2m8 0h1m3 0h1m1 0h2m1 0h2M4 163.5h1m5 0h1m3 0h1m2 0h1m1 0h1m2 0h1m1 0h1m3 0h3m1 0h2m1 0h3m2 0h5m3 0h2m1 0h1m1 0h1m1 0h2m1 0h2m2 0h3m1 0h1m1 0h1m2 0h4m1 0h2m1 0h1m2 0h1m1 0h1m1 0h1m1 0h4m1 0h2m6 0h1m1 0h1m3 0h3m1 0h1m2 0h8m1 0h1m3 0h1m1 0h2m3 0h2m2 0h2m2 0h4m1 0h1m3 0h1m1 0h3m5 0h1m1 0h1M4 164.5h7m1 0h3m1 0h1m1 0h2m1 0h4m1 0h3m1 0h1m1 0h3m3 0h1m2 0h2m1 0h1m10 0h5m1 0h5m1 0h3m3 0h1m3 0h3m1 0h3m1 0h1m3 0h1m3 0h2m1 0h2m3 0h1m1 0h3m1 0h2m3 0h1m3 0h4m6 0h3m1 0h1m1 0h1m2 0h3m3 0h4m1 0h3m1 0h1m5 0h1m1 0h1m3 0h1"/></svg>
