<?xml version="1.0" encoding="utf-8"?><!DOCTYPE svg PUBLIC "-//W3C//DTD SVG 1.1//EN" "http://www.w3.org/Graphics/SVG/1.1/DTD/svg11.dtd"><svg xmlns="http://www.w3.org/2000/svg" viewBox="0 0 169 169" shape-rendering="crispEdges"><path fill="#ffffff" d="M0 0h169v169H0z"/><path stroke="#000000" d="M4 4.5h7m1 0h1m3 0h2m1 0h1m1 0h1m5 0h1m2 0h1m2 0h2m1 0h1m1 0h1m3 0h2m1 0h4m1 0h2m1 0h5m1 0h1m2 0h1m1 0h2m1 0h2m2 0h1m1 0h2m1 0h3m3 0h5m6 0h1m3 0h1m1 0h5m3 0h2m2 0h4m1 0h2m3 0h2m3 0h4m1 0h2m3 0h1m2 0h3m5 0h1m2 0h1m2 0h3m2 0h7M4 5.5h1m5 0h1m1 0h1m2 0h3m1 0h1m1 0h1m1 0h3m2 0h1m1 0h1m1 0h1m1 0h2m1 0h2m3 0h2m1 0h1m2 0h2m1 0h6m1 0h1m2 0h6m1 0h3m1 0h1m1 0h2m1 0h1m4 0h1m2 0h2m1 0h1m4 0h3m1 0h1m2 0h1m2 0h1m1 0h2m4 0h2m2 0h1m1 0h10m1 0h3m1 0h3m1 0h2m3 0h1m2 0h1m2 0h2m3 0h3m3 0h1m5 0h1M4 6.5h1m1 0h3m1 0h1m2 0h1m2 0h1m3 0h1m2 0h4m2 0h4m1 0h2m3 0h2m1 0h2m1 0h6m1 0h1m1 0h3m1 0h2m1 0h4m2 0h1m2 0h2m3 0h1m1 0h3m1 0h4m1 0h1m3 0h3m2 0h1m5 0h6m3 0h1m1 0h1m2 0h3m1 0h3m4 0h1m1 0h7m1 0h4m6 0h1m3 0h2m1 0h1m2 0h1m1 0h1m1 0h3m1 0h1M4 7.5h1m1 0h3m1 0h1m1 0h3m1 0h4m1 0h1m1 0h1m2 0h1m3 0h6m1 0h1m6 0h4m1 0h4m1 0h1m2 0h1m1 0h2m2 0h1m1 0h1m3 0h5m1 0h1m1 0h3m1 0h2m2 0h2m1 0h3m2 0h1m1 0h1m1 0h5m1 0h4m2 0h2m1 0h2m2 0h1m4 0h2m2 0h1m3 0h1m1 0h2m1 0h2m1 0h1m2 0h1m1 0h3m1 0h1m3 0h1m1 0h1m1 0h1m1 0h1m1 0h1m1 0h3m1 0h1M4 8.5h1m1 0h3m1 0h1m4 0h3m4 0h1m2 0h7m1 0h1m1 0h1m2 0h1m1 0h1m2 0h1m5 0h2m1 0h5m1 0h3m1 0h1m3 0h2m2 0h1m1 0h2m1 0h2m1 0h6m1 0h1m1 0h1m7 0h2m1 0h11m2 0h1m1 0h2m3 0h1m2 0h1m1 0h1m2 0h2m1 0h7m1 0h1m1 0h4m2 0h1m1 0h1m2 0h2m1 0h1m2 0h1m1 0h1m1 0h3m1 0h1M4 9.5h1m5 0h1m3 0h4m1 0h4m1 0h3m3 0h2m1 0h1m1 0h3m4 0h4m1 0h3m1 0h2m3 0h1m2 0h4m2 0h1m1 0h1m2 0h1m2 0h1m1 0h1m1 0h2m3 0h2m1 0h2m1 0h3m1 0h3m3 0h4m1 0h2m3 0h1m1 0h2m1 0h1m2 0h1m10 0h4m3 0h1m7 0h1m1 0h3m2 0h3m1 0h1m2 0h1m1 0h1m5 0h1M4 10.5h7m1 0h1m1 0h1m1 0h1m1 0h1m1 0h1m1 0h1m1 0h1m1 0h1m1 0h1m1 0h1m1 0h1m1 0h1m1 0h1m1 0h1m1 0h1m1 0h1m1 0h1m1 0h1m1 0h1m1 0h1m1 0h1m1 0h1m1 0h1m1 0h1m1 0h1m1 0h1m1 0h1m1 0h1m1 0h1m1 0h1m1 0h1m1 0h1m1 0h1m1 0h1m1 0h1m1 0h1m1 0h1m1 0h1m1 0h1m1 0h1m1 0h1m1 0h1m1 0h1m1 0h1m1 0h1m1 0h1m1 0h1m1 0h1m1 0h1m1 0h1m1 0h1m1 0h1m1 0h1m1 0h1m1 0h1m1 0h1m1 0h1m1 0h1m1 0h1m1 0h1m1 0h1m1 0h1m1 0h1m1 0h1m1 0h1m1 0h1m1 0h1m1 0h1m1 0h1m1 0h1m1 0h1m1 0h1m1 0h1m1 0h7M12 11.5h4m1 0h1m1 0h1m1 0h1m3 0h2m3 0h1m3 0h1m3 0h1m1 0h2m1 0h1m1 0h1m3 0h1m2 0h1m3 0h1m1 0h1m1 0h1m1 0h3m2 0h3m1 0h2m2 0h1m1 0h2m3 0h1m1 0h1m3 0h1m1 0h2m1 0h4m1 0h1m1 0h5m3 0h1m5 0h1m2 0h3m2 0h1m1 0h2m4 0h1m3 0h6m1 0h1m4 0h2m1 0h2m1 0h1m2 0h2M4 12.5h1m1 0h2m1 0h3m5 0h1m1 0h1m2 0h1m1 0h1m1 0h7m1 0h1m3 0h1m2 0h1m1 0h1m2 0h1m1 0h1m3 0h5m3 0h5m2 0h2m2 0h1m2 0h3m1 0h5m6 0h2m2 0h4m1 0h3m1 0h9m1 0h1m4 0h1m2 0h2m2 0h1m1 0h1m1 0h1m1 0h5m2 0h4m1 0h1m1 0h1m1 0h1m1 0h1m2 0h1m1 0h2m3 0h1m2 0h1m1 0h2M4 13.5h1m2 0h2m3 0h1m2 0h3m1 0h2m1 0h1m1 0h8m1 0h1m2 0h2m3 0h2m3 0h3m1 0h1m1 0h4m1 0h3m1 0h1m1 0h2m1 0h1m1 0h2m1 0h4m1 0h2m3 0h2m2 0h4m4 0h4m3 0h2m1 0h1m1 0h1m1 0h1m2 0h1m1 0h1m3 0h3m1 0h1m1 0h1m4 0h1m1 0h2m1 0h3m1 0h1m2 0h3m1 0h1m5 0h2m1 0h3m1 0h1m3 0h1M4 14.5h4m1 0h3m3 0h1m3 0h1m2 0h6m1 0h1m2 0h2m1 0h1m2 0h1m2 0h2m3 0h2m2 0h2m4 0h1m4 0h2m6 0h2m2 0h3m2 0h2m3 0h1m2 0h2m1 0h3m1 0h2m1 0h1m1 0h1m4 0h2m2 0h1m1 0h1m3 0h2m1 0h1m1 0h4m1 0h3m6 0h2m3 0h1m1 0h1m1 0h1m4 0h2m1 0h1m4 0h1m3 0h1m4 0h1M4 15.5h5m4 0h4m4 0h1m1 0h1m2 0h1m1 0h1m2 0h1m1 0h4m2 0h2m1 0h1m2 0h1m3 0h1m2 0h6m3 0h1m3 0h2m1 0h1m1 0h2m3 0h2m3 0h1m1 0h1m2 0h2m4 0h3m1 0h1m2 0h2m1 0h3m1 0h1m3 0h1m4 0h3m1 0h1m4 0h3m1 0h4m2 0h2m2 0h4m6 0h2m1 0h2m3 0h4m2 0h3M5 16.5h1m1 0h2m1 0h4m2 0h1m1 0h1m2 0h1m2 0h1m1 0h1m2 0h2m1 0h5m7 0h2m3 0h3m1 0h1m1 0h2m6 0h4m1 0h1m1 0h3m3 0h1m3 0h1m1 0h1m4 0h5m1 0h2m4 0h1m6 0h2m1 0h2m1 0h1m2 0h2m1 0h1m2 0h1m1 0h2m7 0h1m2 0h2m4 0h1m1 0h2m3 0h1m2 0h3m2 0h2m1 0h3m1 0h2M4 17.5h2m1 0h1m1 0h1m2 0h1m2 0h1m2 0h2m2 0h2m1 0h2m2 0h1m1 0h1m3 0h1m2 0h4m1 0h2m4 0h1m1 0h1m1 0h2m1 0h1m3 0h3m4 0h3m2 0h1m1 0h2m2 0h2m3 0h1m1 0h1m1 0h1m1 0h1m5 0h3m1 0h1m2 0h1m1 0h1m3 0h1m1 0h1m1 0h1m1 0h1m3 0h1m3 0h2m4 0h1m3 0h1m1 0h4m5 0h2m1 0h2m1 0h1m4 0h6m2 0h1m1 0h1M4 18.5h1m1 0h2m2 0h2m2 0h1m1 0h2m2 0h2m3 0h1m1 0h2m1 0h1m2 0h1m3 0h8m1 0h1m1 0h1m1 0h2m4 0h1m1 0h2m2 0h1m3 0h2m2 0h5m3 0h3m1 0h2m1 0h2m2 0h1m2 0h1m1 0h2m1 0h5m1 0h1m2 0h5m4 0h1m1 0h8m5 0h3m1 0h1m2 0h4m1 0h2m2 0h3m1 0h3m2 0h1m1 0h1m2 0h1m1 0h1m1 0h1M4 19.5h1m2 0h1m3 0h1m1 0h1m2 0h6m3 0h1m1 0h2m2 0h1m2 0h2m1 0h1m1 0h1m1 0h2m1 0h1m2 0h2m1 0h1m4 0h3m1 0h5m4 0h4m1 0h2m1 0h1m1 0h2m2 0h2m1 0h1m1 0h5m1 0h4m3 0h1m2 0h3m3 0h2m3 0h1m2 0h1m2 0h3m4 0h1m1 0h2m2 0h1m2 0h1m1 0h2m1 0h1m2 0h3m2 0h1m1 0h1m5 0h3m1 0h2M6 20.5h1m1 0h1m1 0h3m1 0h1m2 0h2m1 0h2m1 0h1m2 0h2m1 0h1m1 0h2m1 0h7m1 0h2m1 0h1m2 0h1m1 0h2m1 0h5m2 0h1m4 0h5m1 0h2m1 0h1m1 0h1m1 0h1m4 0h3m1 0h3m2 0h2m3 0h1m1 0h1m2 0h2m3 0h2m1 0h2m5 0h1m1 0h3m2 0h5m3 0h1m1 0h3m4 0h1m4 0h4m2 0h1m9 0h1M4 21.5h2m3 0h1m1 0h2m1 0h2m3 0h6m3 0h5m3 0h1m1 0h4m1 0h2m2 0h5m3 0h1m1 0h3m1 0h2m1 0h4m6 0h1m1 0h1m2 0h2m1 0h3m1 0h1m1 0h4m2 0h2m1 0h3m4 0h1m1 0h1m3 0h2m1 0h3m6 0h1m1 0h2m1 0h2m5 0h1m2 0h4m1 0h4m2 0h2m1 0h1m1 0h3m1 0h1m3 0h1m1 0h1M7 22.5h1m1 0h2m1 0h1m1 0h1m1 0h3m4 0h1m1 0h4m1 0h2m1 0h1m1 0h4m1 0h1m2 0h1m2 0h2m4 0h1m2 0h1m1 0h2m2 0h2m3 0h3m1 0h3m1 0h2m1 0h1m1 0h1m4 0h1m5 0h3m1 0h2m1 0h1m2 0h1m1 0h1m2 0h1m5 0h2m7 0h3m2 0h2m2 0h2m2 0h12m2 0h1m1 0h3m1 0h1m3 0h1m2 0h1m2 0h1M6 23.5h3m2 0h2m2 0h1m3 0h1m1 0h4m1 0h1m1 0h3m2 0h2m2 0h2m2 0h4m1 0h1m1 0h2m4 0h2m1 0h3m2 0h2m1 0h2m1 0h1m1 0h1m4 0h2m2 0h2m3 0h2m3 0h3m3 0h2m1 0h2m4 0h2m5 0h5m1 0h1m2 0h3m1 0h2m1 0h3m1 0h1m1 0h1m3 0h3m2 0h1m1 0h6m4 0h1m1 0h2m1 0h2m1 0h1M5 24.5h1m1 0h2m1 0h1m1 0h10m2 0h4m4 0h1m1 0h1m1 0h2m3 0h1m1 0h2m2 0h1m2 0h1m1 0h2m2 0h1m4 0h1m2 0h1m2 0h2m1 0h1m4 0h2m1 0h4m4 0h1m2 0h1m1 0h2m1 0h2m2 0h5m2 0h1m1 0h5m6 0h1m4 0h1m3 0h2m1 0h1m2 0h1m1 0h1m4 0h4m1 0h3m1 0h2m1 0h1m5 0h1m2 0h1m1 0h1M4 25.5h2m1 0h1m1 0h1m3 0h2m2 0h1m1 0h3m1 0h1m1 0h1m1 0h1m2 0h2m3 0h1m5 0h1m1 0h3m3 0h2m1 0h4m1 0h2m2 0h3m2 0h3m1 0h2m2 0h1m1 0h2m1 0h2m1 0h11m3 0h1m2 0h2m1 0h1m3 0h1m3 0h1m1 0h2m1 0h1m3 0h1m1 0h1m3 0h1m2 0h2m2 0h1m2 0h1m4 0h2m2 0h1m4 0h5m3 0h2m1 0h2m1 0h1M6 26.5h9m2 0h1m1 0h1m2 0h3m1 0h5m1 0h1m2 0h1m2 0h1m2 0h1m1 0h1m1 0h1m1 0h4m1 0h6m1 0h1m1 0h2m1 0h2m1 0h1m1 0h1m1 0h1m6 0h5m3 0h1m1 0h1m1 0h2m5 0h2m4 0h6m1 0h1m1 0h1m2 0h1m3 0h2m1 0h1m4 0h12m1 0h3m1 0h2m2 0h3m4 0h6m2 0h1M4 27.5h5m3 0h1m1 0h3m2 0h3m4 0h1m3 0h6m1 0h3m1 0h1m4 0h1m2 0h4m3 0h1m1 0h1m1 0h1m1 0h6m2 0h5m1 0h3m3 0h3m2 0h3m1 0h2m1 0h2m1 0h1m1 0h3m2 0h1m3 0h1m6 0h1m8 0h2m2 0h3m3 0h2m1 0h2m1 0h2m3 0h1m2 0h9m3 0h5M4 28.5h3m1 0h1m1 0h1m1 0h1m3 0h1m2 0h1m3 0h1m2 0h1m1 0h1m1 0h2m4 0h2m1 0h2m2 0h1m1 0h3m2 0h3m1 0h1m1 0h1m2 0h1m3 0h2m2 0h9m2 0h1m1 0h1m1 0h2m1 0h1m2 0h1m2 0h2m1 0h2m1 0h3m3 0h2m1 0h1m1 0h1m2 0h2m1 0h1m1 0h1m2 0h1m1 0h2m1 0h1m1 0h1m1 0h1m1 0h1m1 0h1m1 0h1m3 0h1m5 0h7m5 0h1m1 0h1m1 0h3M4 29.5h5m3 0h2m2 0h1m1 0h2m1 0h2m1 0h3m3 0h1m2 0h3m2 0h3m3 0h1m1 0h1m2 0h2m1 0h1m3 0h1m2 0h3m3 0h1m1 0h1m2 0h1m5 0h3m3 0h1m6 0h3m1 0h2m4 0h2m1 0h1m1 0h1m3 0h2m3 0h1m4 0h1m2 0h4m1 0h2m1 0h2m3 0h1m2 0h8m3 0h2m1 0h1m2 0h1m1 0h1m3 0h1m1 0h1M4 30.5h1m1 0h1m1 0h5m2 0h1m1 0h3m1 0h1m1 0h2m1 0h6m1 0h6m1 0h1m8 0h2m1 0h6m1 0h4m3 0h1m2 0h4m1 0h2m2 0h6m3 0h1m1 0h1m2 0h1m1 0h1m2 0h1m3 0h1m1 0h6m2 0h1m3 0h2m2 0h1m1 0h2m7 0h5m2 0h3m4 0h1m4 0h3m1 0h2m1 0h9M4 31.5h1m1 0h4m1 0h1m1 0h1m3 0h1m1 0h1m4 0h3m1 0h4m1 0h1m1 0h3m1 0h2m1 0h1m11 0h2m1 0h3m2 0h1m6 0h3m2 0h3m1 0h1m2 0h6m5 0h2m2 0h1m1 0h1m1 0h1m1 0h1m4 0h1m1 0h1m1 0h5m1 0h1m1 0h1m4 0h3m1 0h1m2 0h1m1 0h2m1 0h1m1 0h2m1 0h2m1 0h3m2 0h1m1 0h2m1 0h2m2 0h2m2 0h1m1 0h1M4 32.5h1m1 0h2m1 0h2m2 0h3m2 0h1m3 0h2m1 0h2m2 0h1m1 0h2m2 0h2m2 0h1m4 0h1m2 0h1m1 0h1m2 0h2m1 0h3m1 0h1m1 0h1m1 0h1m2 0h1m1 0h2m5 0h1m3 0h1m4 0h1m1 0h4m4 0h1m1 0h1m6 0h4m1 0h4m1 0h1m1 0h3m1 0h3m2 0h2m3 0h1m1 0h1m2 0h3m4 0h7m1 0h1m2 0h2m1 0h1m3 0h1M4 33.5h3m1 0h2m1 0h2m1 0h1m3 0h2m4 0h1m1 0h1m2 0h1m1 0h1m2 0h2m2 0h1m1 0h1m1 0h1m2 0h2m1 0h2m2 0h1m2 0h5m5 0h3m1 0h3m3 0h2m1 0h1m1 0h1m8 0h1m6 0h2m4 0h4m1 0h3m2 0h1m3 0h1m2 0h1m2 0h1m2 0h2m3 0h4m1 0h4m1 0h6m2 0h1m1 0h2m3 0h1m2 0h1m1 0h1M5 34.5h2m2 0h2m1 0h2m1 0h1m3 0h3m6 0h1m1 0h4m1 0h1m4 0h1m4 0h2m1 0h3m3 0h1m1 0h1m1 0h1m2 0h1m5 0h1m2 0h1m1 0h1m2 0h2m2 0h1m1 0h3m4 0h3m5 0h2m2 0h2m1 0h1m4 0h4m2 0h4m1 0h1m1 0h1m2 0h1m3 0h1m1 0h1m2 0h1m1 0h1m2 0h2m3 0h1m1 0h1m2 0h1m3 0h1m1 0h1m1 0h2m2 0h2M5 35.5h1m1 0h1m3 0h4m1 0h1m4 0h1m1 0h1m3 0h1m3 0h1m2 0h2m2 0h4m1 0h5m3 0h1m2 0h2m1 0h2m2 0h1m3 0h3m1 0h1m1 0h5m1 0h3m1 0h2m1 0h4m1 0h2m3 0h1m1 0h1m2 0h1m2 0h2m1 0h3m1 0h1m1 0h1m1 0h1m2 0h1m3 0h4m1 0h1m1 0h6m1 0h2m2 0h4m2 0h1m1 0h1m1 0h1m2 0h2m1 0h3m1 0h1m1 0h1m2 0h1M6 36.5h1m1 0h3m1 0h1m2 0h1m6 0h3m1 0h1m1 0h3m2 0h1m1 0h2m2 0h1m1 0h3m3 0h1m2 0h1m3 0h2m2 0h1m1 0h2m2 0h1m3 0h4m1 0h1m2 0h2m1 0h1m1 0h3m1 0h2m5 0h2m2 0h3m8 0h2m3 0h3m2 0h4m2 0h4m1 0h1m1 0h1m1 0h1m3 0h1m1 0h4m3 0h1m1 0h2m2 0h1m1 0h1m3 0h5m1 0h2M4 37.5h1m2 0h2m3 0h1m1 0h1m3 0h2m1 0h1m1 0h1m1 0h2m2 0h5m1 0h3m2 0h2m2 0h1m1 0h3m1 0h1m1 0h4m2 0h1m3 0h2m3 0h1m3 0h1m1 0h2m1 0h6m4 0h1m1 0h1m1 0h2m8 0h2m2 0h2m1 0h3m2 0h1m3 0h1m1 0h2m1 0h1m2 0h1m1 0h1m1 0h2m1 0h2m3 0h2m1 0h1m1 0h1m2 0h2m2 0h1m8 0h2m2 0h1m1 0h2M9 38.5h2m2 0h2m1 0h1m1 0h1m2 0h1m1 0h1m1 0h1m3 0h2m2 0h3m2 0h3m3 0h1m4 0h5m2 0h2m1 0h1m3 0h1m1 0h3m8 0h1m1 0h2m2 0h1m1 0h1m1 0h2m2 0h1m1 0h3m2 0h3m1 0h3m1 0h1m2 0h5m3 0h1m3 0h2m1 0h2m1 0h1m3 0h1m2 0h1m1 0h5m1 0h3m1 0h1m1 0h4m1 0h1m1 0h3m3 0h1M4 39.5h1m1 0h2m3 0h1m2 0h1m1 0h3m1 0h2m2 0h1m1 0h2m2 0h3m3 0h1m1 0h2m3 0h1m1 0h1m1 0h1m3 0h1m8 0h2m1 0h2m5 0h1m5 0h1m1 0h6m1 0h2m3 0h1m1 0h1m1 0h2m2 0h1m2 0h1m2 0h5m1 0h1m1 0h1m2 0h1m2 0h1m2 0h1m2 0h1m1 0h4m3 0h1m3 0h1m1 0h6m1 0h4m1 0h3m2 0h1m1 0h1m2 0h3M4 40.5h3m2 0h6m1 0h4m1 0h1m3 0h1m4 0h4m1 0h1m1 0h2m4 0h4m1 0h6m3 0h1m1 0h1m1 0h3m1 0h1m1 0h1m2 0h1m1 0h3m1 0h4m3 0h3m1 0h1m4 0h5m2 0h1m1 0h1m1 0h1m1 0h2m1 0h3m1 0h1m2 0h1m1 0h4m3 0h2m3 0h1m1 0h1m2 0h1m1 0h3m1 0h3m1 0h1m1 0h1m1 0h1m2 0h1m1 0h1m1 0h3m1 0h1m2 0h1M5 41.5h1m1 0h1m1 0h1m2 0h1m2 0h2m2 0h2m1 0h3m1 0h1m1 0h1m1 0h1m1 0h2m1 0h5m1 0h1m2 0h4m2 0h3m2 0h4m1 0h2m2 0h2m2 0h1m5 0h1m1 0h4m1 0h1m5 0h2m1 0h1m1 0h2m4 0h3m1 0h1m4 0h6m1 0h2m3 0h3m1 0h2m5 0h1m1 0h1m2 0h3m2 0h1m3 0h2m1 0h5m1 0h2m1 0h1m2 0h1m2 0h1M4 42.5h3m2 0h2m4 0h1m8 0h1m1 0h3m1 0h2m4 0h2m1 0h2m2 0h1m1 0h5m1 0h2m1 0h1m1 0h1m1 0h4m6 0h1m2 0h1m1 0h3m1 0h4m3 0h2m1 0h5m4 0h1m2 0h4m1 0h2m4 0h1m1 0h2m1 0h2m2 0h1m2 0h1m2 0h1m5 0h2m2 0h1m1 0h1m1 0h1m1 0h12m3 0h2m1 0h2m1 0h1m1 0h1M4 43.5h2m3 0h1m7 0h2m1 0h1m2 0h1m1 0h4m4 0h2m2 0h4m1 0h1m2 0h1m1 0h4m1 0h3m5 0h2m1 0h1m1 0h2m1 0h1m1 0h5m1 0h1m3 0h1m6 0h1m2 0h4m1 0h1m1 0h2m1 0h1m1 0h2m4 0h1m3 0h2m1 0h1m1 0h3m3 0h1m1 0h1m1 0h2m2 0h2m8 0h1m1 0h1m3 0h1m1 0h1m2 0h2m7 0h2m1 0h1M4 44.5h2m1 0h2m1 0h3m2 0h1m1 0h1m4 0h2m3 0h2m1 0h2m1 0h2m1 0h1m2 0h1m2 0h2m1 0h1m1 0h2m3 0h1m3 0h2m1 0h3m4 0h1m1 0h3m2 0h1m2 0h1m1 0h5m4 0h2m1 0h2m1 0h2m3 0h2m1 0h2m1 0h1m2 0h1m3 0h1m2 0h1m1 0h2m2 0h1m2 0h1m2 0h8m7 0h2m3 0h3m1 0h1m1 0h1m2 0h3m1 0h1m3 0h2M5 45.5h5m1 0h3m7 0h2m2 0h3m3 0h1m4 0h1m3 0h1m11 0h2m3 0h1m1 0h1m5 0h2m1 0h1m1 0h1m1 0h4m1 0h1m1 0h1m4 0h1m1 0h1m4 0h1m3 0h3m1 0h1m3 0h2m4 0h3m3 0h1m1 0h1m2 0h5m2 0h3m1 0h1m1 0h2m3 0h2m1 0h2m1 0h1m1 0h1m3 0h2m4 0h2m1 0h3m2 0h1M4 46.5h1m1 0h2m2 0h2m6 0h1m2 0h1m1 0h1m1 0h1m2 0h1m2 0h3m1 0h1m2 0h1m1 0h1m1 0h3m1 0h1m1 0h1m3 0h2m1 0h6m1 0h1m2 0h3m1 0h3m1 0h3m4 0h1m1 0h1m2 0h1m1 0h1m2 0h1m4 0h1m3 0h1m2 0h1m1 0h1m2 0h3m2 0h2m2 0h1m1 0h3m2 0h1m1 0h2m1 0h4m1 0h2m2 0h4m2 0h1m1 0h2m1 0h1m1 0h1m2 0h1m3 0h1m2 0h1m1 0h1m1 0h1M5 47.5h1m1 0h3m1 0h2m1 0h2m3 0h2m2 0h1m4 0h2m2 0h1m3 0h4m1 0h2m1 0h1m1 0h1m1 0h2m1 0h2m1 0h3m1 0h2m3 0h1m1 0h1m1 0h1m2 0h1m2 0h2m2 0h2m2 0h1m1 0h3m1 0h3m1 0h2m3 0h1m2 0h1m2 0h2m6 0h6m3 0h1m3 0h1m1 0h1m1 0h1m1 0h1m2 0h1m3 0h1m1 0h1m1 0h3m4 0h1m1 0h2m2 0h1m1 0h1m2 0h1m1 0h4M4 48.5h2m1 0h1m2 0h1m4 0h4m1 0h2m1 0h4m1 0h6m1 0h1m2 0h2m4 0h1m2 0h2m1 0h3m1 0h2m2 0h2m1 0h1m2 0h1m1 0h1m1 0h2m1 0h1m2 0h4m1 0h3m3 0h3m1 0h5m3 0h2m9 0h6m1 0h2m2 0h2m1 0h1m2 0h2m3 0h1m1 0h1m3 0h2m2 0h3m1 0h1m4 0h1m2 0h6m1 0h1m1 0h1M4 49.5h1m1 0h2m6 0h1m1 0h1m3 0h1m1 0h1m1 0h2m2 0h3m2 0h4m4 0h6m2 0h1m2 0h2m1 0h8m4 0h1m2 0h8m1 0h2m3 0h3m2 0h1m1 0h3m1 0h1m2 0h2m2 0h3m1 0h1m1 0h1m1 0h1m1 0h3m5 0h2m3 0h3m1 0h3m1 0h1m1 0h2m4 0h1m1 0h1m1 0h1m1 0h4m6 0h1m1 0h1m1 0h1m1 0h1M6 50.5h7m2 0h3m2 0h1m2 0h2m1 0h1m1 0h4m1 0h2m1 0h1m1 0h2m1 0h1m2 0h2m2 0h2m1 0h4m4 0h1m3 0h2m4 0h1m2 0h4m1 0h3m1 0h1m1 0h1m2 0h2m1 0h2m2 0h1m1 0h1m3 0h1m1 0h1m4 0h10m1 0h2m1 0h1m2 0h1m1 0h3m3 0h1m1 0h1m1 0h1m2 0h1m2 0h1m2 0h1m1 0h2m5 0h1m5 0h4m1 0h1M5 51.5h1m2 0h1m2 0h2m1 0h1m5 0h5m2 0h1m1 0h2m1 0h4m1 0h5m1 0h1m1 0h2m2 0h1m2 0h1m1 0h2m2 0h4m1 0h1m1 0h1m4 0h1m2 0h3m1 0h1m3 0h2m2 0h3m2 0h1m2 0h1m1 0h5m1 0h3m2 0h1m1 0h3m1 0h2m1 0h2m1 0h2m7 0h2m1 0h2m2 0h2m1 0h1m1 0h3m3 0h1m1 0h1m1 0h4m3 0h1m2 0h2m2 0h1M5 52.5h9m1 0h2m2 0h4m1 0h1m1 0h5m2 0h4m1 0h6m4 0h2m2 0h7m1 0h4m1 0h2m1 0h2m1 0h2m1 0h2m1 0h7m3 0h1m1 0h1m2 0h3m3 0h1m1 0h10m3 0h2m2 0h1m4 0h2m4 0h7m1 0h4m1 0h2m2 0h1m2 0h2m1 0h1m1 0h1m2 0h5m3 0h1M5 53.5h2m1 0h1m3 0h3m2 0h1m3 0h4m1 0h1m3 0h1m1 0h1m1 0h3m1 0h1m2 0h1m1 0h8m1 0h1m3 0h1m1 0h2m2 0h1m1 0h1m4 0h2m1 0h1m1 0h1m1 0h1m1 0h1m3 0h6m4 0h1m1 0h2m1 0h1m2 0h5m3 0h1m2 0h2m3 0h5m2 0h1m2 0h3m1 0h1m3 0h5m6 0h1m4 0h1m3 0h1m1 0h1m3 0h1m2 0h2M5 54.5h2m1 0h1m1 0h1m1 0h2m4 0h1m1 0h2m2 0h3m1 0h1m1 0h4m1 0h1m1 0h3m3 0h1m1 0h2m2 0h2m1 0h1m1 0h1m1 0h4m1 0h1m4 0h1m2 0h2m2 0h1m1 0h1m2 0h1m1 0h1m1 0h7m1 0h5m9 0h1m1 0h1m1 0h3m2 0h4m1 0h1m1 0h1m1 0h3m1 0h1m1 0h1m1 0h1m1 0h1m1 0h2m1 0h1m1 0h2m1 0h1m2 0h2m1 0h4m3 0h2m1 0h1m1 0h1m1 0h1m1 0h1M4 55.5h1m1 0h3m3 0h5m1 0h1m7 0h1m3 0h4m2 0h3m2 0h4m1 0h2m2 0h3m3 0h2m1 0h2m6 0h1m2 0h1m1 0h2m1 0h1m2 0h1m3 0h1m5 0h1m2 0h1m2 0h2m2 0h2m1 0h2m1 0h1m3 0h2m1 0h1m1 0h1m1 0h1m1 0h2m1 0h2m1 0h2m1 0h1m1 0h1m1 0h1m3 0h1m1 0h1m1 0h1m1 0h1m1 0h1m1 0h1m6 0h1m1 0h4m3 0h1M4 56.5h9m1 0h2m1 0h3m2 0h1m1 0h1m1 0h9m1 0h3m4 0h1m1 0h4m2 0h7m3 0h1m3 0h1m1 0h1m1 0h1m2 0h1m2 0h1m2 0h5m2 0h1m3 0h3m4 0h4m1 0h2m1 0h6m2 0h3m2 0h1m1 0h3m1 0h1m1 0h2m1 0h8m1 0h1m1 0h1m2 0h1m1 0h1m2 0h2m1 0h1m1 0h9M4 57.5h1m7 0h4m5 0h1m1 0h1m1 0h1m1 0h2m2 0h1m1 0h3m3 0h1m3 0h1m1 0h2m3 0h3m2 0h2m3 0h1m1 0h1m1 0h1m2 0h1m4 0h1m1 0h5m1 0h1m2 0h1m3 0h3m1 0h1m5 0h2m2 0h1m1 0h2m1 0h3m1 0h1m1 0h2m4 0h2m1 0h4m3 0h1m1 0h2m1 0h3m1 0h2m1 0h1m1 0h1m1 0h1m1 0h1m3 0h1m2 0h6m2 0h2m1 0h1M5 58.5h2m2 0h2m2 0h2m4 0h2m2 0h2m2 0h4m2 0h1m2 0h1m1 0h1m1 0h2m1 0h1m3 0h3m3 0h3m1 0h1m2 0h1m1 0h4m2 0h1m3 0h2m3 0h4m1 0h2m2 0h3m3 0h1m1 0h2m2 0h1m1 0h2m4 0h1m1 0h1m3 0h2m1 0h2m2 0h1m4 0h1m1 0h1m4 0h1m4 0h1m1 0h2m2 0h2m1 0h2m2 0h2m1 0h2m1 0h2m1 0h1M4 59.5h4m3 0h2m1 0h2m1 0h1m1 0h3m4 0h3m2 0h1m1 0h1m2 0h1m1 0h1m3 0h3m2 0h1m1 0h1m3 0h1m1 0h3m3 0h1m1 0h1m1 0h4m1 0h2m4 0h1m1 0h1m10 0h1m3 0h1m2 0h4m2 0h3m2 0h1m2 0h1m1 0h1m4 0h1m1 0h2m1 0h2m1 0h1m1 0h4m1 0h1m3 0h4m1 0h1m1 0h3m5 0h2m2 0h1m2 0h2m1 0h1m1 0h2M4 60.5h3m3 0h2m1 0h1m1 0h1m3 0h6m2 0h2m1 0h1m1 0h1m1 0h1m5 0h3m1 0h4m1 0h1m2 0h2m3 0h1m4 0h1m1 0h1m1 0h7m2 0h1m1 0h1m2 0h5m2 0h2m3 0h1m1 0h1m2 0h2m1 0h2m2 0h1m2 0h2m2 0h5m2 0h3m2 0h1m5 0h3m2 0h1m2 0h1m4 0h1m1 0h1m1 0h1m2 0h2m1 0h2m4 0h2m1 0h2m1 0h1M4 61.5h6m2 0h2m3 0h1m4 0h1m2 0h3m1 0h1m3 0h2m1 0h2m1 0h3m5 0h1m1 0h1m2 0h3m3 0h2m1 0h4m3 0h1m1 0h1m2 0h5m1 0h3m5 0h1m3 0h1m4 0h3m1 0h1m2 0h2m7 0h1m2 0h3m2 0h1m2 0h1m3 0h4m1 0h2m3 0h4m2 0h2m1 0h1m1 0h2m1 0h4m3 0h4m1 0h1M6 62.5h1m3 0h5m1 0h5m1 0h1m3 0h1m1 0h4m1 0h3m2 0h1m1 0h1m1 0h1m1 0h1m1 0h1m2 0h1m2 0h2m1 0h2m1 0h1m1 0h2m2 0h1m1 0h1m1 0h1m1 0h2m2 0h3m3 0h6m2 0h5m2 0h7m4 0h1m1 0h2m1 0h6m3 0h5m1 0h1m1 0h1m1 0h2m3 0h1m1 0h1m1 0h1m2 0h2m1 0h5m1 0h1m3 0h4m3 0h1m1 0h1M4 63.5h3m2 0h1m1 0h3m1 0h2m1 0h1m4 0h1m2 0h1m1 0h1m3 0h2m1 0h1m5 0h1m2 0h1m1 0h2m2 0h2m1 0h1m3 0h1m1 0h1m3 0h2m3 0h2m1 0h1m1 0h1m2 0h1m2 0h1m4 0h1m4 0h1m1 0h1m1 0h2m1 0h1m4 0h4m3 0h2m1 0h2m2 0h4m1 0h4m2 0h1m3 0h1m2 0h1m1 0h3m1 0h6m1 0h1m8 0h1m1 0h1m1 0h1m2 0h1m1 0h1M4 64.5h1m3 0h1m1 0h4m2 0h1m1 0h2m1 0h1m2 0h1m1 0h2m1 0h2m1 0h2m2 0h9m1 0h1m5 0h1m1 0h3m2 0h3m3 0h1m1 0h2m6 0h1m1 0h2m5 0h2m9 0h1m1 0h4m1 0h2m2 0h1m1 0h1m1 0h1m3 0h1m2 0h2m1 0h2m2 0h1m2 0h1m3 0h2m2 0h1m2 0h1m2 0h2m5 0h2m4 0h1m5 0h1M6 65.5h1m2 0h1m2 0h1m1 0h2m3 0h2m2 0h4m1 0h2m4 0h1m1 0h1m1 0h1m3 0h2m4 0h1m4 0h2m1 0h2m1 0h1m2 0h1m1 0h1m3 0h1m1 0h1m2 0h3m2 0h1m2 0h1m3 0h2m2 0h1m1 0h1m1 0h1m1 0h2m2 0h1m1 0h2m1 0h1m1 0h5m2 0h2m1 0h1m1 0h9m3 0h3m2 0h1m1 0h3m1 0h4m5 0h1m5 0h1m1 0h1m3 0h1M6 66.5h7m1 0h5m2 0h3m1 0h5m2 0h1m3 0h1m1 0h3m1 0h2m5 0h1m5 0h2m1 0h1m1 0h1m2 0h2m1 0h1m1 0h1m3 0h2m1 0h3m2 0h1m1 0h3m3 0h1m9 0h2m1 0h1m1 0h2m2 0h2m1 0h1m2 0h4m2 0h4m2 0h5m1 0h2m4 0h1m4 0h3m1 0h2m1 0h1m1 0h1m1 0h3m2 0h1m1 0h1m1 0h3M4 67.5h1m1 0h2m1 0h1m1 0h2m1 0h1m1 0h1m1 0h2m1 0h1m1 0h6m2 0h1m2 0h3m2 0h2m2 0h1m1 0h1m2 0h4m1 0h1m2 0h2m1 0h1m3 0h1m3 0h1m2 0h2m4 0h1m6 0h1m1 0h3m3 0h6m2 0h2m1 0h2m2 0h1m1 0h1m1 0h1m1 0h2m2 0h1m1 0h1m1 0h1m4 0h7m1 0h2m1 0h1m2 0h1m1 0h1m1 0h9m1 0h1m1 0h3m1 0h3M7 68.5h1m1 0h3m1 0h1m1 0h1m3 0h1m1 0h3m3 0h1m3 0h1m1 0h2m1 0h1m7 0h1m1 0h1m1 0h1m2 0h2m1 0h2m1 0h1m8 0h1m1 0h4m1 0h6m1 0h2m1 0h9m1 0h2m1 0h2m1 0h2m2 0h1m3 0h1m3 0h1m2 0h1m1 0h1m1 0h1m1 0h1m1 0h2m1 0h1m7 0h1m1 0h1m2 0h5m3 0h4m3 0h1m1 0h2m1 0h1m5 0h1M8 69.5h2m1 0h1m1 0h2m2 0h2m2 0h3m1 0h1m2 0h1m2 0h1m8 0h2m1 0h3m4 0h1m1 0h3m2 0h1m3 0h2m2 0h4m1 0h4m1 0h4m3 0h1m2 0h2m2 0h2m3 0h1m3 0h2m3 0h1m1 0h1m5 0h2m1 0h1m1 0h3m1 0h1m2 0h1m1 0h1m1 0h3m1 0h1m2 0h1m4 0h2m1 0h4m1 0h1m1 0h2m1 0h5m1 0h3m1 0h1m1 0h1M4 70.5h1m1 0h1m1 0h1m1 0h1m1 0h2m3 0h2m1 0h3m8 0h2m2 0h1m1 0h5m1 0h3m2 0h1m2 0h5m4 0h2m2 0h1m2 0h11m2 0h2m2 0h1m2 0h3m2 0h1m1 0h2m1 0h2m2 0h1m1 0h3m1 0h2m1 0h2m2 0h3m2 0h1m1 0h1m1 0h5m1 0h3m4 0h1m1 0h3m1 0h1m2 0h5m1 0h1m1 0h5m2 0h5M4 71.5h4m1 0h1m2 0h2m3 0h1m1 0h3m1 0h2m3 0h3m1 0h1m2 0h1m2 0h2m1 0h1m1 0h5m4 0h1m2 0h2m2 0h5m3 0h2m1 0h3m1 0h2m1 0h2m2 0h3m3 0h1m2 0h1m1 0h1m3 0h1m1 0h3m2 0h2m1 0h1m1 0h3m4 0h1m1 0h2m1 0h2m1 0h2m5 0h3m5 0h1m2 0h1m2 0h7m3 0h1m1 0h1m4 0h1m1 0h2M4 72.5h1m3 0h3m1 0h1m1 0h1m3 0h1m1 0h1m1 0h1m2 0h1m3 0h5m1 0h1m1 0h1m2 0h1m1 0h1m1 0h2m2 0h1m1 0h1m2 0h1m3 0h2m6 0h1m1 0h2m1 0h1m5 0h1m3 0h2m3 0h5m1 0h1m2 0h1m3 0h1m2 0h1m3 0h1m3 0h1m2 0h1m2 0h1m4 0h1m1 0h1m2 0h1m1 0h1m4 0h4m1 0h2m4 0h2m3 0h2m1 0h1m2 0h1m2 0h1m3 0h1m2 0h1M6 73.5h1m5 0h1m1 0h1m1 0h1m3 0h2m2 0h2m1 0h2m2 0h1m1 0h1m3 0h3m1 0h3m5 0h1m2 0h2m1 0h2m1 0h2m1 0h1m1 0h2m1 0h1m1 0h3m2 0h1m2 0h1m4 0h2m1 0h2m4 0h1m4 0h4m1 0h2m3 0h5m4 0h5m1 0h3m1 0h4m3 0h1m4 0h3m1 0h1m4 0h1m1 0h2m1 0h3m4 0h1m4 0h2M10 74.5h2m3 0h5m1 0h1m1 0h1m1 0h1m10 0h1m3 0h2m3 0h1m8 0h2m3 0h1m1 0h3m1 0h1m5 0h3m1 0h1m4 0h2m1 0h4m1 0h1m1 0h6m2 0h5m1 0h1m1 0h1m1 0h6m4 0h1m1 0h2m1 0h1m1 0h2m1 0h2m2 0h1m2 0h1m1 0h1m2 0h1m2 0h2m1 0h1m1 0h3m3 0h2m4 0h1m2 0h1M5 75.5h5m1 0h6m2 0h1m1 0h1m3 0h2m1 0h2m3 0h3m4 0h1m2 0h1m1 0h1m5 0h2m1 0h8m1 0h2m2 0h1m1 0h2m3 0h1m1 0h1m1 0h1m1 0h1m3 0h1m1 0h1m2 0h1m2 0h1m2 0h3m1 0h1m1 0h2m4 0h1m2 0h2m1 0h1m1 0h3m3 0h2m1 0h4m1 0h2m1 0h4m1 0h1m6 0h1m1 0h1m1 0h2m1 0h1m1 0h1m1 0h2m1 0h1m2 0h1m1 0h1M4 76.5h1m3 0h1m1 0h1m2 0h3m3 0h4m3 0h3m1 0h1m2 0h2m1 0h2m1 0h2m2 0h2m1 0h1m2 0h2m6 0h2m4 0h3m4 0h2m3 0h1m2 0h1m5 0h1m1 0h1m1 0h1m1 0h1m3 0h1m2 0h3m3 0h3m6 0h1m2 0h1m4 0h1m2 0h1m1 0h1m3 0h2m2 0h2m6 0h1m2 0h2m3 0h2m1 0h1m1 0h1m2 0h1m3 0h4M4 77.5h3m2 0h1m2 0h3m1 0h1m2 0h4m2 0h1m4 0h1m1 0h1m1 0h1m1 0h3m1 0h2m4 0h1m2 0h1m2 0h5m1 0h1m1 0h2m4 0h2m1 0h3m1 0h1m1 0h1m3 0h1m1 0h4m4 0h5m3 0h2m1 0h1m1 0h1m1 0h1m5 0h3m2 0h4m1 0h3m1 0h4m1 0h5m11 0h1m2 0h1m1 0h2m1 0h1m4 0h2m3 0h1M4 78.5h2m2 0h7m1 0h3m2 0h2m1 0h1m1 0h7m1 0h2m3 0h5m2 0h2m2 0h1m1 0h6m4 0h3m1 0h2m2 0h2m2 0h9m1 0h1m1 0h1m3 0h1m1 0h1m3 0h2m1 0h12m2 0h1m2 0h1m1 0h1m2 0h2m2 0h2m1 0h7m1 0h2m1 0h1m1 0h1m1 0h4m2 0h1m2 0h1m2 0h6m3 0h1M4 79.5h3m1 0h1m3 0h1m2 0h1m4 0h3m3 0h1m3 0h1m3 0h1m2 0h1m1 0h1m2 0h4m4 0h1m1 0h1m3 0h1m1 0h2m4 0h1m1 0h1m2 0h1m1 0h1m1 0h6m3 0h1m1 0h4m2 0h4m1 0h1m3 0h1m1 0h1m1 0h2m3 0h1m2 0h1m2 0h1m1 0h2m1 0h1m1 0h1m1 0h1m3 0h2m1 0h1m3 0h1m1 0h1m2 0h5m1 0h2m3 0h2m2 0h3m3 0h2m1 0h1M5 80.5h4m1 0h1m1 0h1m5 0h1m1 0h1m2 0h1m2 0h1m1 0h1m1 0h1m1 0h1m1 0h2m2 0h2m2 0h4m1 0h1m4 0h1m1 0h1m1 0h2m3 0h2m1 0h1m1 0h2m3 0h2m2 0h2m1 0h1m1 0h1m1 0h2m3 0h1m1 0h1m1 0h1m1 0h4m7 0h1m1 0h1m1 0h3m2 0h4m1 0h2m1 0h1m2 0h2m2 0h1m1 0h1m1 0h1m1 0h1m5 0h3m1 0h1m2 0h2m1 0h4m2 0h1m1 0h1m1 0h3m1 0h1M6 81.5h3m3 0h1m4 0h1m1 0h2m1 0h5m3 0h5m2 0h1m4 0h1m2 0h2m1 0h2m2 0h1m3 0h1m2 0h3m1 0h1m1 0h2m1 0h8m2 0h1m3 0h7m1 0h1m5 0h1m3 0h3m1 0h1m3 0h6m3 0h2m2 0h2m2 0h1m3 0h2m3 0h1m2 0h2m2 0h3m4 0h2m4 0h1m1 0h1m3 0h3M5 82.5h1m2 0h6m3 0h1m1 0h4m1 0h8m2 0h2m1 0h1m1 0h3m1 0h1m2 0h1m1 0h2m2 0h5m1 0h3m1 0h1m1 0h2m6 0h1m3 0h1m1 0h5m1 0h2m4 0h2m1 0h1m4 0h1m1 0h2m2 0h5m2 0h4m2 0h1m3 0h1m2 0h1m1 0h1m3 0h8m2 0h7m2 0h2m4 0h6m1 0h1m1 0h1M4 83.5h2m2 0h2m1 0h2m2 0h2m1 0h2m1 0h4m2 0h2m1 0h1m2 0h1m2 0h1m1 0h2m2 0h5m3 0h5m4 0h3m3 0h1m1 0h4m2 0h1m1 0h1m1 0h1m3 0h2m1 0h1m1 0h3m4 0h3m3 0h1m3 0h1m2 0h2m1 0h5m1 0h2m2 0h1m1 0h7m2 0h1m4 0h1m2 0h1m1 0h3m2 0h2m1 0h1m2 0h1m1 0h2m1 0h1m2 0h1m3 0h2M4 84.5h1m4 0h4m2 0h1m2 0h2m3 0h3m1 0h1m2 0h2m7 0h3m2 0h1m1 0h3m1 0h2m1 0h1m2 0h1m1 0h2m1 0h4m3 0h2m1 0h3m2 0h4m2 0h1m3 0h1m1 0h1m1 0h1m2 0h1m1 0h2m4 0h1m1 0h1m1 0h2m4 0h3m1 0h3m1 0h4m2 0h1m7 0h1m1 0h3m1 0h2m2 0h3m1 0h2m6 0h1m1 0h2m5 0h1M4 85.5h2m1 0h3m3 0h1m1 0h1m1 0h1m2 0h3m2 0h1m3 0h4m2 0h1m1 0h3m1 0h2m1 0h3m2 0h2m2 0h1m1 0h1m1 0h1m1 0h2m3 0h1m1 0h7m2 0h1m1 0h1m8 0h1m1 0h2m1 0h1m6 0h1m2 0h3m7 0h1m1 0h1m2 0h1m2 0h1m1 0h1m1 0h1m1 0h4m1 0h3m2 0h1m2 0h1m1 0h3m1 0h2m3 0h2m2 0h2m3 0h1M4 86.5h1m4 0h2m10 0h3m5 0h2m3 0h1m2 0h2m2 0h1m1 0h7m2 0h2m4 0h2m2 0h1m2 0h1m1 0h1m4 0h2m2 0h1m3 0h2m1 0h2m1 0h5m2 0h2m2 0h1m1 0h1m1 0h2m2 0h5m1 0h1m2 0h1m1 0h2m1 0h1m1 0h2m1 0h2m1 0h1m1 0h2m6 0h2m7 0h1m3 0h1m1 0h2m2 0h1m1 0h1m3 0h1M5 87.5h1m1 0h1m3 0h1m2 0h3m1 0h2m2 0h1m3 0h1m2 0h1m5 0h3m1 0h1m1 0h2m2 0h3m2 0h2m1 0h1m1 0h6m1 0h2m1 0h2m1 0h1m1 0h1m5 0h3m1 0h1m2 0h3m3 0h1m5 0h4m4 0h1m2 0h5m1 0h2m8 0h1m2 0h4m3 0h1m1 0h1m1 0h1m1 0h2m3 0h1m1 0h1m1 0h1m1 0h1m2 0h2m1 0h1m2 0h1m1 0h2m1 0h1M7 88.5h2m1 0h1m4 0h1m1 0h3m2 0h3m2 0h1m1 0h1m1 0h6m1 0h2m1 0h4m6 0h4m3 0h1m1 0h5m3 0h1m1 0h1m1 0h2m1 0h1m1 0h2m1 0h2m2 0h1m1 0h1m2 0h1m1 0h1m1 0h2m6 0h1m1 0h2m1 0h2m1 0h1m1 0h6m1 0h2m1 0h1m1 0h2m1 0h1m3 0h2m1 0h1m1 0h5m1 0h2m1 0h1m2 0h3m2 0h1m3 0h1m2 0h6M4 89.5h1m1 0h4m2 0h2m1 0h2m2 0h4m3 0h2m5 0h2m1 0h4m3 0h3m1 0h1m1 0h1m1 0h6m1 0h2m1 0h2m3 0h1m3 0h1m2 0h1m1 0h1m2 0h1m3 0h1m1 0h2m1 0h1m1 0h6m1 0h1m4 0h4m1 0h1m3 0h1m3 0h2m1 0h3m1 0h1m1 0h1m1 0h3m1 0h1m2 0h1m1 0h1m1 0h1m1 0h1m1 0h1m2 0h7m2 0h1m1 0h2m1 0h1m4 0h2M4 90.5h3m2 0h3m2 0h1m1 0h3m1 0h1m1 0h2m2 0h2m3 0h1m3 0h1m2 0h3m2 0h1m3 0h3m2 0h1m3 0h10m2 0h2m2 0h14m3 0h4m1 0h1m2 0h1m1 0h1m1 0h1m2 0h1m1 0h3m7 0h1m7 0h3m2 0h1m3 0h2m2 0h1m1 0h1m1 0h1m4 0h2m3 0h1m4 0h1m2 0h1m1 0h3M4 91.5h1m1 0h3m3 0h3m2 0h1m1 0h9m2 0h2m3 0h1m3 0h1m2 0h1m1 0h1m1 0h1m2 0h2m1 0h1m2 0h2m1 0h2m3 0h2m2 0h1m3 0h3m2 0h1m1 0h6m1 0h2m1 0h1m6 0h3m1 0h3m3 0h2m1 0h2m1 0h3m2 0h2m1 0h3m6 0h3m2 0h2m1 0h7m1 0h6m1 0h1m4 0h1m1 0h1m3 0h1m1 0h1M5 92.5h1m3 0h2m3 0h1m4 0h1m2 0h3m2 0h1m1 0h1m8 0h1m3 0h3m1 0h4m1 0h2m1 0h1m3 0h1m4 0h4m3 0h3m1 0h1m2 0h2m1 0h1m1 0h1m1 0h1m2 0h1m5 0h2m1 0h1m6 0h1m1 0h2m1 0h4m1 0h1m1 0h1m1 0h1m4 0h1m2 0h3m1 0h5m1 0h4m1 0h2m2 0h1m1 0h3m3 0h2m4 0h3M4 93.5h4m4 0h7m6 0h1m1 0h4m1 0h1m1 0h1m1 0h1m1 0h4m5 0h2m3 0h9m1 0h4m1 0h2m4 0h1m1 0h2m3 0h1m3 0h2m3 0h1m1 0h1m1 0h4m1 0h1m3 0h2m2 0h4m1 0h9m1 0h3m1 0h5m1 0h2m2 0h1m2 0h1m2 0h5m1 0h1m3 0h1m6 0h1m4 0h2M7 94.5h2m1 0h3m2 0h1m1 0h3m4 0h3m1 0h1m4 0h1m1 0h3m1 0h3m1 0h2m1 0h1m1 0h2m1 0h4m1 0h1m4 0h1m1 0h3m5 0h2m2 0h1m2 0h3m1 0h4m2 0h2m2 0h1m1 0h2m2 0h1m3 0h1m5 0h1m5 0h1m1 0h1m2 0h1m3 0h1m4 0h1m2 0h1m3 0h1m2 0h1m3 0h4m1 0h2m2 0h2m3 0h1m2 0h4M6 95.5h1m2 0h1m1 0h3m1 0h2m1 0h3m1 0h3m2 0h1m1 0h3m1 0h2m1 0h1m3 0h1m2 0h1m3 0h2m2 0h1m4 0h1m3 0h2m2 0h1m1 0h1m2 0h2m1 0h1m1 0h3m1 0h2m2 0h1m2 0h1m3 0h2m1 0h9m1 0h1m1 0h2m1 0h2m1 0h1m3 0h1m2 0h1m1 0h1m1 0h2m1 0h2m2 0h1m1 0h3m2 0h1m1 0h1m6 0h4m1 0h3m1 0h3m2 0h3m3 0h1M5 96.5h3m2 0h1m1 0h1m1 0h3m2 0h2m1 0h1m3 0h3m3 0h1m2 0h2m2 0h2m1 0h1m5 0h7m1 0h1m1 0h1m1 0h1m1 0h1m4 0h5m1 0h2m1 0h2m1 0h5m1 0h2m1 0h4m1 0h2m7 0h1m1 0h2m1 0h1m2 0h1m2 0h1m3 0h2m5 0h3m6 0h2m6 0h4m2 0h3m1 0h2m1 0h3m1 0h1m1 0h1m3 0h1M4 97.5h1m3 0h2m1 0h1m5 0h2m3 0h1m1 0h1m1 0h4m6 0h3m1 0h2m1 0h1m2 0h1m3 0h1m2 0h1m4 0h3m1 0h1m1 0h1m1 0h5m1 0h2m2 0h5m1 0h2m3 0h1m3 0h1m5 0h1m1 0h5m2 0h1m4 0h2m1 0h1m1 0h1m1 0h2m1 0h3m1 0h2m1 0h1m2 0h3m3 0h1m1 0h2m1 0h5m1 0h1m2 0h1m2 0h4m2 0h3M4 98.5h2m1 0h1m2 0h1m3 0h1m3 0h2m1 0h1m5 0h1m4 0h1m2 0h1m3 0h2m3 0h6m5 0h1m1 0h1m3 0h1m3 0h1m6 0h1m1 0h1m4 0h1m7 0h2m2 0h7m6 0h1m4 0h2m1 0h1m1 0h4m3 0h1m3 0h1m4 0h3m1 0h2m4 0h1m1 0h1m2 0h1m1 0h1m1 0h1m1 0h3m1 0h1m4 0h1m1 0h1M8 99.5h1m3 0h1m6 0h2m1 0h3m1 0h2m1 0h1m1 0h1m8 0h1m1 0h1m1 0h2m1 0h1m2 0h1m1 0h1m1 0h3m1 0h3m2 0h1m1 0h1m1 0h2m1 0h1m3 0h3m1 0h1m2 0h1m1 0h8m1 0h1m2 0h5m3 0h2m1 0h1m3 0h1m2 0h1m1 0h1m1 0h1m7 0h2m1 0h1m3 0h3m2 0h2m1 0h1m2 0h7m4 0h3m1 0h1m1 0h2m1 0h1M7 100.5h1m1 0h4m2 0h1m1 0h1m1 0h1m3 0h1m3 0h3m3 0h5m1 0h1m1 0h4m7 0h2m1 0h2m5 0h1m1 0h1m3 0h1m1 0h2m1 0h6m2 0h2m5 0h3m1 0h1m1 0h1m4 0h2m1 0h1m4 0h1m1 0h1m2 0h3m2 0h2m2 0h1m6 0h1m2 0h1m2 0h4m1 0h2m3 0h7m7 0h1m5 0h1M8 101.5h2m2 0h1m1 0h1m4 0h1m1 0h5m1 0h1m1 0h3m1 0h2m1 0h1m1 0h1m3 0h1m3 0h5m2 0h3m2 0h1m1 0h2m1 0h1m2 0h1m3 0h3m2 0h1m5 0h1m2 0h1m2 0h2m1 0h2m1 0h2m6 0h1m3 0h1m1 0h3m3 0h1m3 0h1m2 0h1m3 0h1m3 0h2m3 0h3m1 0h4m4 0h3m1 0h1m5 0h5m2 0h1m1 0h1M7 102.5h1m2 0h2m1 0h1m5 0h1m1 0h1m1 0h1m2 0h5m2 0h3m1 0h2m1 0h1m2 0h2m1 0h1m1 0h1m1 0h2m8 0h2m1 0h3m1 0h2m1 0h3m3 0h1m3 0h1m4 0h2m2 0h3m2 0h3m4 0h2m4 0h1m3 0h3m1 0h1m1 0h1m2 0h4m7 0h2m1 0h1m2 0h2m6 0h2m1 0h1m1 0h1m1 0h1m1 0h2m1 0h1m2 0h1m3 0h1M5 103.5h2m1 0h1m2 0h3m3 0h6m3 0h1m2 0h1m4 0h1m2 0h1m1 0h1m1 0h1m2 0h1m2 0h1m1 0h3m1 0h2m2 0h1m2 0h1m2 0h1m4 0h1m1 0h2m2 0h2m8 0h3m3 0h1m1 0h1m1 0h2m1 0h6m4 0h2m1 0h1m1 0h1m2 0h3m1 0h2m1 0h2m2 0h1m4 0h4m1 0h1m4 0h3m1 0h3m1 0h4m2 0h3m4 0h1M4 104.5h1m1 0h7m1 0h1m3 0h2m1 0h1m1 0h1m2 0h10m1 0h1m1 0h1m1 0h1m2 0h1m2 0h1m1 0h2m1 0h7m2 0h3m1 0h1m1 0h3m1 0h1m1 0h3m1 0h6m2 0h2m1 0h4m1 0h2m3 0h1m2 0h9m2 0h1m2 0h4m5 0h3m2 0h6m6 0h5m1 0h1m4 0h1m1 0h1m1 0h7M4 105.5h2m1 0h2m3 0h2m1 0h1m1 0h2m2 0h2m2 0h2m3 0h2m1 0h1m5 0h1m1 0h1m1 0h3m2 0h1m1 0h3m3 0h2m3 0h1m2 0h1m1 0h1m1 0h1m2 0h1m1 0h2m2 0h2m3 0h1m2 0h2m2 0h4m1 0h2m3 0h6m3 0h6m1 0h1m3 0h1m2 0h1m4 0h4m3 0h1m2 0h3m1 0h1m1 0h3m3 0h1m1 0h4m1 0h1m3 0h1m1 0h3M6 106.5h1m1 0h1m1 0h1m1 0h1m2 0h1m1 0h2m1 0h1m3 0h1m1 0h1m1 0h1m1 0h5m1 0h1m1 0h2m1 0h2m1 0h1m1 0h4m2 0h1m1 0h1m1 0h1m1 0h3m1 0h1m2 0h2m1 0h1m1 0h2m1 0h2m3 0h1m1 0h1m1 0h5m11 0h2m1 0h1m1 0h2m1 0h1m1 0h3m2 0h1m3 0h3m1 0h2m3 0h2m2 0h1m1 0h1m1 0h1m1 0h3m1 0h1m3 0h2m1 0h1m1 0h3m1 0h1m1 0h2m1 0h1m1 0h1m1 0h1M5 107.5h2m1 0h1m3 0h2m2 0h2m1 0h2m5 0h1m3 0h3m1 0h1m2 0h3m2 0h4m1 0h1m1 0h1m1 0h2m3 0h4m1 0h1m1 0h2m1 0h2m1 0h7m1 0h2m3 0h1m1 0h2m2 0h1m1 0h1m1 0h3m1 0h3m1 0h1m3 0h1m3 0h1m3 0h5m2 0h2m1 0h4m1 0h4m3 0h2m1 0h1m2 0h1m1 0h1m1 0h1m2 0h1m1 0h2m1 0h1m1 0h1m1 0h1m3 0h2m1 0h1M5 108.5h1m1 0h6m2 0h2m3 0h3m3 0h5m1 0h1m1 0h1m4 0h1m1 0h1m1 0h1m3 0h1m1 0h1m2 0h5m5 0h2m2 0h3m1 0h1m1 0h3m1 0h8m1 0h2m1 0h2m1 0h3m1 0h2m2 0h4m1 0h6m4 0h2m3 0h3m1 0h1m1 0h2m2 0h6m2 0h1m8 0h3m2 0h1m4 0h6m1 0h1M4 109.5h1m3 0h1m2 0h1m2 0h1m1 0h1m2 0h2m2 0h1m2 0h1m5 0h3m2 0h2m1 0h1m2 0h1m1 0h1m5 0h2m2 0h2m2 0h1m1 0h8m1 0h5m1 0h3m2 0h1m3 0h2m4 0h2m1 0h2m5 0h1m2 0h1m1 0h1m4 0h1m3 0h1m1 0h3m2 0h3m2 0h1m2 0h1m1 0h1m1 0h1m1 0h2m1 0h1m3 0h2m1 0h2m1 0h1m1 0h1m2 0h2m4 0h1m1 0h1m1 0h1M4 110.5h3m2 0h4m6 0h3m1 0h1m1 0h1m2 0h1m2 0h3m1 0h2m1 0h1m2 0h3m1 0h1m1 0h2m1 0h1m1 0h1m3 0h2m1 0h6m1 0h1m1 0h1m5 0h1m3 0h2m1 0h1m1 0h1m6 0h1m5 0h1m1 0h5m1 0h3m1 0h1m2 0h1m1 0h2m3 0h1m5 0h3m1 0h3m1 0h2m1 0h2m1 0h1m1 0h3m1 0h1m6 0h2m1 0h2m2 0h3m1 0h1M7 111.5h1m1 0h1m2 0h2m2 0h1m2 0h1m1 0h1m1 0h1m1 0h1m2 0h2m2 0h2m4 0h2m1 0h3m1 0h1m2 0h3m1 0h1m1 0h3m2 0h1m1 0h8m2 0h5m3 0h1m2 0h4m2 0h2m1 0h2m1 0h3m1 0h3m4 0h1m1 0h1m2 0h2m1 0h1m3 0h1m1 0h1m2 0h6m2 0h1m1 0h4m3 0h3m8 0h1m3 0h1m1 0h1m1 0h1m2 0h2m1 0h1M4 112.5h1m2 0h1m1 0h2m1 0h3m1 0h1m1 0h1m2 0h1m2 0h1m1 0h1m1 0h2m1 0h2m1 0h1m1 0h1m4 0h1m1 0h3m2 0h2m2 0h2m3 0h1m5 0h1m1 0h2m2 0h1m1 0h1m1 0h2m1 0h1m3 0h3m1 0h2m2 0h2m1 0h1m1 0h2m1 0h2m1 0h3m1 0h1m1 0h2m2 0h1m5 0h1m2 0h2m2 0h2m1 0h1m2 0h1m2 0h1m2 0h2m3 0h1m2 0h4m1 0h2m1 0h2m2 0h2m2 0h1m4 0h2M4 113.5h3m1 0h1m3 0h4m1 0h1m1 0h1m2 0h4m2 0h2m3 0h1m1 0h2m3 0h1m1 0h1m4 0h1m2 0h2m1 0h3m2 0h1m1 0h5m2 0h5m2 0h2m1 0h1m1 0h1m4 0h1m2 0h2m1 0h1m1 0h1m4 0h6m1 0h5m4 0h1m1 0h2m3 0h2m1 0h2m2 0h5m1 0h1m2 0h1m4 0h1m5 0h1m1 0h1m1 0h1m9 0h1m2 0h1M7 114.5h4m4 0h3m1 0h2m1 0h4m1 0h2m1 0h2m1 0h1m1 0h1m1 0h2m3 0h2m2 0h3m3 0h1m1 0h1m3 0h2m4 0h1m2 0h3m3 0h1m1 0h1m3 0h5m1 0h1m1 0h2m2 0h1m2 0h2m1 0h1m2 0h1m2 0h3m1 0h1m3 0h1m6 0h2m4 0h3m1 0h3m1 0h3m4 0h1m5 0h1m2 0h5m8 0h1m1 0h2M4 115.5h1m2 0h3m1 0h4m3 0h1m2 0h2m3 0h2m1 0h2m1 0h1m2 0h1m1 0h1m2 0h1m1 0h1m1 0h2m1 0h2m1 0h4m2 0h1m1 0h3m2 0h3m1 0h1m5 0h2m1 0h3m1 0h1m1 0h1m1 0h2m1 0h2m1 0h1m2 0h2m1 0h2m1 0h3m1 0h2m2 0h5m1 0h1m1 0h2m2 0h1m3 0h2m1 0h4m5 0h5m5 0h1m1 0h2m2 0h2m1 0h2m2 0h2m2 0h2M8 116.5h1m1 0h1m1 0h1m3 0h4m2 0h1m1 0h8m2 0h2m4 0h1m5 0h2m1 0h1m4 0h1m2 0h2m1 0h3m3 0h2m1 0h4m4 0h1m1 0h2m1 0h3m2 0h1m1 0h1m2 0h4m2 0h1m3 0h2m2 0h1m2 0h4m4 0h2m3 0h1m3 0h1m1 0h1m2 0h2m1 0h1m2 0h1m1 0h3m3 0h1m1 0h3m3 0h1m5 0h1m1 0h1m1 0h2M4 117.5h1m1 0h2m1 0h1m1 0h2m3 0h1m4 0h2m1 0h2m1 0h1m1 0h1m2 0h1m4 0h1m2 0h2m5 0h1m2 0h1m1 0h2m1 0h2m2 0h6m3 0h1m1 0h2m2 0h1m3 0h1m1 0h2m3 0h3m2 0h1m1 0h1m2 0h1m3 0h2m1 0h2m2 0h1m1 0h1m4 0h1m1 0h1m1 0h3m4 0h1m2 0h7m4 0h6m1 0h1m4 0h1m2 0h2m2 0h2m2 0h2m1 0h1M6 118.5h1m1 0h3m3 0h6m2 0h5m1 0h4m1 0h1m3 0h2m2 0h2m2 0h1m1 0h1m3 0h2m2 0h1m1 0h1m3 0h1m2 0h3m1 0h1m4 0h1m3 0h2m1 0h3m2 0h1m1 0h1m1 0h4m2 0h3m3 0h1m5 0h1m2 0h5m2 0h3m1 0h2m2 0h3m1 0h4m5 0h2m3 0h5m2 0h3m2 0h3m1 0h1m3 0h1M4 119.5h2m1 0h2m2 0h1m2 0h1m1 0h1m2 0h1m1 0h7m2 0h4m1 0h1m1 0h3m3 0h4m1 0h1m1 0h2m5 0h1m1 0h1m1 0h2m1 0h1m2 0h1m1 0h2m1 0h2m6 0h2m2 0h1m1 0h2m4 0h1m1 0h5m3 0h1m5 0h3m1 0h1m4 0h1m5 0h1m1 0h4m3 0h2m1 0h3m1 0h2m1 0h2m1 0h2m2 0h1m4 0h4m1 0h1m1 0h2m1 0h1M4 120.5h3m3 0h1m1 0h2m1 0h5m2 0h2m1 0h2m1 0h3m2 0h3m1 0h4m1 0h1m1 0h1m8 0h1m1 0h1m1 0h2m3 0h1m4 0h3m2 0h1m3 0h5m2 0h1m1 0h1m1 0h3m1 0h2m1 0h1m1 0h2m2 0h2m1 0h1m1 0h1m1 0h2m3 0h3m3 0h2m3 0h2m3 0h6m3 0h1m2 0h1m2 0h1m2 0h1m2 0h1m1 0h1m7 0h4m1 0h1M4 121.5h1m1 0h1m2 0h1m1 0h1m1 0h2m1 0h1m1 0h2m4 0h3m1 0h2m2 0h1m1 0h1m1 0h1m2 0h1m1 0h4m3 0h1m2 0h2m5 0h3m1 0h1m1 0h1m3 0h4m3 0h5m1 0h2m1 0h2m1 0h1m1 0h1m1 0h4m1 0h2m5 0h1m2 0h2m1 0h1m3 0h3m1 0h1m11 0h2m1 0h2m4 0h1m1 0h2m1 0h1m4 0h1m2 0h4m2 0h6M4 122.5h5m1 0h6m2 0h2m1 0h2m2 0h1m1 0h2m2 0h3m1 0h1m1 0h1m1 0h1m1 0h1m2 0h2m2 0h3m1 0h2m2 0h1m1 0h1m1 0h1m1 0h1m2 0h1m2 0h1m1 0h1m2 0h2m2 0h1m5 0h2m3 0h3m1 0h1m2 0h2m5 0h1m1 0h2m1 0h3m1 0h1m3 0h4m1 0h2m1 0h3m1 0h5m2 0h1m1 0h1m2 0h1m2 0h1m1 0h6m1 0h1m1 0h1m1 0h2m6 0h1M4 123.5h4m4 0h1m1 0h3m1 0h1m1 0h6m1 0h4m1 0h1m1 0h2m6 0h1m3 0h1m1 0h1m3 0h1m7 0h2m4 0h1m2 0h1m2 0h2m1 0h1m2 0h4m2 0h2m3 0h1m7 0h1m2 0h2m6 0h2m1 0h2m3 0h2m1 0h1m5 0h1m3 0h1m1 0h2m1 0h1m2 0h1m3 0h1m2 0h2m1 0h3m1 0h1m1 0h1m2 0h1m1 0h3m2 0h1M4 124.5h1m1 0h1m3 0h8m5 0h2m1 0h2m2 0h1m1 0h1m1 0h9m2 0h4m2 0h2m4 0h1m1 0h2m2 0h3m1 0h1m2 0h2m1 0h2m2 0h6m2 0h1m2 0h2m1 0h1m3 0h1m1 0h4m1 0h3m1 0h5m1 0h1m2 0h1m1 0h2m2 0h1m2 0h2m1 0h1m2 0h1m1 0h1m4 0h3m1 0h2m1 0h1m1 0h3m1 0h4m2 0h2m3 0h1M5 125.5h1m5 0h1m1 0h2m1 0h6m5 0h1m1 0h1m1 0h5m2 0h1m1 0h2m1 0h1m1 0h2m3 0h1m7 0h2m4 0h2m1 0h1m2 0h2m3 0h1m2 0h1m3 0h1m1 0h3m1 0h3m2 0h1m4 0h1m1 0h1m1 0h1m1 0h2m2 0h2m2 0h1m2 0h2m1 0h2m4 0h1m1 0h7m1 0h1m1 0h3m2 0h2m1 0h1m3 0h1m3 0h1m1 0h1m2 0h1m1 0h3m1 0h1M5 126.5h1m1 0h4m1 0h2m2 0h1m2 0h1m2 0h1m2 0h1m1 0h1m1 0h1m4 0h2m2 0h3m2 0h1m1 0h1m3 0h2m2 0h1m1 0h1m4 0h3m3 0h3m2 0h1m2 0h1m2 0h1m1 0h1m1 0h1m1 0h2m1 0h2m1 0h2m1 0h2m4 0h4m3 0h1m2 0h3m1 0h3m4 0h3m2 0h1m1 0h1m5 0h1m6 0h2m2 0h2m1 0h1m1 0h3m6 0h1m4 0h2M4 127.5h3m5 0h2m1 0h4m1 0h2m1 0h1m2 0h1m2 0h1m1 0h1m1 0h2m2 0h2m3 0h2m2 0h1m1 0h1m1 0h3m1 0h1m3 0h1m2 0h4m1 0h1m5 0h2m5 0h2m3 0h2m5 0h1m2 0h4m8 0h2m3 0h1m4 0h5m1 0h2m1 0h1m2 0h1m2 0h1m2 0h1m2 0h1m2 0h1m1 0h1m2 0h1m3 0h1m1 0h2m1 0h1m1 0h1m1 0h5M5 128.5h3m2 0h2m2 0h1m1 0h3m2 0h2m2 0h4m3 0h2m5 0h1m1 0h1m1 0h1m2 0h1m3 0h3m1 0h1m1 0h1m1 0h2m1 0h1m4 0h3m2 0h7m7 0h1m1 0h4m4 0h1m1 0h1m1 0h1m1 0h2m1 0h1m4 0h1m1 0h1m2 0h2m3 0h3m1 0h1m1 0h3m4 0h1m2 0h2m5 0h2m2 0h1m2 0h1m2 0h4m3 0h5M6 129.5h4m1 0h1m1 0h1m1 0h1m2 0h3m4 0h1m1 0h1m3 0h3m1 0h3m2 0h1m3 0h2m1 0h1m1 0h1m2 0h1m3 0h4m3 0h2m1 0h1m1 0h1m2 0h3m3 0h3m1 0h3m2 0h1m1 0h2m2 0h1m2 0h2m1 0h1m2 0h1m1 0h2m3 0h1m2 0h1m1 0h1m1 0h1m3 0h4m2 0h2m1 0h2m1 0h2m2 0h1m3 0h2m1 0h2m4 0h2m3 0h1m1 0h6M5 130.5h1m2 0h8m1 0h3m1 0h3m2 0h6m1 0h2m6 0h1m4 0h1m4 0h6m1 0h1m1 0h4m7 0h1m3 0h8m1 0h1m2 0h3m2 0h4m3 0h1m1 0h1m2 0h5m2 0h1m1 0h4m1 0h1m1 0h1m3 0h4m2 0h5m1 0h3m1 0h3m1 0h4m1 0h1m2 0h1m2 0h6m1 0h1m1 0h1M4 131.5h3m1 0h1m3 0h2m1 0h1m1 0h1m1 0h2m2 0h2m1 0h1m3 0h2m1 0h7m3 0h1m1 0h1m3 0h2m1 0h1m3 0h2m2 0h1m1 0h5m2 0h1m1 0h1m1 0h1m1 0h1m1 0h2m3 0h3m2 0h1m2 0h2m3 0h2m2 0h2m1 0h1m1 0h1m3 0h2m3 0h1m6 0h4m2 0h1m3 0h1m3 0h2m1 0h2m1 0h2m1 0h2m5 0h2m1 0h4m3 0h1m1 0h1M5 132.5h1m1 0h2m1 0h1m1 0h2m1 0h3m5 0h1m2 0h1m1 0h1m1 0h2m1 0h1m1 0h4m1 0h1m2 0h3m2 0h3m1 0h1m1 0h1m1 0h1m4 0h2m1 0h3m2 0h1m1 0h1m2 0h1m3 0h1m1 0h1m1 0h1m1 0h1m1 0h1m1 0h2m1 0h2m2 0h1m4 0h2m2 0h1m1 0h1m1 0h2m2 0h2m2 0h1m1 0h3m3 0h2m2 0h1m1 0h1m1 0h1m1 0h1m4 0h1m1 0h1m3 0h2m1 0h1m1 0h1m1 0h1m3 0h1m1 0h1m1 0h4M4 133.5h1m2 0h2m3 0h1m1 0h1m1 0h1m2 0h1m2 0h1m1 0h1m1 0h1m3 0h2m1 0h4m1 0h1m1 0h1m6 0h2m1 0h3m3 0h1m3 0h1m1 0h2m4 0h1m1 0h1m2 0h4m1 0h1m3 0h1m1 0h2m2 0h1m2 0h1m1 0h5m2 0h1m3 0h1m3 0h1m2 0h3m1 0h1m3 0h1m1 0h2m1 0h1m1 0h2m1 0h2m3 0h1m2 0h3m3 0h2m2 0h2m1 0h4m2 0h1m3 0h3M6 134.5h7m1 0h1m2 0h1m1 0h1m1 0h1m2 0h7m1 0h1m1 0h2m2 0h5m1 0h3m1 0h1m1 0h7m1 0h3m2 0h7m1 0h2m2 0h1m2 0h6m3 0h2m1 0h1m3 0h1m1 0h3m3 0h7m5 0h1m2 0h3m1 0h6m2 0h6m2 0h3m1 0h3m4 0h1m2 0h14M5 135.5h1m1 0h1m1 0h1m1 0h1m1 0h2m2 0h3m2 0h1m1 0h2m2 0h1m3 0h2m1 0h2m1 0h2m2 0h1m1 0h1m1 0h1m2 0h1m5 0h1m1 0h2m4 0h4m5 0h1m1 0h1m1 0h2m5 0h2m3 0h1m1 0h1m1 0h3m1 0h2m3 0h1m2 0h1m2 0h3m1 0h1m1 0h2m1 0h2m1 0h1m6 0h4m1 0h2m1 0h1m1 0h2m1 0h1m1 0h3m1 0h1m1 0h1m4 0h1m3 0h2m2 0h5M6 136.5h1m3 0h2m1 0h1m2 0h2m3 0h1m3 0h1m1 0h1m1 0h2m1 0h3m1 0h1m1 0h3m1 0h1m1 0h1m2 0h1m2 0h1m6 0h2m2 0h1m1 0h2m3 0h3m2 0h1m2 0h2m3 0h2m3 0h5m1 0h7m2 0h1m2 0h3m2 0h1m4 0h2m2 0h1m2 0h1m1 0h1m1 0h1m1 0h2m1 0h3m2 0h3m3 0h2m1 0h2m1 0h1m2 0h4m4 0h1m1 0h3m1 0h1M6 137.5h1m1 0h1m4 0h3m1 0h3m1 0h1m10 0h2m1 0h1m1 0h2m2 0h3m4 0h1m3 0h1m1 0h1m1 0h1m1 0h1m4 0h5m1 0h1m2 0h2m3 0h2m6 0h3m2 0h3m1 0h1m3 0h2m1 0h2m1 0h2m1 0h2m8 0h2m3 0h4m1 0h1m1 0h2m1 0h1m1 0h2m2 0h2m6 0h3m3 0h1m2 0h1m1 0h1m1 0h1m1 0h1M4 138.5h3m2 0h4m2 0h1m1 0h1m1 0h9m4 0h3m4 0h1m2 0h2m2 0h1m1 0h1m1 0h1m3 0h1m1 0h2m1 0h1m3 0h1m4 0h2m1 0h2m1 0h1m1 0h2m1 0h1m1 0h1m1 0h1m1 0h2m1 0h1m1 0h2m2 0h5m1 0h1m2 0h1m2 0h4m9 0h2m1 0h2m1 0h2m1 0h1m4 0h3m1 0h2m3 0h1m2 0h1m1 0h3m1 0h2m3 0h1m1 0h1m2 0h1m2 0h1M4 139.5h3m5 0h1m5 0h1m2 0h1m1 0h1m1 0h2m2 0h1m1 0h3m3 0h1m4 0h5m1 0h2m7 0h2m1 0h2m2 0h1m1 0h2m1 0h1m5 0h2m1 0h1m3 0h1m3 0h1m2 0h3m4 0h2m1 0h1m1 0h3m3 0h1m2 0h1m1 0h1m3 0h1m5 0h3m3 0h4m1 0h1m2 0h1m2 0h1m8 0h5m2 0h1m1 0h3m3 0h2M8 140.5h1m1 0h1m2 0h3m1 0h1m1 0h1m3 0h1m1 0h1m2 0h4m1 0h3m2 0h2m2 0h4m1 0h1m5 0h3m2 0h1m2 0h2m5 0h4m1 0h1m1 0h2m1 0h4m1 0h1m2 0h3m1 0h5m4 0h2m1 0h3m2 0h1m5 0h1m4 0h1m1 0h1m2 0h2m1 0h2m2 0h3m2 0h1m1 0h2m1 0h1m1 0h2m3 0h1m1 0h4m3 0h6m1 0h2M4 141.5h1m1 0h3m3 0h4m2 0h1m1 0h2m2 0h3m4 0h1m1 0h1m3 0h3m1 0h1m2 0h1m3 0h3m1 0h1m2 0h1m2 0h1m2 0h1m5 0h1m4 0h1m3 0h2m1 0h1m1 0h1m3 0h3m2 0h1m1 0h3m2 0h1m1 0h4m2 0h1m1 0h2m1 0h1m5 0h1m2 0h2m1 0h4m1 0h2m1 0h4m1 0h5m1 0h1m1 0h2m1 0h1m1 0h5m3 0h4m2 0h2M5 142.5h14m1 0h2m2 0h2m4 0h1m1 0h4m3 0h1m2 0h3m1 0h1m1 0h2m2 0h1m1 0h3m1 0h2m1 0h2m1 0h2m1 0h2m2 0h5m1 0h1m1 0h1m1 0h1m2 0h3m1 0h1m2 0h5m1 0h1m7 0h1m3 0h1m1 0h2m2 0h1m1 0h2m2 0h3m2 0h3m1 0h1m1 0h1m3 0h2m1 0h1m1 0h4m6 0h1m1 0h3m2 0h3M5 143.5h1m1 0h2m3 0h1m2 0h1m2 0h2m2 0h4m1 0h3m5 0h1m4 0h1m1 0h4m1 0h1m2 0h1m1 0h1m5 0h6m1 0h1m4 0h2m3 0h1m1 0h2m1 0h1m1 0h3m1 0h1m1 0h1m1 0h1m3 0h2m5 0h1m2 0h1m1 0h3m2 0h2m2 0h3m1 0h1m1 0h1m1 0h2m6 0h1m1 0h4m1 0h2m1 0h1m1 0h1m3 0h1m1 0h1m3 0h2m1 0h1m5 0h1M5 144.5h3m2 0h1m2 0h1m1 0h2m3 0h6m1 0h4m1 0h1m2 0h1m1 0h4m1 0h2m3 0h1m9 0h1m2 0h2m1 0h1m1 0h1m1 0h2m2 0h1m1 0h3m2 0h2m3 0h2m2 0h1m1 0h2m1 0h1m1 0h1m2 0h2m1 0h3m1 0h1m2 0h1m1 0h1m3 0h2m1 0h2m1 0h1m1 0h1m2 0h2m2 0h3m2 0h2m2 0h1m3 0h3m2 0h2m1 0h1m1 0h1m3 0h5m2 0h2M6 145.5h1m2 0h1m4 0h6m2 0h2m3 0h5m6 0h2m4 0h1m2 0h1m2 0h2m1 0h2m3 0h2m2 0h2m2 0h3m4 0h2m1 0h1m1 0h1m5 0h3m2 0h1m3 0h4m1 0h4m1 0h1m1 0h1m1 0h4m1 0h2m2 0h3m2 0h1m5 0h2m3 0h1m2 0h1m1 0h3m2 0h4m3 0h2m1 0h1m1 0h1m2 0h1m1 0h3m1 0h2M5 146.5h2m1 0h1m1 0h1m1 0h1m3 0h4m1 0h1m1 0h1m1 0h1m4 0h1m3 0h1m3 0h4m3 0h2m1 0h2m1 0h2m1 0h1m1 0h4m4 0h1m3 0h3m1 0h1m2 0h1m2 0h2m3 0h1m3 0h2m3 0h1m3 0h2m2 0h1m3 0h1m1 0h1m2 0h1m3 0h3m2 0h4m1 0h2m1 0h1m1 0h1m1 0h1m1 0h3m1 0h1m2 0h1m2 0h2m2 0h2m2 0h1m1 0h1m2 0h1m3 0h2m1 0h3M6 147.5h1m1 0h1m5 0h1m1 0h2m1 0h1m2 0h2m1 0h4m4 0h8m4 0h1m5 0h2m2 0h1m1 0h8m2 0h1m5 0h1m3 0h2m1 0h2m6 0h2m2 0h3m4 0h4m1 0h1m1 0h4m1 0h1m1 0h1m1 0h1m4 0h1m3 0h2m1 0h1m3 0h2m2 0h1m1 0h1m5 0h3m2 0h3m3 0h1m1 0h1m1 0h1m2 0h2M5 148.5h1m4 0h1m4 0h1m1 0h3m2 0h1m3 0h1m1 0h2m2 0h2m1 0h1m2 0h2m3 0h2m1 0h3m2 0h1m3 0h5m2 0h1m1 0h1m2 0h2m2 0h1m1 0h2m3 0h1m1 0h4m1 0h6m2 0h2m2 0h1m2 0h2m2 0h2m1 0h1m4 0h1m2 0h2m1 0h2m7 0h1m2 0h2m2 0h4m2 0h2m2 0h1m1 0h4m5 0h1m1 0h1m1 0h2m1 0h3M5 149.5h1m1 0h1m3 0h1m7 0h1m1 0h1m1 0h2m1 0h2m1 0h1m2 0h1m2 0h4m4 0h1m2 0h1m3 0h1m2 0h1m5 0h1m3 0h3m2 0h2m2 0h1m1 0h1m2 0h4m2 0h2m1 0h2m2 0h1m1 0h1m3 0h2m1 0h6m3 0h2m1 0h1m1 0h1m1 0h1m1 0h2m1 0h2m2 0h4m1 0h1m2 0h1m2 0h1m1 0h3m2 0h1m1 0h2m2 0h1m7 0h1m4 0h4M5 150.5h1m4 0h1m3 0h2m2 0h3m1 0h1m1 0h1m4 0h2m1 0h1m1 0h1m1 0h1m1 0h2m4 0h1m3 0h1m1 0h2m1 0h2m1 0h3m2 0h1m1 0h1m1 0h3m1 0h1m2 0h1m3 0h1m1 0h5m2 0h3m1 0h1m1 0h2m2 0h2m2 0h1m1 0h1m1 0h3m1 0h1m1 0h1m1 0h1m1 0h2m5 0h2m1 0h1m3 0h2m2 0h5m3 0h1m1 0h3m1 0h2m1 0h4m1 0h5m1 0h1m2 0h2M5 151.5h5m3 0h1m4 0h4m1 0h3m1 0h1m5 0h3m1 0h1m3 0h3m1 0h2m3 0h2m1 0h1m1 0h2m1 0h2m3 0h1m1 0h1m2 0h1m1 0h1m3 0h1m1 0h1m1 0h5m2 0h1m1 0h2m2 0h1m2 0h2m3 0h2m1 0h1m1 0h1m1 0h1m2 0h2m1 0h1m2 0h3m1 0h2m1 0h1m7 0h3m2 0h3m1 0h7m2 0h6m2 0h5m3 0h1M5 152.5h2m2 0h2m2 0h3m1 0h2m2 0h2m2 0h2m1 0h2m1 0h1m1 0h2m1 0h2m1 0h1m1 0h1m1 0h2m2 0h10m1 0h1m2 0h1m3 0h2m2 0h1m2 0h1m1 0h1m1 0h1m1 0h2m1 0h3m1 0h6m1 0h1m3 0h5m1 0h1m1 0h2m1 0h2m1 0h1m1 0h1m2 0h5m1 0h2m4 0h3m2 0h2m6 0h1m3 0h5m1 0h1m3 0h1m2 0h2M6 153.5h3m3 0h1m1 0h1m1 0h4m3 0h1m2 0h1m1 0h1m2 0h2m3 0h2m1 0h1m1 0h1m1 0h1m1 0h2m3 0h2m2 0h2m1 0h1m5 0h4m3 0h3m1 0h1m2 0h1m1 0h3m1 0h1m1 0h1m4 0h1m2 0h1m1 0h2m4 0h2m2 0h2m1 0h1m3 0h1m3 0h3m2 0h1m1 0h1m4 0h1m1 0h2m1 0h1m2 0h1m3 0h4m2 0h2m2 0h1m1 0h1m1 0h1m1 0h1m2 0h2m2 0h2M4 154.5h2m1 0h1m2 0h1m1 0h1m1 0h1m2 0h1m2 0h2m2 0h4m1 0h3m1 0h1m1 0h1m2 0h1m3 0h4m2 0h1m1 0h1m4 0h4m5 0h1m2 0h1m2 0h2m4 0h1m1 0h1m1 0h2m1 0h1m1 0h2m4 0h1m2 0h1m2 0h4m3 0h2m8 0h2m4 0h2m3 0h3m1 0h1m3 0h1m1 0h1m7 0h1m1 0h3m1 0h2m6 0h3m1 0h1m1 0h2M4 155.5h1m6 0h1m2 0h1m2 0h1m2 0h2m1 0h1m3 0h2m2 0h2m2 0h1m2 0h1m1 0h3m1 0h1m3 0h2m3 0h1m4 0h1m1 0h1m2 0h4m5 0h1m2 0h3m2 0h1m1 0h1m1 0h2m2 0h1m1 0h2m2 0h1m1 0h2m4 0h1m1 0h1m2 0h1m1 0h3m4 0h3m2 0h4m2 0h1m2 0h4m1 0h2m1 0h2m4 0h1m6 0h1m1 0h1m2 0h1m1 0h1m1 0h1m2 0h2M6 156.5h8m1 0h1m1 0h2m2 0h1m2 0h7m1 0h1m2 0h3m1 0h2m1 0h3m2 0h1m3 0h7m3 0h3m1 0h1m1 0h1m1 0h1m1 0h2m1 0h1m1 0h7m5 0h1m3 0h1m3 0h5m3 0h7m5 0h1m1 0h3m2 0h6m1 0h7m1 0h1m1 0h2m3 0h1m1 0h1m3 0h11m1 0h1M12 157.5h1m1 0h3m3 0h3m3 0h1m3 0h1m2 0h1m2 0h1m1 0h1m1 0h1m2 0h2m3 0h3m1 0h1m3 0h1m1 0h3m1 0h1m4 0h1m3 0h1m3 0h1m2 0h1m3 0h5m1 0h2m1 0h4m1 0h1m3 0h1m1 0h1m1 0h1m3 0h1m3 0h1m1 0h1m1 0h1m1 0h2m3 0h1m2 0h1m1 0h1m1 0h1m3 0h1m1 0h2m7 0h1m2 0h1m5 0h1m1 0h1m3 0h4M4 158.5h7m1 0h2m1 0h1m1 0h3m4 0h1m1 0h1m1 0h1m1 0h1m2 0h1m1 0h1m2 0h1m1 0h2m2 0h1m1 0h2m1 0h2m1 0h1m1 0h1m1 0h1m1 0h2m2 0h2m5 0h2m1 0h1m1 0h2m1 0h2m1 0h1m1 0h1m1 0h1m2 0h2m1 0h1m1 0h2m2 0h2m3 0h4m1 0h1m1 0h2m3 0h1m1 0h2m1 0h1m1 0h3m1 0h2m3 0h2m1 0h1m1 0h3m4 0h2m2 0h3m1 0h3m1 0h1m1 0h2m1 0h1m1 0h3M4 159.5h1m5 0h1m1 0h1m2 0h1m1 0h3m1 0h3m1 0h2m3 0h1m1 0h1m3 0h1m2 0h6m2 0h1m1 0h2m1 0h1m3 0h2m1 0h3m1 0h1m2 0h2m2 0h2m1 0h6m3 0h3m1 0h1m1 0h2m1 0h5m2 0h7m3 0h2m1 0h3m2 0h1m1 0h3m1 0h1m1 0h2m1 0h4m3 0h1m2 0h3m2 0h5m1 0h1m1 0h3m2 0h2m3 0h2m1 0h2M4 160.5h1m1 0h3m1 0h1m3 0h1m1 0h2m5 0h2m1 0h6m1 0h1m1 0h3m1 0h1m1 0h1m3 0h6m1 0h5m2 0h2m1 0h1m1 0h1m3 0h2m1 0h1m1 0h1m1 0h1m1 0h7m1 0h3m2 0h1m1 0h6m2 0h10m1 0h2m3 0h1m4 0h1m4 0h1m1 0h1m1 0h5m1 0h4m2 0h2m1 0h2m1 0h2m3 0h2m1 0h5m2 0h1M4 161.5h1m1 0h3m1 0h1m1 0h1m1 0h3m1 0h5m2 0h3m1 0h1m1 0h1m3 0h1m2 0h1m1 0h4m5 0h1m1 0h1m3 0h1m1 0h2m3 0h3m5 0h2m2 0h1m1 0h2m3 0h1m3 0h1m1 0h1m6 0h4m1 0h1m3 0h2m3 0h3m2 0h2m1 0h1m1 0h3m2 0h2m2 0h3m2 0h3m3 0h3m5 0h1m3 0h2m2 0h3m5 0h1M4 162.5h1m1 0h3m1 0h1m1 0h2m1 0h6m2 0h1m7 0h1m2 0h1m1 0h1m1 0h4m2 0h3m1 0h2m1 0h1m1 0h1m1 0h1m1 0h1m2 0h2m1 0h2m1 0h2m1 0h1m1 0h1m1 0h2m1 0h2m2 0h2m1 0h2m1 0h1m1 0h5m2 0h4m2 0h2m1 0h1m5 0h1m1 0h4m3 0h2m3 0h1m1 0h3m2 0h5m1 0h2m2 0h3m1 0h1m3 0h4m1 0h2m2 0h3m1 0h1m1 0h1M4 163.5h1m5 0h1m2 0h3m1 0h1m5 0h1m1 0h4m1 0h1m7 0h2m1 0h2m2 0h2m1 0h5m1 0h3m2 0h2m1 0h1m1 0h4m1 0h1m5 0h3m1 0h1m2 0h1m1 0h2m2 0h2m2 0h1m2 0h1m1 0h1m2 0h2m1 0h1m1 0h8m3 0h1m1 0h1m1 0h2m1 0h2m2 0h1m1 0h3m2 0h3m1 0h1m2 0h1m1 0h1m1 0h1m4 0h1m2 0h1m2 0h2m3 0h1m1 0h1M4 164.5h7m1 0h2m2 0h1m2 0h1m1 0h2m1 0h2m1 0h1m3 0h1m2 0h2m3 0h1m9 0h1m2 0h1m1 0h1m1 0h1m2 0h1m1 0h3m2 0h1m3 0h1m1 0h2m4 0h1m4 0h2m1 0h1m2 0h1m1 0h3m2 0h1m2 0h2m2 0h3m1 0h1m1 0h2m1 0h3m1 0h1m2 0h1m5 0h2m2 0h2m2 0h1m1 0h1m1 0h1m2 0h3m1 0h1m6 0h2m1 0h1m1 0h3m2 0h3"/></svg>
