<?xml version="1.0" encoding="utf-8"?><!DOCTYPE svg PUBLIC "-//W3C//DTD SVG 1.1//EN" "http://www.w3.org/Graphics/SVG/1.1/DTD/svg11.dtd"><svg xmlns="http://www.w3.org/2000/svg" viewBox="0 0 169 169" shape-rendering="crispEdges"><path fill="#ffffff" d="M0 0h169v169H0z"/><path stroke="#000000" d="M4 4.5h7m2 0h1m2 0h1m3 0h1m2 0h1m1 0h1m2 0h2m3 0h1m1 0h1m1 0h6m6 0h5m1 0h2m4 0h1m1 0h1m1 0h1m3 0h1m2 0h1m3 0h2m1 0h1m4 0h1m2 0h1m1 0h2m5 0h2m2 0h1m3 0h4m4 0h3m5 0h2m2 0h3m1 0h3m1 0h2m2 0h2m2 0h2m6 0h2m1 0h2m1 0h2m2 0h7M4 5.5h1m5 0h1m1 0h1m2 0h2m1 0h2m4 0h1m5 0h5m3 0h1m1 0h1m2 0h8m1 0h1m1 0h2m2 0h1m1 0h3m5 0h1m1 0h3m2 0h1m2 0h1m2 0h2m4 0h1m1 0h2m2 0h1m3 0h1m2 0h2m5 0h1m1 0h1m1 0h3m2 0h1m1 0h5m1 0h1m2 0h1m3 0h1m4 0h1m1 0h2m1 0h2m1 0h4m4 0h1m1 0h1m3 0h1m5 0h1M4 6.5h1m1 0h3m1 0h1m5 0h5m1 0h1m1 0h1m2 0h2m1 0h8m1 0h2m1 0h1m1 0h2m3 0h3m1 0h2m1 0h1m2 0h2m1 0h1m1 0h1m2 0h4m2 0h3m1 0h2m1 0h1m1 0h3m1 0h1m3 0h1m1 0h1m1 0h1m1 0h1m1 0h1m1 0h2m6 0h1m4 0h1m1 0h1m10 0h2m2 0h2m2 0h2m4 0h1m1 0h1m6 0h1m1 0h2m3 0h1m1 0h1m1 0h3m1 0h1M4 7.5h1m1 0h3m1 0h1m3 0h1m2 0h1m1 0h2m2 0h2m3 0h2m3 0h1m1 0h1m3 0h3m4 0h1m1 0h1m1 0h2m1 0h1m1 0h1m1 0h3m1 0h2m1 0h2m1 0h1m1 0h1m3 0h3m2 0h3m1 0h1m2 0h2m1 0h2m1 0h2m1 0h1m1 0h1m1 0h2m6 0h2m1 0h2m2 0h2m2 0h3m1 0h3m1 0h2m4 0h1m1 0h1m2 0h2m2 0h1m1 0h4m2 0h1m5 0h1m1 0h1m1 0h1m1 0h3m1 0h1M4 8.5h1m1 0h3m1 0h1m1 0h5m2 0h3m4 0h5m1 0h2m2 0h2m1 0h3m3 0h3m3 0h6m2 0h2m3 0h2m1 0h3m1 0h1m1 0h1m1 0h2m1 0h6m1 0h1m2 0h1m1 0h3m1 0h1m2 0h2m2 0h1m2 0h5m6 0h2m1 0h2m3 0h1m4 0h7m2 0h1m4 0h4m1 0h1m1 0h2m1 0h1m3 0h1m1 0h1m1 0h3m1 0h1M4 9.5h1m5 0h1m2 0h1m1 0h1m2 0h1m1 0h2m2 0h1m1 0h1m3 0h5m1 0h2m2 0h1m1 0h5m3 0h1m1 0h1m3 0h2m2 0h1m3 0h2m1 0h1m1 0h2m3 0h1m3 0h1m3 0h1m4 0h1m3 0h1m2 0h1m2 0h1m2 0h2m2 0h1m3 0h1m1 0h2m1 0h1m1 0h3m1 0h3m1 0h3m2 0h1m1 0h1m3 0h5m1 0h1m3 0h3m3 0h1m2 0h1m2 0h1m1 0h1m5 0h1M4 10.5h7m1 0h1m1 0h1m1 0h1m1 0h1m1 0h1m1 0h1m1 0h1m1 0h1m1 0h1m1 0h1m1 0h1m1 0h1m1 0h1m1 0h1m1 0h1m1 0h1m1 0h1m1 0h1m1 0h1m1 0h1m1 0h1m1 0h1m1 0h1m1 0h1m1 0h1m1 0h1m1 0h1m1 0h1m1 0h1m1 0h1m1 0h1m1 0h1m1 0h1m1 0h1m1 0h1m1 0h1m1 0h1m1 0h1m1 0h1m1 0h1m1 0h1m1 0h1m1 0h1m1 0h1m1 0h1m1 0h1m1 0h1m1 0h1m1 0h1m1 0h1m1 0h1m1 0h1m1 0h1m1 0h1m1 0h1m1 0h1m1 0h1m1 0h1m1 0h1m1 0h1m1 0h1m1 0h1m1 0h1m1 0h1m1 0h1m1 0h1m1 0h1m1 0h1m1 0h1m1 0h1m1 0h1m1 0h1m1 0h1m1 0h7M17 11.5h10m3 0h1m1 0h2m1 0h1m2 0h1m1 0h4m1 0h1m1 0h1m2 0h3m3 0h2m2 0h1m1 0h1m1 0h1m5 0h3m2 0h1m2 0h1m3 0h1m1 0h1m2 0h1m1 0h1m2 0h2m1 0h2m2 0h3m1 0h2m3 0h1m1 0h1m1 0h2m1 0h2m1 0h1m2 0h1m2 0h2m3 0h2m3 0h1m1 0h3m3 0h2m3 0h1m1 0h1m1 0h2m2 0h1M4 12.5h1m1 0h1m1 0h1m1 0h1m3 0h1m5 0h1m2 0h2m1 0h5m1 0h1m2 0h2m4 0h1m1 0h1m3 0h3m2 0h7m2 0h1m1 0h2m1 0h2m10 0h5m1 0h1m1 0h2m1 0h2m6 0h2m1 0h3m1 0h6m2 0h1m1 0h5m3 0h4m4 0h6m2 0h1m6 0h2m1 0h5m3 0h1m3 0h1m2 0h1M5 13.5h3m1 0h1m2 0h1m2 0h2m1 0h3m1 0h1m2 0h2m1 0h1m3 0h1m1 0h1m1 0h2m2 0h1m3 0h1m3 0h1m3 0h1m1 0h1m1 0h1m3 0h3m4 0h2m1 0h1m1 0h2m5 0h4m3 0h2m2 0h1m3 0h3m2 0h1m2 0h6m4 0h2m2 0h1m3 0h1m2 0h1m3 0h7m1 0h5m1 0h1m2 0h1m2 0h1m7 0h3m1 0h4m1 0h1M4 14.5h7m1 0h2m4 0h2m4 0h2m1 0h9m1 0h1m1 0h5m2 0h1m1 0h1m1 0h1m2 0h1m1 0h1m1 0h2m4 0h1m2 0h4m1 0h1m3 0h1m1 0h2m1 0h4m1 0h1m3 0h2m1 0h1m1 0h2m2 0h2m2 0h1m1 0h1m1 0h1m1 0h3m1 0h1m1 0h2m4 0h1m1 0h1m2 0h2m5 0h2m3 0h2m1 0h1m4 0h2m2 0h1m1 0h5m5 0h2m1 0h1M4 15.5h6m2 0h3m1 0h1m2 0h1m1 0h2m6 0h1m1 0h2m1 0h1m4 0h3m3 0h1m2 0h2m4 0h1m1 0h2m2 0h1m1 0h1m2 0h4m1 0h1m2 0h2m1 0h2m1 0h1m1 0h1m4 0h2m1 0h2m3 0h2m1 0h2m4 0h1m4 0h1m1 0h4m1 0h2m2 0h3m2 0h5m1 0h3m2 0h3m2 0h3m1 0h1m2 0h3m3 0h1m2 0h4m2 0h3M7 16.5h2m1 0h1m3 0h1m1 0h1m1 0h1m1 0h7m2 0h2m2 0h1m2 0h1m1 0h1m4 0h1m8 0h3m5 0h1m4 0h1m1 0h2m1 0h1m1 0h1m4 0h1m1 0h2m7 0h3m1 0h1m1 0h1m1 0h3m2 0h2m1 0h2m2 0h2m2 0h3m2 0h1m2 0h2m2 0h1m1 0h1m2 0h1m1 0h5m4 0h1m1 0h1m2 0h2m1 0h3m1 0h1m6 0h2m1 0h1M4 17.5h1m1 0h1m2 0h1m1 0h2m1 0h3m1 0h3m1 0h1m3 0h6m2 0h2m1 0h1m1 0h3m1 0h2m1 0h2m1 0h1m1 0h2m1 0h2m2 0h2m1 0h1m1 0h2m2 0h1m2 0h2m4 0h1m3 0h4m1 0h1m3 0h6m1 0h1m2 0h1m1 0h1m3 0h1m1 0h7m1 0h1m1 0h3m1 0h1m1 0h2m1 0h1m2 0h3m3 0h1m2 0h6m2 0h2m4 0h1m2 0h2m6 0h2M6 18.5h2m1 0h6m1 0h1m1 0h1m3 0h2m2 0h1m3 0h1m1 0h1m1 0h1m1 0h6m2 0h4m1 0h1m2 0h1m2 0h2m1 0h6m2 0h4m7 0h3m2 0h1m1 0h4m2 0h1m1 0h3m3 0h3m1 0h1m1 0h3m1 0h3m1 0h5m1 0h1m1 0h3m3 0h1m2 0h2m1 0h9m1 0h1m1 0h5m1 0h1m1 0h2m2 0h1m3 0h1m3 0h1M5 19.5h4m4 0h4m1 0h1m2 0h1m1 0h1m3 0h1m1 0h1m6 0h1m1 0h1m6 0h3m3 0h1m1 0h1m1 0h1m3 0h1m3 0h1m1 0h3m5 0h1m2 0h4m3 0h1m2 0h1m4 0h1m1 0h1m5 0h3m2 0h2m1 0h4m2 0h1m1 0h1m2 0h3m6 0h4m1 0h2m1 0h1m2 0h1m1 0h1m1 0h4m5 0h1m4 0h1m5 0h1m1 0h1M4 20.5h1m1 0h1m2 0h3m2 0h2m2 0h1m2 0h1m1 0h2m1 0h1m4 0h1m1 0h2m1 0h2m3 0h2m3 0h1m2 0h1m2 0h1m3 0h3m1 0h3m2 0h1m2 0h2m2 0h1m2 0h1m3 0h2m2 0h1m2 0h3m2 0h7m1 0h4m1 0h2m1 0h2m2 0h1m2 0h5m1 0h2m2 0h4m2 0h6m5 0h2m1 0h3m1 0h1m1 0h1m5 0h1m1 0h2m1 0h1m1 0h1M8 21.5h2m1 0h1m2 0h4m1 0h1m1 0h1m3 0h5m1 0h1m2 0h1m2 0h2m1 0h1m5 0h1m7 0h2m1 0h1m1 0h1m1 0h3m2 0h2m1 0h4m1 0h3m2 0h1m1 0h1m2 0h5m2 0h3m1 0h1m1 0h1m4 0h2m1 0h2m2 0h2m1 0h4m2 0h1m1 0h1m1 0h4m1 0h3m1 0h1m1 0h1m2 0h3m2 0h2m1 0h2m2 0h2m1 0h2m2 0h3m1 0h3m2 0h1M7 22.5h2m1 0h3m1 0h1m3 0h1m3 0h3m1 0h2m3 0h1m5 0h3m2 0h1m3 0h3m3 0h2m1 0h1m1 0h4m1 0h1m2 0h1m8 0h1m1 0h4m1 0h1m1 0h2m1 0h1m6 0h2m1 0h1m4 0h1m2 0h2m2 0h8m1 0h1m1 0h4m1 0h8m5 0h2m1 0h1m1 0h1m1 0h1m1 0h4m2 0h3m4 0h1m2 0h2M5 23.5h1m5 0h1m1 0h1m3 0h5m2 0h1m1 0h1m1 0h1m1 0h7m1 0h5m3 0h1m1 0h2m1 0h2m2 0h1m1 0h1m3 0h3m1 0h1m3 0h1m1 0h1m1 0h3m1 0h2m2 0h2m8 0h6m1 0h2m5 0h8m1 0h3m1 0h1m2 0h3m1 0h2m1 0h2m1 0h4m6 0h3m3 0h1m1 0h2m1 0h2m2 0h1m2 0h3m1 0h2M6 24.5h2m2 0h3m1 0h3m2 0h1m3 0h1m1 0h2m2 0h3m1 0h1m1 0h1m1 0h3m1 0h1m1 0h2m2 0h1m5 0h2m1 0h1m2 0h2m2 0h1m1 0h2m2 0h2m1 0h1m1 0h1m4 0h4m1 0h1m1 0h1m1 0h2m1 0h1m1 0h6m1 0h1m1 0h1m1 0h2m1 0h2m1 0h1m1 0h6m2 0h2m1 0h4m4 0h1m1 0h2m1 0h2m1 0h1m3 0h2m1 0h1m5 0h3m1 0h1m1 0h1m3 0h3M9 25.5h1m1 0h4m2 0h1m3 0h4m2 0h1m4 0h1m1 0h1m1 0h2m1 0h2m3 0h1m1 0h4m4 0h2m1 0h1m3 0h1m1 0h1m1 0h2m3 0h1m1 0h2m5 0h3m2 0h3m2 0h1m1 0h1m2 0h5m1 0h1m1 0h1m2 0h1m2 0h1m1 0h1m1 0h1m1 0h1m2 0h2m1 0h2m1 0h4m1 0h1m4 0h1m4 0h2m2 0h3m2 0h1m2 0h1m7 0h1m1 0h1m2 0h2M4 26.5h1m1 0h1m1 0h5m3 0h2m2 0h3m2 0h9m1 0h1m2 0h1m1 0h2m3 0h1m6 0h7m1 0h2m1 0h1m2 0h7m3 0h1m1 0h5m4 0h1m3 0h2m1 0h1m1 0h1m1 0h2m2 0h1m1 0h6m1 0h1m1 0h1m4 0h2m5 0h1m4 0h6m2 0h5m1 0h9m2 0h6m2 0h2M4 27.5h3m1 0h1m3 0h1m2 0h1m2 0h1m1 0h3m1 0h3m3 0h3m1 0h1m2 0h1m1 0h1m1 0h3m3 0h2m3 0h1m3 0h2m2 0h2m1 0h1m1 0h1m2 0h2m1 0h2m1 0h1m2 0h2m3 0h1m2 0h3m1 0h2m1 0h1m2 0h1m1 0h2m2 0h2m1 0h1m3 0h2m1 0h1m2 0h2m1 0h3m3 0h1m1 0h1m2 0h3m3 0h4m2 0h2m1 0h1m1 0h3m1 0h3m1 0h1m2 0h1m3 0h3m1 0h1M4 28.5h2m1 0h2m1 0h1m1 0h3m5 0h3m1 0h3m1 0h1m1 0h3m2 0h2m2 0h1m2 0h1m1 0h1m3 0h1m3 0h1m1 0h1m1 0h1m1 0h3m3 0h4m1 0h2m1 0h3m1 0h3m1 0h1m1 0h1m1 0h2m1 0h2m5 0h1m2 0h1m2 0h1m3 0h1m1 0h1m1 0h1m2 0h1m6 0h1m1 0h3m3 0h1m3 0h1m1 0h1m1 0h1m3 0h1m2 0h1m1 0h1m1 0h2m2 0h1m1 0h2m3 0h1m1 0h1m1 0h2m2 0h1M8 29.5h1m3 0h4m1 0h2m1 0h1m2 0h4m3 0h6m1 0h2m1 0h1m3 0h1m2 0h1m1 0h4m3 0h2m2 0h1m1 0h2m4 0h2m3 0h1m4 0h1m3 0h2m1 0h1m2 0h1m1 0h2m1 0h1m1 0h2m5 0h1m1 0h1m3 0h2m1 0h1m1 0h3m1 0h5m1 0h2m4 0h2m3 0h1m6 0h1m7 0h1m1 0h3m1 0h2m3 0h1m1 0h1m1 0h1M5 30.5h8m2 0h2m1 0h1m1 0h1m3 0h1m1 0h6m1 0h1m1 0h1m1 0h3m1 0h1m2 0h1m3 0h2m2 0h5m1 0h1m1 0h3m1 0h1m1 0h4m4 0h10m8 0h1m3 0h1m1 0h1m1 0h1m1 0h1m1 0h5m4 0h4m2 0h1m1 0h1m2 0h2m1 0h2m1 0h6m1 0h4m2 0h1m2 0h2m2 0h1m1 0h1m2 0h6m3 0h1M4 31.5h2m1 0h2m2 0h2m3 0h1m1 0h1m4 0h1m1 0h2m2 0h2m1 0h1m1 0h2m3 0h9m1 0h3m3 0h1m2 0h4m2 0h2m1 0h1m1 0h2m2 0h1m3 0h1m1 0h2m1 0h1m1 0h4m4 0h1m2 0h4m3 0h7m1 0h2m1 0h1m1 0h1m1 0h3m1 0h1m2 0h2m3 0h3m2 0h1m2 0h3m1 0h1m2 0h2m4 0h2m1 0h1m7 0h1m1 0h2M7 32.5h1m2 0h1m1 0h3m1 0h4m1 0h1m2 0h3m1 0h2m1 0h1m1 0h2m1 0h1m1 0h2m3 0h1m5 0h2m2 0h4m2 0h4m1 0h4m2 0h2m1 0h1m2 0h1m1 0h1m3 0h3m1 0h1m1 0h1m4 0h2m1 0h4m3 0h1m4 0h1m1 0h1m4 0h1m1 0h1m1 0h1m1 0h1m2 0h1m1 0h1m1 0h1m1 0h1m3 0h1m1 0h1m3 0h3m2 0h3m6 0h4m4 0h1m1 0h1M4 33.5h1m1 0h2m1 0h1m3 0h3m1 0h1m3 0h1m1 0h2m7 0h2m2 0h1m5 0h1m2 0h2m1 0h2m3 0h2m2 0h4m1 0h2m2 0h3m1 0h1m2 0h2m2 0h5m3 0h3m3 0h2m2 0h1m1 0h1m3 0h2m1 0h1m2 0h1m4 0h1m2 0h1m1 0h3m1 0h1m1 0h1m3 0h6m2 0h1m1 0h1m1 0h1m1 0h4m2 0h3m1 0h1m2 0h2m2 0h1m2 0h1m1 0h1M4 34.5h1m1 0h1m1 0h1m1 0h2m1 0h2m3 0h2m2 0h3m1 0h1m1 0h5m1 0h1m1 0h2m1 0h1m1 0h1m5 0h1m2 0h1m1 0h2m2 0h3m2 0h2m1 0h1m1 0h2m1 0h2m1 0h6m4 0h2m1 0h2m2 0h2m2 0h1m2 0h2m2 0h2m2 0h1m3 0h1m1 0h1m3 0h2m1 0h4m2 0h1m2 0h1m3 0h3m1 0h1m5 0h1m1 0h7m1 0h1m3 0h1m1 0h6M4 35.5h1m2 0h3m1 0h2m2 0h1m1 0h2m1 0h2m1 0h2m4 0h2m1 0h1m1 0h1m2 0h1m5 0h2m2 0h2m5 0h4m1 0h4m2 0h1m1 0h1m2 0h2m1 0h4m2 0h1m3 0h1m1 0h3m3 0h1m1 0h4m2 0h1m2 0h2m1 0h3m1 0h6m1 0h1m3 0h2m1 0h1m1 0h3m1 0h2m2 0h5m2 0h4m1 0h3m2 0h1m3 0h1m2 0h2m2 0h3M4 36.5h1m3 0h8m6 0h1m2 0h1m1 0h1m2 0h5m1 0h6m2 0h2m1 0h1m2 0h1m1 0h1m1 0h1m1 0h1m1 0h1m2 0h3m1 0h1m1 0h1m2 0h1m1 0h1m5 0h1m3 0h1m1 0h1m1 0h1m1 0h2m2 0h3m1 0h3m1 0h2m1 0h1m1 0h2m1 0h2m1 0h2m1 0h2m1 0h3m1 0h2m1 0h2m5 0h1m2 0h4m1 0h1m1 0h1m1 0h1m4 0h3m2 0h2m4 0h2m3 0h1M4 37.5h4m1 0h1m2 0h1m2 0h2m1 0h1m1 0h1m1 0h2m2 0h1m2 0h2m2 0h2m1 0h1m8 0h2m1 0h1m1 0h1m1 0h1m3 0h2m3 0h2m2 0h1m1 0h3m1 0h1m1 0h1m2 0h1m1 0h1m2 0h3m3 0h1m1 0h3m1 0h1m1 0h1m2 0h2m1 0h1m1 0h4m3 0h4m1 0h1m2 0h1m6 0h2m3 0h1m3 0h1m1 0h2m4 0h1m2 0h5m2 0h1m4 0h1m1 0h6M7 38.5h1m2 0h1m1 0h1m1 0h1m2 0h6m3 0h1m4 0h8m2 0h1m1 0h1m1 0h7m4 0h1m1 0h4m1 0h4m5 0h1m1 0h5m5 0h1m1 0h1m1 0h2m2 0h2m1 0h2m3 0h6m1 0h4m2 0h1m5 0h1m5 0h3m1 0h1m5 0h6m1 0h1m3 0h1m1 0h1m3 0h4m2 0h2m2 0h3M4 39.5h1m3 0h2m1 0h4m1 0h1m2 0h6m1 0h1m3 0h2m2 0h2m1 0h1m1 0h2m1 0h8m2 0h1m1 0h3m4 0h1m2 0h6m1 0h1m1 0h1m4 0h1m2 0h1m1 0h1m1 0h3m1 0h1m1 0h1m1 0h1m1 0h1m1 0h1m1 0h1m1 0h2m2 0h3m3 0h2m4 0h5m5 0h1m3 0h3m3 0h2m2 0h3m1 0h1m1 0h2m3 0h1m1 0h1m1 0h1m1 0h1m1 0h4M5 40.5h1m4 0h1m1 0h2m1 0h1m1 0h1m1 0h4m1 0h3m1 0h3m1 0h1m1 0h1m3 0h1m1 0h1m6 0h1m5 0h4m3 0h1m1 0h1m1 0h1m1 0h4m1 0h2m2 0h3m1 0h5m3 0h1m1 0h1m1 0h1m1 0h1m1 0h1m2 0h2m1 0h1m2 0h1m4 0h3m1 0h1m1 0h1m2 0h1m2 0h1m2 0h2m1 0h3m1 0h5m4 0h6m3 0h1m2 0h5m3 0h5M7 41.5h3m3 0h1m1 0h1m4 0h1m1 0h1m1 0h1m1 0h2m1 0h3m1 0h4m1 0h1m2 0h2m1 0h1m1 0h1m1 0h1m3 0h1m1 0h1m3 0h2m1 0h1m1 0h1m2 0h1m3 0h3m1 0h2m3 0h3m1 0h3m1 0h2m2 0h2m2 0h3m1 0h2m2 0h1m1 0h6m1 0h1m1 0h2m2 0h2m1 0h1m1 0h1m2 0h2m1 0h3m2 0h7m1 0h2m1 0h6m5 0h2m3 0h1m2 0h1M6 42.5h1m1 0h1m1 0h1m5 0h1m3 0h1m2 0h1m2 0h1m6 0h2m1 0h3m2 0h1m4 0h3m1 0h3m8 0h1m4 0h1m3 0h1m2 0h1m1 0h1m4 0h2m1 0h1m3 0h1m1 0h1m1 0h1m3 0h1m2 0h2m2 0h1m1 0h2m1 0h1m2 0h1m1 0h1m1 0h3m1 0h2m2 0h1m1 0h1m1 0h1m1 0h5m2 0h3m1 0h1m5 0h3m1 0h5m2 0h1m2 0h1m1 0h2M5 43.5h2m1 0h1m2 0h1m2 0h1m1 0h3m1 0h2m1 0h1m2 0h2m1 0h4m1 0h2m4 0h3m1 0h1m1 0h1m2 0h2m3 0h1m2 0h4m2 0h1m1 0h1m1 0h2m3 0h1m3 0h2m2 0h1m3 0h2m1 0h2m2 0h1m3 0h1m3 0h1m3 0h1m1 0h3m8 0h1m2 0h2m2 0h1m3 0h1m4 0h2m1 0h2m1 0h1m2 0h1m3 0h1m2 0h1m1 0h1m1 0h1m2 0h3m2 0h1m1 0h3M7 44.5h2m1 0h2m1 0h5m1 0h3m2 0h1m4 0h2m1 0h1m3 0h1m1 0h3m6 0h4m1 0h1m3 0h1m2 0h1m2 0h1m1 0h2m1 0h2m1 0h1m2 0h1m1 0h2m1 0h1m3 0h1m2 0h2m1 0h1m1 0h1m1 0h1m1 0h1m3 0h3m5 0h1m3 0h2m2 0h3m1 0h1m3 0h2m2 0h5m1 0h2m1 0h2m3 0h3m6 0h2m2 0h1m2 0h1m1 0h1m1 0h2m1 0h2M4 45.5h2m1 0h3m5 0h1m2 0h2m1 0h1m2 0h2m3 0h2m2 0h1m3 0h1m3 0h1m1 0h3m1 0h1m1 0h2m2 0h2m1 0h1m2 0h2m1 0h2m1 0h1m2 0h1m1 0h2m2 0h2m1 0h1m2 0h2m1 0h2m1 0h1m1 0h2m5 0h1m1 0h6m4 0h1m4 0h1m3 0h1m6 0h2m2 0h1m1 0h5m1 0h1m1 0h1m2 0h2m2 0h4m1 0h2m1 0h1m4 0h1m1 0h1m1 0h1m1 0h1M5 46.5h1m2 0h4m1 0h1m1 0h1m4 0h3m1 0h2m1 0h2m1 0h1m1 0h3m1 0h1m1 0h1m1 0h1m1 0h4m1 0h3m1 0h1m3 0h3m1 0h1m2 0h1m2 0h2m4 0h2m1 0h3m1 0h1m2 0h2m2 0h1m1 0h1m2 0h1m1 0h1m1 0h1m2 0h4m1 0h2m2 0h1m3 0h1m1 0h3m3 0h1m1 0h3m1 0h2m8 0h1m6 0h1m1 0h4m1 0h1m1 0h3m1 0h1m4 0h2m1 0h1M5 47.5h1m3 0h1m3 0h1m1 0h1m1 0h1m3 0h3m3 0h2m3 0h1m2 0h3m1 0h3m3 0h1m2 0h1m1 0h1m1 0h4m1 0h4m1 0h2m1 0h1m2 0h1m1 0h1m1 0h2m1 0h3m1 0h3m2 0h1m1 0h3m1 0h3m1 0h2m2 0h5m3 0h2m1 0h2m1 0h1m2 0h2m4 0h1m4 0h8m2 0h1m2 0h2m1 0h6m2 0h2m2 0h6m2 0h1M6 48.5h1m1 0h1m1 0h1m1 0h1m1 0h1m1 0h1m1 0h1m5 0h2m2 0h1m1 0h4m2 0h2m1 0h1m2 0h3m1 0h1m1 0h1m1 0h1m1 0h1m1 0h1m1 0h2m5 0h1m1 0h1m4 0h1m5 0h3m1 0h1m1 0h2m3 0h5m2 0h3m2 0h1m1 0h1m2 0h1m1 0h2m1 0h4m1 0h1m3 0h1m3 0h2m5 0h4m1 0h1m3 0h1m1 0h2m1 0h1m2 0h1m1 0h3m1 0h10M4 49.5h1m3 0h1m2 0h1m1 0h1m1 0h2m1 0h4m1 0h3m2 0h3m4 0h1m1 0h1m2 0h3m1 0h4m3 0h1m1 0h3m1 0h3m4 0h2m1 0h3m1 0h5m3 0h1m1 0h1m1 0h1m3 0h1m3 0h1m1 0h2m2 0h2m1 0h5m1 0h1m1 0h1m1 0h2m2 0h2m1 0h5m1 0h1m2 0h2m1 0h1m1 0h1m1 0h1m3 0h1m3 0h2m3 0h1m2 0h2m3 0h3m2 0h3M4 50.5h1m1 0h1m1 0h4m2 0h2m1 0h6m2 0h1m4 0h2m1 0h1m2 0h1m2 0h1m2 0h2m2 0h2m1 0h3m4 0h1m4 0h1m1 0h2m1 0h4m1 0h2m4 0h1m3 0h2m1 0h1m4 0h1m1 0h1m3 0h1m2 0h1m1 0h1m2 0h2m1 0h3m1 0h7m3 0h3m2 0h2m5 0h3m1 0h3m1 0h2m2 0h1m1 0h1m1 0h2m2 0h1m1 0h3m1 0h1m3 0h1m1 0h1M4 51.5h2m2 0h2m2 0h2m8 0h1m4 0h3m6 0h1m2 0h2m4 0h8m2 0h1m2 0h1m2 0h2m1 0h1m1 0h5m3 0h1m1 0h1m2 0h3m1 0h1m1 0h2m3 0h3m1 0h1m1 0h1m3 0h1m6 0h4m2 0h1m1 0h1m1 0h4m1 0h1m1 0h1m2 0h1m3 0h2m17 0h1m3 0h1m1 0h2m1 0h4M5 52.5h2m1 0h5m1 0h2m2 0h2m1 0h1m1 0h1m2 0h6m2 0h2m4 0h1m1 0h1m2 0h1m2 0h2m1 0h7m1 0h1m1 0h2m2 0h1m1 0h3m2 0h2m1 0h1m1 0h6m1 0h1m3 0h1m3 0h4m1 0h1m2 0h2m1 0h9m1 0h3m3 0h1m1 0h1m4 0h3m1 0h5m1 0h3m1 0h2m2 0h2m2 0h1m3 0h1m1 0h7m2 0h1M5 53.5h4m3 0h2m1 0h1m2 0h1m4 0h1m2 0h1m3 0h1m2 0h3m2 0h1m1 0h5m1 0h1m1 0h1m1 0h3m3 0h1m1 0h2m4 0h4m1 0h3m1 0h3m2 0h1m3 0h1m3 0h3m3 0h6m1 0h1m4 0h1m3 0h2m3 0h1m1 0h1m6 0h2m5 0h2m3 0h1m1 0h1m1 0h2m1 0h1m1 0h1m1 0h3m2 0h1m1 0h1m2 0h2m3 0h3M5 54.5h1m2 0h1m1 0h1m1 0h2m1 0h1m2 0h1m1 0h5m1 0h1m1 0h1m1 0h2m1 0h1m1 0h1m1 0h1m1 0h1m2 0h1m2 0h3m2 0h1m1 0h1m1 0h1m1 0h1m7 0h2m3 0h1m3 0h1m1 0h2m1 0h1m1 0h1m1 0h2m1 0h3m1 0h1m1 0h3m2 0h3m4 0h2m1 0h1m1 0h2m1 0h1m1 0h3m6 0h3m1 0h3m1 0h1m1 0h1m1 0h2m4 0h1m1 0h1m1 0h1m1 0h4m2 0h2m2 0h1m1 0h1m1 0h2M4 55.5h1m1 0h1m1 0h1m3 0h3m1 0h1m2 0h1m1 0h1m4 0h1m3 0h4m5 0h2m1 0h2m2 0h1m1 0h1m1 0h3m3 0h2m1 0h2m2 0h3m2 0h2m3 0h1m2 0h1m1 0h1m3 0h1m3 0h1m4 0h1m1 0h1m1 0h1m2 0h2m1 0h4m3 0h3m4 0h1m1 0h1m2 0h3m4 0h4m3 0h6m2 0h1m2 0h1m1 0h1m2 0h1m2 0h1m2 0h1m3 0h1m1 0h2M4 56.5h1m2 0h6m1 0h1m4 0h2m2 0h2m1 0h6m1 0h1m1 0h6m1 0h2m2 0h2m1 0h1m2 0h8m1 0h1m2 0h2m2 0h1m1 0h1m3 0h1m1 0h1m1 0h6m2 0h1m7 0h1m2 0h4m3 0h9m2 0h4m1 0h2m3 0h1m2 0h1m1 0h5m4 0h1m1 0h1m3 0h1m2 0h15m1 0h1M5 57.5h1m6 0h2m1 0h1m1 0h2m1 0h1m3 0h2m1 0h2m1 0h1m2 0h3m1 0h1m1 0h6m1 0h1m1 0h1m2 0h2m1 0h1m1 0h1m3 0h2m3 0h1m3 0h1m3 0h1m1 0h1m4 0h2m1 0h1m1 0h1m1 0h1m2 0h4m1 0h1m3 0h2m2 0h1m1 0h3m2 0h2m1 0h5m1 0h1m2 0h1m3 0h2m2 0h2m2 0h1m1 0h2m3 0h2m2 0h3m1 0h2m1 0h1m1 0h3m2 0h1m1 0h3M9 58.5h2m1 0h2m3 0h1m1 0h1m1 0h3m5 0h2m1 0h2m2 0h1m1 0h1m1 0h1m2 0h1m4 0h4m2 0h1m5 0h1m1 0h5m1 0h1m2 0h2m1 0h1m1 0h1m1 0h2m2 0h1m3 0h2m3 0h1m2 0h2m3 0h1m1 0h2m1 0h2m2 0h2m1 0h2m1 0h1m2 0h1m1 0h2m1 0h1m1 0h1m1 0h2m1 0h1m1 0h2m1 0h3m3 0h3m2 0h3m1 0h1m4 0h2m3 0h1m2 0h1m1 0h1M6 59.5h4m5 0h2m3 0h5m1 0h4m1 0h3m3 0h1m1 0h3m1 0h3m3 0h1m2 0h1m3 0h1m1 0h2m1 0h1m1 0h2m5 0h2m1 0h1m1 0h3m2 0h3m1 0h2m1 0h1m2 0h2m1 0h1m2 0h2m1 0h1m3 0h2m8 0h2m4 0h2m2 0h1m3 0h1m1 0h2m1 0h2m1 0h4m3 0h1m2 0h1m1 0h3m4 0h1m1 0h8M4 60.5h3m2 0h3m1 0h3m7 0h2m11 0h1m2 0h1m6 0h1m1 0h1m1 0h2m3 0h2m2 0h3m1 0h1m3 0h1m2 0h4m2 0h4m5 0h4m3 0h1m4 0h1m3 0h2m1 0h1m1 0h2m1 0h5m3 0h3m4 0h1m1 0h1m1 0h3m1 0h1m1 0h1m1 0h1m1 0h1m2 0h1m1 0h2m1 0h5m2 0h1m1 0h2m3 0h5M4 61.5h1m1 0h4m4 0h2m2 0h1m3 0h2m3 0h1m1 0h3m4 0h5m1 0h1m6 0h1m2 0h1m2 0h2m1 0h4m1 0h1m1 0h2m1 0h4m3 0h1m2 0h2m1 0h1m1 0h1m3 0h1m2 0h3m1 0h2m2 0h1m2 0h2m3 0h2m1 0h1m1 0h3m1 0h3m1 0h4m1 0h1m4 0h4m10 0h2m4 0h1m1 0h1m2 0h2m1 0h1m2 0h2m1 0h1M4 62.5h3m2 0h3m1 0h1m3 0h2m2 0h2m2 0h2m1 0h4m1 0h3m1 0h1m1 0h1m1 0h2m1 0h1m2 0h2m1 0h1m1 0h1m1 0h3m1 0h1m3 0h3m3 0h1m2 0h1m2 0h1m1 0h2m5 0h2m5 0h7m3 0h1m2 0h1m1 0h2m1 0h1m1 0h1m1 0h3m1 0h1m4 0h1m1 0h3m1 0h1m2 0h1m4 0h1m2 0h1m1 0h3m2 0h1m1 0h3m4 0h4m3 0h2m1 0h1M4 63.5h2m2 0h2m3 0h3m4 0h2m2 0h2m1 0h1m2 0h1m2 0h5m1 0h3m1 0h1m2 0h1m1 0h2m1 0h4m3 0h1m3 0h4m1 0h2m1 0h2m3 0h4m2 0h7m1 0h4m1 0h1m2 0h1m3 0h1m3 0h1m1 0h1m2 0h4m1 0h2m2 0h2m4 0h1m1 0h2m2 0h1m2 0h3m1 0h3m1 0h1m2 0h1m7 0h3m1 0h1m1 0h6M4 64.5h1m1 0h2m2 0h3m1 0h1m1 0h1m1 0h2m1 0h1m1 0h1m1 0h2m1 0h1m1 0h1m2 0h4m7 0h3m2 0h2m4 0h2m5 0h1m1 0h1m5 0h5m3 0h1m2 0h2m3 0h1m3 0h2m2 0h2m1 0h3m3 0h2m6 0h1m6 0h1m3 0h1m2 0h4m4 0h1m2 0h1m3 0h4m1 0h1m2 0h1m2 0h4m1 0h1m2 0h2m2 0h2M4 65.5h2m2 0h2m1 0h2m3 0h2m2 0h3m2 0h1m1 0h2m1 0h3m1 0h1m1 0h1m1 0h1m1 0h4m1 0h1m1 0h1m3 0h2m3 0h1m1 0h1m2 0h1m4 0h1m1 0h1m3 0h1m5 0h2m1 0h1m5 0h1m1 0h4m1 0h1m3 0h2m1 0h1m2 0h1m1 0h3m1 0h1m3 0h1m1 0h1m2 0h2m1 0h1m4 0h3m2 0h1m1 0h1m2 0h1m3 0h3m2 0h6m3 0h1m4 0h1m1 0h1m1 0h1M4 66.5h4m1 0h3m4 0h1m1 0h1m7 0h2m1 0h1m2 0h2m1 0h3m2 0h5m1 0h1m1 0h2m1 0h1m1 0h1m1 0h2m6 0h1m1 0h1m1 0h4m5 0h3m1 0h2m1 0h5m2 0h1m1 0h1m1 0h1m1 0h4m2 0h5m1 0h2m1 0h6m2 0h3m3 0h1m2 0h1m1 0h1m5 0h2m3 0h3m1 0h1m7 0h2m7 0h3M4 67.5h2m2 0h2m4 0h1m1 0h1m1 0h1m6 0h4m2 0h1m1 0h1m2 0h2m1 0h1m1 0h1m1 0h1m3 0h1m1 0h4m2 0h2m1 0h1m1 0h1m1 0h1m4 0h1m4 0h1m1 0h1m1 0h1m1 0h2m1 0h1m3 0h3m1 0h1m2 0h1m2 0h5m1 0h5m1 0h3m3 0h1m1 0h1m1 0h1m1 0h1m1 0h1m1 0h1m5 0h5m1 0h7m3 0h1m4 0h2m1 0h2m2 0h1m2 0h2M5 68.5h2m2 0h2m1 0h1m4 0h1m2 0h2m1 0h2m1 0h2m1 0h2m1 0h3m3 0h2m1 0h1m1 0h2m3 0h2m2 0h2m2 0h2m1 0h1m3 0h1m1 0h2m4 0h3m2 0h1m1 0h1m1 0h3m1 0h1m2 0h5m1 0h2m1 0h1m1 0h1m1 0h1m2 0h1m6 0h2m4 0h2m1 0h1m2 0h4m8 0h1m1 0h1m1 0h2m1 0h4m1 0h1m2 0h2m2 0h1m1 0h2m1 0h1m1 0h1m2 0h2M5 69.5h3m4 0h2m1 0h2m2 0h2m1 0h3m5 0h1m1 0h2m2 0h3m1 0h4m1 0h2m1 0h1m4 0h1m1 0h3m2 0h6m5 0h1m1 0h3m1 0h1m1 0h4m1 0h1m5 0h1m3 0h1m3 0h2m1 0h1m3 0h1m1 0h1m3 0h2m1 0h6m1 0h1m3 0h1m2 0h2m3 0h1m4 0h1m1 0h1m2 0h2m1 0h1m2 0h2m2 0h1m3 0h1m3 0h1m2 0h1M4 70.5h3m3 0h2m1 0h1m2 0h2m1 0h1m2 0h1m2 0h1m2 0h1m1 0h3m1 0h2m1 0h2m1 0h6m1 0h2m8 0h4m3 0h1m2 0h1m2 0h2m4 0h1m4 0h1m1 0h1m3 0h1m1 0h2m1 0h1m1 0h3m1 0h1m1 0h1m1 0h1m1 0h1m4 0h1m4 0h4m1 0h2m1 0h1m2 0h1m1 0h2m3 0h2m1 0h3m4 0h4m1 0h1m1 0h3m4 0h4m2 0h3M4 71.5h2m1 0h1m1 0h1m2 0h1m1 0h1m1 0h1m2 0h3m1 0h1m1 0h1m1 0h2m4 0h2m2 0h4m2 0h1m4 0h2m2 0h1m5 0h1m7 0h2m1 0h3m1 0h2m1 0h1m2 0h1m5 0h3m1 0h1m3 0h4m1 0h1m5 0h2m1 0h2m1 0h1m5 0h1m1 0h1m2 0h1m3 0h4m1 0h2m1 0h1m3 0h3m4 0h1m4 0h4m1 0h1m2 0h4M4 72.5h3m1 0h3m3 0h2m2 0h2m2 0h5m7 0h2m3 0h1m1 0h1m1 0h3m2 0h1m4 0h2m5 0h3m6 0h1m2 0h2m5 0h1m3 0h2m1 0h1m2 0h1m5 0h1m1 0h1m1 0h2m1 0h3m3 0h1m1 0h1m1 0h1m2 0h3m2 0h1m1 0h2m7 0h1m3 0h2m4 0h1m1 0h2m2 0h3m1 0h4m1 0h3m1 0h1m3 0h1M5 73.5h4m2 0h1m1 0h1m1 0h1m3 0h2m3 0h1m1 0h4m1 0h6m1 0h2m1 0h2m4 0h4m1 0h2m5 0h2m3 0h1m3 0h2m1 0h2m1 0h1m1 0h4m3 0h1m3 0h2m1 0h2m1 0h1m4 0h1m1 0h3m1 0h1m1 0h5m6 0h7m1 0h1m1 0h1m1 0h2m2 0h2m5 0h1m2 0h1m1 0h1m1 0h1m2 0h1m7 0h1m1 0h2m1 0h2M4 74.5h1m5 0h2m4 0h1m2 0h3m1 0h1m2 0h2m5 0h2m1 0h4m4 0h1m3 0h1m4 0h2m1 0h1m1 0h3m1 0h2m2 0h2m3 0h4m2 0h1m2 0h1m2 0h1m3 0h2m2 0h2m2 0h1m1 0h1m3 0h2m1 0h7m2 0h2m1 0h2m1 0h1m1 0h1m2 0h3m2 0h1m1 0h4m3 0h1m1 0h1m1 0h1m1 0h1m1 0h1m3 0h1m3 0h5m3 0h1m1 0h1M5 75.5h1m2 0h2m1 0h2m6 0h1m2 0h1m1 0h1m9 0h1m2 0h5m2 0h1m2 0h2m1 0h1m1 0h1m1 0h1m2 0h2m1 0h1m3 0h1m2 0h2m1 0h1m2 0h7m1 0h5m1 0h1m1 0h1m1 0h1m1 0h2m2 0h1m1 0h1m1 0h1m1 0h2m1 0h2m1 0h2m1 0h2m2 0h1m3 0h2m1 0h3m2 0h1m3 0h5m1 0h3m2 0h1m1 0h1m2 0h1m2 0h1m1 0h3m3 0h2m2 0h1M7 76.5h2m1 0h2m1 0h1m1 0h2m2 0h2m3 0h1m3 0h1m1 0h1m2 0h2m2 0h2m1 0h1m2 0h3m1 0h1m2 0h1m7 0h2m2 0h2m2 0h1m3 0h1m5 0h1m1 0h2m2 0h2m1 0h2m4 0h8m1 0h1m2 0h1m1 0h1m3 0h3m6 0h6m2 0h1m3 0h1m1 0h1m3 0h2m8 0h4m1 0h1m2 0h3m1 0h3m1 0h1M5 77.5h1m2 0h2m1 0h3m3 0h1m1 0h2m3 0h1m6 0h2m3 0h2m1 0h4m1 0h1m1 0h2m2 0h1m1 0h2m1 0h2m1 0h1m1 0h1m1 0h1m1 0h1m1 0h1m1 0h3m1 0h2m3 0h2m6 0h2m6 0h2m2 0h1m2 0h1m2 0h4m1 0h1m3 0h1m4 0h7m1 0h1m3 0h2m4 0h1m1 0h2m2 0h2m1 0h2m5 0h1m1 0h2m2 0h2m1 0h4M8 78.5h6m2 0h3m2 0h2m1 0h1m1 0h5m2 0h1m1 0h2m2 0h1m1 0h1m1 0h1m1 0h1m1 0h1m2 0h1m1 0h5m1 0h4m1 0h2m1 0h1m1 0h1m6 0h2m1 0h5m1 0h2m4 0h1m1 0h2m1 0h3m2 0h3m1 0h5m1 0h1m1 0h1m4 0h2m1 0h3m1 0h1m2 0h8m1 0h1m1 0h2m11 0h2m3 0h6m2 0h1M5 79.5h4m3 0h1m2 0h1m4 0h1m1 0h2m1 0h2m3 0h3m1 0h2m1 0h1m1 0h4m1 0h1m1 0h2m1 0h2m1 0h1m3 0h2m1 0h1m2 0h1m6 0h1m1 0h3m2 0h3m3 0h1m1 0h1m2 0h5m1 0h3m7 0h2m3 0h1m1 0h2m3 0h1m4 0h4m1 0h2m1 0h1m1 0h1m3 0h1m1 0h1m1 0h3m4 0h1m1 0h2m4 0h1m2 0h1m3 0h3M4 80.5h1m1 0h1m1 0h1m1 0h1m1 0h1m1 0h2m2 0h1m3 0h1m2 0h2m1 0h1m1 0h4m2 0h2m1 0h3m4 0h1m1 0h2m2 0h1m1 0h1m1 0h9m3 0h7m3 0h1m1 0h1m1 0h1m1 0h2m1 0h1m3 0h2m1 0h2m1 0h5m2 0h1m1 0h1m1 0h1m5 0h2m3 0h5m5 0h2m1 0h1m1 0h1m2 0h2m4 0h1m2 0h2m2 0h1m1 0h1m3 0h1m1 0h1m1 0h1m1 0h1m1 0h1M4 81.5h1m1 0h3m3 0h3m2 0h3m1 0h1m3 0h2m3 0h1m2 0h4m1 0h3m3 0h5m1 0h1m1 0h1m3 0h1m2 0h1m1 0h1m2 0h3m1 0h3m1 0h1m1 0h2m2 0h1m3 0h2m2 0h5m5 0h1m1 0h1m2 0h1m2 0h1m3 0h2m2 0h1m1 0h2m1 0h6m2 0h2m3 0h1m3 0h1m5 0h1m1 0h1m1 0h2m1 0h3m3 0h4m3 0h1m1 0h1M5 82.5h2m1 0h6m1 0h1m1 0h4m4 0h6m1 0h1m1 0h3m3 0h2m1 0h17m2 0h2m2 0h1m3 0h1m1 0h4m1 0h8m1 0h1m5 0h3m1 0h1m3 0h1m2 0h6m1 0h5m1 0h2m1 0h1m1 0h4m1 0h1m2 0h8m1 0h1m1 0h2m2 0h1m4 0h1m1 0h1m1 0h2m1 0h6M6 83.5h4m1 0h5m1 0h5m2 0h1m2 0h2m4 0h4m4 0h2m1 0h1m1 0h1m5 0h1m3 0h1m2 0h3m1 0h1m1 0h1m4 0h2m1 0h3m3 0h1m2 0h1m3 0h3m3 0h6m3 0h3m1 0h2m2 0h1m2 0h1m1 0h2m1 0h2m2 0h2m2 0h1m1 0h2m1 0h1m4 0h8m2 0h1m1 0h1m9 0h1m6 0h1M4 84.5h1m5 0h1m1 0h1m2 0h2m2 0h6m3 0h2m1 0h1m3 0h1m1 0h2m2 0h2m3 0h2m2 0h3m1 0h1m2 0h1m4 0h1m7 0h7m3 0h1m1 0h5m1 0h1m2 0h5m2 0h1m1 0h1m1 0h1m2 0h2m1 0h3m1 0h2m1 0h3m1 0h5m2 0h2m2 0h1m1 0h1m1 0h1m1 0h2m3 0h2m2 0h5m1 0h1m2 0h1m1 0h4M4 85.5h3m2 0h1m2 0h3m1 0h3m1 0h1m1 0h1m1 0h2m2 0h2m1 0h1m3 0h1m1 0h1m2 0h5m3 0h2m1 0h2m1 0h1m3 0h1m1 0h1m3 0h1m1 0h4m3 0h1m4 0h2m6 0h1m1 0h2m3 0h4m1 0h1m1 0h5m2 0h1m1 0h3m1 0h1m1 0h1m2 0h2m2 0h1m1 0h4m1 0h2m1 0h2m2 0h4m4 0h2m3 0h1m2 0h2m1 0h1m2 0h2m3 0h2M5 86.5h1m4 0h3m1 0h1m1 0h7m3 0h4m2 0h1m8 0h1m3 0h2m3 0h2m2 0h1m6 0h1m1 0h1m1 0h1m2 0h1m2 0h2m1 0h1m1 0h2m2 0h1m9 0h1m1 0h1m3 0h1m2 0h1m1 0h1m6 0h5m3 0h1m2 0h1m1 0h1m2 0h2m3 0h2m1 0h1m5 0h1m4 0h1m1 0h1m1 0h1m3 0h1m1 0h1m2 0h1m2 0h3m1 0h2M5 87.5h1m6 0h1m10 0h3m1 0h3m3 0h7m4 0h2m1 0h1m1 0h3m2 0h2m4 0h2m2 0h1m5 0h1m1 0h1m1 0h1m2 0h2m4 0h1m1 0h1m1 0h1m1 0h1m3 0h1m1 0h1m2 0h2m1 0h1m2 0h2m1 0h2m2 0h1m1 0h5m3 0h2m3 0h4m2 0h1m1 0h2m2 0h1m2 0h1m3 0h3m2 0h3m2 0h1m1 0h1m1 0h2m1 0h1M7 88.5h6m4 0h1m2 0h1m4 0h3m7 0h1m1 0h4m4 0h1m1 0h3m4 0h2m1 0h4m2 0h1m2 0h3m2 0h2m2 0h1m1 0h1m2 0h2m1 0h1m1 0h2m1 0h1m1 0h1m5 0h4m1 0h4m3 0h3m1 0h1m2 0h1m2 0h1m6 0h1m2 0h1m4 0h1m3 0h4m2 0h3m1 0h2m5 0h1m1 0h4M5 89.5h4m3 0h2m2 0h4m4 0h9m3 0h1m1 0h2m1 0h1m1 0h1m1 0h2m1 0h1m2 0h2m4 0h1m1 0h3m4 0h2m2 0h2m1 0h1m5 0h1m1 0h1m1 0h1m1 0h3m1 0h1m1 0h5m1 0h2m5 0h3m2 0h2m3 0h3m2 0h5m1 0h2m2 0h1m2 0h1m3 0h2m2 0h2m3 0h1m1 0h1m2 0h2m1 0h1m1 0h1m3 0h1m1 0h1m1 0h2M4 90.5h1m1 0h1m1 0h1m1 0h2m2 0h5m1 0h1m1 0h1m1 0h1m1 0h1m2 0h1m1 0h1m3 0h1m2 0h4m2 0h1m1 0h2m1 0h1m1 0h1m1 0h2m1 0h3m1 0h2m1 0h2m4 0h3m1 0h2m1 0h2m1 0h4m2 0h6m1 0h1m1 0h1m1 0h1m3 0h1m2 0h10m1 0h3m2 0h3m7 0h3m6 0h5m1 0h1m1 0h1m4 0h2m1 0h1m1 0h1m4 0h1m1 0h2M4 91.5h3m1 0h2m2 0h1m2 0h1m3 0h3m1 0h1m1 0h1m1 0h1m3 0h1m3 0h2m1 0h1m1 0h1m2 0h1m2 0h2m1 0h2m1 0h2m2 0h1m3 0h2m2 0h3m2 0h4m2 0h1m2 0h5m5 0h3m2 0h1m1 0h1m2 0h1m3 0h1m1 0h3m1 0h1m6 0h2m1 0h4m2 0h2m3 0h2m1 0h2m3 0h1m1 0h2m4 0h1m1 0h1m2 0h1m3 0h1m2 0h4M5 92.5h1m2 0h1m1 0h2m1 0h1m1 0h8m1 0h4m2 0h10m1 0h2m1 0h2m9 0h2m3 0h2m1 0h1m1 0h1m1 0h1m2 0h1m1 0h1m8 0h3m1 0h1m1 0h1m3 0h4m2 0h1m1 0h1m1 0h1m2 0h10m6 0h1m2 0h2m2 0h2m1 0h2m1 0h2m3 0h1m1 0h1m1 0h1m2 0h1m1 0h2m2 0h5m1 0h3m2 0h1M4 93.5h2m2 0h1m6 0h1m1 0h2m2 0h2m1 0h1m2 0h1m1 0h2m1 0h1m3 0h4m1 0h1m2 0h1m1 0h10m1 0h3m1 0h2m4 0h1m1 0h1m1 0h1m1 0h4m1 0h1m6 0h2m2 0h6m2 0h1m1 0h1m2 0h2m8 0h3m2 0h2m5 0h3m3 0h2m2 0h3m2 0h2m1 0h1m2 0h4m4 0h1m1 0h1m2 0h4M6 94.5h7m1 0h4m1 0h1m1 0h1m5 0h7m1 0h2m1 0h4m1 0h1m2 0h1m5 0h1m1 0h1m3 0h2m1 0h1m4 0h3m1 0h1m4 0h1m1 0h3m2 0h1m1 0h1m2 0h1m4 0h1m3 0h4m1 0h1m2 0h4m1 0h2m1 0h7m2 0h1m1 0h1m3 0h2m1 0h1m1 0h5m2 0h1m2 0h1m1 0h1m5 0h1m3 0h1m4 0h1m2 0h3M8 95.5h1m4 0h1m2 0h2m1 0h1m1 0h1m1 0h5m1 0h4m1 0h1m3 0h3m2 0h4m1 0h1m1 0h1m1 0h4m1 0h2m1 0h5m1 0h3m1 0h2m1 0h1m1 0h1m1 0h2m1 0h6m1 0h4m2 0h1m3 0h2m2 0h1m1 0h1m1 0h1m1 0h1m1 0h1m4 0h5m2 0h3m1 0h2m4 0h1m3 0h1m1 0h1m3 0h1m2 0h4m1 0h1m5 0h1m1 0h1m1 0h1m1 0h1m2 0h1M6 96.5h6m3 0h7m1 0h1m2 0h1m1 0h5m4 0h1m1 0h1m1 0h1m3 0h1m2 0h1m2 0h2m1 0h4m1 0h6m3 0h3m3 0h1m7 0h1m1 0h4m1 0h1m2 0h2m2 0h1m1 0h1m1 0h1m1 0h1m2 0h2m8 0h2m1 0h1m2 0h1m1 0h1m1 0h2m3 0h1m1 0h1m1 0h1m3 0h1m1 0h2m6 0h1m5 0h1m1 0h5m2 0h1M6 97.5h2m7 0h1m1 0h1m1 0h1m2 0h1m4 0h2m1 0h1m1 0h1m1 0h3m2 0h3m2 0h1m1 0h1m1 0h1m3 0h3m4 0h2m1 0h2m1 0h1m5 0h1m3 0h1m1 0h1m1 0h1m2 0h1m1 0h1m4 0h1m4 0h3m7 0h2m1 0h1m1 0h3m1 0h2m1 0h3m2 0h3m3 0h1m4 0h1m1 0h3m9 0h1m1 0h2m1 0h1m1 0h1m1 0h5m1 0h1m1 0h1M5 98.5h1m1 0h2m1 0h3m2 0h3m1 0h1m2 0h3m1 0h2m1 0h1m2 0h1m1 0h2m1 0h2m2 0h1m1 0h1m1 0h3m1 0h9m1 0h1m1 0h1m4 0h1m3 0h1m1 0h2m2 0h1m1 0h1m1 0h1m1 0h2m1 0h1m1 0h2m1 0h1m3 0h4m2 0h2m1 0h1m1 0h3m8 0h2m1 0h1m1 0h1m2 0h1m1 0h3m6 0h2m1 0h3m1 0h1m1 0h1m3 0h1m6 0h3m5 0h2M8 99.5h2m1 0h2m4 0h16m1 0h1m1 0h2m4 0h1m1 0h1m2 0h1m3 0h2m4 0h1m1 0h2m1 0h1m2 0h3m1 0h2m2 0h1m1 0h4m1 0h2m1 0h3m3 0h4m4 0h7m1 0h2m1 0h1m1 0h1m2 0h2m2 0h3m1 0h1m2 0h1m3 0h1m1 0h1m2 0h1m2 0h2m1 0h2m1 0h2m1 0h1m4 0h3m1 0h1m1 0h1m5 0h1M4 100.5h1m2 0h1m1 0h4m2 0h1m1 0h2m5 0h2m3 0h4m2 0h5m1 0h8m2 0h1m1 0h2m3 0h1m2 0h3m2 0h2m7 0h2m1 0h2m1 0h2m2 0h4m1 0h1m1 0h5m3 0h3m1 0h1m3 0h3m3 0h3m3 0h2m1 0h5m1 0h2m3 0h1m2 0h2m1 0h1m5 0h4m1 0h4m1 0h3m1 0h5M6 101.5h2m1 0h1m1 0h1m2 0h1m1 0h3m1 0h4m5 0h1m4 0h1m1 0h1m1 0h2m2 0h1m1 0h3m1 0h2m1 0h6m1 0h2m3 0h3m2 0h1m3 0h1m2 0h1m5 0h1m2 0h1m2 0h1m1 0h2m3 0h2m1 0h1m1 0h1m1 0h1m1 0h3m3 0h2m2 0h2m1 0h2m1 0h3m2 0h1m1 0h5m4 0h1m1 0h1m1 0h3m1 0h4m4 0h1m1 0h1m5 0h1m1 0h2m1 0h1M4 102.5h1m1 0h1m3 0h2m1 0h4m2 0h1m4 0h1m2 0h3m2 0h1m1 0h2m2 0h1m2 0h1m1 0h4m2 0h2m1 0h2m1 0h1m1 0h1m5 0h1m2 0h1m3 0h1m3 0h1m2 0h2m1 0h1m1 0h1m2 0h1m2 0h1m2 0h3m1 0h3m6 0h1m1 0h1m1 0h2m1 0h1m1 0h1m2 0h5m1 0h1m1 0h1m6 0h6m1 0h1m4 0h2m1 0h3m8 0h1m3 0h1m1 0h2M5 103.5h2m1 0h2m3 0h5m2 0h2m7 0h7m1 0h1m2 0h2m5 0h2m2 0h1m6 0h3m1 0h1m1 0h3m3 0h3m1 0h1m1 0h4m1 0h1m2 0h2m3 0h1m1 0h1m1 0h1m2 0h1m2 0h2m6 0h2m3 0h1m2 0h1m1 0h2m1 0h1m2 0h4m1 0h2m3 0h2m2 0h3m3 0h4m2 0h4m1 0h2m2 0h7M4 104.5h1m2 0h6m1 0h1m1 0h3m1 0h2m2 0h1m1 0h5m1 0h1m2 0h3m2 0h3m1 0h1m3 0h1m2 0h7m1 0h2m2 0h1m1 0h1m1 0h1m1 0h2m1 0h1m1 0h2m2 0h5m4 0h1m1 0h3m1 0h1m1 0h1m1 0h5m2 0h5m1 0h1m1 0h2m2 0h4m4 0h1m3 0h7m3 0h2m2 0h1m1 0h2m2 0h2m1 0h3m2 0h5m1 0h1m1 0h1M4 105.5h2m2 0h1m3 0h1m3 0h1m1 0h2m1 0h1m1 0h2m1 0h1m3 0h4m1 0h1m1 0h1m2 0h1m1 0h2m2 0h1m2 0h1m1 0h2m3 0h3m1 0h1m1 0h3m1 0h5m2 0h1m2 0h1m1 0h1m3 0h2m1 0h2m1 0h1m1 0h2m1 0h1m1 0h1m2 0h1m1 0h5m3 0h1m2 0h2m1 0h3m1 0h7m1 0h3m1 0h1m3 0h1m1 0h3m4 0h4m1 0h1m6 0h2m3 0h1m1 0h2M5 106.5h1m2 0h1m1 0h1m1 0h4m3 0h3m3 0h2m1 0h1m1 0h4m1 0h2m1 0h3m1 0h3m3 0h1m1 0h1m1 0h1m1 0h1m1 0h1m1 0h1m3 0h2m1 0h2m1 0h1m3 0h4m2 0h1m1 0h1m1 0h3m2 0h4m1 0h2m1 0h1m1 0h5m2 0h1m1 0h1m1 0h1m1 0h3m2 0h2m3 0h4m1 0h1m1 0h1m1 0h2m1 0h1m1 0h5m2 0h2m1 0h2m1 0h1m3 0h3m1 0h2m1 0h1m1 0h3M6 107.5h3m3 0h1m1 0h2m1 0h1m2 0h3m3 0h1m3 0h1m3 0h2m2 0h7m1 0h1m3 0h3m3 0h1m1 0h1m4 0h1m5 0h1m3 0h1m2 0h3m3 0h1m3 0h1m3 0h2m1 0h1m3 0h1m1 0h3m2 0h1m3 0h1m1 0h2m1 0h1m1 0h1m1 0h10m1 0h3m3 0h1m4 0h5m6 0h1m2 0h2m1 0h1m3 0h3m1 0h1M4 108.5h1m1 0h7m2 0h1m1 0h1m1 0h1m2 0h2m2 0h8m2 0h2m2 0h2m1 0h4m3 0h1m1 0h5m1 0h1m2 0h3m1 0h2m2 0h2m2 0h3m1 0h9m1 0h1m2 0h1m1 0h1m2 0h3m4 0h1m1 0h5m2 0h1m1 0h1m2 0h2m1 0h1m1 0h2m1 0h1m4 0h6m2 0h5m2 0h1m1 0h5m2 0h1m1 0h6m1 0h1M8 109.5h1m6 0h1m1 0h4m8 0h1m1 0h1m1 0h1m3 0h1m1 0h3m3 0h1m4 0h3m7 0h1m2 0h2m2 0h1m4 0h1m1 0h4m2 0h3m1 0h2m3 0h4m4 0h3m2 0h2m1 0h1m3 0h1m1 0h1m1 0h5m1 0h1m3 0h1m3 0h5m1 0h1m2 0h3m1 0h2m1 0h2m6 0h2m1 0h3m2 0h1m2 0h1M10 110.5h2m2 0h3m6 0h1m1 0h2m2 0h1m2 0h1m2 0h5m1 0h1m3 0h7m4 0h2m1 0h1m2 0h2m1 0h2m7 0h4m1 0h2m1 0h2m2 0h4m1 0h2m3 0h1m6 0h1m4 0h2m2 0h1m3 0h1m1 0h1m1 0h1m1 0h1m1 0h1m1 0h1m2 0h1m4 0h1m1 0h1m1 0h1m3 0h3m1 0h4m1 0h2m2 0h2m1 0h5M4 111.5h2m2 0h1m2 0h2m2 0h3m2 0h3m1 0h1m1 0h1m3 0h2m1 0h1m2 0h9m1 0h1m2 0h1m1 0h2m2 0h3m2 0h4m1 0h1m3 0h1m1 0h2m5 0h1m1 0h4m1 0h1m1 0h1m2 0h2m1 0h1m6 0h3m2 0h3m1 0h3m3 0h2m5 0h2m2 0h2m1 0h1m3 0h1m1 0h1m1 0h1m3 0h1m3 0h1m4 0h2m1 0h1m4 0h1m1 0h2M4 112.5h1m3 0h3m1 0h1m3 0h1m1 0h3m1 0h2m1 0h1m4 0h1m1 0h2m1 0h2m2 0h2m2 0h2m3 0h1m3 0h3m1 0h4m5 0h4m1 0h4m2 0h2m1 0h1m2 0h1m3 0h3m1 0h1m1 0h1m3 0h1m5 0h1m5 0h1m1 0h2m2 0h1m3 0h1m2 0h1m1 0h2m2 0h2m1 0h1m2 0h3m1 0h5m2 0h1m4 0h3m1 0h3m1 0h1m1 0h3m1 0h2M4 113.5h2m2 0h2m1 0h4m3 0h1m1 0h2m1 0h1m1 0h1m2 0h2m1 0h2m1 0h3m2 0h1m1 0h2m2 0h1m4 0h1m1 0h1m1 0h1m1 0h5m1 0h2m1 0h1m2 0h2m2 0h2m1 0h1m3 0h4m5 0h1m2 0h2m1 0h3m2 0h1m1 0h6m2 0h1m2 0h1m1 0h1m1 0h1m2 0h1m1 0h3m5 0h1m1 0h1m1 0h1m2 0h2m1 0h2m2 0h1m1 0h3m5 0h3m3 0h1m2 0h1m1 0h1M10 114.5h1m1 0h2m3 0h2m1 0h2m1 0h1m1 0h1m4 0h2m2 0h1m4 0h2m4 0h2m4 0h1m1 0h2m3 0h2m1 0h1m2 0h1m1 0h4m1 0h6m1 0h1m1 0h3m5 0h2m2 0h4m4 0h2m1 0h3m2 0h1m1 0h6m2 0h5m4 0h1m2 0h6m1 0h1m1 0h2m3 0h2m1 0h2m1 0h1m3 0h3m1 0h2m1 0h1m2 0h1M4 115.5h2m2 0h1m3 0h1m2 0h1m3 0h2m1 0h1m1 0h1m2 0h1m1 0h1m3 0h1m2 0h1m1 0h1m1 0h1m1 0h2m1 0h2m1 0h1m1 0h2m2 0h1m2 0h1m2 0h2m3 0h3m1 0h3m3 0h1m7 0h2m2 0h3m2 0h2m1 0h1m3 0h2m7 0h1m4 0h2m3 0h4m3 0h1m3 0h1m1 0h1m2 0h3m1 0h2m1 0h1m1 0h4m1 0h1m1 0h1m6 0h2M4 116.5h2m1 0h1m1 0h2m1 0h3m1 0h3m1 0h1m1 0h1m1 0h1m1 0h1m1 0h1m1 0h2m1 0h10m2 0h2m2 0h3m4 0h1m1 0h2m1 0h2m4 0h6m2 0h2m1 0h3m1 0h1m2 0h5m1 0h1m2 0h2m1 0h1m1 0h1m1 0h2m7 0h1m1 0h1m1 0h2m3 0h2m1 0h3m4 0h1m3 0h1m1 0h2m3 0h2m2 0h3m4 0h2m1 0h2m4 0h3M4 117.5h2m1 0h1m4 0h2m1 0h1m1 0h3m2 0h1m1 0h5m3 0h1m1 0h2m1 0h1m4 0h4m2 0h8m2 0h5m2 0h3m1 0h3m1 0h3m1 0h1m3 0h1m1 0h3m3 0h2m2 0h7m3 0h4m1 0h2m1 0h1m2 0h1m2 0h2m1 0h1m1 0h1m2 0h2m2 0h2m1 0h2m1 0h2m1 0h2m2 0h1m3 0h3m1 0h3m1 0h2m1 0h1m1 0h3M8 118.5h5m1 0h4m1 0h1m4 0h2m1 0h1m3 0h1m1 0h3m4 0h3m1 0h1m2 0h3m6 0h3m5 0h2m2 0h1m1 0h2m2 0h1m2 0h1m1 0h2m2 0h1m3 0h1m5 0h1m1 0h1m6 0h5m1 0h1m4 0h1m1 0h1m4 0h1m3 0h2m2 0h2m2 0h1m1 0h2m3 0h1m4 0h1m2 0h1m11 0h1m2 0h2M5 119.5h3m3 0h4m2 0h1m3 0h2m2 0h2m2 0h1m3 0h1m1 0h2m1 0h1m2 0h1m1 0h1m1 0h1m2 0h1m4 0h3m1 0h1m1 0h1m1 0h1m1 0h4m9 0h1m3 0h1m1 0h2m1 0h3m1 0h1m1 0h2m1 0h2m1 0h1m1 0h1m1 0h1m1 0h1m1 0h2m2 0h2m3 0h3m1 0h1m2 0h1m2 0h1m3 0h2m3 0h1m1 0h2m1 0h1m3 0h1m3 0h2m2 0h1m1 0h1m1 0h1m1 0h1m1 0h2m1 0h1m1 0h2M4 120.5h1m2 0h1m2 0h1m1 0h2m4 0h1m3 0h1m1 0h1m1 0h1m1 0h1m2 0h3m2 0h1m2 0h2m2 0h2m3 0h1m3 0h2m1 0h2m5 0h1m1 0h4m7 0h1m5 0h4m2 0h1m1 0h2m1 0h1m5 0h1m1 0h1m1 0h2m1 0h1m1 0h1m6 0h1m5 0h1m1 0h2m1 0h1m2 0h3m1 0h2m2 0h1m1 0h3m1 0h1m3 0h3m1 0h3m1 0h1m1 0h6m2 0h1M4 121.5h1m2 0h1m1 0h1m3 0h1m1 0h1m2 0h3m1 0h2m2 0h1m5 0h2m3 0h2m2 0h2m1 0h9m7 0h2m1 0h1m2 0h2m1 0h4m1 0h1m1 0h1m1 0h1m1 0h5m4 0h2m1 0h1m2 0h1m1 0h1m1 0h4m2 0h2m1 0h1m2 0h1m1 0h1m1 0h1m1 0h3m1 0h1m1 0h3m9 0h5m2 0h3m4 0h1m1 0h1m3 0h1m1 0h1m1 0h1m1 0h4M4 122.5h2m2 0h1m1 0h1m2 0h1m3 0h1m3 0h3m4 0h6m2 0h2m4 0h1m3 0h2m1 0h1m1 0h2m2 0h1m1 0h1m1 0h3m2 0h1m1 0h1m1 0h3m1 0h1m1 0h3m2 0h1m1 0h4m1 0h1m3 0h1m1 0h2m1 0h1m2 0h3m1 0h1m3 0h3m1 0h3m1 0h2m2 0h1m1 0h1m1 0h1m3 0h2m1 0h2m1 0h1m1 0h1m1 0h1m3 0h2m1 0h3m2 0h2m4 0h1m3 0h1m3 0h1m1 0h1M6 123.5h1m1 0h2m2 0h2m3 0h1m1 0h4m5 0h2m2 0h4m2 0h2m1 0h2m1 0h1m1 0h3m2 0h1m1 0h3m2 0h1m1 0h2m1 0h1m5 0h3m3 0h2m2 0h1m1 0h2m1 0h1m5 0h1m4 0h1m6 0h4m1 0h1m1 0h1m2 0h1m1 0h2m1 0h1m1 0h1m1 0h1m1 0h1m2 0h3m2 0h1m1 0h2m2 0h1m1 0h1m3 0h2m1 0h1m1 0h2m1 0h2m2 0h2m3 0h1m1 0h1M4 124.5h2m3 0h2m1 0h2m2 0h1m1 0h7m1 0h1m3 0h8m3 0h2m2 0h1m4 0h2m4 0h3m2 0h1m2 0h5m1 0h1m2 0h3m1 0h2m1 0h3m4 0h2m1 0h2m1 0h1m5 0h1m2 0h2m1 0h3m1 0h1m2 0h1m3 0h3m1 0h3m1 0h2m2 0h1m2 0h4m2 0h1m2 0h3m2 0h1m5 0h3m2 0h4m1 0h4M4 125.5h4m1 0h1m1 0h4m3 0h1m2 0h1m2 0h2m3 0h4m1 0h2m4 0h1m1 0h2m1 0h2m5 0h1m1 0h1m1 0h3m1 0h4m1 0h1m3 0h1m2 0h1m1 0h1m1 0h3m3 0h1m2 0h2m2 0h1m3 0h2m1 0h1m2 0h1m1 0h1m3 0h3m4 0h2m2 0h1m3 0h3m1 0h1m3 0h2m1 0h1m1 0h1m2 0h1m4 0h5m3 0h3m2 0h2m2 0h2m1 0h3M5 126.5h3m2 0h1m3 0h1m3 0h3m3 0h2m1 0h3m7 0h1m1 0h2m2 0h1m2 0h3m2 0h2m2 0h1m1 0h1m1 0h1m2 0h3m3 0h1m1 0h1m3 0h1m1 0h1m2 0h1m2 0h5m1 0h1m1 0h4m1 0h1m1 0h1m4 0h1m2 0h2m7 0h1m3 0h1m3 0h1m2 0h1m7 0h2m2 0h3m2 0h3m1 0h3m3 0h1m1 0h1m1 0h1m2 0h1m2 0h1m1 0h1M7 127.5h1m3 0h1m1 0h3m2 0h3m3 0h1m2 0h4m1 0h2m1 0h2m3 0h1m4 0h2m2 0h3m4 0h4m2 0h2m1 0h1m2 0h2m4 0h2m3 0h1m1 0h5m1 0h3m1 0h3m1 0h1m1 0h1m3 0h1m4 0h2m1 0h1m2 0h3m1 0h2m2 0h2m2 0h1m1 0h1m1 0h3m2 0h1m1 0h2m4 0h1m1 0h3m2 0h1m3 0h2m4 0h1m1 0h1m1 0h3M5 128.5h1m2 0h3m1 0h1m1 0h2m7 0h2m5 0h1m1 0h7m1 0h3m1 0h1m3 0h3m1 0h1m3 0h1m1 0h3m3 0h1m1 0h2m1 0h3m1 0h1m3 0h1m1 0h3m1 0h4m1 0h7m2 0h11m1 0h1m1 0h1m4 0h1m3 0h1m3 0h1m2 0h2m2 0h1m1 0h1m6 0h2m1 0h2m2 0h3m5 0h1m1 0h1m1 0h1m3 0h2M6 129.5h1m2 0h1m1 0h1m1 0h2m2 0h2m1 0h3m4 0h1m1 0h1m1 0h6m1 0h1m2 0h3m3 0h2m1 0h4m1 0h3m4 0h2m2 0h1m1 0h2m1 0h1m5 0h1m1 0h5m1 0h1m1 0h3m1 0h1m1 0h1m2 0h2m1 0h3m3 0h1m2 0h3m2 0h2m3 0h2m4 0h3m5 0h1m5 0h1m1 0h2m1 0h1m2 0h2m1 0h2m1 0h1m4 0h1m2 0h1m3 0h1M8 130.5h5m1 0h1m1 0h1m1 0h3m2 0h2m1 0h5m2 0h4m1 0h1m1 0h7m1 0h1m1 0h1m1 0h5m1 0h1m3 0h2m2 0h1m2 0h1m3 0h1m1 0h1m2 0h13m1 0h3m1 0h3m2 0h2m1 0h5m3 0h1m3 0h1m3 0h1m1 0h3m1 0h1m1 0h7m1 0h1m1 0h1m1 0h1m2 0h4m1 0h1m3 0h2m2 0h6m1 0h2M4 131.5h1m1 0h1m1 0h1m3 0h3m2 0h1m1 0h1m1 0h1m1 0h1m2 0h1m3 0h1m1 0h3m2 0h1m4 0h1m2 0h2m1 0h2m2 0h1m3 0h2m5 0h1m1 0h1m1 0h3m2 0h2m1 0h2m1 0h1m3 0h1m1 0h2m1 0h1m1 0h1m1 0h2m3 0h2m2 0h2m1 0h2m3 0h3m2 0h2m1 0h2m1 0h4m1 0h1m1 0h1m2 0h2m3 0h3m3 0h1m2 0h2m1 0h1m1 0h1m1 0h3m3 0h1m3 0h1m2 0h2M4 132.5h1m1 0h1m1 0h1m1 0h1m1 0h1m5 0h1m1 0h3m3 0h1m1 0h1m1 0h4m2 0h1m2 0h1m2 0h1m2 0h1m1 0h1m3 0h2m1 0h1m1 0h1m1 0h4m1 0h2m4 0h5m3 0h2m1 0h1m1 0h3m1 0h3m1 0h2m1 0h3m3 0h2m1 0h3m1 0h1m1 0h2m1 0h5m1 0h1m5 0h3m2 0h3m1 0h1m1 0h3m2 0h1m1 0h2m1 0h4m2 0h1m1 0h3m1 0h1m1 0h1m1 0h4M4 133.5h2m1 0h2m3 0h1m1 0h3m1 0h2m1 0h1m4 0h1m3 0h2m1 0h2m3 0h1m1 0h1m1 0h1m3 0h4m1 0h2m3 0h3m6 0h1m2 0h1m2 0h4m1 0h3m3 0h1m1 0h2m2 0h2m1 0h4m2 0h2m1 0h2m2 0h1m3 0h6m1 0h2m2 0h2m1 0h1m2 0h1m2 0h3m3 0h8m5 0h2m3 0h1m2 0h2m3 0h1M6 134.5h1m1 0h6m2 0h1m1 0h1m2 0h1m1 0h2m1 0h5m3 0h1m3 0h3m1 0h1m3 0h2m1 0h2m1 0h5m1 0h1m2 0h1m2 0h1m1 0h2m2 0h2m1 0h2m1 0h7m3 0h2m2 0h3m3 0h1m2 0h1m2 0h1m1 0h5m1 0h1m3 0h2m1 0h2m1 0h4m2 0h2m1 0h6m2 0h3m3 0h1m1 0h1m1 0h2m1 0h1m1 0h3m1 0h7M5 135.5h3m1 0h1m1 0h3m2 0h2m1 0h1m1 0h2m1 0h1m2 0h2m1 0h3m1 0h6m2 0h1m3 0h1m2 0h1m2 0h3m3 0h2m1 0h4m1 0h2m3 0h4m5 0h1m7 0h4m5 0h3m2 0h1m1 0h1m1 0h2m4 0h2m2 0h1m3 0h1m2 0h1m4 0h4m3 0h2m2 0h1m2 0h1m2 0h2m1 0h1m1 0h1m3 0h2m2 0h1m1 0h4M4 136.5h1m2 0h4m2 0h1m1 0h1m3 0h5m1 0h2m1 0h1m1 0h1m1 0h1m1 0h2m1 0h1m2 0h3m1 0h1m4 0h4m1 0h1m1 0h2m1 0h1m1 0h2m2 0h5m3 0h1m1 0h2m1 0h5m1 0h2m1 0h1m1 0h2m1 0h4m3 0h2m1 0h1m1 0h2m1 0h2m2 0h4m9 0h1m1 0h1m2 0h2m1 0h1m4 0h1m1 0h2m2 0h1m3 0h3m2 0h1m1 0h4m2 0h2m1 0h2M5 137.5h3m1 0h1m1 0h1m2 0h1m1 0h1m2 0h1m1 0h3m1 0h2m2 0h1m5 0h1m2 0h5m1 0h2m1 0h3m1 0h1m3 0h3m1 0h1m1 0h1m3 0h2m5 0h1m1 0h1m1 0h1m1 0h2m2 0h6m5 0h1m3 0h3m2 0h2m1 0h6m4 0h1m2 0h2m1 0h1m1 0h1m3 0h2m5 0h1m3 0h3m2 0h3m4 0h2m2 0h1m1 0h2m1 0h1m3 0h2M4 138.5h1m2 0h4m2 0h1m1 0h4m1 0h3m4 0h2m1 0h4m3 0h1m1 0h1m1 0h7m3 0h2m1 0h1m3 0h2m2 0h8m2 0h1m1 0h1m1 0h1m1 0h1m1 0h3m1 0h2m1 0h1m2 0h2m1 0h2m2 0h3m1 0h4m4 0h1m1 0h1m3 0h1m1 0h2m1 0h2m3 0h1m1 0h2m1 0h1m1 0h1m1 0h1m2 0h1m3 0h1m2 0h1m3 0h4m2 0h2m4 0h1m1 0h3M4 139.5h6m4 0h1m1 0h1m2 0h1m1 0h2m2 0h4m3 0h1m2 0h4m3 0h2m2 0h1m2 0h1m1 0h1m7 0h1m2 0h2m3 0h2m1 0h4m7 0h2m2 0h7m1 0h1m1 0h3m3 0h1m1 0h5m1 0h2m1 0h3m4 0h3m1 0h3m4 0h1m1 0h2m1 0h1m1 0h1m1 0h4m4 0h2m5 0h1m1 0h1m3 0h2m1 0h2M6 140.5h3m1 0h5m2 0h6m5 0h3m2 0h4m2 0h1m2 0h1m1 0h1m5 0h4m2 0h2m1 0h2m1 0h3m1 0h1m2 0h1m2 0h1m1 0h1m3 0h3m1 0h5m2 0h5m1 0h2m3 0h2m2 0h1m1 0h1m4 0h3m1 0h1m1 0h1m2 0h3m2 0h2m1 0h3m1 0h1m3 0h1m4 0h5m1 0h1m2 0h1m1 0h2m4 0h1m3 0h2M5 141.5h2m1 0h1m2 0h2m5 0h1m6 0h3m3 0h2m1 0h1m1 0h1m5 0h1m1 0h1m2 0h1m2 0h1m1 0h1m1 0h1m3 0h1m3 0h2m2 0h1m1 0h1m4 0h1m2 0h1m1 0h1m3 0h1m1 0h3m7 0h1m2 0h1m2 0h3m2 0h1m5 0h1m1 0h1m3 0h2m1 0h2m1 0h2m1 0h3m2 0h1m1 0h1m1 0h2m7 0h1m4 0h4m3 0h3m2 0h3M4 142.5h4m1 0h2m1 0h3m1 0h1m4 0h1m1 0h1m2 0h2m4 0h4m2 0h1m2 0h1m4 0h1m1 0h2m1 0h1m1 0h1m5 0h1m2 0h1m1 0h1m1 0h4m1 0h1m1 0h4m3 0h2m7 0h1m1 0h2m1 0h1m3 0h1m2 0h4m1 0h3m2 0h1m2 0h1m1 0h1m1 0h3m1 0h4m1 0h1m1 0h2m4 0h1m3 0h5m2 0h4m1 0h1m2 0h2m3 0h4m1 0h1M4 143.5h3m10 0h2m1 0h1m1 0h1m1 0h2m1 0h2m2 0h1m1 0h1m1 0h3m1 0h1m1 0h6m1 0h1m2 0h2m1 0h4m1 0h3m1 0h2m2 0h1m1 0h1m2 0h3m5 0h2m2 0h1m3 0h1m6 0h1m4 0h2m3 0h1m1 0h1m1 0h1m1 0h2m1 0h1m1 0h2m1 0h2m1 0h2m1 0h4m3 0h1m2 0h1m1 0h2m4 0h4m1 0h1m4 0h1m2 0h3m4 0h1M4 144.5h1m5 0h1m3 0h2m1 0h1m1 0h1m1 0h3m1 0h2m2 0h4m2 0h1m1 0h1m1 0h2m1 0h1m4 0h7m1 0h1m1 0h2m1 0h4m1 0h1m1 0h3m1 0h1m5 0h2m1 0h1m1 0h2m1 0h6m1 0h2m1 0h1m1 0h1m1 0h2m4 0h1m1 0h1m3 0h2m2 0h2m1 0h1m2 0h1m2 0h3m1 0h1m1 0h1m2 0h2m1 0h1m1 0h1m1 0h1m1 0h4m2 0h4m3 0h1m1 0h2m2 0h2m1 0h1M4 145.5h2m1 0h3m1 0h1m2 0h1m2 0h3m1 0h3m2 0h1m1 0h3m1 0h1m1 0h1m1 0h3m7 0h6m2 0h2m1 0h1m1 0h1m1 0h1m1 0h3m2 0h3m2 0h3m2 0h3m1 0h1m3 0h2m1 0h1m3 0h1m1 0h1m2 0h1m2 0h1m1 0h1m5 0h1m1 0h2m1 0h8m2 0h2m2 0h3m2 0h3m1 0h5m3 0h1m1 0h1m1 0h1m1 0h5m1 0h1m1 0h1m2 0h2M6 146.5h1m2 0h3m1 0h1m3 0h1m6 0h3m3 0h4m2 0h2m4 0h2m3 0h2m1 0h2m1 0h1m3 0h2m1 0h1m2 0h1m4 0h2m2 0h3m3 0h1m3 0h1m1 0h11m1 0h2m1 0h1m2 0h4m3 0h2m2 0h1m1 0h3m2 0h4m1 0h2m2 0h1m1 0h1m1 0h1m1 0h4m1 0h1m3 0h3m1 0h2m1 0h1m3 0h1m4 0h1m2 0h1M7 147.5h2m3 0h1m1 0h1m2 0h1m2 0h1m1 0h1m1 0h1m1 0h3m4 0h3m1 0h1m1 0h2m8 0h1m5 0h1m1 0h3m2 0h1m1 0h1m3 0h1m10 0h1m1 0h1m1 0h2m1 0h2m6 0h4m2 0h6m2 0h3m1 0h2m1 0h1m1 0h1m1 0h1m2 0h2m1 0h2m1 0h2m1 0h5m1 0h1m3 0h2m3 0h2m1 0h1m3 0h1m1 0h1m3 0h1m1 0h1M4 148.5h3m3 0h2m4 0h1m4 0h2m4 0h4m1 0h1m5 0h3m1 0h1m4 0h1m2 0h13m1 0h2m1 0h9m1 0h1m1 0h2m4 0h1m1 0h3m1 0h2m2 0h1m2 0h1m1 0h3m1 0h1m3 0h1m1 0h7m10 0h3m1 0h1m1 0h1m7 0h3m1 0h3m1 0h2m1 0h1m1 0h1m1 0h2m2 0h5M4 149.5h1m2 0h1m1 0h1m1 0h1m2 0h1m3 0h4m1 0h1m1 0h1m1 0h1m2 0h3m1 0h1m1 0h1m1 0h1m3 0h2m2 0h1m1 0h2m3 0h1m3 0h1m2 0h1m1 0h1m1 0h7m1 0h1m2 0h1m2 0h1m2 0h1m6 0h1m1 0h1m3 0h1m1 0h2m3 0h3m4 0h1m1 0h1m4 0h5m2 0h2m5 0h1m1 0h3m1 0h2m4 0h1m1 0h1m1 0h2m2 0h3m1 0h2m4 0h1m1 0h1m2 0h1M5 150.5h1m1 0h4m4 0h1m3 0h2m1 0h1m4 0h1m1 0h3m2 0h1m1 0h1m2 0h4m1 0h1m1 0h1m2 0h1m2 0h1m1 0h2m1 0h1m4 0h2m4 0h2m4 0h1m2 0h7m1 0h2m1 0h1m3 0h1m3 0h2m4 0h1m1 0h6m6 0h2m2 0h1m6 0h2m2 0h1m1 0h2m1 0h1m1 0h2m2 0h1m2 0h1m1 0h3m3 0h1m4 0h1m1 0h3m1 0h1M8 151.5h2m2 0h2m1 0h1m2 0h5m3 0h2m4 0h2m2 0h6m3 0h1m2 0h2m1 0h4m2 0h1m3 0h2m1 0h1m2 0h1m1 0h1m3 0h3m1 0h2m7 0h3m1 0h2m1 0h2m5 0h1m2 0h3m3 0h1m1 0h1m2 0h1m3 0h1m2 0h1m2 0h2m2 0h1m1 0h1m1 0h1m4 0h1m1 0h3m2 0h1m1 0h2m6 0h2m2 0h1m1 0h1m2 0h2M4 152.5h1m4 0h2m5 0h5m2 0h1m4 0h2m1 0h3m1 0h1m1 0h2m3 0h2m1 0h1m1 0h1m2 0h3m1 0h2m1 0h6m1 0h1m1 0h1m2 0h1m2 0h1m1 0h1m2 0h2m1 0h1m2 0h4m1 0h2m3 0h1m2 0h1m1 0h1m2 0h4m1 0h1m3 0h1m1 0h3m3 0h2m4 0h1m3 0h1m3 0h3m1 0h2m1 0h1m3 0h3m2 0h3m1 0h4m4 0h4M4 153.5h1m1 0h1m2 0h1m2 0h5m1 0h1m2 0h2m2 0h2m6 0h6m1 0h1m1 0h2m1 0h1m1 0h2m2 0h1m1 0h1m1 0h1m2 0h3m2 0h2m4 0h1m1 0h2m3 0h2m1 0h1m1 0h2m1 0h3m4 0h1m1 0h2m4 0h1m4 0h3m2 0h1m3 0h4m1 0h4m5 0h3m1 0h1m2 0h2m4 0h1m2 0h3m2 0h2m1 0h1m2 0h1m2 0h2m1 0h1m1 0h1M4 154.5h2m1 0h1m2 0h4m1 0h1m5 0h1m1 0h1m2 0h4m3 0h1m3 0h2m3 0h1m2 0h2m4 0h1m1 0h4m1 0h3m2 0h1m2 0h1m3 0h4m1 0h2m1 0h2m1 0h2m2 0h3m4 0h1m1 0h1m1 0h3m3 0h1m2 0h1m2 0h4m3 0h1m1 0h1m2 0h1m1 0h1m1 0h5m1 0h1m1 0h1m1 0h2m1 0h2m7 0h1m1 0h5m2 0h3m3 0h1m2 0h1M4 155.5h1m6 0h1m1 0h2m2 0h2m1 0h1m3 0h1m5 0h7m1 0h2m1 0h2m3 0h1m2 0h6m1 0h1m1 0h1m1 0h4m7 0h3m8 0h2m7 0h1m4 0h5m1 0h1m1 0h1m1 0h7m1 0h2m1 0h5m1 0h1m2 0h2m1 0h1m2 0h1m2 0h5m1 0h1m3 0h1m1 0h7m1 0h1m3 0h1m1 0h4M6 156.5h7m1 0h3m1 0h5m1 0h7m2 0h1m2 0h1m1 0h1m1 0h1m2 0h1m1 0h1m4 0h7m5 0h1m3 0h1m1 0h3m2 0h3m2 0h5m1 0h1m1 0h2m1 0h1m1 0h2m1 0h2m1 0h2m2 0h1m2 0h5m1 0h2m1 0h2m1 0h1m1 0h1m1 0h1m6 0h1m2 0h5m1 0h1m1 0h1m1 0h1m2 0h1m1 0h1m1 0h2m1 0h5m1 0h5m1 0h2M12 157.5h1m4 0h1m1 0h3m2 0h3m3 0h1m1 0h4m3 0h1m1 0h1m1 0h4m4 0h2m3 0h1m1 0h6m1 0h1m1 0h1m1 0h1m1 0h1m3 0h1m2 0h1m3 0h4m1 0h3m3 0h2m2 0h2m1 0h1m1 0h3m3 0h2m7 0h3m2 0h2m1 0h1m1 0h2m1 0h1m3 0h3m1 0h3m1 0h1m1 0h3m2 0h3m1 0h4m3 0h1m2 0h1M4 158.5h7m5 0h3m4 0h2m1 0h1m1 0h1m1 0h2m1 0h1m1 0h1m1 0h2m5 0h1m2 0h1m1 0h1m1 0h2m1 0h1m1 0h1m4 0h1m1 0h1m6 0h2m2 0h2m1 0h2m1 0h1m1 0h4m2 0h1m1 0h2m1 0h1m1 0h2m1 0h1m2 0h4m1 0h1m1 0h1m1 0h3m1 0h1m1 0h4m2 0h1m1 0h5m1 0h1m1 0h1m1 0h1m2 0h1m1 0h7m1 0h3m1 0h1m1 0h4m1 0h1m1 0h2m2 0h1M4 159.5h1m5 0h1m3 0h2m1 0h2m1 0h1m1 0h2m2 0h1m3 0h2m2 0h1m3 0h4m4 0h2m3 0h2m3 0h2m2 0h3m2 0h1m1 0h4m4 0h1m2 0h1m3 0h6m1 0h3m1 0h2m2 0h1m2 0h1m1 0h1m1 0h1m3 0h2m2 0h1m3 0h1m3 0h3m1 0h1m5 0h1m3 0h2m1 0h2m2 0h1m1 0h1m3 0h1m1 0h1m1 0h1m2 0h1m1 0h1m3 0h2M4 160.5h1m1 0h3m1 0h1m1 0h2m4 0h1m1 0h1m3 0h7m2 0h2m2 0h1m1 0h3m2 0h1m4 0h10m1 0h3m5 0h1m2 0h5m2 0h7m2 0h3m3 0h3m1 0h1m1 0h1m1 0h10m1 0h1m4 0h1m2 0h2m2 0h1m2 0h2m1 0h6m5 0h3m2 0h3m3 0h1m1 0h7m3 0h1M4 161.5h1m1 0h3m1 0h1m5 0h1m1 0h3m2 0h3m4 0h3m3 0h5m2 0h1m1 0h2m1 0h2m2 0h1m1 0h1m3 0h2m1 0h1m3 0h1m1 0h1m2 0h1m2 0h1m5 0h1m1 0h1m1 0h1m2 0h1m4 0h1m2 0h1m2 0h4m1 0h4m1 0h1m1 0h3m1 0h2m2 0h1m1 0h2m2 0h2m1 0h2m2 0h3m1 0h2m1 0h1m2 0h7m2 0h2m1 0h4m3 0h1m1 0h3M4 162.5h1m1 0h3m1 0h1m1 0h1m3 0h3m1 0h3m1 0h2m1 0h1m1 0h1m1 0h2m5 0h2m2 0h1m1 0h1m1 0h2m1 0h4m2 0h1m4 0h1m2 0h1m1 0h1m1 0h2m2 0h1m1 0h1m3 0h1m2 0h4m1 0h1m1 0h1m3 0h1m7 0h3m1 0h2m1 0h3m3 0h2m4 0h1m3 0h1m1 0h2m1 0h2m1 0h1m2 0h3m1 0h2m5 0h2m1 0h3m1 0h2m2 0h2m2 0h2m1 0h1m1 0h1M4 163.5h1m5 0h1m2 0h1m1 0h2m1 0h1m1 0h1m4 0h1m14 0h1m1 0h1m2 0h2m2 0h2m2 0h1m2 0h1m2 0h1m7 0h2m2 0h2m2 0h1m1 0h1m1 0h1m1 0h1m1 0h1m3 0h2m3 0h3m3 0h2m1 0h1m2 0h6m2 0h2m2 0h3m5 0h1m2 0h3m3 0h2m2 0h8m3 0h1m1 0h1m1 0h2m1 0h1m3 0h3m1 0h1M4 164.5h7m1 0h2m2 0h4m6 0h1m2 0h1m1 0h2m1 0h1m1 0h1m1 0h2m2 0h3m1 0h1m2 0h2m2 0h1m2 0h1m3 0h1m4 0h5m5 0h2m1 0h1m1 0h4m2 0h1m1 0h1m2 0h3m2 0h1m1 0h3m1 0h5m5 0h3m3 0h1m1 0h3m2 0h2m1 0h1m2 0h4m2 0h7m4 0h1m1 0h2m1 0h1m2 0h9"/></svg>
